/* XPM */
static char *_1423_090a99aad9a11d758c6340b492ee3e8286416bc7f2972691970c0dad0e37a0a5[] = {
/* columns rows colors chars-per-pixel */
"62 73 254 2 ",
"   c #010000",
".  c #080606",
"X  c #1A1410",
"o  c #241B15",
"O  c #2D231B",
"+  c #0D1F30",
"@  c #2A2522",
"#  c #512E1A",
"$  c #1D4011",
"%  c #2A5403",
"&  c #2B5506",
"*  c #2E5905",
"=  c #325A02",
"-  c #325C0B",
";  c #2B5515",
":  c #3A6608",
">  c #386413",
",  c #17443C",
"<  c #29572A",
"1  c #346635",
"2  c #476A0A",
"3  c #516E0A",
"4  c #486C15",
"5  c #436E1B",
"6  c #4B7218",
"7  c #5B4131",
"8  c #72492C",
"9  c #7B4D3A",
"0  c #4A7625",
"q  c #4C732A",
"w  c #08304D",
"e  c #073758",
"r  c #002968",
"t  c #00336A",
"y  c #003975",
"u  c #1A4347",
"i  c #29544E",
"p  c #325774",
"a  c #216069",
"s  c #535251",
"d  c #7C5848",
"f  c #6A5A5A",
"g  c #4C5B70",
"h  c #506F63",
"j  c #963F17",
"k  c #9F420F",
"l  c #994315",
"z  c #9C5B12",
"x  c #8A4626",
"c  c #904C2D",
"v  c #A55835",
"b  c #916F29",
"n  c #BB643C",
"m  c #C4683D",
"M  c #D36930",
"N  c #AF7053",
"B  c #A66D64",
"V  c #CA6C42",
"C  c #D0744C",
"Z  c #55971B",
"A  c #55A808",
"S  c #5DB40B",
"D  c #5EB212",
"F  c #61B80D",
"G  c #61AC19",
"H  c #63B915",
"J  c #65B41B",
"K  c #6ABC1C",
"L  c #56852C",
"P  c #5D912F",
"I  c #5A8534",
"U  c #628121",
"Y  c #618D3D",
"T  c #669938",
"R  c #58B32E",
"E  c #67A82D",
"W  c #6CB927",
"Q  c #70B92B",
"!  c #68A633",
"~  c #69C117",
"^  c #6CC31C",
"/  c #71C71D",
"(  c #73CC1E",
")  c #72D417",
"_  c #76D41D",
"`  c #78D61F",
"'  c #7AD81F",
"]  c #5EC03F",
"[  c #6DC521",
"{  c #6EC924",
"}  c #6CCA2A",
"|  c #71CA25",
" . c #76C927",
".. c #76CB2B",
"X. c #77D420",
"o. c #79D720",
"O. c #7AD821",
"+. c #7AD52A",
"@. c #70CB35",
"#. c #368C59",
"$. c #35946F",
"%. c #3C9B76",
"&. c #4EAC52",
"*. c #57B857",
"=. c #70AE4D",
"-. c #5B9D60",
";. c #4EAF6F",
":. c #6CC74A",
">. c #69C469",
",. c #BF893E",
"<. c #8CAC30",
"1. c #C18A3D",
"2. c #81D32A",
"3. c #81DA2C",
"4. c #81C03B",
"5. c #84D835",
"6. c #8DDB36",
"7. c #85D53C",
"8. c #8CDC3B",
"9. c #90DD37",
"0. c #92DD3C",
"q. c #8DE03E",
"w. c #9B9B57",
"e. c #B58A70",
"r. c #D18A53",
"t. c #F08D52",
"y. c #FEAA5A",
"u. c #DA8E62",
"i. c #D3916A",
"p. c #E39567",
"a. c #EA9C6F",
"s. c #DEA27B",
"d. c #FAAA77",
"f. c #F9AE75",
"g. c #89D944",
"h. c #93DD46",
"j. c #91D453",
"k. c #8FE141",
"l. c #8FE04E",
"z. c #91E143",
"x. c #9AE249",
"c. c #9DE553",
"v. c #A5E55B",
"b. c #98D364",
"n. c #A2E062",
"m. c #ADE869",
"M. c #003C84",
"N. c #003791",
"B. c #0A30A0",
"V. c #004287",
"C. c #004797",
"Z. c #0D5598",
"A. c #295A95",
"S. c #146C9B",
"D. c #3D659B",
"F. c #004BA3",
"G. c #0358A9",
"H. c #1B54A5",
"J. c #0159B4",
"K. c #0466B7",
"L. c #006DBC",
"P. c #0774BA",
"I. c #1375B0",
"U. c #2F71A9",
"Y. c #297ABB",
"T. c #566E93",
"R. c #003EF8",
"E. c #0658CB",
"W. c #006DC3",
"Q. c #0268CA",
"!. c #106EC6",
"~. c #0072C5",
"^. c #0574C9",
"/. c #177AC6",
"(. c #0065D4",
"). c #006CD3",
"_. c #006CDC",
"`. c #0174D5",
"'. c #007BD5",
"]. c #007CDA",
"[. c #2B62D9",
"{. c #0956E8",
"}. c #0048F8",
"|. c #0059F9",
" X c #006CE4",
".X c #0076E6",
"XX c #0266F6",
"oX c #007BF6",
"OX c #B97D88",
"+X c #2F9A8D",
"@X c #3AA98E",
"#X c #148FB6",
"$X c #2193A2",
"%X c #2B8CB0",
"&X c #50B385",
"*X c #5088B3",
"=X c #6E92A1",
"-X c #0081DD",
";X c #0789DA",
":X c #1390D0",
">X c #358CCA",
",X c #24ABC3",
"<X c #0084E5",
"1X c #0086E9",
"2X c #0189EB",
"3X c #0A8AEA",
"4X c #0B90E9",
"5X c #0285F7",
"6X c #018BF3",
"7X c #018DFD",
"8X c #0C91F2",
"9X c #0191FE",
"0X c #0995FB",
"qX c #1195F4",
"wX c #1698F6",
"eX c #159DFD",
"rX c #1A9DFB",
"tX c #3597ED",
"yX c #2897F3",
"uX c #0CA1FF",
"iX c #15A7FF",
"pX c #1EA1FF",
"aX c #22A3FF",
"sX c #2DA3FF",
"dX c #36A5FE",
"fX c #6197C8",
"gX c #43A4FC",
"hX c #4BA8FE",
"jX c #56AAFE",
"kX c #65AEFF",
"lX c #69B1FF",
"zX c #78B8FF",
"xX c #978C84",
"cX c #9FA4A1",
"vX c #AFADAE",
"bX c #B6B7B6",
"nX c #D1A58F",
"mX c #FAAF83",
"MX c #FEB788",
"NX c #E8B593",
"BX c #AED595",
"VX c #A7D09F",
"CX c #FDC28D",
"ZX c #C3C1BE",
"AX c #CBEFA7",
"SX c #8FB1CC",
"DX c #83BAFB",
"FX c #BBC5C5",
"GX c #8AC2FF",
"HX c #C7C6C6",
"JX c #D7D5D1",
"KX c #D7DBE8",
"LX c #DFE8E7",
"PX c #ECEBED",
/* pixels */
"o.o.o.o.O.` o.' o.o.o.o.o.O.` o.o.o.o.o.o.o.` ' ` ' ` o.X.X.X.{ } | | | | | | { | | { { | | | { | { | | | | { | { | | } | | ",
"o.o.o.' o.o.o.o.o.o.O.O.` o.o.o.o.o.o.o.' o.' ' ' ` o.o.X.X.X.X.{ | { { { | | | | | | | | | | | | | | } | | | | { | | { | | ",
"' o.o.o.o.` ' ) ` ` ` _ O.o.O.` o.o.o.o.o.' ` ' ;.%.%.;.%.;.%.%.%.%.%.%.%.%.{ { { { { | } | | { | | | | [ | { { { { | | | | ",
"o.o.o.o.` ` o._ ` o.` ` _ o.o.o.o.o.o.` ` } ] *.E._._.).).).)..X.X.X.X X.X_.*.*.] X.{ ..| | | | | | { [ | | |  .| { | | { | ",
"o.o.o.' ` o.+.q.3.3.O.o.` ' o.O.' o.X.{ 2.;.P.Q.~.~.~.^.~.~.^.'.-X<X-X<X.X<X5X9X@X@.} +.| | | { | {  ...+.+.+... .| { { | { ",
"o.o.` ` X.c.x.k.k.k.q.3.O._ O._ ' ..%.I.P.W.W.~.].].'.'.-X-X-X<X1X1X1X1X2X2X1X5X5X;X$X$X*.| } { { ^ @.c.h.0.6.6.5...{ { | | ",
"o.o._ O.c.m.x.q.k.k.z.k.3.) ] *.%.I.P.^.).`.'.'.'.-X-X<X<X<X<X2X3X8X8X8X8X8X8X8X0X6X4X4X:X+X;.*.{ @.x.v.6.6.6.6.6.6...{ { | ",
"' o.) 3.m.v.k.q.k.k.h.:.:.&.+X$XP.).'.'.^.'.'.-X].1X<X1X1X2X4X8XqXpXrXrXrXwXeXrXpXpX0XqX0XqX,X#X&.>.b.x.6.6.6.0.6.0.5...[ | ",
"o.o.) 2.m.z.q.k.k.k.>.@X+X$XE.Q.~.^.'.-X-X'.-X<X1X2X6X3X2X8XeXrXpXaXaXpXpXaXpXaXaXaXpXpXrXeXeX7X,X%X&Xg.7.6.6.6.6.0.7...{ { ",
"o.o._ X.7.z.z.z.z.g.I.W.E.L.L.^.'.'.'.<X-X<X1X2X1X2X8XrXrXrXaXrXpXpXpXpXpXyXpXpXaXpXpXpXaXaXrXrXeX5X:X&X;.g.6.6.6.0.7...{ { ",
"o.o._ ^ [ 5.h.h.>.I.~.W.L.L.'.].'.'.-X2X2X2X2X2X1XqXpXaXaXyXpXiXeXiXiXeXeXiXrXpXpXaXpXpXaXpXaXpXpXrX8X.X3X;.g.g.8.2.W [ { | ",
"o.o.| K J [ 5.;.I.W.L.K.~.^.-X'.'.-X2X2X2X2X2X2X1XwXaXaXrXiXaXdXgXgXgXgXgXgXiXpXrXpXpXpXpXrXpXrXpXpXrXwXwX4X&Xg.+.K H ^ ..{ ",
"o.o.( ^ J W $.I.Q.L.~.~.^.-X'.'.-X1X2X2X2X2X2X1X4XaXaXpXpXpXgXlXzXlXzXzXlXkXdXrXpXpXrXyXpXpXyXpXpXrXpXpXpX0X:X;.H A F ^ ..| ",
"o.o.( ^ J -.I.Q.L.~.'.-X-X'.'.-X2X2X2X2X2X2X1X2XaXaXpXpXrXsXkXDXGXGXGXGXzXjXkXsXpXdXdXyXsXsXsXsXdXaXpXaXpXpX0X:X&.A H { { { ",
"o.o.( / K K.W.L.L.'.-X'.'.].-X2X2X2X2X2X2X2X2X2XpXpXpXrXpXsXjXDXDXGXGXGXzXjXjXdXhXkXhXjXjXjXhXjXlXgXrXpXpXpXrX0X.XA ~ { | { ",
"o.o.o.( *.W.W.L.~.'.'.].'.'.2X2X2X1X2X2X2X1X3XrXpXpXpXpXpXsXkXzXzXzXzXGXzXjXkXkXhXyX3X3X3X3X3X3XhXjXdXaXsXpXaXiX4XH { } | | ",
"o.o.*.U.#XL.L.W.~.-X'.'.'.-X2X2X2X2X2X2X2X<X3XpXrXaXrXpXpXsXjXkXlXlXlXlXkXjXkXhXyX1X1X1X1X1X1X1X3XyXyXgXdXaXaXpX8X%X:.{ { { ",
"' o.%..X(.L.L.W.'.-X'.'.-X<X2X2X2X2X2X2X<X2X4XpXaXaXaXrXrXaXdXhXjXhXjXjXjXkXhXyX<X1X2X2X2X2X1X2X1X1X3XyXyXpXpXaXiX9X*.| { { ",
"o.o.;._.Q.L.W.^.'.'.'.'.-X2X2X2X2X2X2X2X2X1X2XpXaXrXrXaXaXrXaXsXdXdXjXjXkXjXyX1X1X2X2X1X2X2X2X2X2X2X1X1X1X8XpXaXpX9X*.| | | ",
"o.o.%._.Q.L.~.'.-X'.'.'.-X2X2X2X2X2X2X2X2X2X3XpXaXrXaXpXrXaXrXpXpXqXhXkXgXyX1X2X2X2X2X2X2X2X2X2X2X2X2X1X2X4XwXaXpX9X>.| { { ",
"o.X.;._.Q.L.W.'.].'.'.^.-X2X2X2X2X2X2X2X2X1X3XaXaXpXpXaXpXaXpXpXrXeXjXlXgX<X1X1X1X1X2X1X2X2X2X2X2X1X2X1X2X3XrXaXaX7X*.2.| { ",
"o.X.%.XX X_._..X5X.X'.'.-X2X2X2X2X2X1X2X2X1X2X8XrXaXaXrXpXpXpXpXpXiXjXlXgX<X<X8XqX8X2X3X<X2X2X2X2X2X2X2X2X6XpXaXpX7X>. .| | ",
"o.o.*.$X$X*X%XU.U.`.].'.-X2X1X2X2X2X1X2X2X2X2X2XaXaXaXaXaXaXpXpXpXeXjXlXgX<X<XpXaXpXrXqX8X1X1X2X1X1X2X1X2X2XrXaXpX7X>.+.{ | ",
"o.X.) 3.m.c.<.z x I.].].<X6X6X2X6X2X6X2X6X2X6X2XpXiXpXpXiXpXpXyXpXiXjXlXgX1X2XpXaXpXaXaXwX3X1X2X2X2X1X2X2X3XrXaXpX7X>.+.{ | ",
"o.o.) 3.m.x.<.z x !.]..X1X7X6X7X6X7X6X7X6X6X7X6X6X7X6X6X6X6X6XwXpXiXjXlXgX1X2XpXaXpXpXpXpXaXaXpXaX8X<X2X<X4XpXaXpX9X>.+.| | ",
"o.o._ X.8.z.Q b x N N N C N N + + 8 N 9 9 9 9 9 9 9 9 c x g :XeXpXrXjXlXdX<X<X3XeXyXaXpXpXaXaXaXaX8X<X2X2X2XpXaXpX9X>...[ | ",
"o.o._ / { 7.<.b l C C t.t.M # . X l M k k l l l l k l k k l T.tXiXpXsXsXdXdX3X<X3XqXeXwXrXpXpXpXqX3X<X2X2XwXaXpX0X7X*.{ } | ",
"o.o.( K J [ <.b c u.d.f.r.7   . 8 N C v v v v v v v v v v k d %XiXaXeXeXsXhXyX3X1X<X2X2X8XqXqXqX2X<X<X3X3XpXaXwX8X5X&.K | | ",
"o.o._ K G K <.b v p.mXMXe.O 7 9 i.MXC V V V V V C V V n n l f fXiXpXpXpXpXpXhXyX3X<X3X<X1X1X<X<X<X<X<X4X4XpXaXpX8X5X&.^ | | ",
"o.o.( ^ J G <.1.C mXB c e.PXCXMXMXf.u.V n V V V m V V n n l f >XiXpXaXpXpXpXpXgXdXyXyXyXyXtXyX;X^.;XwXsXaXaXaXqX<X+XR [  .| ",
"o.o._ ^ K J <.1.C mX#   s bXCXCXMXmXp.C V C C C C V n n n x f %XiXpXpXaXpXpXiXsXdXgXgXdXgXhXdX4X;XqXaXaXaXpXqX0X5XR K { | | ",
"o.o.X./ / K <.r.C mXo . . s MXf.MXMXa.u.u.u.u.u.p.C n n n l f >XiXaXpXpXaXpXpXpXsXsXsXsXsXdXsXrXwXpXaXaXaXwX9X;X$.S [ | | { ",
"o.o.o._ / / <.,.C MXO   . X CXMXMXmXd.p.p.p.p.a.a.C m N m j f >XiXpXpXpXaXpXaXrXpXrXpXiXrXrXpXpXpXaXpXeXrX6X1X+XS ~ { | | | ",
"o.o.o.o._ ( <.,.V MXO     o CXMXMXmXa.p.u.p.p.p.p.C n n n j f %XuXaXaXpXpXpXaXaXpXpXpXpXpXpXaXpXaXpXwX<X2X9X+X} ~ { | | | | ",
"` o.` ` ` ` <.e.B MXO     X y.MXMXmXa.p.p.p.u.C C v x c c l f Y.uXaXaXpXaXaXrXaXaXaXaXpXpXaXaXaXsX8X2X2X2X9X%.{ { { { { { } ",
"X.X.X.X.o.5.g.B OXCXo     . y.MXMXmXa.p.u.p.u.V M c x x x l f Y.9X3XpXaXaXaXaXaXaXaXaXaXaXpX8X3X8X2X6X9X9X;.@.} | X.{ | | | ",
"| | | | X.g.j.w.OXd.v 8 8 b y.mXMXMXa.p.p.a.t.V C c x x x k f Y.7X1X8X8XqXqXqXqXqXqXqXqXwX4X2X2X6X9X:X@X@XO.O.X.X.X.X.X.X.o.",
"| | | | X.:.b.cXvXB y.y.y.y.t.d.MXmXd.p.p.a.u.m M v x l l x g /.6X2X1X1X1X1X<X1X1X1X<X<X<X2X6X2X,X:X@XO.' ' ' O.o.o.' ' o.o.",
"| | | | } } l.n.KXP.e.e.i.i.r.i.nXnXnXB e.e.e.B B c 9 9 9 g /.6X2X2X2X2X2X2X2X2X1X2X2X2X2X2X6X4X} @.@.o.' ' ' O.o.o.o.o.o.o.",
"| | | | } } } m.VXI.!.^.!.!.^.!.!.!.!.!.!.!.!.!.^.^.^.~.^.'.1X6X2X2X2X2X2X-X<X<X5X5X5X5X6X,X] :.X.o.X.X.) ' ' ) ` ' o.o.o.o.",
"{ | | { { | ..n.VX:X_. X_.'.`.].`.`.'.`.'.`.].]..X<X1X2X1X5X.X1X1X1X1X2X].~.~.^.#X#X#X,X#X;.O.O.` ` o.O.6.3.3.5.o.` ` o.o.o.",
"| | | | ..h.h.v.BX+X#X#X#XW.W.L.L.W.~.W.W.W.W./.I./././././.>XY.Y.Y.W.).W.K.K.G.fXl.+.+.7.g.q.' ` ) q.c.z.q.q.8.q.+.o.' o.o.",
"{ { ^ | h.v.x.x.n.-.*.*.$.J.G.G.G.G.G.G.G.G.H.p p p p p p g xXxXxXxXD.A.A.J.J.Z.fXz.l.k.o.' o.o.) 3.c.m.k.k.k.z.k.q.O.o.` o.",
"| | ^ ..n.x.0.9.0.v.h.0.-.E.J.J.J.K.A.g g g p O o @ o o o 7 i.f.d.d.e.e.T.J.G.G.G.S.] +.O.' o.o.) z.v.c.k.k.k.k.q.z.5.O.` o.",
"| | / ..v.0.9.9.6.0.6.0.-.E.!.P.U.g i @ o @ @   .       . . x t.MXMXmXf.s.=X!.Q.K.S.#.j.O.` o.o.) h.n.z.k.k.k.k.k.k.8.+._ ' ",
"| | ^ ^ 0.0.0.9.6.6.9.0.VXDXfXA.w @ X . . .         + N.y t y T.s.d.f.mXd.a.T.!.E.G.#.b.3._ o.' ) +.g.z.k.k.k.k.k.k.5.X.` ' ",
"| | ~ F [ 6.h.h.0.h.q.j.BXPXPXh o               w w C..X.XQ.K.*XnXNXNXNXNXNXnX=XY.*Xb.b.5.' o.o.( ^  .8.h.z.h.z.k.5..._ ' ` ",
"| | K S G [ 4.7.7.7.5.j.VXJXPXHXs .         + + _..X X X X_./.SXHXFXFXHXHXHXZXbXHXHXAX=.X.O.o.o./ K J | g.g.g.g.+.W K _ o.` ",
"| | ~ S A S D D D D G Q &XtXPXPXHXs .     e (.oX X X_._._._.(.Y.SXKXPXKXLXLXZXZXZXZXBXW X.O.O.` / K G J J J H G J G K ( O.o.",
"} { ~ S A A A A A A A Q b.VXH.PXJXs   V.N.J..X X_._._._._._.).Q.Y.cXZXZXHXLXJXZXbXbXBXW ) O.` O./ K J G G G G G G G / ` O.` ",
"| | ^ S S S A A A A A W =.D.H.LXJXs w L.~.`._._._._._._._. X(.J.C.A.SXvXZXPXLXZXvXvXBX+.O.O.O.` | / K J G G G G J J ( o.' o.",
"| { { H S S S S A S A ( #.B.DXPXFXT.C.~.~.`.)._._._._._._._.E.G.N.B.cXbXbXJXHXbXvXbXAX+.X.O.` O.( / K / K K K K K / _ o.o.o.",
"{ | | [ H S F S F F F 2.-.H.KXKXSX>XQ.L.L.W._. X_._._._._. XQ.G.C.N.SXbXvXbXvXvXcXbXAX+.O.` O.` ' ( / ^ / / / / ( ( o.' o.o.",
"| | | { { ~ F F F K  .z.=XE.[.fX>XL.W.L.L.W._._._._._._._._.).J.C.C.*XfXSXvXvXbXvXvXAX+.` O.` O.o.' ( ( ^ ^ ^ ( _ o.o.o.o.o.",
"| | | | { { {  .:.:X:X:X:X;X`.K.G.J.J.W.L.W.`.~.).).W.).).).~.W.G.C.G.J.U.=X=X=XFXn.l.+.O.` ` ` o.o.o.' ' ' ' ` o.o.o.o.o.' ",
"| | | | { { { ] @X1XoXoXoXoX.XC.C.F.F.F.G.G.E.!.`.).).).`.Q.W.K.G.C.F.F.C.H.H.H.$.BXl.c.` ` ` ' o.o.' ' _ _ _ _ ` _ o.o.o.o.",
"| | | | { .. .*.,X<XXX{.|.|.XXJ.Z.H.D.D.D.D.D.U.S.I.U.S.S.I.P.L.G.C.C.C.C.C.C.V.e i VX=.j.k.' ' ' ' O.O.+.O.+.O.o.o.` ` ' o.",
"| | { [  .4.0.>.,X6X{.}.}.}.|..X%X=Xu.nXnXnXNXnX1 1 1 q 1 a #X<XP.C.V.V.V.V.V.y r w i i cXm.} O.' ' +.z.x.z.z.q.5.+.` ` ` ` ",
"{ | {  .g.v.h.>.:X9X|.}.}.}.|.6X>Xe.y.f.MXMXCXCX2 5 q 3 3 1 #X3X-XZ.y y V.y y y r e i i I ! T O.) O.c.m.z.z.k.k.0.q.O.' ` o.",
"| | K  .v.c.7.j.-.q ^.'.].oX|.|.|.[.[.tX>X>X>X>X; 2 0 6 0 1 Z.F.y y y y y y y t e w , , 0 T T X.) k.v.c.q.q.k.k.z.q.5.O.` o.",
"{ | [ ..m.0.<.T U 3 #X;X2X6X}.R.}.XXoX9X7X].J.J.; : 5 6 4 1 M.B.r r r t r r r r r r , w ; L Y  .) z.v.z.k.k.k.k.k.z.8.+._ ' ",
"| | ^ { h.0.=.T 6 5 a S.S.#XXXXX.X<X;X2X2XW.N.N.- = > > 4 1 i e u u u u u u , u , , < < - 4 L E _ 7.h.k.k.k.k.z.z.k.7.X.` ' ",
"| | ^ H  .6.=.Y 0 > 3 3 2 > 0X4X;XP.G.K.L.Z.y r * = = - - 2 6 3 6 6 6 3 6 6 : : : : : : : > L ! | ^ @.g.x.k.k.k.k.8. .X.' ' ",
"| { ~ S J ..T I > - = - = ; ^.-XK.G.M.V.N.y e w * * & & * - - - - > - - - - = % * > > > > 0 I Q ( K K ..g.g.g.g.7.[ ^ _ ' ` ",
"} { ~ S A D Z P 0 > % % % $ e u t e e e e u ; & * * % % % % % % % % % % % % % % % - > > 0 q ! +.{ J J J W K W K W J K _ ' o.",
"| | ~ S A A A Z P 6 - * * * $ $ ; ; ; < < > > : * * * % % % % % % % % % % $ % % * > 0 0 P T Q o./ K J G G G G G G G K _ ' o.",
"| | ^ S S A A A Z L 5 0 0 5 : : 4 : : : : : > - * * * * % % % % % % * - % * * > > I I P T W { o.( / K J G G G G J J / ` o.o.",
"{ | [ H S D S A A S L I L L 5 0 L L > > - > > - - * * * * * % % * & > 6 > 6 5 0 I P T T  .o.o.o.( / ^ ^ K K J J K ^ ` o.o.o.",
"{ | { ^ S S S S S F S H {  .q Y I I I 0 0 0 L 0 0 5 5 5 > 0 > 0 6 6 q q q I q T E / | _ ` o.o.o.o.( / / ^ / K / / ( o.o.' ' ",
"| | | | { ~ F F S H ~ { | @.Q W Q Q ! Y Y Y Y Y Y Y P I P P L L q Y Q  .@.Q Q Q { X.o.o.o.o.` o.o._ ( / / ^ / ( ( ` o.o.` ' ",
"{ } { { { { ^ ^ ^ [ | | } | | | } } W ! ! E E E E ! E ! ! E E E E E o.' 2._ _ X.X.o.o.' ' ` ' ' ' ' ' _ _ ( ( ` ` ' ` ` ' ' ",
"| | | | | } | X.|  .| { | | | | | | } | } ....| | X.| { { } X.X.o.X.X.X.o.o.' ` X.X.X.X.o.X.o.X.X.X.X.o.o.` ' ' o.X.o.o.` ` ",
"` o.X.X.` X.X.X._ X.X.X.X.X.X.X.X.X.X.X.X.X.o.X.X.X.o.X.X.o.X.| | | | | | | X.| | | | | | | | |  .| | | | | | ( | | | | | | "
};
