/* XPM */
static char *_3593_da2dde6a3b97da40e98771d78605acdc56f61baf4121b65de39fad511ad05cdf[] = {
/* columns rows colors chars-per-pixel */
"62 73 251 2 ",
"   c #000001",
".  c #08090B",
"X  c #100F0D",
"o  c #261D15",
"O  c #001937",
"+  c #00233D",
"@  c #353637",
"#  c #185A0B",
"$  c #325D09",
"%  c #2C6903",
"&  c #38640B",
"*  c #386512",
"=  c #396513",
"-  c #174A30",
";  c #255823",
":  c #2A642A",
">  c #39692C",
",  c #436803",
"<  c #536E05",
"1  c #456B1A",
"2  c #456D1B",
"3  c #4A741A",
"4  c #4A6D25",
"5  c #4B7624",
"6  c #54752D",
"7  c #012C51",
"8  c #013B71",
"9  c #1B4D4B",
"0  c #295E4C",
"q  c #306D52",
"w  c #0F4C6F",
"e  c #365371",
"r  c #1C6C68",
"t  c #337075",
"y  c #635B52",
"u  c #576356",
"i  c #525D69",
"p  c #726D70",
"a  c #9D7563",
"s  c #3C953A",
"d  c #53801C",
"f  c #53A607",
"g  c #56AA09",
"h  c #5DB30B",
"j  c #5CAB16",
"k  c #5EB312",
"l  c #60B70D",
"z  c #61B80D",
"x  c #61AC19",
"c  c #64B915",
"v  c #65B41B",
"b  c #6ABC1C",
"n  c #568735",
"m  c #5C8636",
"M  c #60912D",
"N  c #638C39",
"B  c #659737",
"V  c #53A932",
"C  c #6BB925",
"Z  c #71BD2A",
"A  c #6BAB34",
"S  c #75B736",
"D  c #69C117",
"F  c #6CC31C",
"G  c #70C61D",
"H  c #73CC1E",
"J  c #72D517",
"K  c #76D41D",
"L  c #78D61F",
"P  c #7AD81F",
"I  c #6DC522",
"U  c #6EC924",
"Y  c #6CC72C",
"T  c #71CA25",
"R  c #75C929",
"E  c #75CC2B",
"W  c #77D420",
"Q  c #79D720",
"!  c #7AD822",
"~  c #7CD32C",
"^  c #7DD82A",
"/  c #72CB34",
"(  c #7BCC36",
")  c #358F6E",
"_  c #3CA478",
"`  c #4D964A",
"'  c #668D43",
"]  c #71944D",
"[  c #5BB847",
"{  c #58B755",
"}  c #77AA49",
"|  c #79B947",
" . c #509776",
".. c #4CAF6D",
"X. c #66C644",
"o. c #72C956",
"O. c #62C373",
"+. c #A48734",
"@. c #82D82B",
"#. c #82DA2C",
"$. c #81CF3F",
"%. c #83D434",
"&. c #85DA34",
"*. c #8DDB36",
"=. c #85D53C",
"-. c #88D93B",
";. c #8DDC3A",
":. c #90DD37",
">. c #91DD3B",
",. c #8DE03E",
"<. c #86BB51",
"1. c #999A60",
"2. c #EF965D",
"3. c #FAA75A",
"4. c #CD9573",
"5. c #D4B273",
"6. c #FBAD69",
"7. c #FBAA77",
"8. c #89C84D",
"9. c #8AD745",
"0. c #94DC47",
"q. c #8CC655",
"w. c #95D857",
"e. c #A3DF5A",
"r. c #8FE141",
"t. c #91E243",
"y. c #98E24B",
"u. c #9DE455",
"i. c #A5E55C",
"p. c #92D268",
"a. c #A3D973",
"s. c #AEE66E",
"d. c #003E92",
"f. c #003FAC",
"g. c #014689",
"h. c #11588E",
"j. c #004597",
"k. c #2D558B",
"l. c #157495",
"z. c #396892",
"x. c #0047A4",
"c. c #0155A6",
"v. c #0059A6",
"b. c #015DAC",
"n. c #054EB1",
"m. c #025CB4",
"M. c #1074AE",
"N. c #1578A8",
"B. c #0167B6",
"V. c #006CBD",
"C. c #0876B8",
"Z. c #2E6DAA",
"A. c #4D6C92",
"S. c #6E7591",
"D. c #4479B2",
"F. c #6B6DB9",
"G. c #004DD1",
"H. c #006BC8",
"J. c #0072C5",
"K. c #0174CC",
"L. c #0778CC",
"P. c #1770CD",
"I. c #0167D6",
"U. c #016BDD",
"Y. c #0374D6",
"T. c #007CD5",
"R. c #007DD9",
"E. c #3177CB",
"W. c #0048FB",
"Q. c #0053FE",
"!. c #006DE4",
"~. c #0068E9",
"^. c #0178E8",
"/. c #1D7FE4",
"(. c #006AFC",
"). c #0076F9",
"_. c #6A6EC0",
"`. c #278E8E",
"'. c #3FAC8B",
"]. c #3AA893",
"[. c #1785AE",
"{. c #2897AC",
"}. c #2B91B5",
"|. c #44B58F",
" X c #5280B0",
".X c #5EA2A1",
"XX c #60C185",
"oX c #0A84D5",
"OX c #0180DD",
"+X c #138BD0",
"@X c #2D85DD",
"#X c #28A3CF",
"$X c #0084E4",
"%X c #0087E9",
"&X c #0189EB",
"*X c #0A8BEA",
"=X c #138EEE",
"-X c #048AF4",
";X c #008CFF",
":X c #0992F4",
">X c #1597F5",
",X c #159CFB",
"<X c #1A9DFB",
"1X c #318BE4",
"2X c #269BF7",
"3X c #1FA5EA",
"4X c #1FA1FF",
"5X c #18A6FD",
"6X c #30A1E5",
"7X c #22A3FF",
"8X c #2CA3FF",
"9X c #27ACFF",
"0X c #36A5FF",
"qX c #6EB4CD",
"wX c #4899E9",
"eX c #44A7FF",
"rX c #48AAFF",
"tX c #53A7F9",
"yX c #51AEF9",
"uX c #53AAFF",
"iX c #5DACFF",
"pX c #70B0EC",
"aX c #63ADFF",
"sX c #6AAEFF",
"dX c #6BB4FF",
"fX c #78B8FF",
"gX c #898A8A",
"hX c #928E91",
"jX c #AB998D",
"kX c #8DA792",
"lX c #B0B3AF",
"zX c #D4A38D",
"xX c #FAB287",
"cX c #C6BBB5",
"vX c #B1CE95",
"bX c #B3E187",
"nX c #BDC3B7",
"mX c #E2D898",
"MX c #C9D2B9",
"NX c #F7D2A5",
"BX c #C6E3A8",
"VX c #BDBCC0",
"CX c #83BFFF",
"ZX c #C4BEC9",
"AX c #87C2FF",
"SX c #90C9FF",
"DX c #A2D2E1",
"FX c #CCCBCC",
"GX c #D8D8D9",
"HX c #E4E0D2",
"JX c #E3E3E3",
/* pixels */
"Q Q P Q Q P W Q P Q Q Q Q P W Q Q Q P Q Q Q P Q Q Q Q Q Q P W T T T U T T U T T T U T T T T U U U T T T T T U U T T T T T T ",
"Q Q Q Q Q Q Q Q Q Q Q Q Q Q Q Q Q Q Q Q Q Q ! P ! Q Q Q Q W W R T T T T T T U T T T T T T T Y T U T T T T U T T U T T T T T ",
"P Q Q P P P P P K P K Q Q P P Q Q Q Q ! Q Q Q P P ..].'.'.|.|.].|.].].]...H T U T U U U T T T T T T T U U U U U U U T U T T ",
"Q Q Q Q K K P J Q Q P K K Q Q Q Q Q Q ! J ! W { X.+X;X;X;X;X;X;X;X;X;X;X+XO.{ Y T U U T T T T T T T U U T T U T T U T T T T ",
"Q Q L L L ! #.,.^ ^ ^ ! P P W Q P P J ! @.@.O.^.^.%X&X&X&X&X&X&X&X&X&X&X-X;X:X../ / T U T T T T T U U E ~ ~ ~ ~ T U U U T T ",
"Q L P L L u.y.,.r.,.,.^ W P Q P P P J ^ |.+XT.R.R.&X&X&X&X&X&X&X&X&X%X%X-X&X&X-XoX].X.T U T U U U I ( y.0.-.*.*.&.~ U U T T ",
"Q Q J ^ u.i.y.,.r.r.r.r.^ W K Q J T _  XL.$XOXOX&X&X&X&X&X&X$X%X%X%X%X%X%X%X&X;X-X*X#X'...{ O.X.U ~ u.i.*.*.,.:.:.*.E T U Y ",
"Q Q J #.s.i.r.,.r.r.r.t.r.^ Q Y { ].[.^.^.T.OX%X&X&X&X&X%X&X*X:X*X:X*X:X*X%X%X%X%X&X;X*X+X{.#X{.'.O.p.w.*.*.*.*.*.:.( R U T ",
"Q Q J @.s.t.,.r.r.r.r.r.9./ V _ C.^.R.T.T.OX%X&X&X&X&X&X*X:X,X<X<X<X<X4X>X&X*X-X*X&X&X&X-X;X;X;X5X6X|.O.t.:.,.r.*.:.=.E I U ",
"Q P K W &.t.r.r.r.r.r.r.o.[.H.R.R.L.R.T.OX%X&X&X&X&X&X:X<X<X<X4X4X4X4X4X4X<X,X<X>X:X%X%X%X%X&X%X&X,X4X4X#Xo.,.t.:.>.=.E U U ",
"Q Q H F I %.0.y.t.t.t...N.H.R.R.OXT.OXT.OX%X&X&X&X$X:X2X7X7X4X7X4X4X4X4X2X<X5X,X,X,X,X-X%X%X&X%X%X<X9X5X3X3X5X|.;.@.Z I T U ",
"P Q H b C I ~ ( ( =...l.B.J.OXR.T.T.T.OX%X%X&X&X%X=X<X7X7X4X7X<X7X4X4X4X5X<XeXeX0XeXeX2X,X:X&X&X%X*X8XyXrXyX0X.X( b l F T U ",
"Q Q H b x v C { |...+XoXT.J.R.T.T.T.T.OX&X&X&X%X=X4X7X4X4X7X<X7X4X4X4X5X2XeXsXfXfXfXfXiX0X>X&X&X&X&X=XtXsXaXaXqX..g k F E T ",
"Q Q H F v V ..#X5X5X9X9X<XOXT.T.T.T.OX$X%X&X%X%X4X7X4X4X4X4X7X4X4X4X4X,X0XsXaXAXAXCXCXCXuX<X*X%X&X%X&X=XaXaXaXyX<Xf z U T T ",
"P ! H F C #X<X7X<X<X4X4X7X<XT.T.T.R.%X&X&X&X%X&X4X7X4X4X4X4X<X7X4X4X4X,X8XaXaXfXCXCXCXfXeX7X4X%X%X%X&X2XsXaXsXyX6Xj D U T T ",
"Q Q W X.3X<X5X<X7X8X8X8X8X2XR.T.T.R.$X&X&X%X*X4X4X4X4X4X7X4X7X4X4X7X4X5X8XsXaXfXCXCXCXfXeX7X,X&X&X%X&X=XuXiXaXyX8X^.{ T T T ",
"P Q ! X.5X5X9X0XrXuXuXuXuXeX>XR.L.R.$X&X&X&X*X<X4X4X4X7X<X7X<X7X4X4X4X,X8XsXiXfXCXfXfXfXeX7X<X*X%X&X%X*X2XaXiX0X<X-X{ R T T ",
"Q Q X.|.5X0XeXuXaXaXaXaXaXiX<XR.T.$X&X&X&X$X*X7X4X7X4X4X7X4X7X4X7X4X4X5X8XiXaXdXdXdXdXsXeX7X5X,X*X&X$X&X=XiXtX7X:X^.{ H T T ",
"Q Q |.5X8XuXaXaXiXiXiXiXaXuX,XR.T.$X&X&X%X%X-X4X4X4X7X4X<X4X4X4X<X7X4X<X8XeXiXiXuXiXiXeX8X<X4X7X%X%X&X%X>XtXeX>X^.!.{ R T T ",
"Q Q |.9XuXaXiXiXiXiXiXaXaXuX,XR.T.$X&X&X%X&X*X4X4X4X4X4X7X7X4X4X7X4X4X4X4X<X0X0X0X0X0X8X<X7X7X7X*X&X&X%X*X2X4X=XOX^.{ R T T ",
"! ! XXyXaXiXiXiXiXiXiXiXaXuX<XR.Y.$X&X&X&X%X&X7X4X4X7X4X4X7X4X4X<X7X<X7X<X4X7X4X<X4X4X4X4X4X4X7X*X%X&X&X&X%X*XR.R.^.[ T T T ",
"P ! XXrXuXaXiXiXiXiXiXiXaXuX,XT.T.$X&X&X&X&X*X4X4X4X4X4X4X4X4X4X7X4X7X4X4X4X<X4X<X2X5X4X4X4X7X9X-X%X&X&X%X$XR.R.^.).{ T T T ",
"P Q |.5X0XuXaXaXaXaXaXaXaXiX,XR.T.$X&X&X&X&X*X4X4X4X4X4X4X4X7X4X<X7X4X4X4X4X4X4X4X4X2X4X4X7X2X,X&X$X&X&X$XR.L.T.T.}.[ T U T ",
"Q Q _ ;X4X0XuXaXuXiXiXiXiXuX,XR.T.$X&X&X&X&X*X4X7X4X4X4X7X4X4X4X7X4X4X4X4X4X7X4X4X4X4X4X4X7X<X&X&X&X&X&X$XK.J.T.+X:.%.T U T ",
"Q Q _ ;X*X4X4X<X4X,X5X<X5X4X,XR.Y.$X%X%X&X&X%X%X4X7X4X7X4X4X7X4X4X7X4X7X<X7X4X4X4X4X7X4X4X7X5X&X&X%X&X&X%XK.K.Y./.-.=.E U T ",
"Q Q R ..^.*X5X7X4X4X4X4X4X4X<XoXT.R.%X&X&X%X%X%X4X7X7X4X4X4X4X4X7X<X7X<X7X4X4X4X4X4X4X4X7X,X*X&X&X&X&X%XR.K.T.{.o.:.=.E F U ",
"Q Q H [ $X^.&XoXoX<X5X<X4X4X>XR.T.R.OX&X&X&X&X%X:X<X7X4X4X4X4X4X4X4X4X7X<X7X4X7X7X4X4X7X7X>X%X%X&X&X&X$XR.T.{.o.:.&.R U U T ",
"Q Q K A `.+XT.K.T.*X=X=X=X=XoXoXT.R.$X%X&X&X&X&X$X:X<X4X7X4X4X4X7X4X4X4X7X4X7X<X4X4X4X4X<X=X&X%X&X&X%XOXR.^...=.%.G c b T T ",
"Q P K b v _ {.oX^.T.T.K.T.K.B.T.R.T.OX%X%X&X&X&X%X%X:X<X4X4X4X4X4X4X4X4X4X4X4X4X4X4X4X,X:X%X%X&X&X%XR.T.R.Y. .D F g k F T T ",
"Q Q H F v j x ) oXT.R.OXT.J.V.OXOXT.T.OX%X&X&X&X%X%X&X*X>X<X4X4X7X7X7X4X7X7X7X7X4X,X>X:X%X%X&X&X&XR.T.T.K.l.s f f f k G E U ",
"Q Q K F b v v ` [.K.K.L.J.V.V.L.T.R.T.OX%X&X&X&X&X&X%X&X%X:X>X>X>X,X,X>X>X,X>X,X>X:X&X&X%X&X%X&X%XR.T.T.Y.s f f f g D U E T ",
"Q P K G F b b C ) J.J.J.V.V.V.J.L.OXT.R.OX%X&X&X&X&X&X%X%X&X&X*X*X&X&X-X&X*X&X*X*X&X%X%X&X&X%X%XR.R.Y.J.l.j g h h h U U U U ",
"Q Q Q H G G G G I `.B.J.V.V.V.V.K.OXT.T.T.OX%X$X&X&X&X&X&X&X%X%X%X%X&X%X%X%X%X%X%X%X&X&X%X%X$XOXT.R.T.N.V k k z z F U T T T ",
"Q Q Q Q H G G G D G [.J.V.V.V.V.J.L.R.R.T.T.OXR.&X&X&X&X&X&X&X&X&X&X&X&X&X&X&X&X&X%X&X-X%XOXR.T.R.R.J.) h h z c F U T T T T ",
"P P Q P P P K K K P M.K.V.V.V.V.V.L.OXR.oXR.T.T.OXOX$X&X&X%X&X&X&X%X&X&X&X&X&X&X&X&X$XR.R.oXT.T.T.Y.M._ G U U U U U U T Y T ",
"W W W K W Q P P K K / N.!.C.V.V.V.J.L.R.R.T.OXT.T.R.OXOX$X&X&X&X&X-X&X&X&X-X&X&XOXOXR.T.T.T.R.OXK.Y.`.I T U U U U T T T W T ",
"T T T W T T T T T T T { N.Y.H.H.V.V.J.T.R.R.R.T.T.T.T.T.R.OX$XOXOXOXOXOX$XOXOXOXR.L.R.T.R.R.T.K.Y.`.[ Q W W W W W W W ! W W ",
"T I I T I U T T I T T T [ M.B.V.V.V.B.J.T.R.R.T.OXT.T.T.T.L.T.T.T.T.T.T.T.T.T.OXT.T.R.R.R.T.K.H.N.[ P ! P P P P Q Q Q ! Q Q ",
"T T T T U U U U T U T T T Y C.+XV.H.V.V.J.L.R.R.T.T.T.T.T.OXR.T.R.R.T.T.oXT.T.T.R.R.R.R.Y.L.[.M.T ! ^ L Q Q Q P Q Q Q J Q Q ",
"T T T T U U U U U I U U T @.! i.qXl.C.J.J.J.L.L.OXOXR.R.R.T.R.R.R.R.R.R.R.R.R.T.T.Y.^.[.M.qX0.@.! Q L L J L K K J Q Q Q Q Q ",
"T T U U U T ( ~ ~ ~ R I I E u.bXGXDX'.Z.Z.B.H.J.R.R.T.T.T.T.R.R.T.T.T.T.T.T.T.J.V.C.Z..XDX9.#.#.P J P ! *.#.&.#.! Q Q Q Q Q ",
"T U U U E 0.0.;.-.*.&.~ E I / ^ t.NX5.1.A.n.c.m.V.J.V.V.V.V.V.V.V.V.V.V.V.H.V.m.h.S.4.4.mX^ P P J J ,.u.r.,.,.,.,.^ W W Q Q ",
"T T U T 0.i.0.:.>.>.>.*.~ Y ~ ! NX2.7.6.p h.x.v.v.v.v.v.v.v.v.v.c.c.c.c.v.v.v.c.h.a 3.xX2.NX#.! P #.u.s.r.r.t.t.r.,.! ! Q Q ",
"T U I R i.0.:.:.*.:.*.:.*.w.;.xX6.xXxX4.p k.x.m.b.b.b.v.v.b.b.v.v.b.v.v.b.b.b.m.Z.gX7.xXxXNX#.! J t.i.u.r.r.r.r.r.r.^ ^ P Q ",
"T T F E i.>.*.*.:.*.:.:.8.<.5.xXxX7.a @ o @ k.L.!.I.H.I.H.I.P./.6XwXtX@XH.H.H.U.P.S.2.7.xX7.5.! ! 0.i.t.r.r.r.r.r.t.-.^ J Q ",
"T T F G >.0.>.*.:.:.:.:.<.1.3.xXxXa o .   X @ A.D.P.(.^.~.I./.eXsXfXSXwXI.U.U.!.P.S.2.7.xX7.xX>.t.~ 9.t.t.r.r.r.r.r.~ ~ P Q ",
"T T D z b -.0.0.>.0.>.%.<.lXzXzXjXA.7 .     . @ @ Z.E.Z.P.~.=XeXdXAXSXwXI.U.I.!.P.S.4.zXzX4.zXFXp.8.9.-.t.t.t.r.r.( T W Q Q ",
"T U b l v b =.-.=.9.%.R q.FXgXjXhXz.x.7 .     .   @ i i i P.@XwXpXqXDX1X~.U.!.~.P.D.1.hXgXgXhXgXhXnXa.I 9.=.9.9.%.U F J Q Q ",
"T T F h g g k v k k v g o.MXp hX.Xk.x.Y.7 .             o y y y y y y z.).!.!.~.E.D.hXgXgXgXhXhXhXFXbXv v v v v v x b H ! Q ",
"T U D h g f f g f f f f $.MXcXFXlXD.d.m.R.w               X X X . X . @ p i i I.I.D.lXFXVXVXZXZXFXvXq.x x x j x x x F K ! P ",
"T U D h h h g f f f g g Z a.FXHXlXz.j.m.Y.J.w .                       X o o o e A..XVXGXGXGXGXZXBXw.Z b x x j v v v H Q P ! ",
"U U U b h h h h h g h k I 9.BXBXkXt f.m.V.T.K.8 8 O                         . y jXzXGXJXJXJXJXZXbX=.G b b b b b b G P P P Q ",
"T T T I c h z z z h h F U R a.s.o.t x.c.B.B.K.).;Xd.7 O   .                 X gXFXJXJXGXGXJXGXZXbX%.F F G G G G G H Q L Q P ",
"U T T U U D z h h c F U R U E ( e.XXh.j.m.V.J.!.U.^.!.m.7 7 O .             X gXFXGXJXJXJXJXGXVXs.*.K G G F G G K Q Q Q Q Q ",
"T U T T U T U U T T U T T T Y U 9.p.) f.n.b.m.U.U.~.!.!.I.U.m.k.@ i i w +     y jXFXFXGXGXFXnXvXbX9.! L Q Q P ! Q Q Q Q Q Q ",
"T T T T U U U U T T U U T T T U 8.p.` t v.j.x.n.I.I.~.!.(.).^././.1XwX/.x.+ + 9 gXcXGXFXFXFXvXp.e.&.P P J P K J L P Q P Q Q ",
"T T I U I I E E E E T T T T ~ &.p.<.' n t k.k.A.@X XZ.v.v.M.M.N.@X}.}.P.B.w j.g.A.kXlXlXnXvXa.t.,.! P ! ^ ^ ^ ! Q L Q Q Q Q ",
"T T T U R 9.>.:.,.,.@.R T R ( &.p.M n 3 6 4.4.zXcXzX] # > : > : : ; : - w g.v.b.h.k.u ' ] } 9.9.! P ^ t.t.r.r.,.#.^ L L Q L ",
"T I U R 9.i.0.:.&.*.:.&.( ( B B M d * % +.2.7.xXNXxX+.# & & $ & & & < - 7 w d.j.d.8 - & > M B N w.r.y.s.t.r.r.t.r.;.! L L Q ",
"T T I R e.y.>.*.,.*.:.:.=.( N B d & & % +.3.3.3.6.3.+.# = = = = & & , 9 d.c.K.T.B.r % & % 5 B n 9.u.i.i.,.r.r.r.t.r.&.Q L Q ",
"T T I E i.>.:.:.>.*.:.>.$.} ' 6 1 & ; - i S.F.F.F._.u % = = = * & = , e f.G.-X;X+Xr & & $ * 5 m A 0.i.t.r.r.r.r.t.t.-.^ J Q ",
"T T I I 0.>.:.:.*.*.:.>.S ] N 2 1 = - 8 d.G.W.W.W.W.h., = = * * = 2 3 0 w r l.[.l.q , & = $ & n m S 0.t.r.r.r.r.t.t.&.Q P Q ",
"T T F c R -.t.,.*.>.>.*.S ] ' 5 3 1 9 7 g.n.W.Q.Q.Q.h., * $ * 4 4 6 4 < < < < < < , 4 = = $ * n m C / r.r.r.r.t.r.&.E T P Q ",
"T U D h v I =.0.9.9.=.R C } ' 5 3 4 w d.G.G.Q.Q.Q.Q.k., = * = 4 6 6 2 1 3 3 1 3 2 2 1 1 = * 1 n A C C R 9.0.9.9.=.I F K P Q ",
"U T D h g k b C b b b k j C ] ' 6 4 w 8 G.G.Q.Q.Q.Q.k.& = * = 4 6 1 1 2 2 3 3 2 3 2 2 1 = 5 n ' C v v v C C b C C v b H ! P ",
"T T D h g f f f f g f f g C } | B 4 9 7 n.~.(.(.(.).r , = & 4 4 6 2 1 2 2 2 1 2 1 1 4 4 6 N B C U v v x x x x x x x F K ! P ",
"T T F h h g f f g f f f k U ( | } ' 0 7 h.L.oXP.K.K.r $ = = $ 1 5 1 1 1 1 2 4 3 2 2 6 N B B Z Q G F b v v x x x x v G Q P Q ",
"T T U c h h h g g g h h D T T T | } ` 4 q t  .t r 0 : 1 = $ $ $ = 1 4 4 2 3 N 6 N N N ' B Z P Q K G G b b c v c b F L P P Q ",
"U U U U z h h h h h z D U T T T 9.q.S M m M B N d 5 d 5 4 3 2 4 5 6 m m 6 m ] ] ' ] B L P P Q Q P G G F G G b G G H Q Q P P ",
"T U U U U D D h h c F H U U T U ( 9.w.q.q.<.<.q.N N m m m n 6 n m m N ' ] ' C Z S Z R P Q P P Q Q Q H G G G G G H K Q Q P P ",
"T T U T U U F D I I U T U U U U T ( 9.9.9.$.9.w.<.} | } A A A A A A S A S A W W @.P P P P P P P P P P K K H K K P P P P P P ",
"T U T U T T W T E T T T T T T U T T U U T E U ( w.u.9.9.( E E ^ ^ ~ W ^ ^ ^ ! ! P K K K W W W W Q Q Q Q Q P Q Q Q W W W Q L ",
"Q Q Q W W W W W W W W W W W W W W W W W W W W W W W ! W W W W Y T T T J U W U T T T T T T T T T T T T T T T T T T T H T T T "
};
