/* XPM */
static char *_218c21d45d3481e979a631ae01a663fMyKO0mP2N7669SBi[] = {
/* columns rows colors chars-per-pixel */
"62 73 255 2 ",
"   c #010000",
".  c #07090A",
"X  c #0D130E",
"o  c #261A12",
"O  c #292218",
"+  c #041934",
"@  c #072527",
"#  c #2E2C2A",
"$  c #4A2C1A",
"%  c #543429",
"&  c #2A5403",
"*  c #2A5407",
"=  c #2E5905",
"-  c #325C07",
";  c #224D1C",
":  c #2F6306",
">  c #396508",
",  c #386513",
"<  c #3A6714",
"1  c #1F4828",
"2  c #26582B",
"3  c #295032",
"4  c #386A33",
"5  c #426D08",
"6  c #446D1A",
"7  c #46711A",
"8  c #547811",
"9  c #5C5725",
"0  c #7B4D3A",
"q  c #4B7726",
"w  c #507532",
"e  c #032F51",
"r  c #00266B",
"t  c #013368",
"y  c #002670",
"u  c #003876",
"i  c #265F5B",
"p  c #09487B",
"a  c #104975",
"s  c #355471",
"d  c #525251",
"f  c #71554D",
"g  c #5A675E",
"h  c #575D66",
"j  c #726F71",
"k  c #A03C09",
"l  c #9F480A",
"z  c #994315",
"x  c #8B4826",
"c  c #914A27",
"v  c #904F30",
"b  c #AB5824",
"n  c #A95B36",
"m  c #AE5C36",
"M  c #C76B3D",
"N  c #9F6855",
"B  c #CD6D43",
"V  c #D2794D",
"C  c #CE7950",
"Z  c #5E8D19",
"A  c #6C9215",
"S  c #55A909",
"D  c #5DB40B",
"F  c #5DB012",
"G  c #60B70D",
"H  c #67AD1B",
"J  c #65B918",
"K  c #528A2E",
"L  c #5B8637",
"P  c #618C3D",
"I  c #669632",
"U  c #5BAD30",
"Y  c #6BAA2A",
"T  c #6BB629",
"R  c #6EB232",
"E  c #68C119",
"W  c #6BC31C",
"Q  c #70C61D",
"!  c #73CC1E",
"~  c #72D517",
"^  c #76D41D",
"/  c #78D61F",
"(  c #7AD81F",
")  c #6DC522",
"_  c #6EC924",
"`  c #6CC82B",
"'  c #70CA25",
"]  c #75C828",
"[  c #75CC2B",
"{  c #77D420",
"}  c #79D720",
"|  c #7AD921",
" . c #7CD32B",
".. c #77CF33",
"X. c #7ACB33",
"o. c #7FE026",
"O. c #379678",
"+. c #3DA172",
"@. c #569154",
"#. c #5ABA49",
"$. c #53AF50",
"%. c #71B24C",
"&. c #4EB16C",
"*. c #43A572",
"=. c #71C957",
"-. c #839128",
";. c #B6AC3A",
":. c #80D81C",
">. c #82DA2C",
",. c #81CC35",
"<. c #8DDB36",
"1. c #84D638",
"2. c #8DDC39",
"3. c #90DD37",
"4. c #91DD3B",
"5. c #91E13B",
"6. c #9A985F",
"7. c #B98F77",
"8. c #96B776",
"9. c #D78453",
"0. c #F7944D",
"q. c #D5906B",
"w. c #E29365",
"e. c #E69969",
"r. c #E69E73",
"t. c #E0AD6B",
"y. c #FDA769",
"u. c #F2A778",
"i. c #FCAB79",
"p. c #8BD945",
"a. c #95DC46",
"s. c #8BD054",
"d. c #A3DF5A",
"f. c #8FE141",
"g. c #91E143",
"h. c #98E24B",
"j. c #9CE453",
"k. c #AAE55D",
"l. c #94CA6B",
"z. c #AAD474",
"x. c #AAE768",
"c. c #DDDB61",
"v. c #01378E",
"b. c #003FA9",
"n. c #04478B",
"m. c #024899",
"M. c #115391",
"N. c #395993",
"B. c #0E7398",
"V. c #2F6C90",
"C. c #0045A4",
"Z. c #004CA4",
"A. c #1142A1",
"S. c #0058A9",
"D. c #025BB5",
"F. c #235DB5",
"G. c #1170AF",
"H. c #0365B6",
"J. c #006DBD",
"K. c #0373BA",
"L. c #2D6CAA",
"P. c #2A73AA",
"I. c #2875B7",
"U. c #4D6C91",
"Y. c #5E7094",
"T. c #003CFF",
"R. c #0B5ECC",
"E. c #006CC3",
"W. c #0065CB",
"Q. c #006ACA",
"!. c #0172C4",
"~. c #0073CB",
"^. c #0479CC",
"/. c #127AC8",
"(. c #0069D7",
"). c #007CD6",
"_. c #0678D8",
"`. c #007ED9",
"'. c #0347F9",
"]. c #0169EC",
"[. c #0179E3",
"{. c #007CF6",
"}. c #2B8C93",
"|. c #3CA483",
" X c #1785AD",
".X c #2A94B2",
"XX c #38A7A1",
"oX c #5D9D9D",
"OX c #6EC4B1",
"+X c #0684D9",
"@X c #0081DD",
"#X c #168ED0",
"$X c #3392D1",
"%X c #27A4C5",
"&X c #0084E4",
"*X c #048AE5",
"=X c #0086E9",
"-X c #0189EB",
";X c #0B8BED",
":X c #168BE7",
">X c #0494E9",
",X c #1B91EF",
"<X c #018BF5",
"1X c #0488F8",
"2X c #018BFE",
"3X c #0D93F3",
"4X c #0595FC",
"5X c #1394F4",
"6X c #179AFA",
"7X c #1A9DFB",
"8X c #3095ED",
"9X c #2999F4",
"0X c #349CF5",
"qX c #389CF4",
"wX c #08A8FC",
"eX c #1EA1FF",
"rX c #13A9FF",
"tX c #3AAAE8",
"yX c #21A2FF",
"uX c #2CA4FF",
"iX c #36A5FE",
"pX c #3BA6FF",
"aX c #4D99DB",
"sX c #47A7FE",
"dX c #58AAFE",
"fX c #66AEFF",
"gX c #6BB2FF",
"hX c #76B5FF",
"jX c #918F8F",
"kX c #AA9287",
"lX c #99A19D",
"zX c #B1B0B0",
"xX c #D0A891",
"cX c #FCB486",
"vX c #FFB58A",
"bX c #F1AF91",
"nX c #98D695",
"mX c #ABCD8D",
"MX c #BACEA9",
"NX c #FBC598",
"BX c #FADB9E",
"VX c #CBD1B6",
"CX c #8ABDF4",
"ZX c #C4BFCA",
"AX c #9EC8CD",
"SX c #86C0FF",
"DX c #8ED1F3",
"FX c #C7C6C9",
"GX c #D0D5D0",
"HX c #D8D8D8",
"JX c #D1D8E6",
"KX c #DDE2E8",
"LX c #E8E5E7",
"PX c #EDEFF6",
"IX c #FDFCFC",
/* pixels */
"} } } } } } } } } } } / } } } } } } } } } } | ( } } } } } } { { ` _ ' ' ' ' ' ' ' ' ' ' ' ` ` _ _ _ ' ' ' ' ' ' ' _ _ ' ' ' ",
"} } } } } } / } } } } } } } } } } } } } } } ( ( } } } } | | { ' ' ' ' ' ' ' ' ' ' ' ' ' ' _ ' ' _ ' ' ' ' _ _ ' ] ' _ _ ' ' ",
"} } ( } } / ( | / / / / / | } } } } } } } ( ( ( { $.|.|.|.*.+.|.|.|.|.O.|.|._ { ` ' Q ' ' ' ' ' ' ' ' _ _ _ _ _ _ _ _ ] ' ' ",
"} } } } / / } | / | / / / / | / } } } } } ` #.#.#.#X2X1X{.{.1X<X{.{.{.{.{.=X&.$.$.` _ ' ' ' ' ' ' ' _ _ ' _ ' ' _ _ _ ' ' ' ",
"} } } / / }  .>.o.o.o.o./ / } / { } } { >.*.^.(.(._.`.).).@X@X@X@X@X@X@X[.&X{.{.=X.X' _ ` ' ' _ ' _ ` ' .. . . .' _ _ _ ' ' ",
"( } ( / } j.h.f.f.5.2.>.} / } } { { / O.I._.).`.)._.).`.&X=X-X-X=X=X=X=X-X=X=X=X<X=X*X.X&.` ' _ _ ) ..h.a.4.<.<.1. ._ _ ' ' ",
"} } ^ } j.x.h.f.f.g.g.5.o.{ #.$.O.}. X/.@X`.).`.`.).).&X-X-X-X-X=X=X<X3X3X3X1X3X5X3X4X>X#X#X.X&.#.o.j.k.<.<.3.4.<.<.[ _ ` ' ",
"} } ~ >.x.k.f.5.f.f.g.=.=.$.}. X^.[._.`.`.`.).).).).@X=X-X=X-X-X-X3X5X6X7X7X7X7X7X7X7X4X4X4X3X#X.X|.l.h.<.<.<.<.3.3.1.' _ ' ",
"/ / ~ >.x.g.f.f.f.f.f.&.}. XQ._.).).).`.).).).`.+X&X-X-X=X&X3X3X3X7XeXyXyXyXyXyXyXyXyXeX7XeX6X2X1X#XXX&.1.<.5.5.<.4.1..._ ' ",
"/ ( ^ ' 1.f.f.f.p.=.&.I.~.Q._.`.`.).).).).).+X=X&X=X-X-X=X>X6XyXeXyXeXeXyX7XyXeXeXyXeXeXyXeXeX7XeX3X1X;X&.p.3.5.<.4.1.[ _ _ ",
"( / ^ W _ ..g.h.=.G.!.H.E.).`.`.`.).`.`.).@X&X-X=X-X-X=X-X7XyXeXyXeXyXeXeXyXeXyXeXeXeXeX7XeXeX9XyXeX3X=X3X;X&.h.2.>.T ) ' ' ",
"/ | ^ T J ] ..=..XJ.J.E.^.`.`.`.`.).)._.^.@X=X=X-X-X=X-X7XyXyXeXeXeXyXeXeXyXeXeXeXeX7X7X7X6XrX6X7XyXeX5X-X2X:X|.,.E G W ' _ ",
"} } ! J H F $.V.~.!.!.^.@X).`.)._._.)._.).&X=X=X=X=X=X>XyXeXeXeXeXyXeXeXyX7X7XeX7XyXpXpXpXiX0XpXyX7XyXeX3X;X4X+X+.S D ) ' ' ",
"} ( ^ Q J U B.Q.E.).).`.`.`.`.).+X_.+X#X:X5X,X:X5X,X,X5XeXeXeXyXeXeXyXeXeXyXeXeXuXsXgXgXhXgXgXhXsXyXeXeXyXyX5X2X2XK J ) ' ' ",
"/ ( ' Q T G.E.J.E.).^.`.).`.).).:XqXqXfXdXdXdXdXdXdXfXdXeXeXeXeXyXyXeXeXeX7XyXeXsXgXgXSXSXSXSXSXhXiXeXeXeXyXeX5X-X2X$._ ' ' ",
"| | / ! T K.E.!.^.`.`.).`.).^.:XqXdXdX9X:X;X;X;X;X;X0XdXdXyXeXeX7XeXeXyXeXeXyXyXsXfXgXSXSXSXSXSXgXiXeX7XyXeXeXeX3X2X&.' ' ' ",
"/ } #.}.P.K.J.!.).`.+X`.).)._.0X9X,X,X;X=X=X=X=X=X=X-X9XdXdXiXeXeXeXeXeXeXeXyXeXsXgXgXhXSXhXSXhXgXiX7XeXeXeXyXyX7X3X#X.X*.` ",
"} } *.].(.J.J.!.^.`.`.).).).+X,X;X=X=X=X-X-X-X=X-X-X=X-X0XdXsXpXiXyX7XyXeXeXyXeXpXfXgXgXgXgXgXgXfXiX7XeXyXeXeXyXyX3X2X2X%X_ ",
"} } *.(.W.J.J.^.).).`.).).).&X=X-X-X-X-X-X-X-X-X-X-X-X=X=XiXdXdXdXuX7XeXeXeXeXeXuXsXdXdXdXdXdXdXsXyXeXeXyXeXeXyXyX3X1X2X%X' ",
"| / *.(.W.J.!.).`.).`.).).`.-X-X-X-X-X-X-X-X=X-X=X-X-X=X=X=X8XsXsXiXyXeXeXeXeXeXeXuXiXiXiXiXiXiXyXeXeXeXeXeXyXyX7X3X2X2X#X_ ",
"} } *.(.W.J.!.).`.).`.).).@X<X-X-X-X-X-X-X-X-X-X=X=X=X=X=X=X9X0XqXpXyXeXyXeXeXyXeXeXeXeXeXeXeXeX7XeXyXeXyXeXyXyXyX3X2X2X.X_ ",
"} } +.(.W.E.!.).`.).).).).@X-X-X-X=X-X-X=X-X=X=X&X3X5X3X3X=X,XqX0XiXyXeXeXeXyXeXeXeXeXeXeXeXeXeX7XyXeXeXrXeXwX4X4X4X2X4X#X_ ",
"} } +.(.W.J.!.).`.).`.).).`.-X-X-X=X-X=X=X=X=X;X;X6XeXeX6X=X,XqXqXpXyX7XeXyXeXeXeXeXyXeXeXeXyXyXyXeXyXeX9XeX$XP..X.X.X.X|.' ",
"} } +.(.W.J.!.^.`.`.).).).`.-X-X=X-X-X-X=X=X;XeXeXeXyX9X6X=X,XqX0XpXyXeXyXyXrXeXeXeXeXeXeXeXeXeXeXeXeXeX$X9Xf l -.h...' _ ' ",
"} | +.(.W.J.J.E.).`.`.`.).`.=X-X3X3X5XyXyXyXyXeXyXeXyXeX7X=X,XqX0XpXyXeXeXeX-X-X2X2X1X1X1X1X<X<X<X<X2X<X/.:Xf l -.h.1.X._ ' ",
"} } +.(.W.E.J.J.^.`.`.).).`.=X=X-X3X3XyXyXyXyXeXyXeXeX7X=X&X,XtXqXpXyXeXrXyXv x v v 0 0 0 0 0 0 N C f + o @ % b -.h.1.[ _ ' ",
"} | +.(.W.J.J.!.^.).`.`.).`.@X=X-X-X>X6XeXeXeX9XyX5X3X;X&X,XuXsXpXyXyXrX8Xf k k k z z z z z z k M 0.v . .   o 9 -.3.] ) _ _ ",
"} } +.(.(.J.J.J.!.).).).).`.`.@X-X=X=X-X3X3X3X5X5X=X&X&X;XqXiXiXuXeXyXrX.Xk x x v m n n n n n v 9.i.C $   .   O A T J W ' ' ",
"} } +.(.W.J.J.K.J.~.!.).+X`.).).+X&X&X&X&X=X&X=X=X-X-X;X0X0X6X4X4X7X7XrX.Xz c c m V B B B B B M e.r.i.r.% % $ $ 8 S G W ' ' ",
"} } T $.O.J.E.J.J.J.H.~.+X).`.).`.`.).).:X9X0X0X9X9X9X0X0X;X&X=X-X3X5XwXI.z c c m V B M M B m M u.cXvXvXNXNXbX7.A S J W [ ' ",
"| / ! W U R.Q.K.J.J.J.!.^.`.`.`.).).).).:X8XqXqXqXqX0X9X;X=X=X=X=X-X=X4XI.z c c m V C C C C V C u.cXvXvXbXNX7.d - S E _ ' ' ",
"/ | { Q ) +.G.Q.J.J.J.J.!.).`.`.`.).`.)._.#X:X_.#X,X,X;X{.=X=X-X=X=X;X2XI.z c x m V w.w.9.w.9.q.i.cXcXcXr.r.d X : F ) ' ' _ ",
"} } } ^ Q Q O.!.E.J.J.J.J.!.).`.`.`.`.`.)._.^.^.^.&X&X&X-X-X=X-X-X-X*X4XI.z v x m w.r.e.e.e.w.q.cXcXcXbXq.e.% X : E _ ` ' ' ",
"} } } } { ] $. XE.J.J.J.J.J.!.`.`.).).).).`.`.).`.`.`.@X-X-X-X-X-X-X-X2XI.z c x m 9.e.e.w.w.w.w.cXcXcXcXq.e.% X > ! ' _ ' ' ",
"/ / ( ( / { #.}.(.J.J.J.J.J.J.!.^.@X`.`.`.).).).`.).).`.@X@X=X<X-X-X<X2XP.z c x v m V C w.e.q.w.bXvXi.0.;.9.$ X < ` ' _ ' ' ",
"{ { { { { { } *. XW.W.E.K.J.J.J.!.^.).`.`.`.`.).).).).).`.+X`.`.@X@X@X<XP.z x x x n B C w.e.w.w.i.vXy.0.M V $ X <  .' { ' ' ",
"] ] ' ^ { _ { ` +.K.#XK.!.E.J.J.E.!.J.~.).).`.`.`.).`.).).).).).).)._.=XL.k c x x n B V w.e.e.w.i.vXi.0.0.0.v g %. .{ { ^ { ",
") ' _ _ _ _ ` _ ` }.O.P.!.K.!.J.J.J.K.H.E.^.`.`.).`.`.).).).).).).).).=XI.f x z x n B V 0.e.w.w.cXvXy.e.6.7.xXxXz.o.} ( } / ",
"' ' ' ' _ _ _ _ _ _ ' *. XG.E.Q.J.E.J.!.H.!.^.).^.).).).`.`.`.`.).).`.).=X=X0 x v N N C 7.kXq.kXxXbXxXN K.+X&.k.1.:.} } } } ",
"_ ' _ ' _ _ _ _ W _ _ ` _ #.G. XK.W.W.E.W.E.E.J.J.J.!.).).^.).`.`.`.`.`._.`.+X_.[.[.,X_._./._.[.R._.[./. X X&.:.} ] } } } } ",
"' ' ' _ _ ] X.>. . .[ ' ) ' #.%.}.B.B.B.}.B.J.E.E.E.E.Q.Q.~._._.).).).).).).&X&X=X&X&X[.`.[.&X[.[.2X4X4X#X#X&.5.>.^ ( } } } ",
"' _ ' ' [ p.a.2.<.<.1. .' ) )  .=.AXOXAXAXXXP.I.P.L.L.P.P.I.K.E.E.J.E.J.K.K.~.~.~.~.~.^._.~.^./.#X#X#X%XDXDXnXg.<.>.} } } } ",
"' ] ) ' a.k.a.<.4.3.4.<. ._ _ ' p.[ ' _ s.ZX6.jXjXjXjXjXjXY.V.Z.Z.S.S.Z.S.S.D.H.H.D.H.H.D.H.D.V.N.s s nXj.g.h.g.2.2.| } / } ",
"' _ W [ k.a.4.<.<.2.<.4.<.[ ) _ ` ` [ ..vXy.i.u.i.i.y.i.y.7.N.b.m.m.m.m.m.D.D.S.S.D.H.M.N.s h # o . oXx.h.x.j.g.a.f.1.| / } ",
"_ ] W [ k.4.<.<.2.<.3.4.2..._ ] <.mXX.bXcXcXcXvXvXi.i.i.r.U.m.m.m.S.S.D.H.K.J.J.!.~.K.s # O o       9 mXmXmXz.z.x.g.1. .^ / ",
"' ' W ) 1.a.4.3.<.<.3.4.1.[ ' ..s.lXzXr.y.cXcXi.i.6.Y.j Y.M.m.S.S.H.J.J.E.~.~.~.I.U.s o       d j Y.oXlXVXGXGXVXMXx.2.{ ( ( ",
"_ ' W G ) 1.a.a.p.4.2.1.] ) _ 1.8.zXlXkX7.r.i.y.y.U.C.M.m.m.Z.S.S.J.!.Q.!.L.V.L.s # #   X O d ZXKXBXt.jXLXIXPXLXVXnXX.{ ( } ",
"' ' J G F ) 1.1.1.p.1.) J W _ ` mXZXZXzXjXkXw.w.y.N.b.C.C.m.S.D.J.~.K./.V.d d d O     X j jXlXIXPXc.;.lXLXHXLXGXVXmXX.^ } ( ",
"' ' W D S S G F F F F S S W ` [ l.ZXZXFXzXjXjXjXkXN.m.A.m.m.D.R.W.{.N.j d             h HXIXIXIXaX:X$X7.6.oXjXjXjXmXX.] :.| ",
"' ' E D S S S S S S S S F ) ` { l.ZXZXZXZXzXZXFXGXoXd h g h h h h g j #             . d HXIXJXL.PX$XN.kXjXjXjXjXjXMX,.{ | / ",
"_ ' E D D D S S S S S S J _ _ s.z.MXHXHXGXHXzXd d # o O O O O O o o O .             . g HXIXKXF.Y.A.N.lXjXlXjXlXmXl.>.} } } ",
"' ' ) E D D D D S D F D W ' ) s.MXGXPXLXHXLXlX                              . . . + v.U.HXIXPXAXF.v.s s.%.6.8.8.z.R } | } / ",
"' ' ' ) J D G G G D J E ) _ ' s.MXGXGXHXKXPXzX. .                         . r t t Z.2X8XCXHXHXIXlXU.@.J ] ] p.p.,.! ^ | | } ",
"' _ ' ' ! E G D D J E _ ` _ _ _ s.mXmXzXHXJXY.                        + e t {.{.{.].(.]./.$XaXGXLXmX^ ! Q Q W ! ^ } | } / } ",
"' ' ' ' _ _ _ _ { _ _ ' ' ' _ ] X.X...s.z.lXM.+ + + + + + e + e e e + n.W.Q.(.(.(.(.W.R.R.D.R.oXlXl.p.( ( ( ( ( | ( / } / } ",
"' _ ' _ _ ` _ _ _ _ _ _ ' ' _ _ ' ' ' ' >.&.M.n.m.n.m.m.m.m.H.H.S.H.H.Q.[.[.~.~.W.D.Z.b.b.b.b.C.g =.R ] ( :.( ^ / ^ | / | } ",
"' ' ' _ _ ] [ [ [ [ ] _ _ ' ' ' ] _ _ T #.i M.Z.Z.m.Z.Z.Z.S.H.E.K.G.G.G.B.B.B.B.F.U.N.N.N.N.N.N.w Z A ,.:.,.>.>.| ^ / / / / ",
"' ' _ _ ] 1.4.4.<.<.>.[ ' _ ' ` ] ,.T i s M.u u u u p u u u u v.u i 4 4 4 4 4 w 6.bXZXxXq.C q.q.w w P I Y ,.,.4.>.>./ / } } ",
"_ ' ) ] p.k.a.3.<.5.5.>.[ _ ' %.%.I P i M.v.t t t t t t t t y y t 2 7 8 8 8 8 8 ;.BXBXNXy.0.0.0.oX+X[.F.A A A R R 4.>./ / } ",
"' ' ) [ d.a.4.<.2.<.<.5.1.] ] I P Z L i m.v.y r r r r y y r y y r 3 7 8 < t s e P.tX$X$X$X$X$X$X>X>X1X'.R.F.F.*.T h.>.( / } ",
"' ] ) [ k.4.<.<.<.4.2.4.2.X.I L q - , 2 3 3 3 3 3 2 1 1 1 3 3 3 3 4 q 8 3 r u t H.>X*X@X*X@X*X@X>XwX{.T.'.'.'.V.A R 1. .^ / ",
"_ ' E _ a.p.4.2.<.<.2.2.1.] L q - & * > > > > 5 > > > - - - 5 5 6 6 6 5 3 r u u D.>X+X+X+X+X+X+X*X>X2X].].].].V.A R X.| ( / ",
"_ ' W J ] 2.f.5.3.2.2.<. .T w q , & = < < < , , , - = = & & - - - - - > ; r u u H.@X^.^.^.^.^.^.+X&X=X>X*X>X#X|.L I ] ] ( / ",
"' ' E D F ] 1.a.p.p.2.[ J H K q < - : < < < , , , - = = & & & = O * & - ; r u u v.Z.C.Z.C.Z.C.C.C.C.m.C.b.b.m.i A H J ^ ( / ",
"' ' E D D F J T J J ) S F J ) K q q q < , - , , , - - = * * * & & & & & ; e t e a p p p p p p p p p p p n.n.a g Y H J ^ ( / ",
"[ _ E D S S S S S S S S S ) _ I I I I q < , , , , - : = - = = * = & & & * ; ; ; 2 2 2 2 2 2 2 2 2 4 4 4 @.@.@.U Y F Q ^ | ( ",
"_ ' E D D S S S S S S S J ` _ T Y U U L K q < < < < , , = = = = = & = & & = = - - = : > 5 5 5 5 > Z Z Z Y Y J J T H ! } / } ",
"_ [ _ G D D D S S S D D E _ _ _ ' W D I P L K q q w q < = = = = = = = = = = = = = : > 7 q w q q q L P I H H J J J W ^ } } } ",
"' ' ' E D D D G D D D E _ ' _ _ ' ` E D D Y P L L L L L 7 q < q 6 6 6 7 7 q 7 q 7 q q w P P P P P Y ! J ! J ! Q W ! } } ( ( ",
"' ' ' ` W E G G G G W _ _ _ [ _ _ _ _ W J D H F H T T R L L L L L L L L L L L L P P P R T [ ] ] ] { ! Q Q Q Q ! ! / } } } ( ",
"' _ ' ' ' _ W E ) ) _ _ _ _ _ _ _ _ ' _ W ) E ) ) ` ' _ U Y Y R R T T R T R Y R R R R T | / ( / >./ | ^ ! ^ :.! / ( ( / ( ( ",
"' ' ' ' ' ' ' { { [ ' ' ' ' ' _ ' ' ' ' { ' ' [ { ' ' ' [ _ _ { } { ^ } } / ( ( ( ( / / } } } { ^ ^ ^ | } } / :.} { } { } } ",
"{ { { { { { { / { { { { { { { / { { { { { { } } ^ } { { { { { _ ' ' ' ' ! ' ' ' ' ' ' ' ' ' ' _ ] ' ' ' ] ! ' ' ' ' ' ! ' ' "
};
