/* XPM */
static char *_1869_4762a1f601e99a4841c0f39aeb8b93272e24f9d117bf907648385c7814d4f2c1[] = {
/* columns rows colors chars-per-pixel */
"62 73 254 2 ",
"   c #000000",
".  c #090A09",
"X  c #0F1215",
"o  c #382819",
"O  c #2A3314",
"+  c #102122",
"@  c #302E28",
"#  c #483323",
"$  c #2B5309",
"%  c #335908",
"&  c #276102",
"*  c #3B6703",
"=  c #37630E",
"-  c #38650D",
";  c #3B6A0E",
":  c #376412",
">  c #3C6B11",
",  c #184D2E",
"<  c #275A26",
"1  c #285B30",
"2  c #346531",
"3  c #456800",
"4  c #426E18",
"5  c #5E641C",
"6  c #457418",
"7  c #6A6D1A",
"8  c #4C7926",
"9  c #4C7828",
"0  c #507730",
"q  c #001D48",
"w  c #0A2F4B",
"e  c #023656",
"r  c #00356A",
"t  c #144848",
"y  c #324D55",
"u  c #2D6645",
"i  c #0E4B73",
"p  c #385270",
"a  c #2D756F",
"s  c #515050",
"d  c #625B55",
"f  c #435B76",
"g  c #556963",
"h  c #53A607",
"j  c #54A808",
"k  c #56A909",
"l  c #5AAE0B",
"z  c #5DB30B",
"x  c #48A11B",
"c  c #5CAB17",
"v  c #5EB212",
"b  c #61B70D",
"n  c #61B80D",
"m  c #61AC19",
"M  c #64B816",
"N  c #65B41B",
"B  c #6ABC1C",
"V  c #56832B",
"C  c #5E942D",
"Z  c #5C8637",
"A  c #628938",
"S  c #618D3C",
"D  c #659739",
"F  c #55B133",
"G  c #6BB727",
"H  c #6AA835",
"J  c #6EB230",
"K  c #68C219",
"L  c #6CC31C",
"P  c #72C012",
"I  c #70C61D",
"U  c #73CC1E",
"Y  c #72D417",
"T  c #76D41D",
"R  c #78D61F",
"E  c #7AD81F",
"W  c #6DC522",
"Q  c #6EC924",
"!  c #6CC529",
"~  c #72C525",
"^  c #71CA25",
"/  c #77C92B",
"(  c #75CC2A",
")  c #77D420",
"_  c #79D720",
"`  c #7AD822",
"'  c #7CD22C",
"]  c #7ED929",
"[  c #66C439",
"{  c #7AC935",
"}  c #7DD030",
"|  c #3B975F",
" . c #389471",
".. c #54B350",
"X. c #6CB447",
"o. c #62A156",
"O. c #44AA78",
"+. c #4EB473",
"@. c #69C643",
"#. c #6DCA4D",
"$. c #68C961",
"%. c #A78D31",
"&. c #86DF1F",
"*. c #80D22F",
"=. c #81DA2C",
"-. c #84CA36",
";. c #82D434",
":. c #84DB33",
">. c #8DDB36",
",. c #84D43D",
"<. c #88D83B",
"1. c #8DDC3A",
"2. c #90DD37",
"3. c #91DD3B",
"4. c #8DE03E",
"5. c #9D9E59",
"6. c #B3927B",
"7. c #8DAA63",
"8. c #D99A59",
"9. c #FFAD59",
"0. c #CD9A79",
"q. c #F19C67",
"w. c #FDA96D",
"e. c #F9AA76",
"r. c #8AD844",
"t. c #94DD47",
"y. c #89D854",
"u. c #91D454",
"i. c #8FE141",
"p. c #91E143",
"a. c #99E24B",
"s. c #9DE553",
"d. c #A6E45C",
"f. c #98D668",
"g. c #A7DE60",
"h. c #AEE868",
"j. c #0D4C8C",
"k. c #02449A",
"l. c #0C6E9A",
"z. c #386890",
"x. c #004AA7",
"c. c #0056A6",
"v. c #0059A6",
"b. c #015DAC",
"n. c #0451B7",
"m. c #3756AA",
"M. c #0364A9",
"N. c #0366B6",
"B. c #006CBD",
"V. c #1473B5",
"C. c #1578B5",
"Z. c #2E70AF",
"A. c #506B92",
"S. c #4D75A5",
"D. c #6E6BA6",
"F. c #003AFF",
"G. c #0A53C5",
"H. c #006CC2",
"J. c #0365CA",
"K. c #006CCE",
"L. c #0072C4",
"P. c #0075CB",
"I. c #0677CA",
"U. c #1872CF",
"Y. c #0068D4",
"T. c #006CDD",
"R. c #0276D6",
"E. c #007CD6",
"W. c #007DD9",
"Q. c #2E77C2",
"!. c #0049FB",
"~. c #0052F3",
"^. c #016DE3",
"/. c #0067E8",
"(. c #0277E5",
"). c #1275EE",
"_. c #0079F8",
"`. c #2B8E90",
"'. c #3DA483",
"]. c #3AA68C",
"[. c #33A793",
"{. c #1681AF",
"}. c #2B8AB4",
"|. c #32A6B0",
" X c #7A8999",
".X c #45B188",
"XX c #6990B9",
"oX c #46B6B6",
"OX c #61C690",
"+X c #178DCE",
"@X c #0A86D6",
"#X c #0181DD",
"$X c #2D89D2",
"%X c #2DA8D8",
"&X c #0084E3",
"*X c #0086E9",
"=X c #0189EB",
"-X c #0A8BEB",
";X c #118FEB",
":X c #0289F7",
">X c #0C92F3",
",X c #0792FD",
"<X c #1296F5",
"1X c #1699F6",
"2X c #159CFB",
"3X c #1A9DFC",
"4X c #278FEB",
"5X c #3A95E8",
"6X c #359BF6",
"7X c #16A1FD",
"8X c #1FA1FF",
"9X c #2EA5E6",
"0X c #24A3F5",
"qX c #22A3FF",
"wX c #2BA3FF",
"eX c #34A4FF",
"rX c #3AA6FF",
"tX c #3BA9FE",
"yX c #51A5D1",
"uX c #53A6E9",
"iX c #49A8FE",
"pX c #54ABFD",
"aX c #5DACFF",
"sX c #66ABE5",
"dX c #62ADFF",
"fX c #68AEFD",
"gX c #6AB4FF",
"hX c #77B7FF",
"jX c #8B8B8D",
"kX c #8E908E",
"lX c #AF9D8F",
"zX c #ACBD9C",
"xX c #9091A2",
"cX c #B0B3AB",
"vX c #CEA793",
"bX c #D7A89B",
"nX c #F9AC87",
"mX c #FDB486",
"MX c #C5BCB7",
"NX c #ABCC8E",
"BX c #B6C2AC",
"VX c #E5C5AF",
"CX c #F7CFAC",
"ZX c #A2B2C2",
"AX c #89BCE0",
"SX c #83BEFF",
"DX c #C3BDC9",
"FX c #A8C9CA",
"GX c #89C4FF",
"HX c #CFCAD1",
"JX c #D4D5D4",
"KX c #DEDDDD",
"LX c #E3DEDA",
"PX c #E4E4E5",
/* pixels */
"_ _ _ _ ` E ) E _ _ ) ` E R E _ _ _ _ _ _ _ E ) _ _ E _ E E ) ^ ^ ^ ^ ^ ^ ^ ^ ^ ^ ^ ^ ^ ^ ^ Q Q ^ ^ ^ ^ ^ ^ ^ ^ ^ Q ~ ^ ^ ^ ",
"_ _ E _ ) E ` R _ _ ) ) ) ` _ _ _ _ _ _ _ _ E E _ _ E ` E ^ ) ^ ^ ^ ~ Q ^ ^ ^ ^ ^ ^ ^ ^ ^ ^ ! ^ ^ ^ ^ ^ Q ^ Q ^ ^ ^ Q ^ ^ ^ ",
"_ _ _ _ ` E _ ` E E E E ` ) _ ` _ _ _ _ _ T T Y [ +.].O..XO.'.].'.].].+.[ ^ ! Q Q Q Q ^ ^ ^ ^ ^ ^ ^ ^ Q Q Q Q Q Q ^ ^ ^ ^ ^ ",
"_ _ _ _ ) ) _ ` E ) T E E E ) E _ _ _ T E E [ $.O.(._.:X_.*X_._.:X_._.@X]...[ ^ ^ Q Q ^ ^ ^ ^ ^ ^ ^ Q Q ^ Q ^ ^ Q Q Q ^ ^ ^ ",
"E _ _ R R _ ] ] ] ] ] ` E T ) ) ) ) _ T ;.#.]._.(.W.W.&X#X#XW.&X=X=X=X:X:X:X.X@.' ^ ^ Q Q ( Q Q ^ ! Q ~ } } ' ' ^ Q Q Q ^ ^ ",
"_ _ E R _ s.a.i.i.i.4.] E E E _ ) ) E [ }.(.R.W.W.&X*X=X=X=X=X=X=X=X=X=X=X=X-X:X|.} ' Q ^ Q Q Q ^ K { s.t.1.>.>.:.' Q Q ^ ^ ",
"_ _ T _ s.h.a.4.p.p.p.i.] T E ) ) ..`.{.W.(.W.E.&X*X=X=X=X=X*X=X*X*X*X*X*X*X:X:X-X+X|.4.^ ^ ! Q Q } a.d.>.>.2.3.1.>.( ( Q ! ",
"_ _ Y =.h.d.i.4.i.i.p.y.$.#.$.$. .C.P.(.W.#XE.&X*X=X=X*X*X-X>X-X>X-X-X>X-X:X=X&X=X,X:X[.O.+.[ ! K r.d.a.>.>.>.>.>.2.} ( Q ^ ",
"_ _ Y ] h.p.4.p.i.y.y.OXoXoXoX+XR.R.E.W.E.E.&X*X=X=X=X=X-X1X3X2X1X3X2X3X3X2X>X-X=X*X*X:X,X@X[.@.B r.a.2.>.>.>.>.>.3.r.( Q Q ",
"_ _ T ) 4.p.p.p.#.OXoX0X7X7X7X=XE.E.E.E.E.W.=X=X=X*X-X<X3X3XqXqX8XqX8XqXqXqX3X3X>X*X=X=X=X:X:X@XF / >.3.2.2.4.4.>.3.} / ! Q ",
"_ _ U L L } p.OX%X0XqX7X8X8X<X#XP.#X#XE.&X=X=X=X*X-X<XqX8X8X8X8X8X8X8X8X8X8X8XqX3X3X1X*X*X=X=X:X@X..~ <.p.p.i.i.1.*.~ W ^ ^ ",
"_ _ ) K G .X|.%XqX7X7X7X8X2X@X#XE.E.E.#X=X=X*X*X=X<X8X8XqX8XqXqX8X8XqX8X8X7X2X2X2X7X2X<X=X&X=X=X:X}.|.oX.X,.,.} } B b L ( ^ ",
"_ _ ^ L m %X7X8XeXrXtXtX0X#XE.E.E.E.E.*X=X=X=X=X<XqXqX8XqXqX3X3X8X8XqX3XqXwX6XrXrXrXeX3X>X-X*X=X=X2X8X8X0X]...K v l v L ^ ^ ",
"_ _ U L X.9X8XtXdXfXfXfX5XK.E.E.E.E.#X*X=X*X=X>XqXqX8X8X3XqXqXqX3XqXqX3XeXpXhXgXhXgXfXwX3X>X=X=X*X>X7X8X8X7X|.| x h v ! ^ Q ",
"_ E U X.9XfXfXdXaXaXdXaX5XP.E.E.E.#X*X=X*X*X=X>X8X8X8X8X8X8X8XqXqX8X3XwXiXdXhXGXSXSXSXaXwX2X>X*X=X*X-X8X8X8X8X7X|.l M Q Q ( ",
"` ` R @.iXaXdXaXaXaXdXiX4XR.#XE.P.#X*X=X*X=X>XqXqX8XqX8X8X8X8XqXqX8X7XwXiXfXhXSXSXSXSXpXwX2X>X=X=X*X>X8X7X8X8X7X7X|.@.) Q Q ",
"R _ ..%XpXaXaXaXaXaXgX5XW.R.E.E.E.#X*X=X*X=X>XqXqXqX3X3XqXqXqX3XqX8X3XwXiXfXhXSXSXGXSXpXqX2X>X*X=X*X;XwXwXqX3X3X8X7X@.^ ^ ^ ",
"_ _ [.7XpXdXaXaXaXdXpX+XR.W.E.E.#X&X=X=X=X*X>XqXqX3XqXqX8X8XqX3X3XqX7XwXiXfXhXhXSXhXhXpXwX2X>X=X*X*X4XpXiXiX6XqXqX3X].@.^ ^ ",
"E _ '.2XtXaXdXaXdXdX5XW.R.W.E.R.#X*X=X=X=X=X>XqXqXqX8X8X8XqXqXqXqXqX8XwXiXdXfXgXgXgXfXpXwX2X>X*X*X1XiXdXdXdXiXiXeX8X2X+.^ ^ ",
"_ _ '.,XwXiXaXfXfXgXR.R.W.E.W.E.#X*X=X=X*X=X>X0X3XqX8X8XqX3X3XqX8X8X3XqXeXpXdXdXdXdXaXeXqX2X>X*X&X6XaXaXaXaXdXaXpXiXqX.X^ ^ ",
") ) O.:X7XwXeXiXgXgX@XR.P.#X#X#X#X&X=X*X*X=X>XqX8X8X8X8XqX8X8X8X8XqXqX3XqXeXrXrXrXrXrX3X8X3X>X*X&X6XaXaXaXaXaXaXaXaXpX$.^ ^ ",
") ) O._.@X3X8XwXiXiX@XR.#X#XP.P.#X*X=X=X=X*X>XqXqX8XqX8X8X8X8X8X8X3X8XqX3X8XqX8X8X8XqX3XqX3X>X=X&X6XaXdXaXaXaXaXdXfXuX+.^ ^ ",
"` _ O._.P.-X1X8X0XqX@XE.#XP.P.#X#X*X=X=X*X=X>X0X8X8X8XqX8X8X8XqXqX8X8X8X3XqX3X3X8X3X3XqXqX3X>X*X&X6XaXdXaXaXaXdXdXaXwX.X^ ^ ",
"_ ` +.(.#XP.-X7X8XqX#XP.#X#X#X#X#X*X=X=X=X=X>XqXqX8X8X8X8X8X8X8X8XqX3XqXqXqXqX8XqX8X8X8XqX3X>X*X*X6XpXdXaXaXaXaXaXtX,X].! ^ ",
"_ ` T $.(.W.E.P.W.qX@XW.E.E.E.P.#X*X*X=X*X*X*X-X8X8X8X8X8X8XqX8X8X8XqX8X8X8X8XqX8X8X8X8XqX3X>X*X&X6XdXfXdXdXpXtX7X-X(..XW Q ",
"_ _ Y X.(.W.E.R.E.@XH.P.#XE.E.E.#X*X=X=X=X*X=X>X8X8X8X8X8X8X8X8X8X8XqX3X8X8XqX3X8X8XqX8X3X>X*X=X&X1XqXqXqXwXqXqX7X:X+.( W Q ",
"_ _ Y ! O.I.&XE.E.E.B.P.#XE.#X#X#X#X*X=X=X=X=X=X>X8XqX8X8X8X8X8X8XqXqXqXqXqXqX3XqX8X8XqX2X-X*X=X=X>X3X7X3X2X2X<X-X#XX.Q Q Q ",
"_ _ U B N '.+X#XW.#XB.P.#X#XP.P.P.#X*X=X=X=X=X*X=X<X8XqXqX8X8X8XqX3X3XqX3X3XqXqX8X8X8X8X1X=X*X=X(.-X;X;X;X;X-X*XI.`.F K ( Q ",
"_ _ U B N N  .I.W.W.B.L.#X#X#X#X#X@X&X*X=X=X=X=X*X=X<X8X8X8XqX8X8X8X8XqXqX8X8X8X8X8XqX3X=X*X=X=X#XE.P.E.R.R.R.I.`.l v K ^ Q ",
"_ _ ) K N c m | I.R.B.B.L.#XP.#X#XP.E.=X=X=X=X=X=X*X=X<X8X8X8X8X8X8X8X8XqX8X8X8XqXqX8X>X=X=X=X=X&XP.P.#XW.*X`.F j h v L ( Q ",
"_ ` U L L N m | C.H.B.B.B.#X#XE.E.E.E.#X*X=X=X=X=X=X*X=X<X8XqXqXqXqXqXqXqXqXqXqX3X1X1X=X=X=X=X*X#XP.L.E.(.| x j k k K Q ^ ) ",
"_ ` T U L L B G  .K.H.B.B.P.P.#XE.E.E.E.*X=X=X=X=X=X*X=X=X<X1X1X1X2X1X2X1X1X1X3X>X=X-X*X=X=X=X#XE.L.P.J. .v z z z v ! ^ ^ Q ",
"_ _ _ U I I I I ~ l.B.H.B.B.P.E.E.#X#XP.#X*X*X=X=X=X=X=X=X=X-X:X-X=X:X-X>X=X-X:X=X*X*X=X*X&X#XP.P.L.N.`.n n n n n K Q ^ ^ Q ",
"_ _ _ _ ) I I L U U C.K.B.B.L.R.#XE.E.E.#X#X#X*X=X=X=X=X=X=X=X=X=X=X=X=X=X=X*X*X=X=X=X*X#X#X#XP.B.R. .B z z n M K ^ ^ ^ ^ ^ ",
"E E _ E E T _ E E E V.Y.B.B.B.P.E.E.E.#XE.E.#X#X#X=X=X=X=X=X=X=X=X=X=X=X=X=X=X=X=X=X=X#XE.E.P.B.N.^.Z.U I W W Q ^ Q Q ^ ^ Q ",
") _ ) ) ) ) ) ) U E [ C.(.B.B.B.P.E.E.E.#XE.E.E.#X#X&X=X=X=X=X=X=X=X=X=X:X=X=X&X#X#X#XE.E.P.B.B.(.`.[ U ^ ^ ^ Q ^ ) ^ ^ ^ ^ ",
"^ ^ ^ ^ ^ ) ^ ^ ^ ^ ^ ..{.R.B.B.B.P.E.E.#XE.E.E.E.E.#X#X#X&X#X#X#X#X&X#X#X#X#X#XE.E.W.E.P.H.H.P.`.#.R R ) ) ) ) ) ) ) ) ) ) ",
"^ Q ^ ^ Q Q Q Q ^ ~ ^ ^ X.C.B.B.N.L.P.P.E.E.E.E.E.E.#XP.R.E.E.E.E.E.E.P.#X@XP.E.E.E.P.R.B.N.H.}.t.&.E E E E E E _ E _ E _ _ ",
"Q ^ ^ ^ Q ^ ^ ^ ^ ^ ^ ^ ~ @.C.U.L.H.B.B.P.#XE.E.E.E.E.E.W.E.E.W.E.E.E.#XE.E.E.E.E.P.B.L.B.C.}.4.:.E E E _ E E E _ _ _ _ _ _ ",
"^ ^ ^ ^ Q Q W L Q Q ^ ~ Q ,.u.f.sXl.B.H.B.B.P.E.#XE.#XE.E.W.W.W.W.W.E.E.#X#XL.B.H.H.B.l.FXa.] ` =.E T T T T T T R E _ _ _ _ ",
"^ ^ Q Q Q ~ } } ' ' / ~ Q ( r.-.h.FX`.Z.V.N.H.W.W.E.E.E.E.E.E.E.E.E.E.E.E.E.L.N.V.Z.Z.r.` ] ] ` E Y E ` 4.=.:.=.` R _ _ _ _ ",
"^ Q Q Q ( t.t.1.<.>.:.' ^ Q { r.#.CX6.6.Z.x.b.H.B.B.B.B.B.B.B.N.B.B.B.B.B.B.B.n.A.0.lXCXd.d.` ` E Y 4.s.4.4.4.r.:.] _ ) _ _ ",
"^ ^ Q ~ t.d.a.>.2.2.2.>.' ~ r.f.CXw.e.9.A.x.x.v.v.v.b.b.c.b.c.c.c.c.c.v.b.c.c.x.g w.e.w.] i.4.&.E ] d.h.p.4.p.p.p.4.] _ E _ ",
"^ Q L ( g.a.2.>.1.2.1.2.;.r.{ g.8.mXmXw.g j.x.M.b.b.b.b.b.b.b.b.v.v.b.b.b.b.b.b.Q.xXw.mXq.CXa.2.R 4.d.s.4.4.i.i.i.p.:.) R _ ",
"^ ^ L / g.3.>.>.2.2.>.3.>.r.y.mXe.nXw.q.# w S.^.^.Y.K.K.Y.Y.$X5X5XuX5XU.J.K.Y.K./.U.xXe.nXnX0.7.;.a.d.i.i.i.i.i.i.p.<.' T R ",
"^ ^ L W >.3.3.2.>.>.2.2.;.<.g.e.nXnXq.8.o . y S.Z.^._././.Y.5XdXfXGXdXU.T.T.T.T././.U.jXq.w.w.6.-.' r.i.i.i.i.i.p.i.:.) E R ",
"^ ^ L n I ;.t.t.3.t.3.<.@.7.5.8.vXvXvX0.o   X s p m.Q.Q.T./.6XhXgXGXhX4XY.T.T.T.Y.^.T.Z.lXbXvXlX{ L ^ <.i.p.p.i.i.;.^ ) E R ",
"^ ^ B z v W ,.<.r.<.,.G X.lXjXkXjXjXkXxX@       X s d s V.G.uXsXsXAXsX4X/.T.T.T.T.T.Y.V.xXlXkXNX/ B B ~ r.r.r.<.;.G L T _ E ",
"^ ^ K z h l v M v m v k H xXjXjXjXjXkXcX@             . s d d d d d f U._.^.^.^.T.T.T.C. X6.kXNX/ B m N N N N N N m B T ` _ ",
"^ ^ K z l h h h j j h h J NXDXcXDXBXBXlXQ.r             . X . . . . X s d d U./.(.^.^.$XZXHXHXNX/ B N m m m m m m m B T _ _ ",
"^ Q K v z z k j j h j l G f.JXKXKXKXKXlXQ.M.e                         X o o y p A.p f f cXf.u.u./ I B N m m m m N B U E _ _ ",
"Q Q Q M z z z z l l z z / f.HXPXPXPXPXHXXXyXZ.r e X                         o o o o o # o.Y E =.T I I B B M B B B I T E _ _ ",
"^ ^ ^ Q n z n z z n n L } f.HXKXPXKXKXPXLXvXXX_.J.r q . . .                           X c _ ` _ E U I I I I I I I T E _ _ _ ",
"Q ^ ^ Q Q K n n n n L Q / u.HXKXKXKXKXPXJXlXS././._.Y.r q r X                       . ; B _ _ _ _ _ U I I B I U R _ _ _ _ _ ",
"^ Q ^ ^ ^ ^ Q Q Q Q Q ^ ~ u.DXHXHXJXJXKXMX XZ.T./.^.^.T.T./.j.y p s p w .     .     . K _ _ _ _ _ _ E E E E E E _ _ _ _ _ _ ",
"^ ^ ^ ^ Q Q Q ! Q Q Q Q ( #.cXHXHXHXHXKXvXA.x.J.(.^.(._._._.).5XQ.5X5Xc.r q q q + O $ Y _ _ E _ _ _ E E T T T T T R _ _ _ _ ",
"^ ^ ^ ^ Q / ( ( ' ( ^ ^ ^ { f.zXMXzXcXcXjXz.k.c.M.M.c.l.l.l.V.$XQ.$XZ.S.Z.A.z.A.u 9 0 J ] E _ _ ) E _ ] ] ] ] ` _ _ R _ _ _ ",
"Q ^ Q ^ ~ ,.3.2.>.>.;.^ ^ ( { X.X.o.D y j.k.k.r r w 1 < < < < , < , 2 6.vXvXMXVX7.> S D G ) _ _ E E ] i.p.i.i.4.=.] R _ _ _ ",
"^ ^ Q ^ r.d.t.2.>.4.2.>.*./ Z C C 6 * w k.x.k.k.e , $ % $ % $ % $ $ 5 %.w.e.CXCX5.& > > A J ) E T ` s.h.i.i.i.i.t.1._ R R _ ",
"Q ^ L / g.a.3.>.1.>.>.3.-.J A V > ; * * l.Y.H.N.x.i < % % $ % % $ $ 7 8.9.9.w.q.%.* ; : 6 V D N Y i.d.s.i.i.i.i.i.i.:._ R _ ",
"^ ^ L / g.t.2.>.3.>.>.3.J D Z 6 ; ; ; 3 {.,X*XI.n.i 1 % = = % % = % 0 A.D.D.D.XXf , , : ; 4 V C Y a.s.p.i.i.i.i.p.p.<.' T R ",
"^ ^ L Q t.3.2.>.>.>.2.3.-.S 8 - * > > * a {.l.l.i y < * % = : = - - t G.F.!.F._.N.e e ; = : 9 Z N } y.p.i.i.i.i.p.p.:.) T R ",
"Q ( K M ~ <.p.4.>.3.2.>.J A V ; ; ; > > * 3 3 3 3 3 * = = = = = - * u G.~.!.F._.M.e e : - > 8 Z W B ' i.a.i.i.4.i.4.( ) E _ ",
"Q ^ K z b ~ <.t.r.r.<.~ G H V 4 ; > > > > > ; > ; ; - - = = = - - 3 u G.!.!.!.(.H.x.j.- - > 0 S ! B G / i.r.r.r.,.W L T E E ",
"Q ( K z k v N G B B B l l G Z 0 6 * ; ; > > > > > ; > ; > > > ; ; * u n.~.~.~.(.B.k.i = 6 0 D J ~ B N N B B G G G N B U E _ ",
"Q Q K z l h j j j j h h l G X.H V 4 > ; ; : - ; > > ; ; > > > ; > * u N._./.~._.n.r e > 0 D D T I B N m m m m N m m L E ` _ ",
"Q Q L z z j j j j h j k v Q G J D 0 9 > > > : = - = : : = = : = - * 2 l.T.I.U.U.l.e , 0 J J G ` U B B N m m m m m N I _ E _ ",
"^ ( Q n z z z l k l z n K Q ^ ^ G X.S 0 9 9 9 9 : = = = : : : : = = 2 u p a a `.a u 0 D ~ ` E _ U U I B B B N B B L T _ E _ ",
"^ Q Q Q z z z z z n z M Q ^ ^ ^ G ( J D Z Z Z Z 8 8 8 8 8 V 9 9 9 9 8 8 8 0 A A A H ~ ) _ _ R E _ U I L B I I I I U _ E E E ",
"^ ^ Q Q U K K z n n L Q Q Q ^ ^ ~ ( ! G H { [ J S S S S Z S S S S A S A H H N B G B _ ` _ _ R R _ _ U I P I I U U E _ _ E E ",
"Q Q Q Q Q Q K K L W Q ^ Q Q Q Q ^ ^ ^ ^ ! ! ! G F H J H H H H J J J J J J B R T &.U &.E E E E &.E E E T T U U E E E E E E E ",
"^ ^ ^ ^ Q ^ Q ) ^ ( ^ ^ ^ ^ ^ ^ ^ ^ ^ ^ ( ( ( ( ( ~ ^ Q ^ ^ ^ T R ) R U E &.E E U &.U U _ ) _ ^ ) _ ) _ _ E ) E ) ) _ ) ) _ ",
"_ ) ) ) ) ) ) ) ) ) _ ) ) ) R ) ) ) ) ) ) ) ) _ ) ) ) ) ) _ ) ^ Q ^ ^ ^ ^ ^ ^ ^ Q ) ^ ^ ^ ^ ^ Q ^ ^ ^ ^ ^ ^ ^ ^ ^ ^ U ^ ^ ^ "
};
