/* XPM */
static char *_28e03e7df264096bd3a5492a3dc14b1ZIkszUGn0kbwaHxK[] = {
/* columns rows colors chars-per-pixel */
"62 73 224 2 ",
"   c #2E5904",
".  c #285109",
"X  c #355B03",
"o  c #37630D",
"O  c #3C690B",
"+  c #386713",
"@  c #255F2B",
"#  c #51740F",
"$  c #456D1C",
"%  c #4C7725",
"&  c #4D7924",
"*  c #537D2B",
"=  c #527F33",
"-  c #20715F",
";  c #55891C",
":  c #55921B",
">  c #4FA203",
",  c #52A506",
"<  c #55A907",
"1  c #54A609",
"2  c #56A909",
"3  c #59AE0B",
"4  c #5DB40B",
"5  c #5EAB16",
"6  c #5FAA18",
"7  c #5EB212",
"8  c #60B70D",
"9  c #61B90E",
"0  c #61AC19",
"q  c #61B415",
"w  c #64BC13",
"e  c #65B41B",
"r  c #68B71D",
"t  c #66B91A",
"y  c #6ABC1C",
"u  c #71B515",
"i  c #57842B",
"p  c #59862C",
"a  c #5A892D",
"s  c #5D982A",
"d  c #568332",
"f  c #5B8731",
"g  c #69973B",
"h  c #68B327",
"j  c #6BBC22",
"k  c #70B52C",
"l  c #73AB3A",
"z  c #67C31B",
"x  c #69C319",
"c  c #6CC31C",
"v  c #70C61D",
"b  c #73CC1E",
"n  c #72D517",
"m  c #76D41D",
"M  c #78D61F",
"N  c #7AD81F",
"B  c #5EC03A",
"V  c #6DC521",
"C  c #6EC924",
"Z  c #72C625",
"A  c #71CB25",
"S  c #73C629",
"D  c #75CC2A",
"F  c #7ACD2C",
"G  c #77D420",
"H  c #79D720",
"J  c #7AD821",
"K  c #7CD32C",
"L  c #7EDA29",
"P  c #71CF32",
"I  c #7CCE32",
"U  c #7FD133",
"Y  c #7AD138",
"T  c #398E74",
"R  c #3CAD7A",
"E  c #52BB4E",
"W  c #48B973",
"Q  c #51CF5E",
"!  c #84D22E",
"~  c #81DA2C",
"^  c #83D435",
"/  c #85DB34",
"(  c #8DDB36",
")  c #85D53B",
"_  c #89D73A",
"`  c #86D93B",
"'  c #8DDC3A",
"]  c #90DD37",
"[  c #91DD3B",
"{  c #89E433",
"}  c #8DE03E",
"|  c #8CD643",
" . c #8CDB43",
".. c #8FDC48",
"X. c #92DE42",
"o. c #96DA4A",
"O. c #94DD4A",
"+. c #99D951",
"@. c #A4DF58",
"#. c #8FE141",
"$. c #8FE241",
"%. c #90E142",
"&. c #91E244",
"*. c #91E245",
"=. c #9CE047",
"-. c #94E24A",
";. c #9BE24C",
":. c #9DE453",
">. c #A3E44F",
",. c #A4E45B",
"<. c #A6E45B",
"1. c #ABE864",
"2. c #B2EC6F",
"3. c #B4ED71",
"4. c #C4EB7A",
"5. c #197D86",
"6. c #188495",
"7. c #24979F",
"8. c #33AA8B",
"9. c #2BA69A",
"0. c #33AA96",
"q. c #1C91AC",
"w. c #0A8BB8",
"e. c #249DB4",
"r. c #28A6A8",
"t. c #32A8A5",
"y. c #2BB4AB",
"u. c #26BDB9",
"i. c #42B385",
"p. c #5BBBBF",
"a. c #35CA8D",
"s. c #3BD38C",
"d. c #0EC7B7",
"f. c #2ACCAB",
"g. c #53D0A4",
"h. c #0D93CF",
"j. c #149AD9",
"k. c #1EBCCF",
"l. c #13A2DB",
"z. c #14BADB",
"x. c #23A7C8",
"c. c #068EE4",
"v. c #0493E4",
"b. c #0896E7",
"n. c #0499F4",
"m. c #009CFF",
"M. c #09ACE8",
"N. c #17A4E5",
"B. c #0FBCE3",
"V. c #09A9F7",
"C. c #00A5FF",
"Z. c #02ABFF",
"A. c #15A5F6",
"S. c #15ACFD",
"D. c #1BAEFF",
"F. c #07B9F1",
"G. c #01B4FF",
"H. c #0AB4FE",
"J. c #01BEFF",
"K. c #0ABBFF",
"L. c #17B6F9",
"P. c #15B3FC",
"I. c #1BB3FE",
"U. c #1DBBFF",
"Y. c #11C7CD",
"T. c #30D1D1",
"R. c #13CFEB",
"E. c #00C1FF",
"W. c #0CC1FE",
"Q. c #03CBFF",
"!. c #0BCDFF",
"~. c #1CC6F3",
"^. c #15C3FF",
"/. c #1BC2FF",
"(. c #13CEFF",
"). c #03D1FF",
"_. c #0CD2FF",
"`. c #13D2FF",
"'. c #1FD6F8",
"]. c #1BD3FF",
"[. c #3CCFE9",
"{. c #2DC9F8",
"}. c #24D5FE",
"|. c #28D7F8",
" X c #2AD6FF",
".X c #33D3FF",
"XX c #33D9FF",
"oX c #3CDBFF",
"OX c #38E0FF",
"+X c #4AC8EB",
"@X c #48CCFA",
"#X c #48DCFF",
"$X c #58DDFF",
"%X c #4DE1FF",
"&X c #53E2FF",
"*X c #5CE4FF",
"=X c #5DE9FF",
"-X c #64E6FF",
";X c #68E7FF",
":X c #66E8FF",
">X c #6BE9FF",
",X c #75E7FF",
"<X c #75EAFF",
"1X c #7CECFF",
"2X c #7AF0FB",
"3X c #84EEFF",
"4X c #8AEFFF",
"5X c #85F1FF",
"6X c #8CF1FF",
"7X c #92F2FF",
"8X c #9CF4FF",
"9X c #A4F6FF",
"0X c #ABF7FF",
"qX c #ADF9FF",
"wX c #B0F7FF",
"eX c #B2F9FF",
"rX c #BCFAFF",
"tX c #C4FCFF",
"yX c #CAFDFF",
"uX c #DBFEFF",
"iX c #E1FEFF",
"pX c #ECFFFF",
"aX c #F1FFFF",
"sX c #FCFFFF",
/* pixels */
"H H H H H H H M H H H H H M H H H H H H H H H H H H H M H H G C A A A C A C A A A A A A C A A A C A C A A C A C A A A C D C ",
"H H H N H H H H H H H H H H J H H H N H H H M H H H H H H H G G C A A C A A C A A A C A A A A C S C A A A A A A S C A A C C ",
"H M H H H M M m M M M M N H M H H H M N M M M M M M H H H H J A C A A A C C C C C C A A C A C A A A C C V C C A C C A C C A ",
"H H H H H m H H M H M M M H H H M H N M M H M H H M M H H J G A C A A C C A C A A A C A A A S C A A C C A A A A C C A A A A ",
"H H H N m J L / L L L G M M M J H H M m L ~ L ~ L J N M M N G A A A C A P U K K F S A V A C C A C C A S U K F F A C C C A C ",
"H H N M H :.;.#.#.#.} L H M M H H M m L :.:.#.#.#.{ L H M N G G A A z D | +.( ( ( ( K A C A A A C C I +.X.( ( ( ( K C C C D ",
"H H m H :.1.-.#.#.#.#.#.L J M H H m L 2.:.&.#.#.#...` ~ M M M C C C Z o.<.[ ' ( ' ( ( K A C A C C U O.<.] ( ] ] ' ( D C C C ",
"N H n ~ 3.:.&.} &.#.#.&.#.J M H G J { 3.-.' #.#.#.#.&.` m M m G C C ^ @.<./ ( ' ' ( ' ` P C A A z  .<.;.( ( ] ' ' ( ^ D C C ",
"H H n ! 1.&.} &.#.#.#.&. .L G J m J ' :.X.' &.#.#.} O. .m H G G C C ^ o.X.( ] ' ] ( ] o.D C C A c | +.] ( ( ' ( ( [ ) D V A ",
"H J n G ` &.&. .#.#.#.$.' K m J M m D [ &.&.#.#.#.&.&.` m H G A C C c ^ X.' ] ' ( ] ( | D V C A z D ( [ ' ( [ ' ( ] ) Z C C ",
"H H m v V ^ O.&.&.&.-.^ A b J J M b v Z | -.-.-.-.} I V H H G A C c 7 y ) &.X.X.X.' ^ V C A A P w q Z ) -.X.X.X.[ K C C A C ",
"H H A y e Z ^ ^ U ^ Y S y b N J m b t r S U U U U U V t H N G D C z 4 7 j ^ ^ Y ) ^ v 3 V A G A 9 4 7 Z ) ) ^ Y U r q c A A ",
"H M b y e e r r j j j 0 t b H H G b y 0 e r r r j h e e N N H G C w 4 2 3 e e t r e 5 < z A A A 9 3 3 3 t r e t 7 3 7 z A A ",
"H H b c t 0 5 5 5 5 5 0 t G H H m b j e 0 5 0 0 5 6 0 r J H H A C x 8 3 < > > > > > > 4 V A A A w 4 < , > > > > > > w C A A ",
"H H m v y r e 0 0 0 e e c H H H m b v y e 0 0 0 0 e t b H H H A C c 4 4 4 2 1 1 1 1 3 w V C C A x 9 4 3 2 1 1 1 2 4 x C A A ",
"H H G b c v y y y r y c m J H H M m v c v y v j y y v n H H G G C C w 4 4 4 4 4 4 4 4 z C D A C z 9 4 4 4 4 4 4 4 q C A A D ",
"H H H m b v j v z c v m G H H H M H m v c c v c c v m H H H H A A A V w 8 8 8 8 4 E G.u.S A A A A c q 8 4 4 4 4 9 z C A A C ",
"H H H H m b b v v b m G H G H H H H G m b v v b V G G i.j.j.j.l.l.N.8.c u w 9 w w E m.c.k.A A A A A x x w w x x v C C A A A ",
"H H M H M M m m M M H H H H H H H H M N G m G W x.j.j.F.G.G.G.J.G.G.F.z.Y.z.a.y v E m.n.C.f.C S A A A V V v V V C C H A C A ",
"H H H H M M M M M M H H N H N H H H H N M m 0.V.G.G.G.E._._._._._._._.]..X X~.z.k.[.^.c.c.m.f.A A A A C C C C V C C A A A A ",
"M H N M M M ~ ~ L L J J M M H H M N H n P y.H.E.)._._.%X<X1X6X3X5X5X2X=X*XOX!.U.D.@X-X~.c.n.~.Z C V V V U K F D S C C A A A ",
"H M N M M O.&.' ' #.` L H M M H H M M t.N.G.).).XX<X5X8X9X9X9X0X0X0X9X6X4X<X%X#X@X$X8X<X@X+Xg.Z C C I o._ / ( ( U D C C A C ",
"H H m N } 1.:.#.#.#.#.} L M H H M m t.G.E.}.&X&X1X0XqX7X6X6X6X6X6X6X7X9X0X9X7X3X1X3X4X{.U.k.Y C C D X.<.[ ( ] ] ' / D A C A ",
"H H n L 2.,.&.} #.#.#.#.` J m J M t.G.Q.].=X1X5X7X7X6X1X<X,X,X,X1X,X1X6X4X4X8X0XwX0X$X{.B.B S C z | <.>.( ( ' ' ( ] Y A C A ",
"H H n ~ 3.&.} #.#.#.#.&.&.K M m 9.G.Q.].*X<X7X9X8X8X7X5X<X-X-X-X-X-X>X<X<X,X3X7X9XqX3X$XT.Z Z C c o.@.] ( ] ' ' ( ] ) P C C ",
"H H m G | &.&.} #.#.#.&.) K M t.Z.Q.`.*X6X8XqXrXtXtX0X8X6X>X=X-X-X-X-X-X-X;X,X<X5X9XeX4X$Xp.f.b z F ' [ ' ( ( ' ] [ ^ D C Z ",
"H H m c S ` &.-.&.&.&.` K M m j.G.`.&X5X9XeXyXuXuXuXyXeX9X3X>X-X-X-X&XoXoX#X-X-X<X6X9XqX3X$XB.b w w Z ` &.X.#.[ ' ^ Z C C C ",
"H H b c t S ) | ` ` ` S y v 0.F.W.%X5X7X0XtXuXpXpXpXiXtX0X7X1X>X-X=XoX}. XXX#X&X:X,X7XqXqX,X@Xy.w 4 e U  ._ ) ` ^ Z w c A A ",
"H H b c 0 t y j j j j e r A h.^.).*X4X9XtXuXpXsXsXsXpXuXtX9X3X>X-X=XXX].].].}.oX=X-X3X9XrX3X$XY.q < 3 4 j j j j w 3 7 c A C ",
"H H b c r 0 5 0 0 0 6 0 r R M.!.).&X4X9XtXuXaXsXsXsXaXiXtX9X3X>X-X&X X`.E.Q.(.oX$X;X,X6X9X0X,X[.a.3 2 , 1 > , , 1 1 7 C D A ",
"H H m c y r 0 0 0 0 0 e c 7.H.)._.-X6X9XtXuXaXsXsXsXaXiXtX9X3X>X&XXX`.E.J.E.Q. XoX*X>X3X7XeXqX-XY.8 4 < 1 , > 1 2 2 w A A A ",
"N H m v v y y r t t t v A r.L.Q.%X=X<X8XrXuXpXsXsXsXpXuXrX9X5X<X#X].E.J.J.E.E.].XX*X:X1X4X0XrX2Xd.8 4 4 3 4 3 4 4 4 C C A A ",
"H H G m v v v v v x v b E M.^.Q.#X XoX6XeXtXiXiXpXpXiXyX0X7X3X=X}.E.E.J.J.E.E.`.oX*X;X<X4XqXrX5XY.x 8 8 4 4 x 4 9 x C D C A ",
"H H H H m v v c c v m M 8.V.!.Q.^.J.}.<X7XrXyXuXuXuXyXqX8X4X=XXX`.E.J.J.E.J.E.(.oX*X;X<X4X9XrX6XR.Q x 9 4 4 4 x x b A A C C ",
"M M H M H G H G H M M M 8.L._.Q.J.Z.W.}.&X3X0XtXtXyXeX9X7X-XXX`.Q.E.E.E.E.J.E._.oX*X;X,X4X7XeX9X].a.A v v C C C C C C C C C ",
"G H H m G G G H G G M m 8.A.!.Q.E.C.Z.E.(. X-X4X4X7X3X<X-XXX_.E.E.J.E.J.E.E.E.!.XX*X;X,X6X6XeX9X'.s.A A A A C A C G C C A G ",
"A A A A A G A A A A G A 0.L.Q.Q.E.Z.m.G.E.!.].XXoXXXXXXX}.!.E.E.J.J.J.E.E.E.E.!.XX*X;X,X4X7X0X9X'.s.G G G G H G G G G G G G ",
"A Z A A C C C C A C C C 9.A._.Q.E.Z.m.C.G.W.Q.!.Q.!.!.Q.E.E.E.E.E.E.E.E.J.J.E.!.XX*X;X,X4X7XwX9X'.s.N N N M N J H H H H J J ",
"A A A A C A C C C C A C r.L._.Q.E.C.m.C.H.G.E.E.Q.Q.E.E.J.E.J.J.E.E.E.J.E.J.E._.XX*X;X<X5X6XeX9X'.s.M M H N M J H H H H H G ",
"A A V A C C C V C C C C 9.S.!.Q.E.Z.m.m.Z.H.W.E.E.E.E.E.J.E.E.E.E.J.J.E.E.E.E.!.XX*X;X<X6X7XeX8X}.s.m M m m m n M H H H H J ",
"V A A V C A K U U K D V r.V./._.Q.J.C.m.C.H.K.J.J.J.J.E.J.E.J.E.E.E.J.E.E.E.E.(.oX=X-X,X6X9XeX<X|.s.m L / / / L J M H H H H ",
"A A C C D o.X.' ( ( ^ K W N.U._.Q.E.Z.m.m.Z.K.J.E.E.E.E.E.J.E.E.J.E.E.J.J.E.!.}.&X-X-X<X6XqXrX&XT.Q { ;.#.#.#.#.{ L J m H H ",
"A A V A o.<.o.[ ] ] [ ( ! x.D.(.Q.E.C.m.m.C.H.G.J.E.E.J.E.E.J.J.J.E.E.J.J.E.!.oX-X-X;X3X7XqX9XXXf.~ :.3.#.#.$.$.#. .L G M H ",
"A C v P <.=.( ( ] ' ' ] [ x.A.U.).E.Z.m.m.m.m.H.K.J.E.E.J.E.E.E.E.E.E.J.J.Q.}.&X-X-X<X3X9XrX<X Xf.} ,.:.} #.#.#.#.#./ G M H ",
"C A z K <.[ ( ( ( ' ] [ [ p.A.I._.E.G.Z.m.m.m.C.H.H.J.E.E.J.J.E.E.J.E.J.E._.XX=X-X-X1X7XqXqX%XT.s.-.,.$.#.#.#.#.#.&.` K m N ",
"A D z z _ X.[ ] ( ( ] ] ( 4.N.D./.).Q.G.C.m.m.m.C.H.K.J.J.E.E.E.E.E.J.J.Q.}.$X-X-X<X5X9XrX1XOXT.n K  .$.&.#.#.#.&.#./ G m N ",
"A D c q v ) X.X.X.X.[ ! F o.e.A.U._.).E.G.C.m.m.m.C.H.H.J.E.E.J.J.E.J.E.Q.XX*X-X-X<X6XeXqXXX|.f.A c S ` &.#.&.&.#.^ A G M H ",
"C C y 4 q j ) | _ _ ) Z w k a b.I./.!.E.J.G.m.m.m.m.Z.Z.H.K.E.J.J.E.E.Q.}.&X-X;X<X6X9XeX>XR.s.J b t t A | | | ) U j c m J N ",
"C A x 4 < 3 7 7 6 7 7 2 5 ; # q.S././.!.E.E.G.Z.C.m.m.m.Z.H.J.E.J.J.Q.].%X>X<X3X8XeXeX<X].Y.J J v y e e e q e e e 0 y b N J ",
"A C c 4 3 < , 1 1 1 , , : % $ $ w.S././._.).E.E.Z.Z.Z.C.G.K.J.J.E.Q.].#X>X<X6X8XeXqX<X}.H.r.N J v y e 0 0 0 0 0 0 0 c M J N ",
"A A z 4 4 3 < < 1 , 1 3 ; % %   . w.P.U.(._.Q.E.E.J.J.J.J.E.E.E.!.}.#X<X7X8XeXeX6XXX_.K.t.H H H b v y e e 0 0 0 0 r b M N J ",
"C A v w 4 4 4 4 3 4 4 4 : % %   . @ w.P.U./.(.!.!.(._.`.].].(. X=X:X<X8XqX9X0X6XXXQ.H.y.J J H N b v v y t y r t y v M M J M ",
"D C A c z 4 9 9 8 8 8 x : & * o     @ h.b.L./.U.(._.).#X=X*X*X=X1X3X3X1X3X&X_.`.W.M.e.D H H H H J b v v v v v v b b H H M J ",
"C C C C z z 9 4 8 w z V s & % & X   X   - j.D.U./././.`._._.`._.`._._.`.U.U.^.K.l.T v M N H H H J J m b v y v b m m H H J M ",
"A A A C A A A C A A Z C A s * & & X   X X - h.V.I.D.D.L./.^././.^././.U.D.D.A.h.T u M M H H N H m J m M m M M M J J H H J J ",
"A C C D A c A C C C C A A Z s = f = + + o + X 5.v.v.v.A.U.D.D.D.D.D.L.N.b.b.6.p h M M M H H H H J J N M m m m N m m J J m M ",
"A A C C C S S F D D A A C A A a d d d * + o O o + + o 6.n.v.v.v.v.n.6.$ d d p h L J J m H H H H H M G J L L L J J H m H H H ",
"A A C C Z ) X.] } ( ! D A C A C C i i a a f & O o O O O + + O O $ i a i p l X.&.} ` L H M M H H M m L #.&.#.#.#.! ~ N m H H ",
"A A V A | <.o.] ( ] ] ( K C C A Z C Z g d f i a i i f a a a a i a p * l 2.<.&. .#.#.#.J M H H H M J :.3.#.#.#.#.[ { J m H H ",
"A A V D @.>.] ( ( ] ] ' / D C C C C ^ <.=.( k f i f i i i i i d k { [ 1.,.} #.&.#.#.#. .J m H H n #.,.:.#.#.$.$.&.#./ K M H ",
"A A V D 1.[ ( ( ] ( ( [ ( F C A A A ^ @.[ / ' [ ' ( &.=.Y Y ^  .~ m ` :.:.} } #.#.#.#.&.L m H H n &.,.&.#.$.#.$.#.&./ K m N ",
"C A V C o.[ ] ] ' ' ] ' ) F C A A V F X.[ ( ( ' ' } [ ` C C m G J m ^ ' &.#.#.#.#.#.&. .H H H H n ) O.#.$.$.$.$.&.#./ K m N ",
"C A w t A ` &.' ( ] ` ( F C C A A x q F X.X.' ' ] ' ^ F C C C G J N c S ` *.#.$.&.#.' I G J H H b c D  .-.#.#.#.#.` D G N M ",
"A C z 4 7 C | O. . .| C t V A A c z 4 t F |  . .O.^ y q A C D m M m c y S `  . ...) Z t m N H J b y y S  ... .| ^ C c m J N ",
"A A z 4 < 5 t y y t t 5 3 w A A C x 3 < 7 j y j j 7 3 3 A A A G N b c e e y y j j j r 0 m ~ N N b t e r j j j j j e t b J H ",
"A A z 4 2 1 1 2 < < 3 , 3 V C D C w 3 < 1 1 , 2 2 2 < 7 A A A G N b c r 0 0 0 0 0 0 0 e b J m N v y e 0 0 5 5 0 0 0 c G J H ",
"A A z 4 4 2 1 , , , < 2 7 C C C V c 4 4 < < 1 1 1 , 2 7 A A A G M b v r e 0 0 0 0 0 0 c m J J M b v y e 0 0 0 0 0 e v H N H ",
"A A C w 4 4 4 3 3 3 3 4 x D C C C x 8 4 4 3 3 4 2 4 7 b A A A G M m b v c r t t r r v b G J M J b v v u y e e r y v M H H N ",
"S A A z 4 4 4 9 4 9 4 x C C A C C C y 4 4 4 9 4 4 4 z A A A A G M J b v v v v v v c b M J H J M M b v c v v c v v b H H N M ",
"A A A C C w 9 9 4 q x A A A A A A A C z w w 4 4 x z C A A A A G M J M m b Z y v b b M J J M M J H H b v v c v v b M H M M N ",
"C C C A C C z z c V C A C C Z C C C C A V V t C z C A C A A A J M N N M m m n m m M M M M J M J N N N m b m m m M N N M N N ",
"A A A A A A G D A D A A A A A A A A A G A G A A A C A A A A A G M G H G M m N N M M M m G m J m H H H H H H M M H G H G H M ",
"G G H G G G G m G G H G G G m G G G G G G G G G H G G G G H G G A A A A A A A A A A A A A A A C A A A A A A A A A b A A A A "
};
