/* XPM */
static char *d0e9ce6f1ff34b8ada29c8982bf632c8c2247yZuRrk4KMHB[] = {
/* columns rows colors chars-per-pixel */
"62 73 255 2 ",
"   c #4FA203",
".  c #53A606",
"X  c #55A708",
"o  c #56A909",
"O  c #59AE0B",
"+  c #5DB30B",
"@  c #5EAB16",
"#  c #5FAB18",
"$  c #5EB212",
"%  c #60B70D",
"&  c #61B90E",
"*  c #61AC19",
"=  c #64BC13",
"-  c #65B41B",
";  c #65B819",
":  c #6ABC1C",
">  c #4CAC2E",
",  c #6BBB22",
"<  c #6AB429",
"1  c #74B72C",
"2  c #68C31A",
"3  c #6CC31C",
"4  c #71C61D",
"5  c #73CC1E",
"6  c #72D517",
"7  c #76D41D",
"8  c #78D61F",
"9  c #7AD81F",
"0  c #6DC522",
"q  c #6EC924",
"w  c #71C626",
"e  c #71CB25",
"r  c #75CC2A",
"t  c #7ACD2C",
"y  c #77D421",
"u  c #79D720",
"i  c #7AD821",
"p  c #7BD22B",
"a  c #7ED929",
"s  c #6BC836",
"d  c #7CCD31",
"f  c #7DD433",
"g  c #37A870",
"h  c #469F5F",
"j  c #57BC46",
"k  c #52AB5A",
"l  c #4CBB6A",
"z  c #52B571",
"x  c #58C356",
"c  c #70CE4A",
"v  c #75C959",
"b  c #78D559",
"n  c #52C473",
"m  c #6CCB65",
"M  c #6AC875",
"N  c #82C626",
"B  c #82D729",
"V  c #81DA2C",
"C  c #82D434",
"Z  c #86D937",
"A  c #8CDB36",
"S  c #85D43C",
"D  c #8DDC3A",
"F  c #91DD3B",
"G  c #8DE03E",
"H  c #91E03E",
"J  c #8BD746",
"K  c #8CDB44",
"L  c #95DC48",
"P  c #8DD755",
"I  c #8FE141",
"U  c #91E243",
"Y  c #98E34B",
"T  c #9DE455",
"R  c #A7E54B",
"E  c #A6E55A",
"W  c #95D569",
"Q  c #A9D773",
"!  c #AAE864",
"~  c #B1EA69",
"^  c #B7EB71",
"/  c #C4F177",
"(  c #007BB4",
")  c #0673B9",
"_  c #277FBC",
"`  c #0F76CC",
"'  c #266AD5",
"]  c #297AD8",
"[  c #347DE2",
"{  c #34AD8F",
"}  c #39BC96",
"|  c #0184BC",
" . c #098CBE",
".. c #0593BE",
"X. c #1999BC",
"o. c #2C97AC",
"O. c #2799B5",
"+. c #1BACBF",
"@. c #33B0AE",
"#. c #25A9B7",
"$. c #2AB8B7",
"%. c #469088",
"&. c #49B48C",
"*. c #6DBD89",
"=. c #4EB0B0",
"-. c #27C29F",
";. c #34C2B0",
":. c #50C382",
">. c #6EC693",
",. c #48CCB1",
"<. c #0887C7",
"1. c #1588C8",
"2. c #0A97C4",
"3. c #1796C7",
"4. c #1A9BC6",
"5. c #1C9ACA",
"6. c #0F8ED9",
"7. c #169AD6",
"8. c #209DCD",
"9. c #2C84DB",
"0. c #2888D8",
"q. c #3388DD",
"w. c #2896D9",
"e. c #3798DB",
"r. c #08A7C4",
"t. c #1AA8C8",
"y. c #1BB8C6",
"u. c #1AB4CA",
"i. c #1CBCCA",
"p. c #16A7D7",
"a. c #0EB1D4",
"s. c #1AB8D6",
"d. c #21A9C8",
"f. c #3FAFCB",
"g. c #25B8C8",
"h. c #22BDCE",
"j. c #3AB8C5",
"k. c #26A6D8",
"l. c #36AAD8",
"z. c #26B7D5",
"x. c #3AB5D8",
"c. c #048EE4",
"v. c #3385E2",
"b. c #388BE4",
"n. c #3A8CEA",
"m. c #2C97E5",
"M. c #3797E6",
"N. c #3490EC",
"B. c #3C95EB",
"V. c #19A9E7",
"C. c #15B6E3",
"Z. c #28A9E4",
"A. c #38A8E8",
"S. c #2BB4EA",
"D. c #37B7E8",
"F. c #2EAAF3",
"G. c #38A6F7",
"H. c #2AB8F4",
"J. c #37B8F5",
"K. c #4EB2D1",
"L. c #6FB5D7",
"P. c #4893EC",
"I. c #4499EA",
"U. c #5B9BE5",
"Y. c #49A5E8",
"T. c #59A3E7",
"R. c #44B6E6",
"E. c #4EB7F0",
"W. c #6AA6E6",
"Q. c #72A8E7",
"!. c #67B7E5",
"~. c #78B5EB",
"^. c #76B3F0",
"/. c #0DC5CB",
"(. c #1DC3C9",
"). c #19C6C8",
"_. c #1CCBC9",
"`. c #1ED1C9",
"'. c #19C3D6",
"]. c #25C9CB",
"[. c #38C7C7",
"{. c #2DD2C9",
"}. c #34D3C9",
"|. c #38D7C8",
" X c #25C5D6",
".X c #2FD0D4",
"XX c #35D6D2",
"oX c #14C6EA",
"OX c #31C6EE",
"+X c #39C8FC",
"@X c #48C6C9",
"#X c #57C9C9",
"$X c #4AD9C6",
"%X c #59D9C8",
"&X c #45CED4",
"*X c #56D6D4",
"=X c #6ADBC4",
"-X c #79DCC6",
";X c #6DC7D7",
":X c #77C7D6",
">X c #6FD1D1",
",X c #54E1CF",
"<X c #58E2C8",
"1X c #64E4CA",
"2X c #6AE5C9",
"3X c #74E3C5",
"4X c #77E6C8",
"5X c #7CEACB",
"6X c #7EF1CA",
"7X c #69E5D3",
"8X c #78E7D3",
"9X c #50D3EC",
"0X c #4AC8F4",
"qX c #6ECDEF",
"wX c #6EE3F8",
"eX c #92CF8B",
"rX c #B0E390",
"tX c #A6E0AB",
"yX c #8BB9DD",
"uX c #89B6E7",
"iX c #90B0EA",
"pX c #99B7E9",
"aX c #AFBAE4",
"sX c #EBBEDF",
"dX c #C6BBE4",
"fX c #D6BBE6",
"gX c #E9BEE7",
"hX c #F8BEE3",
"jX c #94CBD8",
"kX c #89D3D0",
"lX c #9BD5D5",
"zX c #ACD4D4",
"xX c #87E8C4",
"cX c #83EBCB",
"vX c #8CEDCC",
"bX c #96EAC7",
"nX c #9AF0C9",
"mX c #87E8D3",
"MX c #90EED0",
"NX c #A3EBC7",
"BX c #B7E2C9",
"VX c #A8F2CA",
"CX c #B2EDD5",
"ZX c #8FC6EC",
"AX c #A5C8E3",
"SX c #B2D2E4",
"DX c #B8E6E6",
"FX c #C6C9DC",
"GX c #CAD1DA",
"HX c #DED1DB",
"JX c #D0C8E6",
"KX c #E8C0E6",
"LX c #EECFEB",
"PX c #D4E9EB",
"IX c #ECECF1",
/* pixels */
"u u u 9 i 8 i 8 i 8 i 8 i i 8 i i 8 i 8 i i 8 i 7 8 y i i 8 y e q q e e e e e q e e e e e q e e q e q w e e e e e q e q e e ",
"u u u u 8 y 8 i y i 8 i 8 y i 8 8 i 8 i i 8 i i i i i 8 8 i y q q q e e e e e e e e q e e e e q e e q w q e q e e e e q e q ",
"u u u u i 8 8 i 8 8 8 8 i 8 8 i i 8 8 9 7 7 8 7 8 7 8 i y i i e q e e e q q q q 0 q e e e e e e q e e q q q q q 0 q e e e w ",
"u 8 u u 8 8 i u 8 i 8 7 8 i y 8 8 i 8 8 8 i 8 i y i 7 8 i i y e e e e q q e q e e e q e q e q e e e q q q e e w w q e e e e ",
"u u u 8 8 u V V a a a i 8 8 i 8 9 8 7 8 a V V V a i u 8 u 9 y e q q q 0 e d t p p r e q e e e e e q w r d t B t e q q q e e ",
"9 u 9 8 u T Y G I I G a 8 7 i i 9 9 6 V T T G I G G V u 8 8 y y q q 0 d J T A A A Z p e q e q e q q C L L F A A Z p q q e e ",
"u u 7 u T ! Y G I I I I a y 7 i 7 7 a ~ T U I I I I D V 8 9 8 y q q 0 L E F A D F A Z r e q e q q p Y ! A A A F F Z r q q e ",
"u u 6 V ^ T I G I I I I G a 7 8 7 7 G ^ Y G G v c b n :.l l l z l l c R E A A F D D D K e q e e 2 J E L A A A A A F f r q e ",
"u u 6 B ! U G H I I I U K a y u 8 u Z T P b v &.z @.t.a.p.p.p.p.p.t.} m P c b Z D D D L r q q e 3 J T A A F D A A F S t q q ",
"u u 5 y Z U U K I I U U D p 8 u 8 8 t I @.X.#.a.a.a.u.u.a.u.u.u.u.u.s.i.i.$.'.b D D D D e q e e 2 w A F D A A D A F S w q q ",
"u u 5 4 0 C K Y U Y K C e 7 u u 9 e l 4.u.).i.i.g.{.{.}.}.}.}.}.}.|.{.{.{..X].'.;.m B 0 q q e r = = w S Y F K L F B 0 0 e q ",
"u u 7 , * w C S C f f w : 5 i i x o.#.s.i.)././.).}.$X%X1X=X1X=X2X<X$X|.|.{.).'.(.$.{ @ 0 r e e & O $ w S S f f d : ; : e q ",
"u u 7 : * - : - - , , * - 5 c n $.oXz.(.{.{.;.|.$X1X3X4XxXxXcXMXMXcX8X<X<X,X{.|.{.'.i.g x s e e & O o O ; ; : : $ o $ 2 e e ",
"u u 5 3 ; * * * * @ * * : c =.Z.oX.X|.XX|.7XcXnXvXvXxXvXcXcXMXMXMXMXmXMXMXMX<X,X|.].].oX).x r e = + O .         . o $ q r e ",
"u u y 3 : : - * * * - ; s z V.h.`.`.,X,X7XMXnXbXbX4X3X2X3X4XmX8X5XcXnXnXnXnXMX6X<X|.|._.'.;.m r = % + O o X o o O O 2 q e e ",
"u u y 5 3 4 : : : : : s z S. X].XX,X7X7X6X6X6X6X4X2X2X4XxX7X7X2X7X2X6XcXcXcXMXvXxX6X4X$X[. X;.d 3 & + % $ + + + + + q e e e ",
"u u 9 7 5 4 : 4 3 3 5 z d.'.'.|.,X7X8XmXmXmXkX8X8X=X,X4X4X:X!.~.~.;X>X7X-X7X-X-XkXbXbX-X%X&X X} s 3 = & + + + & & 3 q e e q ",
"u u u u y 5 5 4 4 e s @.C.).`.,X7X8XlXAXAXAXlXkX8X;X;X-X>XL.Q.W.W.Q.:X7XqX;X~.ZXjXjXbXxX4X#X XoXn s 2 2 = = = 2 3 q q e e e ",
"u u u u 8 8 7 y u p { y.'.].$X2X6XmXaXSXSXFXBXzXZXiXiXuXL.Q.Q.Q.Q.Q.Q.!.9X;X~.uXuXZXjXxXxX=X@X[. Xx e q 0 0 0 q e e e e e e ",
"u 8 u u 8 8 8 8 y x #./.].$X3XxXvXbXJXLXLXIXPXDXaXaXaXpXiXQ.!.Q.^.W.T.Y.R.OXqX~.qXuXyXxXbXxX-X,.s.g s e q q q q q q q e e e ",
"i 8 i y 8 8 a V c 3.s.].$X,.3X4XkXAXKXIXLXPXPXJXdXaXpXpXiX^.~.^.^.!.Y.Y.Y.$X=XqX^.uX^.kXxXxX-X=Xj.a.{ 6 f r y r w q q q e e ",
"i i 8 i 8 L U D b p.).}.<X3X3XxXzXFXgXLXIXIXIXfXfXdXaXAXlXuX^.~.~.E.E.G.A.K.#X@XqX^.Q.;X-XxXtX=X,.oX} b D Z A A C p q q e e ",
"7 i y i I ! T K M (.).|.1X4XxXnXBXHXKXLXIXIXLXLXKXfXJXCXCXjX~.^.qXE.+XJ.G.B.x.;.&X!.W.>X-XxXNXxX%X}.@.*.F G A F D V r q q q ",
"y i 6 a ~ E I m #.)._.|.<X4XxXNXBXGXHXIXIXLXhXgXKXdXGXVXCXkX!.^.qXE.0XJ.I.B.R.[.XX0X!.>X=XxXxXxX2X$X;.} A A A A D F f e q e ",
"8 i 6 a ^ K F :.C.`._.|.1X3XxXnXCXDXHXHXhXhXhXhXgXfXSXBXtXjX^.^.E.E.G.I.P.M.;.x.Y.R.OX9X1X2X4XxXxXxX$X+.F A F A D F S r q q ",
"i 8 7 y F L U M s.{.`.|.2X6XxXVXGXfXsXhXhXhXLXhXgXfXdXSXAXuXuX^.E.G.x.j.j.K.x.Y.P.Y.T.W.%X2X4XxXnXnX*X;.A A A F A F S r q q ",
"u u 7 3 w A M @.i._.}.|.$X1XcXNXzXfXsXsXhXKXhXgXsXGXGXBXzXxX-X=X@Xj.$.f.f.f.A.I.I.Y.U.W.*X1X4X4XnXVX=X).,.J K F F Z w 0 q w ",
"u u 7 : - w @.C.).`.$X|.{.$X5XMXaXdXHXKXgXgXgXsXfXFXBXNXNXkX-X%X,.f.K.K.I.n.P.B.Y.P.U.W.%X<X4X5XNXVX7X/.oXv D S C 3 = 3 e q ",
"u u 7 : * : { t.)._.|.{./.;.5XMXzXdXfXsXsXJXsXFXfXaXaXpXpXuX!.T.M.B.n.N.n.n.n.B.I.Y.T.W.%X<X8XmXNXVX5X).s.j 0 , : O $ 2 e e ",
"u u 5 3 - * {  X_.(.i.t.).XX7X8XjXaXdXfXfXFXzXzXlXAXpXZXZXE.A.F.G.B.m.p.7.p.B.B.P.Y.T.Q.*X1X8XMXnXCXcXXXoX> . . . . $ 0 r e ",
"u u 7 3 : x @.s._.(.i.t.t.z..X.XK.Q.iXaXzXkXkX:X;X>XL.K.d.a.2.7.7.3.2.6.2.2.m.B.I.Y.T.W.*X2XmX8XMXVXcXXX X} > . . o 2 q e e ",
"u u y 3 0 z $. X_.).].+.t.z.s. Xw.e.W.aXkXL.=.L.=.K.$.+.r.2.2.2.| <.| <.<.<.k.B.P.Y.T.Q.%X7X8X5XMXVX5XXX.X;.j + + + q e e e ",
"u u u 7 5 z $.'.;.).g.y.t.k.g. Xw.w.I.Q.K.K.f.@.d.O.#.....<.| | <.p.7.<.( | w.B.I.I.T.W.#X2X8X5XMXVXcXXX X,.j & & 3 q e e e ",
"u u u u u z $.'._.).(.d.t.5.t.k.w.b.q.m.d.r.| ........| | | | <.7.+X+X3.( | w.B.I.Y.T.W.#X1X8X5XMXVXcXXX].;.> = 3 e e e e e ",
"8 8 8 8 B k #./._.).i.t.4.4.d.g.k.m.9.m.x.j.x.z.2.| 2.k.| ( 7.V.p.2.2.V.H.l.e.B.I.Y.T.!.,.,.5X5XMXVX8XXX X-.x q e e q e q q ",
"y y y y p k #.i._.).(.d.4.3.3.t.t.0.v.b.e.l.x.R.x.l.l.l.l.Z.+XH.c.| ( V.+XJ.l.M.I.I.Y.#X$X1X4X4XmXNX5X{./.{ j 5 e e e e e e ",
"e e e y r h #.'._.).h.t.4.3.1.+.t.4.0.b.v.e.x.R.R.0Xl.1.x.J.+XH.7.( ( V.+X+XM.M.I.I.K.$X<X=X=X3X3XNX-X].i.-.x 6 y y y y 8 y ",
"q q e 0 w h #.).].).].u.t.4.1.4.t.t.w.9.v.e.x.D.D.0Xk.( l.S.+XH.7.| ( p.+XH.n.M.e.I.K.$X,.,.=X=XxXNX2X;.).{ c 9 u 9 9 9 8 9 ",
"q e e e w j @.t.y.].).].u.4.3.3.4.t.k.9.v.v.q.D.+X0XZ. .l.x.R.J.p.2.<.S.J.n.P.N.M.Y.&X<X<X<X3X-XbXkX,.].u.c 9 9 u u u u 8 u ",
"e e e q w S { u.(.`.).i.u.O.3.4.k.J.J.F.9.] b.J.+X+XD.K.K.x.R.f.D.H.+XA.P.n.n.q.Y.wXwXwX,.=X3X-XbXtX=X].a.c 9 6 8 8 u u u 8 ",
"e e e q q L =.7.i.].`.].u.t.3.5.m.G.J.J.F.m.[ m.G.M.M.e.e.M.e.e.l.D.D.I.P.[ m.Z.0XwXwXwX,X<X3X3XNXxX$X/.C.b A V i 8 8 8 8 u ",
"w q q e r ~ &.+.t._._.).t.d.4.8.G.G.G.H.H.F.m.q.q.q.q.n.b.b.n.M.Y.A.e.b.v.e.D.OX9XwXwXwX1X2XxXxXxX-X|./.'.b G G Z a 8 8 y 8 ",
"q e q w L ^ M @.t.i._.).$.t.4.8.m.G.N.F.F.D.R.e.0.9.v.n.n.b.n.M.B.M.[ 0.e.l.OX9X9XwXwXwX7X3XbXnX4X%X{.i.} P U U U G a 8 8 u ",
"e e q e E R E *.p.i._.(.u.t.t.5.m.N.N.m.F.F.K.x.0.0.0.0.9.9.9.] 0.] 0.0.l.OX&X9X9XwXqXqX2X3XbXnX2X<X.X].! U I I I U Z u 8 u ",
"e e 3 r ! F R *.7.t.y.).).y.y.t.5.5.5.5.m.Z.t.0.0.9.v.q.q.w.m.M.b.B.B.b.w.k.&X9X*X<X<X2X5XvXnXbX$X{.'.;.T Y I I I I D p 7 9 ",
"e w 3 4 S F E M #.t.u.)._.i.i.t.4.1.3.5.3.5.t.6.0.v.v.b.q.F.J.Z.q.P.P.m.p.a.[.%X,X<X<X2X4XbXVXxX$X].'.;.Y U I G U I C y 7 9 ",
"q e 2 & : C R Q *.7.t.i._.(.u.u.d.4.4.5.4.4.3.6.7.0.0.w.A.H.OXF.Z.w.m.k.p.t.j.$X<X<X<X3X6XvXbX2X|.'.;.M U U U K I C e y 8 i ",
"e e 2 % * < S R eX1.t.y.).).i.y.g.u.5.5.5.3.<.) 1.6.7.Z.+XV.V.H.J.7.p.r.t.X.[.$X<X1X2XxXbXbX2X$X_.oX} t J J S J f 0 3 7 u 9 ",
"e e 3 + . O $ 1 W O.5.t.i.). Xz.h.h.d.d.8.5.<.) ) ) ` 6.H.c.c.V.H.2.....X.d.@X%X1X2X5XvXnXcX,XXX(. X&.; - * ; - - - : 7 u u ",
"e q 2 + + . . . < eXrX=.i.i. X]. Xh.h.d.d.7.1.' ' ` ( 7.J.F.H.H.J...2.f.K.K.L.7X6XbXnXbX5X%XOX Xi.z < # # * * @ # * 3 y u u ",
"e e 2 + + + o . . < Q =.p. X X].].i.].h.p.5.` ' ' ] ` 7.S.Z.V.S.S...A.T.Q.W.>X8XxXVXNXxX1X|.'.s.[.x 3 - - * * * * : 4 u u u ",
"e e 0 = + + + + @ O Q =.p.z.h.].].].w.w.w.w.w.9.[ [ ] 7.m.w.w.e.l.l.W.uXL.yXkXjXjXlXkX$X|..X X X&.s 3 3 : : = : : 4 u u u u ",
"e e e 0 = + & & % % P M o.t.z.h.].z.v.n.b.A.S.A.w.w.w.q.q.q.q.e.U.W.L.yXAXlXSXdXpXU.I././.s.s.} u 7 3 3 4 4 4 4 4 7 u u u 9 ",
"e e e e 0 2 & + % * : L *.X.d. X_.k.m.M.e.k.OX[.l.t.u.r.u.r.t.g.#X#X;XlXGXCXSXJXyXY.S.i.i.s.$.B u u 7 4 4 3 3 5 7 9 u u u u ",
"e e e q q q q q e w w t J m 1.p.t.8.[ q.q.e.z.x.z.j.;.j.j.;.j.@X#X#X,.:X:X>XZ.e.q.q.w.u.'.} f 8 u u u 8 u 9 9 8 u u u u u u ",
"q e q w e q q q q 4 e 4 1 C *.{ X.6.] ] q.w.5.y.u.y.].y.y.y.y.y.g.y.$.d.u.t.0.0.9.] 7.;.:.c i i u 9 9 8 7 7 7 7 8 y 9 u u u ",
"q e q q w w r t p e r e q r L v %.o.0.' ] 0.0...r.r.r.r.r.r.r.r.r.r.r.2.....9.9.] ] #.n f 8 i 8 i 7 7 i a a a a u 8 8 i y 8 ",
"e w q 0 r S F F A Z B r e q e W R v _ ' ' ` 1. . .X.r.r.r...r.X.....2. ...<.` ] [ o.n G 8 7 i 8 8 8 a G U I G I V i 8 8 8 i ",
"e e 0 w S ! L A D A F A t q w 4 t J eXg  .` ) ) ) X.X. . . . . ... .2.2.2.6.c.{ >.! I a 8 i i y 7 a T ^ I I I I U D u 8 8 8 ",
"e e 0 w E R F A A F A F Z r e e w w L rXBXBXjX` ` <.<.1.<.1.` ` 1.<.` c.1.%.BXeXT K K K i 7 i 8 6 G E T G I I I L I Z i 7 i ",
"e e 0 r E F F A A A A F Z t e q q e C ^ ^ / rXZXZX=.o.O.O.O.O.X.o.o.L.kX*.v ^ E U U I I a 7 u u 6 U E U I I I I I U Z p 7 u ",
"e e 3 q L F F A F F A F Z t q e e w r L F F ! ! J P z z z z z z z k ^ / ~ R U U I I U K i 7 u u 6 C Y I I I I I I I Z p 6 u ",
"e e 2 = e Z U F A F H Z d 0 q e e 2 = p K L F D D F C N t t C V B N 2 r S U U U I H D d i 8 u u 5 0 r K U I I I I G r y 9 i ",
"q q 2 + * e S L K K S e ; 3 e e w = + - t Z K K K C , * e e e u 8 7 3 , w Z K K J J e ; 7 9 u u 4 ; , r K K K K S 3 3 7 i i ",
"e e 2 + . $ ; , : : ; + O : e r q = + X $ , ; , , $ O O e q e y 9 5 2 - - , , : , , - * 5 B 9 9 4 : - ; , , , , , - : 7 u u ",
"e q 2 + O . X . o o X . O 0 e e q = + . X X o o o o . + e e e i 9 5 3 - * * * * * * * ; 7 i 9 9 4 : - * * * * * # * : 7 u u ",
"e e 0 + + X X . . . o o $ q q e q 2 + + o . o . . X O = e e e y 8 5 4 : - * * * * * * 4 7 u u 9 4 3 : * * * * * - - 4 8 u u ",
"q r 0 = + + + O o O + + 2 e q q q 3 + + + + O O O O $ 3 e e e i 9 8 4 3 3 : ; ; ; : 4 e u u u u 7 4 4 3 : ; - ; : 3 8 u u u ",
"q e q 0 $ + + + + & + 2 q w e e e q 2 + + + + & + + 2 q e q e y 9 u 7 4 : 4 3 4 4 : 4 8 u u u u 8 5 4 3 4 4 4 3 4 5 8 u 9 9 ",
"e e e q 3 2 + 2 + $ 3 q q e e e q q 0 0 2 $ + $ = 0 q e e q e y 8 u u 5 5 4 4 3 5 5 u u u u u 9 u 8 5 4 4 : 4 5 5 u u u 9 9 ",
"q q q q q 0 2 2 2 0 q e q q q 0 q w e q 3 0 2 0 0 q e q e e e i 9 8 9 u 8 7 7 7 8 8 9 u 9 9 9 9 9 9 8 8 5 7 5 7 8 9 8 8 9 9 ",
"e e e q q y e y p e e e e e e q e e e y e y e e y q e e e e e y y u u 7 8 8 9 9 9 8 7 u y y u y u u u u i u 8 8 u y u 8 u 8 ",
"p 8 8 8 y y 7 y y y y y 7 y y y y y y y y y y y y y y y y y y q y q e e e e e e e e e e e e e e e e e e e e e e 4 e e e e e "
};
