/* XPM */
static char *f5510cf4d34a4a30d8dcdab513f2e261FM9EAJHXem2UsLL8[] = {
/* columns rows colors chars-per-pixel */
"62 73 231 2 ",
"   c #394900",
".  c #2E5703",
"X  c #315A04",
"o  c #3B6507",
"O  c #396613",
"+  c #3C6B11",
"@  c #445700",
"#  c #426B06",
"$  c #51730F",
"%  c #406F14",
"&  c #436E1B",
"*  c #477419",
"=  c #667E0A",
"-  c #4A7727",
";  c #517D29",
":  c #537C31",
">  c #2A6F4A",
",  c #4FA203",
"<  c #52A506",
"1  c #55A907",
"2  c #54A609",
"3  c #56A909",
"4  c #59AE0B",
"5  c #5DB40B",
"6  c #5EAB16",
"7  c #5FAA18",
"8  c #5EB212",
"9  c #60B70C",
"0  c #61B80E",
"q  c #61AC19",
"w  c #61B514",
"e  c #64BC13",
"r  c #65B41B",
"t  c #6AB71A",
"y  c #66BA1A",
"u  c #6ABC1C",
"i  c #55832D",
"p  c #598428",
"a  c #5A892D",
"s  c #558230",
"d  c #5C8B31",
"f  c #5A8E32",
"g  c #5D8937",
"h  c #629236",
"j  c #669637",
"k  c #6BBC22",
"l  c #69A632",
"z  c #6FAB33",
"x  c #68C31A",
"c  c #6CC31C",
"v  c #70C61D",
"b  c #73CC1E",
"n  c #72D517",
"m  c #76D41D",
"M  c #78D61F",
"N  c #7AD81F",
"B  c #5DC43C",
"V  c #6DC521",
"C  c #6EC924",
"Z  c #72C525",
"A  c #71CB25",
"S  c #74C728",
"D  c #75CC2A",
"F  c #7ACD2C",
"G  c #77D420",
"H  c #79D720",
"J  c #7AD821",
"K  c #7CD22C",
"L  c #7EDA29",
"P  c #74CC34",
"I  c #7CCE31",
"U  c #7ED134",
"Y  c #53BD4B",
"T  c #45BB73",
"R  c #65C74C",
"E  c #4ED370",
"W  c #93BA1A",
"Q  c #81D31F",
"!  c #85D729",
"~  c #81DA2C",
"^  c #88CB34",
"/  c #82D434",
"(  c #85DC33",
")  c #8DDB36",
"_  c #84D43B",
"`  c #8BD63B",
"'  c #86D93B",
"]  c #8DDC3A",
"[  c #91DE3C",
"{  c #91E125",
"}  c #8DE03E",
"|  c #8CD642",
" . c #8CDB43",
".. c #8BD847",
"X. c #92DE42",
"o. c #96DA4A",
"O. c #95DC4B",
"+. c #93D252",
"@. c #A4DF58",
"#. c #8FE141",
"$. c #8FE241",
"%. c #91E143",
"&. c #91E245",
"*. c #94E349",
"=. c #9AE349",
"-. c #9DE453",
";. c #98E05D",
":. c #A3E74C",
">. c #A3E457",
",. c #A7E45C",
"<. c #96E06A",
"1. c #AAE864",
"2. c #B1EA6E",
"3. c #B5ED72",
"4. c #13799B",
"5. c #0F7EAC",
"6. c #0074D6",
"7. c #158193",
"8. c #2F908A",
"9. c #3BAB94",
"0. c #2DBC91",
"q. c #0D84B3",
"w. c #168CB8",
"e. c #2997AB",
"r. c #1DA9BA",
"t. c #29ACAD",
"y. c #4DB3AD",
"u. c #33C69E",
"i. c #29C4AF",
"p. c #54D8A0",
"a. c #088AC7",
"s. c #1394CB",
"d. c #0286DC",
"f. c #0A93D7",
"g. c #139AD6",
"h. c #17AED1",
"j. c #11A5D9",
"k. c #3CA4C4",
"l. c #048AE7",
"z. c #0C93EB",
"x. c #0387F5",
"c. c #0296F6",
"v. c #009CFF",
"b. c #13A5EA",
"n. c #0DB7EB",
"m. c #01A3FF",
"M. c #0CA2FF",
"N. c #01ADFF",
"B. c #0BAAFF",
"V. c #14A4FA",
"C. c #15AAFD",
"Z. c #1CADFE",
"A. c #02B7F5",
"S. c #01B5FF",
"D. c #0BB4FF",
"F. c #01BCFF",
"G. c #0BBDFF",
"H. c #17B5FC",
"J. c #1EBDFE",
"K. c #3CB0E9",
"L. c #23B2FF",
"P. c #21BCFF",
"I. c #48BFF8",
"U. c #0FC1DE",
"Y. c #16CAD6",
"T. c #35C3CA",
"R. c #0CC9E7",
"E. c #16D4E9",
"W. c #06C8F0",
"Q. c #00C2FF",
"!. c #0BC4FF",
"~. c #01CAFF",
"^. c #0CCDFF",
"/. c #15C4FD",
"(. c #1DC3FF",
"). c #13CDFF",
"_. c #1DCAFF",
"`. c #04D3FF",
"'. c #0CD1FF",
"]. c #07D9FF",
"[. c #1BD0F8",
"{. c #1BD2FF",
"}. c #28CAFE",
"|. c #35CAFE",
" X c #27D7FE",
".X c #2BD6FF",
"XX c #33D4FF",
"oX c #34D9FF",
"OX c #3CDCFF",
"+X c #3CE9FF",
"@X c #49CAF7",
"#X c #44DCFF",
"$X c #4ADEFF",
"%X c #57D8FE",
"&X c #66DAFE",
"*X c #46E0FF",
"=X c #4BE2FF",
"-X c #54E1FF",
";X c #5CE3FF",
":X c #5FE9FF",
">X c #60E0E6",
",X c #63E6FF",
"<X c #68E7FF",
"1X c #65E8FF",
"2X c #6BE9FF",
"3X c #73EAFF",
"4X c #7CECFF",
"5X c #B1CF93",
"6X c #E2FBB0",
"7X c #83EEFF",
"8X c #8BEFFF",
"9X c #82F0FF",
"0X c #8CF1FF",
"qX c #93F2FF",
"wX c #9CF5FF",
"eX c #94F9FF",
"rX c #A3F6FF",
"tX c #AAF7FF",
"yX c #A5F9FF",
"uX c #ABF9FF",
"iX c #B1F6FF",
"pX c #B3FAFF",
"aX c #BCFCFF",
"sX c #C4FCFF",
"dX c #CDFDFF",
"fX c #D3FDFF",
"gX c #DCFEFF",
"hX c #E4FFFF",
"jX c #ECFFFF",
"kX c #F5FFFF",
"lX c #FDFFFF",
/* pixels */
"H H H N H H H J H M H M H H H H H H M M H J H H H J H M H M G G C C A A C C A A C A A A A A A C S A A A C A A A A C C A A A ",
"H H H H H H H M H H H H H H J M H H J H H M H H H M H H J M G A A A C A A A A C A A A C A C A A C C D C A A C A A A A A A C ",
"H H H H H M M m M M M M H H H M H H H H M M M M M M H J H H G G A A C A C C C C C C A A A A A C C A C C V C C C C A A A C A ",
"H N H H M m H G M J M M M M J H H H H M M H M H H M M M J G G A C A A C C C A A A A C A A C Z C A C C C A A A A C C A C S A ",
"H H H N m J ~ ( L L L G M M M J M M M n L ~ L ( L J M M H M G A C A A C P U K K K D C C A A A A A C C S I K F K A C C C C A ",
"H N N m H -.=.#.#.} } L J M H M M M N L -.-.} #.} } L M M M G G C C c D | O.) ) ) ) K C C A A A C c I @.X.) ) ) ) K C C C A ",
"H H m J -.1.*.#.#.#.#.#.L J M H M m L 2.-.X.#.#.#.#.} L M M M A C A Z o.,.[ ] ] ] ) ) I A C A A C U *.,.) ) [ [ ) ) D A C S ",
"H H n ~ 3.-.%.} #.#.#.&.#.J M H m N } 3.*.] #.#.#.#.#.' M M G A C C / >.,.( ) ) ] ] ] ' A C A A x  .,.=.) ) ) ] ) ] U D C C ",
"H H n ~ 1.&. .#.#.%.#.&. .K N M m H ' -.&.] #.#.#.#.*. .m N H A C C / o.X.) ) ) [ ) [ X.D x C C c | -.) ) ) ) [ ) [ | D C C ",
"H N b G ' #.#.#.#.#.&.#.] L M N N m F ] &.&.#.#.#.#.X.' N J G A C C c / X.] [ ) ) ) )  .P C A A x Z ` [ ] [ ) ] ) [ / D C C ",
"H J m c V / O.*.&.*.&.U C m M J N b c S ' O.*.&.*.} I V M N G D C c 8 c _ O.X.X.X.[ / Z V A D A e e Z _ *.X.X. .] / c V A C ",
"H N A u r Z I / U U U S u b N J m b u r D / U U _ I k y J M G G C y 5 5 k / / / _ I v 4 V G C C 0 5 w S _ / U U K u w c D C ",
"H H b c r r t k k k k r r b J J G b u q q k k t y k q t J N N A C e 9 1 4 r r r r t 4 1 c D D C 0 4 1 6 y k 8 k y 3 8 x A A ",
"H H b c t q 7 6 6 6 6 6 y G H J m b u t q 6 6 q 7 7 7 u N N J G C x 9 4 < < , , , , < 4 V A C C e 5 1 < , , , , , < 8 C A A ",
"H N b v u t r q 7 6 r t c G H H H b v u t q q q q r y b N N H A C c 0 9 1 3 2 < 2 1 4 0 C A A D x 0 5 4 3 2 3 3 3 4 x C A A ",
"H H G b c c k u u t u c m J M H J b v v c u c u u u v G Q ! ! ` | ` ^ k 9 9 9 9 t 5 9 c C C A A c 0 5 5 5 5 5 5 5 5 C A A A ",
"H H H m b v k v x c v m G G H H J M m v c c c c k Z Q 9.z.s.g.j.b.b.c.9.w 5 4 Y E.R.R.r.C A C A v c e 5 5 5 5 5 x c C A A A ",
"H H H H m b v v b b m G J G H H H H M m b v c R r.g.g.n.F.S.S.S.S.S.S.A.U.n.0.B E.Q.d.c.r.A A A C C c x e e e x c C A A C A ",
"N H H H N m N m m G H H H H H H M H H J N Q ! R s.c.c.N.F.S.S.S.S.F.S.F.Q.~.T.<.E.W.6.c.U.D A A C A C C C c v C C C C C A C ",
"H H H N H N m N N N G J M H H M H H H N 9.g.s.j.A.N.N.F.Q.~.~.~.~.~.~.~.).|.|.E.].A.6.v.N.i.A A A C C C C C C v C C A A A A ",
"H J M M m N L ~ L L J J G G J J N N N e.N.Q.Q.Q.{.;X3X7X0X0X0X0X0X0XqX7X:X*XXXG.+XoXl.d.m.m.Y.u.A C V A I K F D G C C C A A ",
"m M J M H O.&.] } } U L G G J G N e.h.A.oX*X-X4X8XrXuXwXqXqXwXqXqXqXqXrXuX,XS.|.yXeX Xz.l.m.~.i.C C I | ` ) ( ) / D C C C A ",
"J J N M #.1.-.#.#.#.#.} L H K J e.D.Q. X1X2X2X0XqX0XqX4X3X4X4X4X4X4X3X8XwX%XS.|.aXaXeXE.6.l.`.u.C D  .1.[ ) [ [ ) ( D C C C ",
"H H n L 2.>.&.] #.#.#.#.} J Y e.A.'.=X9XqXqXqXuXiXpXwXqXqXqX3X1X<X2X<X2X7X&X}.:X0XqXeX+X@XI.v.j.x | ,.:.) ) ) ) ) ] U D C A ",
"H H n L 3.&.} #.#.#.#.%.] P h.m.`.=X0XyXpXpXaXfXgXgXaXtXuXpX4X-X,X<X1X,X2X,X;X<X&X&X%X}.0XiX%X%Xt.o.@.) ) [ ) [ ) [ _ P C A ",
"H J m G | #.#.#.#.#.#.%.] B A.N.~.:XqXyXaXaXsXgXgXhXsXuXuXpX9X;X,X,X,X1X,X,X1X,X&X%X@X/.wXdX3X3X[.F ) [ ) ) ) ) [ [ / D V A ",
"H J m c S _ &.*.%.*.%.' D r.H.D.#X4X0XyXdXfXfXhXhXhXgXaXaXpXqX2X:X2X1X1X<X<X<X,X,X,X;X;X0XpXtXtX&X0.A ) &.[ [ %.] / S C C A ",
"N J b c y S _ | ' ' ' S e.G.'.~.;X0XrXsXhXhXhXkXkXkXjXfXfXfXrX3X$X%X;X-X$X:X1X1X<X,X,X2X4XqXaXiXiX,Xt.I  .' _ _ / c e c A A ",
"G J b c q u k k k k k e.D.'.`.~.,X0XuXdXhXjXjXlXlXlXjXgXgXgXuX2X$X#X#X$X$X$X-X-X%X;X<X<X<X0XwXwXiXaX%Xi.k V k k u 4 8 x A A ",
"H N b c r q 7 7 7 7 7 x._.`.`.~.2XqXuXdXjXjXjXlXlXlXkXgXhXhXpX2XXX X.X.XXX.X.X#X$X$X=X=X:X9X0X0XrXsXuXW.< , < < < < 8 V A A ",
"H M m c u t q 7 7 7 8.H.'.~.~.~.}.-XyXaXdXfXfXhXjXjXfXaXaXsXwX#X{. X.X{.^.^.)..XoXoX.X X$X7X8X7XqXsXaXY.< < < < 1 1 x C A A ",
"H J m c v u u u u u x._.`.~.S.N.N.).OX9XuXrXuXsXdXfXpXrXrXyX7XoX~.^.^.^.F.Q.Q.^.^.^.^.^. X$X;X;X8XiXsX>X0.4 4 5 5 5 c D A A ",
"H H H b v v v v v v l._.`.~.N.m.m.!.~.2XuXrXtXaXsXsXtXwXrXwX7XOX~.Q.~.Q.F.F.Q.~.~.~.~.~.{. X#X#X7XuXsX4XW.5 0 5 0 c C A A C ",
"H H J G G v c v v v l.(.`.~.S.m.v.F.!.oX:X-X<XpXaXaXrX7X7XqX1X{.~.Q.~.!.D.S.S.F.S.F.F.G.^.).$X$X9XyXsX4XR.5 5 x c C A C A A ",
"N N H N H N N m N M l.}.`.~.N.N.v.m.m.D.!.~.).*X-X-X$XoX XoX{.F.S.S.F.S.B.v.m.m.m.m.m.F.F.^.$X$X7XuXsX3XR.V V C C C C C A C ",
"m G m G G G m N N Q l./.`.~.N.N.v.v.v.v.S.S.S.G.!./.!.G.G.!.G.m.v.m.m.m.v.v.v.v.m.m.B.D.F.!.$X$X9XtXsX7XR.A A C A G C A A A ",
"D A A A A A A A A K l.}.`.~.S.S.m.v.v.v.m.m.m.B.Z.Z.Z.Z.Z.L.C.v.v.v.v.v.m.m.m.B.F.S.F.G.Q.^.$X#X9XuXfX=XR.N G G G G G G G G ",
"V A A A C C A A A F l.J.^.~.Q.~.S.v.v.v.v.v.v.v.M.M.M.M.M.M.v.v.v.v.m.D.F.S.S.F.Q.Q.F.Q.~..X;X-X4XuXaX XY.N N N H N N N J J ",
"A C A A C A A C Z I 9.V._.`.~.~.Q.m.v.v.v.v.v.v.v.v.v.v.v.v.v.v.m.B.D.F.Q.Q.Q.F.Q.F.F.Q.!.#X3X,X4XpXwX[.E M M N H H H H M J ",
"A A A A C C C V C S ! x.J.^.~.`.Q.N.v.v.v.v.v.v.v.v.v.v.v.v.v.B.G.G.G.F.Q.F.Q.Q.Q.F.Q.~._.-X<X2XrXuX3XY.N m N n M m H H H J ",
"A C C C C C I U / K o.x.L.}.`.].F.F.m.v.v.v.v.v.v.v.v.v.v.v.v.D.G.Q.Q.Q.Q.F.Q.Q.F.F.Q.~.oX2X:X3XdXuX#XE.( ( ( L J m G J J J ",
"A A C C D o.X.) ) ` 2.7.C./.).).~.Q.N.v.v.v.v.v.m.v.v.v.v.v.m.D.G.Q.Q.F.Q.F.Q.F.Q.Q.Q.~.oX<XqXqXaX9X.Xp.&.} #. .} L G m m J ",
"C A c D o.,.=.) ` 1.+.$ c.J.(.P.`.~.F.m.v.v.v.v.v.v.v.v.v.m.D.G.Q.Q.Q.F.Q.Q.Q.F.Q.Q.~.).#X9XsXiX0X=XR.3.#.#.#.$.#.} J m m G ",
"A A c D @.=.) ) | 6X; * w.H.J.P.).^.~.F.m.m.v.v.v.v.v.v.v.B.G.Q.F.Q.F.Q.F.Q.F.Q.~.~.).#X9XuX<X<XOX}.y.-.} #.#.#.#.#.( L N N ",
"C C c F ,.[ ) ) X.5X: $ - g.V.v.P.(.^.~.S.N.N.v.v.v.v.v.v.B.D.Q.Q.F.Q.F.Q.F.Q.~.~.^.oX4XtX1X}. XA.y.>.} #.#.#.#.#.%.] K m N ",
"C D x c ` X.[ [ >.- ; - $ > 5.4.V.P./.].~.~.Q.S.S.m.v.v.m.B.Q.Q.Q.Q.Q.F.Q.~.~.~._..X4X7X:X~.H.b.e.K ' [ #.#.#.#.%.#.U G N N ",
"A D x e c / X.X.>.: : - ; # .   7.b.Z.J.^.'.^.~.~.F.S.S.S.Q.Q.Q.Q.F.Q.F.~.~.{.oX;X2X4X.XF.L.e.T b c D ` &.&.#.#.#./ D m N J ",
"C C y 5 w Z _ | X.: i - ; & . X . f.M.Z.P.J.(.`.`.'.`.~.~.~.~.~.~.~.~.~.~.'.*X7XrX3X~.J.v.l.{ N v u u Z  .| | | U c c b J m ",
"C A c 5 1 6 8 8 8 : s - ; + X . . 5.g.V.H.J.J.^.^.'.^.~.~.~.~.~.~.~.~.~.'.oX#X%X4X,X!.L.K.k.{ N v u r r t w w r k q u b J H ",
"A C x 5 3 1 < 1 2 : s s i i O . X X > 5.V.C.V.C.P.P.P.).'.'.'.'.'.^.^.~.XX&X}.D.D.D.b.e.6X=.J J v u q 6 7 q q 7 7 7 c m J J ",
"A A x 5 5 4 1 1 , i i s s s + + X X X @ 4.a.q.f.V.V.C.J.P.J.(.(.J.J.P.J.V.B.V.s.a.s.8.W ,.N H H A v k t w q q q q u b M N J ",
"C A v e 5 5 5 5 4 y s s s s s g + O + O o # @ > q.a.a.b.Z.C.C.C.C.C.C.b.w.f.w.s = ; z 1.N N H M m v c c u u t t k c G J H H ",
"A A C C e 5 0 0 5 c f : g s s i a : + O O O + o o # # 4.a.a.a.a.a.a.f.8.p p = p : : z ) M J H H m m c v v v v v b b N H H H ",
"C A C C v x 0 5 0 e _ g s a a a a d ; + + * + + + + + o # # # # # # $ p a a p a h l ) N H H M J K G m v v u v v m H H H N H ",
"D C A D C C C C C C C ;.: a a a a a a a a f p + o + + + + o * f a a a p a p p h *.L N N H H H J M N N N N N N N G H H H H H ",
"C C A C C C C C C C C +.g i a a a a a a a a p % + % % % % o * h a a a a a a i l ~ N m N H H M M M M N M m n M m m N H N H H ",
"C A A C C A D F D D S A ;.h g a a a a a a a a a a a a a a a f a a p a a a f z ~ J J J m m J H H M M m J L L J L J m N H H J ",
"A A C C A ^ [ [ ) ) ~ F A O.l a a f a a a a a a a a a a a a i a a a a f f z } } } } L H N m H H M N L #.*.#.#.} ( L G G J m ",
"A A C C | 1.o.) ) [ [ ! K Z U R _ P d d a a a a a a a a a a f a f p l -.3.>.} } #.#.} L M M J H n L -.2.#.#.#.$.[ ] J m m H ",
"A C c F ,.o.[ ) ) } ) [ / F A G V A | 2.j a d d f a f f a a i z ~ ~ ~ >.,.} } } #.#.} ' J M H H n } ,.-.#.#.#.$.%.#.( H m J ",
"A A V D ,.[ ) ) [ ) ] [ ) F C C C A / >.=.[ [ [ [ [ [ =.P D K J m N ) -.-.} } } %.%.} *.L m H M n O.>.&.#.#.#.#.#.%.( K M M ",
"A A c C o.[ [ [ ) ) [ ] ` F C C C C Z X.[ [ ) [ ) ) [ } C C A G N J K  .*.#.#.#.} %.%. .J m H N n _ O.#.#.#.%.#.%.&.( K N M ",
"C S x e S ' %.[ ) [ [ ) F C C A C c e K ] &.[ ] ] [ ( D C C G G M m c S ' &.#.#.%.%.] I G N J J A c D #.*.#.#.#.#.' D m N M ",
"C C x 5 w A '  .|  .' Z y x C D C e 4 y F |  . . ./ u w S C C G m m c u S '  .#..._ Z r m N N N v u u D  . . . ._ V c m J M ",
"D C x 5 1 8 r k y y y 6 4 x A P c e 4 1 8 k k k y 8 4 4 A C A J N b u t w k k k k k k q b J J N b t q t k k k k k q u b J J ",
"C C x 5 1 1 2 3 3 1 2 2 4 c A A C e 5 1 2 3 < 3 2 3 1 8 A A A G N b c t 7 7 7 7 q 7 q r m J N J v u r q q q 6 q q q c G J J ",
"A C x 5 5 3 1 < 1 < 1 1 8 C A A C x 5 5 3 < < 3 2 < 4 8 A A A J N b v u r w q q q q q c m H H H b v t r w 7 q q q r b H N H ",
"A D C e 5 5 5 3 4 3 5 5 x A A A C c 5 5 5 5 3 5 4 5 8 c A A A G N m v v V t r t t t c m N J H H b b v u y r t t t v m H J N ",
"A A C c 5 5 5 5 5 5 5 x C A C A C C x 5 5 0 0 5 5 5 x C A A A G N H b c u v v v c c b m H H H N J b v v V v v u v b N H N N ",
"C A G C C x 0 0 5 8 c C C A A A C A C c e 0 5 8 e V C A A C A G N H H m b v c c b b H H H H H H J m b v v c v A b N H H N N ",
"C A C C C C c c V V C C C C C C C A C C V c x x V C A C C A A J N N N N H m m m m H J H H N N J N N N m m m m m N N N N N N ",
"A A A C C D C G G D A A A S A C A A A A A D D G G C A A A A A G G G H G H H N m H H m H H G G m G m G G G H J m G H G G m N ",
"G G G G G G G G G G G G G G G G G G G G G G G G G G G G G G G C A A A A A m A A A A A A A A A A S A A A A A A b A A A A A A "
};
