/* XPM */
static char *_277_8d1f9583b5ab1e668dae7be32c29d1f5e8450141bc4325d25b9f7144cbbe9690[] = {
/* columns rows colors chars-per-pixel */
"62 73 253 2 ",
"   c #000101",
".  c #070903",
"X  c #1A1A01",
"o  c #0F1717",
"O  c #313204",
"+  c #1D2A29",
"@  c #282A33",
"#  c #363639",
"$  c #571F11",
"%  c #6E0401",
"&  c #24590F",
"*  c #3A690E",
"=  c #346510",
"-  c #3C6B10",
";  c #474801",
":  c #525200",
">  c #734D0E",
",  c #44731A",
"<  c #727307",
"1  c #584C32",
"2  c #785B32",
"3  c #517E26",
"4  c #3A3D44",
"5  c #3D4554",
"6  c #444549",
"7  c #4C4C4C",
"8  c #4C4A51",
"9  c #495357",
"0  c #525252",
"q  c #5B5C5D",
"w  c #734D4D",
"e  c #545B64",
"r  c #5A6264",
"t  c #556A70",
"y  c #646464",
"u  c #6C6C6C",
"i  c #6B6F71",
"p  c #747474",
"a  c #72787F",
"s  c #7C7C7C",
"d  c #890000",
"f  c #960201",
"g  c #9C0100",
"h  c #931A1A",
"j  c #A20200",
"k  c #AD0000",
"l  c #A10C01",
"z  c #B30000",
"x  c #BC0000",
"c  c #BC0E02",
"v  c #B11712",
"b  c #8A241C",
"n  c #B92D09",
"m  c #932C2B",
"M  c #B32F2F",
"N  c #C30000",
"B  c #CD0000",
"V  c #C80A06",
"C  c #D20000",
"Z  c #DA0000",
"A  c #D70C07",
"S  c #D21900",
"D  c #E40000",
"F  c #EA0000",
"G  c #EC0709",
"H  c #E40D0F",
"J  c #CD3006",
"K  c #EC271D",
"L  c #D93A3A",
"P  c #F73031",
"I  c #8B5812",
"U  c #B54F02",
"Y  c #B76A06",
"T  c #B16C0B",
"R  c #BA6D17",
"E  c #966836",
"W  c #AB702E",
"Q  c #CB4E0F",
"!  c #D94902",
"~  c #E74A04",
"^  c #F04F00",
"/  c #E45608",
"(  c #F45502",
")  c #F75902",
"_  c #FA5B02",
"`  c #CC6E0C",
"'  c #CB7718",
"]  c #D67C1C",
"[  c #FE6300",
"{  c #FF6B00",
"}  c #FF7300",
"|  c #FF7D00",
" . c #F55830",
".. c #CD6A29",
"X. c #FD6D2C",
"o. c #DC3F45",
"O. c #895656",
"+. c #B45252",
"@. c #A76D54",
"#. c #F54F4C",
"$. c #E55856",
"%. c #C77677",
"&. c #53A606",
"*. c #55A909",
"=. c #57AB0A",
"-. c #57AA0B",
";. c #5DB30B",
":. c #5EAB16",
">. c #5FAA19",
",. c #60B70D",
"<. c #61B80E",
"1. c #61AC19",
"2. c #64BC14",
"3. c #65B41B",
"4. c #65B818",
"5. c #6ABC1C",
"6. c #568A3B",
"7. c #66953A",
"8. c #67973A",
"9. c #66B522",
"0. c #6CBC22",
"q. c #6BA932",
"w. c #68C31A",
"e. c #6CC31C",
"r. c #70C61D",
"t. c #73CC1E",
"y. c #72D517",
"u. c #76D41D",
"i. c #78D61F",
"p. c #7AD81F",
"a. c #6DC521",
"s. c #6EC924",
"d. c #70CB25",
"f. c #75C928",
"g. c #75CC2A",
"h. c #77D420",
"j. c #79D720",
"k. c #7AD821",
"l. c #7CD32B",
"z. c #7ED929",
"x. c #79CC33",
"c. c #7FD235",
"v. c #729B4C",
"b. c #749A4E",
"n. c #75AB47",
"m. c #79CD41",
"M. c #A2BA13",
"N. c #CD850F",
"B. c #FF8300",
"V. c #FF8D00",
"C. c #FF9201",
"Z. c #FF910F",
"A. c #F08F18",
"S. c #D9B20A",
"D. c #D88725",
"F. c #D98E35",
"G. c #E38826",
"H. c #E99030",
"J. c #E69339",
"K. c #FFA333",
"L. c #B5D51F",
"P. c #B5E91B",
"I. c #82D426",
"U. c #81DA2C",
"Y. c #94DA27",
"T. c #82D434",
"R. c #8CDB36",
"E. c #85D53B",
"W. c #86D938",
"Q. c #8DDC3A",
"!. c #91DD3B",
"~. c #8DE03E",
"^. c #DDD01D",
"/. c #D0F318",
"(. c #E7F70A",
"). c #FCFE09",
"_. c #E9FC18",
"`. c #FEFF14",
"'. c #F7FF18",
"]. c #D8F226",
"[. c #EEF92D",
"{. c #F7FD26",
"}. c #949953",
"|. c #83AE58",
" X c #A8A94A",
".X c #9C9C7A",
"XX c #91B46E",
"oX c #AFB070",
"OX c #E69E4C",
"+X c #FBA94E",
"@X c #FDB566",
"#X c #8CD943",
"$X c #95DC47",
"%X c #92D755",
"&X c #A2D958",
"*X c #8FE141",
"=X c #91E144",
"-X c #97E24A",
";X c #9DE453",
":X c #A6E55C",
">X c #95D56D",
",X c #AAE864",
"<X c #B1EC70",
"1X c #F7FB4B",
"2X c #DFE864",
"3X c #7A7B83",
"4X c #D47C85",
"5X c #848484",
"6X c #81878E",
"7X c #8C8C8C",
"8X c #92928A",
"9X c #8D8C91",
"0X c #959595",
"qX c #999B9B",
"wX c #AB9F97",
"eX c #99A6A6",
"rX c #A4A4A4",
"tX c #ABABAB",
"yX c #ADB4B4",
"uX c #B5B5B5",
"iX c #B5B8B8",
"pX c #BCBCBC",
"aX c #D99B9B",
"sX c #D6B1B1",
"dX c #E1A3A3",
"fX c #B2DB90",
"gX c #B6E495",
"hX c #FFC68B",
"jX c #FFCB98",
"kX c #FFD3A8",
"lX c #FFDBB7",
"zX c #D1F1B4",
"xX c #E8EEA6",
"cX c #B8B8C3",
"vX c #BFC0C1",
"bX c #C2C2C2",
"nX c #C7C7C9",
"mX c #CBCBCB",
"MX c #D2CCCD",
"NX c #D4D4D4",
"BX c #D6D6DB",
"VX c gray86",
"CX c #E9CED0",
"ZX c #D9E5D7",
"AX c #FFE5CA",
"SX c #FEFDD2",
"DX c #D9E6E6",
"FX c #E3E3E3",
"GX c #E7ECEC",
"HX c #ECEBEB",
"JX c #F4F5F0",
"KX c #F5F8F6",
"LX c #FEFEFE",
/* pixels */
"j.j.j.j.j.j.j.j.i.j.j.j.j.i.j.j.j.j.i.i.j.j.j.k.i.i.k.j.j.i.h.h.s.d.s.d.d.f.d.s.d.d.f.d.d.d.d.s.d.s.d.f.d.s.d.s.d.d.d.d.s.d.",
"j.j.j.p.j.j.j.j.j.j.j.j.j.j.j.j.j.k.j.k.j.j.j.j.j.j.j.i.j.j.h.d.d.d.d.d.s.d.d.d.d.d.s.s.s.d.d.d.d.d.s.s.d.d.d.d.d.f.d.d.d.d.",
"j.i.j.j.j.i.j.j.i.i.i.i.i.j.j.j.j.j.j.j.i.i.i.i.i.i.k.i.j.j.h.h.s.d.d.d.s.s.s.s.s.s.s.d.d.s.d.s.d.d.s.s.s.s.s.s.a.s.d.s.d.d.",
"j.j.j.j.j.i.j.k.i.j.i.i.i.k.i.j.j.j.j.i.i.j.i.j.j.i.i.j.j.j.h.d.s.d.s.s.s.d.d.s.d.s.s.d.d.d.d.d.d.d.s.s.s.d.d.d.s.d.d.d.d.s.",
"j.j.j.i.i.j.U.U.z.z.z.k.i.i.i.k.i.j.i.y.z.z.z.z.z.k.j.j.j.j.h.d.s.s.f.d.f.c.l.l.g.g.d.d.s.f.d.d.d.s.r.f.c.l.T.g.g.d.s.s.s.d.",
"j.j.p.i.j.;X-X*X*X*XQ.z.k.i.j.i.i.i.i.z.;X;X*X*X~.~.z.j.i.j.h.h.d.s.e.g.#X%XR.R.R.R.l.d.s.s.d.s.s.a.T.%X!.R.R.R.W.g.d.s.d.d.",
"j.j.u.k.;X:X-X*X*X*X*X*Xz.k.i.j.i.i.z.<X:X=X*X*X*X*X~.z.i.p.j.d.d.s.d.$X:X!.R.R.!.R.R.c.s.s.s.s.a.x.;X:XR.R.!.R.R.R.g.s.s.d.",
"p.j.y.U.<X:X*X~.*X*X*X=X*Xk.i.j.y.i.~.<X-X*X*X*X*X-X=X#XP.`.`.`.`.`.`.`.`.`.].R.Q.R.R.W.g.s.f.s.w.#X:X-XR.R.R.!.R.R.T.f.s.s.",
"j.j.y.U.,X=X#X*X*X*X*X-X#Xz.i.j.i.p.R.:X=XR.*X=X].`.`.`. X3X8X7X9X8X8X9X9X9XoX).`.`.`._.f.a.f.s.w.#X$XR.R.R.Q.R.R.!.E.g.s.s.",
"j.j.t.h.W.=X*X*X*X*X*X=XQ.l.i.i.i.u.f.!.*X*X*X_. Xu u u b.tXvXpXpXpXpXpXpXvXtX8X8X8X9XoX).`._.a.w.f.Q.!.!.!.R.R.R.!.E.g.a.s.",
"j.j.t.r.a.T.$X$X-X-X*Xc.d.t.j.j.i.t.5.f.#X-X-X]. Xu u y 3XtXbXsXpXpXpXvXcXvXyX9X7X7X9X.X).)._.f.4.2.f.W.-X~.#X=X!.I.a.a.d.d.",
"j.j.t.5.9.s.T.T.c.c.c.s.w.t.i.k.u.t.5.3.f.c._. X3X9X6XrXnXBXNXNXNXNXVXHXHXHXBXnXpXpXpXuX8X8X.X).`.(.:.f.E.T.c.x.T.5.1.w.g.s.",
"j.p.t.e.1.3.5.9.0.9.0.1.3.t.j.j.u.t.5.3.3.(. X3XuXMXnXNXuXu 6 0 y u u u u p 3XO.0XNXmXmXvXpXuX8X8X.X(.:.4.3.4.3.3.&.;.a.h.d.",
"j.j.t.e.4.1.1.1.:.:.>.>.5.h.j.j.u.t.5.3./.}.3XuXVXHXHXvXy 6 7 0 u u i i u i u u u s s s 7XBXMXMXnXuX.X(.&.&.&.&.&.&.2.s.d.d.",
"i.k.t.r.e.4.3.1.1.1.3.4.r.j.j.j.u.t.5.5.(.}.3XcXFXHXpXy 7 0 7 y p p s 6X5X5X9XrXiXiXyX0Xb.3X9XJXHXnXuX.X).(.&.*.&.*.w.s.d.d.",
"k.k.h.t.r.5.e.5.5.5.5.e.u.j.j.j.I.i.r.5.'.}.3XpXFXJXuX0 6 0 0 y p p b.9X5X5X9XrXsXcXiX0X6X6X5X3X7XHXmXiX.X8X_.;.;.<.a.f.d.s.",
"i.j.k.u.r.r.r.0.w.e.r.u.h.j.j.j.k.i.u.s._.}.s pXFXHXFXuXq 6 0 y p 3Xb.5X3X3X7XtXpXpXuXqX5X5X5Xp O.GXNXiX9X8X`.,.<.e.s.f.s.d.",
"j.j.i.j.u.t.t.r.r.t.u.h.j.h.j.i.j.j.i.i.(.}.3XvXFXHXJXuX0 4 7 y p 3X3X5X5X.X7XtXpXpXuX0X5X5Xs u 6XJXmXpX7X7X`.5.w.d.d.s.s.s.",
"i.i.k.k.p.i.u.u.i.i.i.j.j.j.j.j.j.i.j.p.I.].}.6XbXBXNXBXCXrX3X5X3Xi s 5X5Xs 5XtXpXpXiXqX5X0XFXBXBXGXNXiX9X9X`.a.d.d.d.d.s.d.",
"k.j.j.i.i.i.i.i.i.i.i.i.i.j.j.j.j.j.j.i.i.-X].U 7XNXnXnXFXFXVXVXcX9XrXpXbXNXFXbXsXiXpXbXVXVXGXGXGXNXvX0X{.{.I.f.d.s.d.d.f.d.",
"j.j.p.p.i.i.U.U.z.z.z.j.i.i.i.i.p.y.y.y.k.>X[.xX+.j O.cXMXFXHXHXFXFXFXFXGXHXJXFXDXFXFXFXBXBXMXnXnXvXeX].Y.Y.I.f.d.a.s.s.s.g.",
"j.j.p.p.i.$X=XQ.Q.*XW.z.i.i.i.y./.(.(.(.(.'.).xXCXsXCXyXtXnXMXMXCXBXBXBXNXNXNXNXBXBXNXnXbXbXvXqXeX0Xn `.!.R.T.R.U.l.d.s.s.s.",
"j.i.y.j.~.,X;X=X=X=X*XR.U.i.p./.xXSXSXSXSXSXSXJXKXGXLXVXnXyX0XqXtXbXvXvXbXvXvXvXvXbXiX0XqXqX9Xv v v v `.!.R.!.!.Q.T.d.s.s.s.",
"j.j.y.z.<X:X=X~.*X*X*X*XR.j.p.(.SXLXLXLXLXLXLXLXHXFXKXFXMXrX5X5XrXnXvXvXbXvXbXvXvXbXiX9X0X0X7Xz k k c '.R.R.R.R.Q.!.c.g.s.s.",
"j.j.y.U.<X=XQ.*X*X*X*X=X#Xz.i.(.SXmXcXBXFXDXBXJXKXKXLXKXKXBXuXpXtX8X0X0XeXeXeXeXeXeX0Xv M m v V B B x `.R.!.R.R.R.!.E.f.s.s.",
"j.j.u.h.#X*X=X*X*X*X=X=XQ.z.i.(.JXcX2X[.1X{.AXLXLXLXLXLXLXKXJXLXLXFXFXwXh m m h m m v N N N V C B V ^.-XR.R.R.R.R.!.E.f.s.s.",
"j.j.t.r.f.E.=X-X=X-X=XW.l.d.k.).JXKXfXoXoXoXJX%.CXJXLXHXDXKXKXdXM +.+.M k k z z j k V #.#.P F B N c `.%X-X~.$X!.!.W.f.s.s.d.",
"j.j.t.e.3.f.E.#XE.E.E.f.w.s.l.<X1XKXKXJXKXGXLX+.h O.MXDX@.dXLXHX+.j k k z z z z C Z H #.%.+.m F Z V ` ].#XW.E.E.T.e.2.w.g.d.",
"j.j.u.5.1.5.9.0.a.0.9.9.9./._.1X` +.+.+.+.@.+.m % % aXDXm v +.sXKX$.k z z z x B C B A #.u 9 w F D B N ` /./.s.5.5.*.;.w.d.d.",
"j.j.t.e.3.1.1.1.>.>.>.>.P.` ` ` f f f f f f f f g g dXLXsXM f %.LXaXk z z z x C v 2 m $.0 7 w F D B C N / ` P.&.&.&.4.a.d.d.",
"j.j.u.e.5.4.1.1.>.>.>.9.{.l f f g j j j j f j j k g dXLXKX@.d %.LXaXk z z z x C v t w #.q 6 w G D B B C k z `.&.&.*.w.s.d.d.",
"p.j.u.r.e.e.5.5.5.5.5./.` J J J L o.o.o.o.H x z z z M CXKXsX@.MXLXaXk z z k N V w t O.L + 7 w F D B B B z k `.;.;.<.a.d.d.d.",
"j.j.j.u.r.r.e.s.r.s.f.`.f ~ ( (  . .X.X.X.#.H N B B N M CXLXLXLXCXM z z N N v w 9 q O.L   7 w G F B B x k z `.,.<.w.s.d.d.d.",
"j.j.j.h.i.r.r.e.e.w./.Y J ( ) ) _ ( ( ( (  .#.H B B C x M %.%.%.M x N N C Z f @ 7 q O.L . 7 w Z Z B z Q n U `.2.w.d.d.d.d.d.",
"i.p.i.p.i.i.j.h.P.P.' J ( } } } } } _ ( ( ( X. .H Z A C c z z k N C C C B C d o 0 r O.V . 5 q V x N Q ' Y Y `.d.d.d.d.s.s.s.",
"h.h.h.h.i.h.h.h.`.`.g ~ [ | B.B.V.V.| | | | [  .#.P H C B C C C C C B C D D % o 7 r w j . m E J n U D.' Y Y `.d.d.d.d.d.d.d.",
"d.d.d.d.s.d.d.h.`.`.g ~ [ | | V.C.C.V.C.C.C.B.^ #.4XP D B B B B B B B Z F F d o 7 r w j . V N.N.D.D.F.' U Y `.i.h.h.h.h.i.h.",
"s.d.d.d.s.s.s.s.`.`.g ~ [ | | V.V.V.K.K.+XC.B.[ X. . .H C B B B B B C Z F F % o 8 t w k % Q G.D.D.] N.` S.S.P.p.j.p.j.p.p.i.",
"d.s.d.d.s.s.s.P.N.N.J / { B.B.V.K.+XhXjXjX@X+XB.( ~  .K Z B B B B C D F F D d o 8 m m J Q ' E @.E @.E > `.`.i.p.j.j.j.j.j.j.",
"d.d.d.d.s.s.a.`.g f ^ [ B.C.C.V.@XlXAXAXAXAXjXX.( ^ ! H Z B B C Z D F F F Z f $ b J Q F.' E t 3Xa # a   `.`.u.u.i.i.j.i.j.i.",
"d.s.s.s.a.d.x.'.l g ~ [ | C.C.V.@XkXAXJXJXAXjXA.[ ( / J A D Z D F Z Z A J J J L Q N.D.D.E 3XyXBXiX  p . `.`.U.U.k.i.i.j.j.p.",
"d.d.s.s.g.$X#X'.g g ~ [ | V.C.V.@XkXAXAXAXlXhXK.} [ ( ! S F F F B N c Q D.D.OX@XOXY T 2 i eXNXKXVX  p . `.`.*X~.W.z.i.i.j.j.",
"d.d.a.d.$X:X-X`.j g ~ [ | V.C.V.@XkXlXlXlXlXjXK.} [ ) ! S F F Z x k n D.H.J.OXOXF.U I e O.eXNXLXHX  p . `.`.=X=X=X~.k.i.i.j.",
"d.s.r.g.:X$X!.'.g f ^ [ | C.C.C.K.jXkXkXkXkX@XZ.} [ [ ! S F F Z c n Q F.J.OXOXOXF.I 2 y s 0XtXMXpXo s . `.`.*X*X=X=XW.j.i.j.",
"d.s.e.g.,X!.R.].U Q J _ } B.B.V.B.+X+X+X+X+XZ.C.} [ { / S N N c Q F.G.J.J.J.J.D.1 4 8 y p s y 8 7 y O.o `.`.=X*X*X*XR.l.u.p.",
"s.g.e.e.E.!.!.R.`.`.l ! ^ _ _ } } } } } | } } | [ ) [ ~ n v n Q D.G.G.F.G.D.R 2 O + # q y y y 8 0 p 4 : ].].*X*X=X*XT.h.p.i.",
"d.g.w.<.a.T.$X$X'.`.% U U ~ ! [ _ _ _ _ _ _ _ _ / ~ ~ ! ' D.N.' R W W W W W >  X1XO ; @ # 4 # # # 4 : [.#X=X=X*X*XT.g.u.p.i.",
"s.s.w.;.1.e.E.E.`.`.. > T Q Q ! ! / / / / / / / / Q Q ` D.] ] Y 2 i 9 9 9X5 ; 1XHX'.].O ; ; ; ; ; : _.g.#X#X#X#Xc.a.5.u.j.i.",
"s.s.w.;.&.-.4.4.'.`.. 4 E R R T T ' D.' ] D.] ] F.OXJ.D.Y T T O.3XsXp o 5X6 : 1XfXn.&X'._.'._._._._.1.3.3.3.3.4.3.1.5.t.k.p.",
"d.g.w.;.=.&.&.&.'.`.. 4 r R R R R J.J.D.] F.J.J.J.J.J.] Y E 9 i tXHX8X+ 5X6 : [.q.>.>.4.i.k.k.k.r.e.3.>.1.1.1.1.1.1.e.u.k.k.",
"d.d.w.;.;.;.=.&./.(.O # e W W W R D.H.G.] D.J.F.F.F.H.] T 2 e 3XeXHX9Xo 5X6 : [.9.>.4.r.i.j.k.p.d.e.5.3.1.1.1.1.1.5.t.j.k.i.",
"d.d.r.2.;.;.;.;.&.*.`.. 4 e r e E R W R ' ' ` ..` ` ' T w y 3Xb.eXBX5X@ 6X8 : _.9.a.e.u.j.j.j.j.u.r.e.w.5.5.4.5.5.r.u.j.i.k.",
"d.d.s.a.2.;.<.<.<.<._.O @ # # @ # 9 p W T N.N.` ` N.T 1 9 i p s O.r 0 u 0X0 : _.a.t.t.i.j.i.j.i.p.t.r.r.e.r.r.r.t.t.i.j.k.i.",
"d.s.s.s.a.w.<.;.<.2.w.'.O O O O X 1 /.'._._._.[.{.{.< + 6 q y y i e q i 7 # < ].a.t.j.j.j.j.j.k.k.j.u.r.e.r.r.t.u.j.j.j.i.k.",
"d.d.d.g.d.s.s.s.s.s.d.d._.`.'.'.'.'.#Xx.x.m.>X>XfXgX1X< + 6 6 0 0 6 0 # . < 1X>Xj.i.j.j.j.j.j.j.i.i.k.i.u.i.i.i.j.k.j.j.k.j.",
"d.s.d.s.d.s.s.s.s.s.a.s.f.s.f.0.f.g.d.s.s.l.q.q.7.6.6.].I .           < '.].6.q.z.i.i.i.j.j.i.j.k.j.i.i.i.i.i.y.u.u.j.j.i.j.",
"s.g.s.s.s.f.g.f.h.g.d.d.d.d.d.d.d.s.s.a.g.g.q.8.6.7.6.L.< X X X X X X < `.L.v.n.#Xk.j.i.i.j.j.j.i.i.j.k.z.z.z.z.k.j.i.p.j.i.",
"s.s.s.s.f.E.!.!.R.R.T.g.d.r.d.s.s.s.s.f.#Xq.8.8., * , & M.`.`.).`.`.`.M.& - 7.7.n.-Xl.j.i.i.j.j.i.i.z.*X*X*X~.*XW.I.i.i.j.j.",
"d.s.r.s.#X:X$XR.Q.!.R.R.g.s.s.d.d.s.g.8.v.8.8., : * - - * = = = = = = = - * , 7.v.7.q.z.i.i.j.j.y.z.;X<X*X*X*X*X~.W.k.i.i.j.",
"d.h.r.g.&X&X!.R.Q.Q.!.R.T.g.s.d.r.s.T.|.v.v.v.3 - - - - - - * * - - * - - * 3 v.b.n.n.-Xk.i.j.j.y.~.:X;X*X*X*X*X=X~.R.j.i.j.",
"d.d.a.g.,X!.R.R.R.!.Q.!.Q.x.s.s.s.s.E.|.v.v.v.b.6., - - * , * * * * * , - 3 |.}.n.b.|.,Xz.u.j.j.y.=X:X=X*X*X*X*X*X=XW.z.u.p.",
"s.d.a.s.$XQ.!.R.R.R.R.Q.R.g.s.d.s.f.f.$X<X|.v.b.v.8.8.6.* * * , , , , v.b.b.b.b.XXzXgX;Xj.u.j.j.y.E.$X*X=X*X*X=X=X*XW.l.u.i.",
"d.d.w.2.d.R.=X~.R.!.!.R.g.s.s.d.d.w.2.l.$XgX|.v.v.v.v.8.7.7.7.7.7.7.6.b.|.b.b.eXzX*XQ.x.j.p.j.j.t.e.g.#X=X*X*X*X~.R.g.h.p.j.",
"d.s.w.;.1.f.W.$X#X#XE.f.5.w.s.g.s.2.;.2.l.,X|.v.v.v.v.v.7.7.7.7.7.7.v.b.b.fXzXgX;XE.a.5.u.p.j.j.t.5.0.g.#X#X#X#XE.a.w.i.p.i.",
"d.d.w.;.*.:.4.0.5.5.4.:.=.w.d.f.s.2.;.*.3.0.>XfXgXzXXXv.7.6.7.7.v.8.7.XXzXgX0.0.0.0.0.1.t.k.p.k.t.4.1.5.0.0.0.0.0.1.5.t.k.j.",
"d.s.w.;.*.&.&.*.*.*.*.&.=.a.d.d.a.2.;.*.&.*.&.&.&.&.%XgXzXzXzXzXzXzXZXfX3.1.1.1.1.1.1.3.u.k.k.p.r.5.3.1.1.1.1.1.1.1.e.h.k.j.",
"d.f.w.;.;.*.&.&.&.*.&.*.2.s.s.d.s.w.;.;.*.&.&.&.&.&.*.2.d.f.f.f.i.t.r.5.3.1.1.1.1.3.3.5.u.k.j.p.t.r.5.3.1.1.1.1.1.3.r.i.p.j.",
"d.d.a.2.;.;.;.;.=.=.;.;.w.s.s.d.d.w.;.;.;.;.=.;.*.;.<.e.d.f.f.j.i.i.r.e.r.5.3.3.3.5.5.i.j.j.j.j.t.r.r.5.5.3.3.3.5.r.i.j.j.p.",
"d.d.s.a.<.;.;.;.;.;.;.w.a.g.d.d.d.s.4.;.;.;.;.;.;.<.5.d.a.d.d.j.p.j.t.r.r.0.r.r.5.r.t.i.i.p.i.k.k.t.r.r.r.r.5.r.r.t.p.k.p.p.",
"d.d.s.s.a.2.2.<.<.<.w.s.s.s.d.d.d.d.s.a.2.2.;.2.2.w.s.d.d.s.d.h.i.j.j.u.t.r.r.r.t.u.i.i.p.i.j.k.k.u.t.r.r.r.r.t.t.j.k.i.p.p.",
"s.s.d.d.s.s.w.w.a.a.s.s.s.s.s.s.s.d.d.s.s.w.w.w.e.s.d.s.d.s.d.j.p.p.p.k.u.u.y.u.I.u.I.i.i.p.p.p.p.p.p.u.u.t.u.u.i.p.p.i.p.p.",
"d.d.d.s.s.d.h.g.d.h.g.d.d.d.d.s.s.s.d.d.d.h.g.g.g.d.d.d.d.d.d.h.i.h.j.u.h.i.p.p.u.u.i.i.u.j.h.h.h.u.h.i.k.i.p.u.h.h.j.j.u.i.",
"h.h.h.h.h.h.h.h.h.h.h.h.h.h.h.h.h.h.h.h.h.h.h.j.i.i.i.u.h.h.h.d.d.t.d.d.d.d.d.d.d.d.d.d.d.d.d.d.f.d.d.d.d.d.d.t.d.d.d.d.d.d."
};
