/* XPM */
static char *_3765_060e808a389ac74d2a837cb202d97ebc43f23d7d3e75647ae593035ff0c3f36c[] = {
/* columns rows colors chars-per-pixel */
"62 73 241 2 ",
"   c #1D1F0F",
".  c #3D3D3D",
"X  c #37660B",
"o  c #3A690E",
"O  c #3C6C10",
"+  c #416F16",
"@  c #494C3A",
"#  c #4E7E22",
"$  c #0F094D",
"%  c #392F5A",
"&  c #2E1972",
"*  c #2E2776",
"=  c #502B6C",
"-  c #452272",
";  c #6D3D61",
":  c #3A476D",
">  c #434343",
",  c #4D4D4C",
"<  c #5A5757",
"1  c #684C56",
"2  c #744656",
"3  c #4A4D6B",
"4  c #6A526C",
"5  c #726F70",
"6  c #8A5251",
"7  c #92615F",
"8  c #84646A",
"9  c #4E811F",
"0  c #4FA203",
"q  c #53A606",
"w  c #55A907",
"e  c #54A609",
"r  c #56A909",
"t  c #59AD0B",
"y  c #5DB30B",
"u  c #5EAB16",
"i  c #5FAB18",
"p  c #5EB212",
"a  c #60B70D",
"s  c #61B80D",
"d  c #61AC19",
"f  c #63B517",
"g  c #64BB13",
"h  c #65B41B",
"j  c #66BA1A",
"k  c #6ABC1C",
"l  c #77B414",
"z  c #558527",
"x  c #6BBB22",
"c  c #71AA3C",
"v  c #74B438",
"b  c #68C31A",
"n  c #6CC31C",
"m  c #70C61D",
"M  c #73CC1E",
"N  c #73D518",
"B  c #76D41D",
"V  c #78D61F",
"C  c #7AD81F",
"Z  c #67C120",
"A  c #6DC522",
"S  c #6EC924",
"D  c #72C625",
"F  c #70CB25",
"G  c #74C628",
"H  c #75CC2A",
"J  c #7ACD2C",
"K  c #77D420",
"L  c #79D720",
"P  c #7AD821",
"I  c #7BD22B",
"U  c #7ED929",
"Y  c #6DC431",
"T  c #7CCE31",
"R  c #78C63B",
"E  c #7ED333",
"W  c #6E9E42",
"Q  c #74A644",
"!  c #7AAC4B",
"~  c #77CF48",
"^  c #8EB10F",
"/  c #AABC0D",
"(  c #FF9C01",
")  c #D2B20E",
"_  c #FCA805",
"`  c #F3B50A",
"'  c #FFB31C",
"]  c #FFBF1B",
"[  c #D5AA22",
"{  c #EEB92C",
"}  c #8ECA1A",
"|  c #AECE18",
" . c #8CC923",
".. c #86D428",
"X. c #81DA2C",
"o. c #82D434",
"O. c #8DDB36",
"+. c #85D53C",
"@. c #86DA38",
"#. c #8DDC3A",
"$. c #90DD37",
"%. c #91DE3C",
"&. c #B0CE2E",
"*. c #94E825",
"=. c #8DE03E",
"-. c #ACEA34",
";. c #C7CD16",
":. c #E2C516",
">. c #E0CC24",
",. c #82B74D",
"<. c #8CCF4F",
"1. c #8DD644",
"2. c #8CDB43",
"3. c #92DD42",
"4. c #96DB4A",
"5. c #8FE141",
"6. c #91E143",
"7. c #94E34A",
"8. c #9BE24A",
"9. c #9CE454",
"0. c #AAE252",
"q. c #A6E45A",
"w. c #98DE65",
"e. c #ABE764",
"r. c #B1EC72",
"t. c #D4DF5A",
"y. c #F2C853",
"u. c #110793",
"i. c #170696",
"p. c #251788",
"a. c #29168F",
"s. c #26228C",
"d. c #1708A8",
"f. c #160EB5",
"g. c #2D1AAA",
"h. c #341EA7",
"j. c #2819B9",
"k. c #122CB8",
"l. c #3327B4",
"z. c #553B96",
"x. c #4531AB",
"c. c #2F45B8",
"v. c #625193",
"b. c #586888",
"n. c #74668F",
"m. c #4C74B0",
"M. c #1819CB",
"N. c #261DC5",
"B. c #182ECD",
"V. c #2728C9",
"C. c #3227C6",
"Z. c #272BD8",
"A. c #2735D8",
"S. c #3133D0",
"D. c #1A39E7",
"F. c #2633E5",
"G. c #2C30E3",
"H. c #2C34E3",
"J. c #2635EA",
"K. c #2839EC",
"L. c #283CF4",
"P. c #184BD2",
"I. c #304ECF",
"U. c #3768D8",
"Y. c #1054EF",
"T. c #2647E9",
"R. c #334CEC",
"E. c #2958EB",
"W. c #2748F4",
"Q. c #2746FA",
"!. c #2945FC",
"~. c #264AFA",
"^. c #2655F6",
"/. c #265BF5",
"(. c #285AFB",
"). c #1469F9",
"_. c #0976FA",
"`. c #037BFC",
"'. c #187AFA",
"]. c #2667ED",
"[. c #2D76E8",
"{. c #2864F2",
"}. c #256BF3",
"|. c #2868F7",
" X c #276BFB",
".X c #2775FA",
"XX c #247CFD",
"oX c #297AFC",
"OX c #337AFB",
"+X c #4C67D1",
"@X c #476AD0",
"#X c #4881B2",
"$X c #0080FB",
"%X c #0C81FC",
"&X c #198EFC",
"*X c #2988FD",
"=X c #318CF2",
"-X c #3687FE",
";X c #3897FF",
":X c #34AAFF",
">X c #5089DC",
",X c #6E8BDB",
"<X c #508FF9",
"1X c #4399FD",
"2X c #738DEA",
"3X c #44A2FF",
"4X c #4AA6FF",
"5X c #53ACF7",
"6X c #53ABFF",
"7X c #5AA9FE",
"8X c #5BB2FF",
"9X c #63B3FF",
"0X c #6CB4FB",
"qX c #68B8FD",
"wX c #55C1FF",
"eX c #7BC3FD",
"rX c #79C6FC",
"tX c #90908E",
"yX c #9F9CB4",
"uX c #B1AEAB",
"iX c #C2BCB3",
"pX c #A5D0BB",
"aX c #9CC3E5",
"sX c #82CAFC",
"dX c #8AD2FB",
"fX c #93D3FD",
"gX c #9BD7FD",
"hX c #A7DBFD",
"jX c #B0D9FB",
"kX c #BBE5FF",
"lX c #B4EBFF",
"zX c #CDCDCD",
"xX c #DEE6EC",
"cX c #C7E8FF",
"vX c #C8F6FF",
"bX c #D5F9FF",
"nX c #E4FCFF",
"mX c #ECFEFF",
"MX c #F3F6F1",
"NX c #F3FFFF",
"BX c #FEFFFF",
/* pixels */
"L L L C L L L C L L L L V L L L L L L C L L L V L L L V P V K K S S F S F S F F F F S F F S F F F F F S F S F S F F F F F F ",
"L L L L L L L L L L L L L L V L L V L L L L L L L L L L L L K F F F F S F F F S F F F F F F F S S F F F F S F F F F S F F S ",
"L L L L L V L L V V V V C L L L L L L L V V V V V V L P L L K K S S F F S S S S S S F F F F D F S F F S S S D F S S F F A F ",
"L L C L L V L P V L V V V L L L L L L V V L V L L V V V L L K F F F F S S F F F F F S F S F S F F F S S F F F F S S F F F F ",
"L C L L V P X.X.U U U P V V V L V L V V X.X.X.X.U U L V L V K F S F F A F T J T J F F S F F F F F S D G T I J J H S A F F F ",
"L L L N K 9.7.5.5.=.=.X.L V V P V V N U 0.9.=.2.=.=.U V V V K F F F A J 1.9.O.O.O.O.I F S F F F S n T 9.%.$.O.O.@.H F F F F ",
"L L N U 0.e.7.=.5.6.6.=.E P V L C V U r.9.5.5.5.=.5.=.U V V V K S S F 4.q.%.#.#.#.#.@.I F S F F A T 9.q.$.O.$.$.O.@.H F S F ",
"L L N X.r.9.5.=.5.5.5.5.=.P V L N C O.r.7.=.5.5.=.5.5.@.V V K F S S o.0.q.X.#.#.#.#.#.2.F S S F b 2.q.4.O.#.#.#.$.$.o.H A F ",
"V L N X.e.6.#.5.5.5.5.7.2.U V L V L #.9.4.=.5.5.5.=.4.2.V V V F S S R 4.3.$.$.O.#.$.O.4.H S S F n 1.4.O.O.$.#.#.O.%.+.H S S ",
"L V M K +.6.6.5.=.5.5.5.#.I V V V B H #.6.5.5.5.=.6.6.@.V V V F S F A o.3.%.$.$.$.O.#.#.H S S S n G #.3.O.#.#.#.#.%.+.H S S ",
"L L B m A +.4.7.6.7.5.o.S B L L V M m G +.7.7.7.7.=.T D C ) _ ( ( _ ( ( ( ) 6.=.3.%.o.x S F F H g g G +.8.#.2.3.%...A Z S S ",
"L L F k h A T o.o.o.E G k M C P B M k h H E o.T o.T k l | 5 Z.C.C.S./.I.I.n.;.+.o.o.D t S F F F g y p G +.o.+.E J k f n H H ",
"C L M n h h h x x x x h h M L L B M k d d x x k x h h ^ 5 E.XX-X4X4X7X3X:X&Xb.^ h h t r b H F F y t w y j j x p p w p A S S ",
"L L M n h d d u u u u i j K L L B M k h d i u i i i d } b.~.(.(.(.(.(.(.|./.4 ^ 0 0 q t A H F F g y r q 0 0 0 0 q q p A H S ",
"L C M m m h d d i i h h m L L L K M m k h d d d d d h F } 3 d.f.K.).Y.H.P.b.^ q e r t g A F S F b y y t r e r t t t b S K S ",
"L P K M k m n k k k k n B P L L L B m m k n k n k k } | ) ( ( 6 M.<XOX4 ) l w t y y y n S S F F n g y y y y y y y y Z H F S ",
"L V L B M m x m n n m M L L L L V L N M n M m } | ;.1 p.p.& & g.Y.3X0XG.x.4 / ^ y p n m S F D F S b g a y y y a s n S F F F ",
"V P P V B M M m m M B V L L L L L L C C B } 3 p.s.* g.V.N.N.N.Z.OX6X{.L.L.W.I.b.) ) } M F F S F S S b b g g g b m S F F S F ",
"L P V L V V B B V V L L L L L L L C | 3 p.* g.N.V.k.T.~.W.W.W.).=X<X).`._._.`.'.U.@Xm.| ..S F F F F F S n A S m S F S F S F ",
"L L L L V V V V V V L L V L L L *.: z.V.V.k.A.E.W.T.{. X X'.`.`.$X'.%X$X$X$X$X`.`.`.'.U.#X .F D S F F S S S S D S S K F F F ",
"C L C C V C X.X.U U P L N N V *.: g.T.W.T./.|. X X X X.XoXXXXX%X$X$X$X$X$X$X$X$X$X$X%X-X_.m...D F S S F J J J J F S S S F Y ",
"L L L V V 4.6.#.=.#.@.U C *.| : A.R.{.oX'.XX*XXX'.*XXXXXXXoXoXXXXX'.$X$X$X$X$X$X$X$X`.%X*X_.m.| I n T 4.$.@.@.@.X.H S S F S ",
"L L N L =.e.9.=.6.6.6.=.*.: * j./.|.XX;X3X1X1X3X3X3X1X3X3X;X*X*XoXXX%X$X$X$X$X$X$X$X%X$X%X`.E.+Xm...<.q.%.$.$.$.#.@.H S S S ",
"L L N U r.q.6.=.5.5.5.7.: i.u.E. XXX;X4X4X8X9X9X9X9X9XqX6X4X3X;XXXXXXX'.$X`.$X$X$X$X$X$X_.*X[.|./.m.0.0.O.O.#.$.#.$.E H S S ",
"L L N U r.6.#.=.5.6.=.-.p.B.A.|.XX;X4X8X7XeXsXsXrXsXsX0XqX6X4X4X-X*XoXXX'.'.%X$X$X$X$X$X$X-X-X}.|.R.' 1.O.#.#.$.$.$.+.H S F ",
"L L B L 2.6.6.5.6.=.8.3 A.|. XXX;X8X8XeXsXfXfXfXfXfXgXdXsXqX9X6X;XXXXXXXoX'.$X$X$XXX'.XXXX}.[.%X'.(.n.` $.#.$.#.$.%.+.H S S ",
"L L M m D +.6.7.6.6.0.p.W.XXXX<X9X9X0XgXfXjXcXvXvXvXcXhXdXsXsXrX4X;X'.'.oX'.$X%XoXoXoX}.}.{.}.$X`.{.R._ 7.3.6.=.#.o.G A S F ",
"L L M n x G +.2.+.@.3 j./.OX-X7X0XeXfXkXkXvXNXBXBXNXmXcXhXdXdXeX8X1X*X'.oXXX'.'.}..X}./.^.^.}.).)._.(.n.) +.+.+.o.m g n F F ",
"L L M k h h x x A ^ i.V. X<XOX7X0XrXgXcXcXbXNXBXBXBXNXcXkXfXdXrX8X;X-XXXoXoX|.|././.^.!.Q.Q.^.{.}.$X{.W._ <.x Z j t p b H S ",
"L L M n h d d d i ` i.Z.|.-X<X6XqXsXgXcXcXbXBXBXBXBXNXbXjXfXdXrX9X3X*X*XXXoX{./.^.~.!.!.Q.Q.W.}.}.$X{.R.( y.Q q w w p A H S ",
"L L B n n h d d : 1 j.J. XoXOX*X9X0XfXhXjXcXmXNXNXNXnXkXhXsX0XqX6X3X*XXX X|.W.Q.~.Q.Q.Q.Q.Q.Q.^.^.'.'.E.n.n.[ Y w w b A H S ",
"L C B M n k k l d.u.B.J. X X XoX6X6XqXfXfXhXkXkXkXkXkXgXsX9X7X6X3X;X-XoX].{.~.Q.Q.Q.Q.Q.Q.Q.Q.Q.W.}.$X{.D.K._ S y y A S S S ",
"L L K B m n n } i.i.V.J./. X|.OX-X3X9XrX0XeXsXsXrXrXrXrXqX6X4X3X;X*XOX/.W.W.L.L.L.!.!.!.Q.Q.Q.Q.Q.(.`.{.G.A.( F g b S F F S ",
"L L L L K M m ^ a.i.V.J.T.E././.*X4X7X8X9X9X1X&X8XrXrXrX6X;X;X;X.X{.OX7X<X7X<X).).!.!.!.Q.Q.~.Q.Q.~.$X{.H.A.( F b D F F F F ",
"V V V V L V B } i.i.V.K.F.^.^.W.OX;X1X3X3X&X`._.&X:X:X6XwX<X.X.X}.OXqXwX:X:X&X`.`.Y.Y.L.Q.Q.Q.Q.Q.~.$X{.F.H.( F D F S F S F ",
"K L K K K K B } i.i.C.H.J.W.W.T.~.P.k.P.T.7XeX0X:X:XP.k.=X;X/.].{.*X=Xk.k.P.6X0XqXrX7XZ.D.~.Q.Q.Q.~.%X{.V.S.( F F F F F F F ",
"F F F F F F F } d.u.S.H.J.J.J.G.V.u.l.,X2XxXBXBXcXvX,XI.c.Y.[.{.!.D.P.@XU.,XvXBXBXBXxX,X[.T.!.W.Q.~.oXT.V.C.) H K K K L L K ",
"F D F F S S F  .< 6 g.K.K.J.K.G.i.c.fXmXBXBXBXBXBXBXmXbX+Xk. X|.!.f.m.bXlXbXBXBXBXBXBXmXdXU.F.^.Q.Q./.S.7 7 &.I L C V C C C ",
"F F F F F F F F &._ p.Z.J.S.Z.j.c.fXmXBXBXBXBXBXzXuXuXiX= u.A.A.A.g.n.iXuXuXzXBXBXBXBXBXmXgXU.T.T.W.H.C._ y.7.L L L L L L V ",
"S F F F S S S n ~ ) i.C.K.l.l.i.qXbXBXBXBXBXBXzX< . > .   $ i.f.j.$   . @ . < zXBXBXBXBXBXbXwXk.P.Q.F.C.) w.L V V V L L L L ",
"F F S S A F T T +.&.6 g.G.S.S.i.5XbXBXBXBXBXBX5 . , , 5 5 * u.j.N.& 5 ! , , . n.BXBXBXBXBXvX9XP.P.T.l.5 t.I @.U P V V V L L ",
"S F S S I 2.3.#.O.e.` i.N.K.L.i.0XbXBXBXBXBXBX,.> , . zXMXv.u.j.f.v.MXzX. , > ! BXBXBXBXBXbXqXB.P.T.h.:.pX=.=.5.@.U V V L L ",
"F F n H 4.q.4.$.#.6.&.1 l.G.G.j.U.hXMXBXBXBXBXyX, @ . tXyXx.k.V.N.l.yXtX> , < tXBXBXBXBXmXhX>XT.A.Z.5 t.7.=.5.5.5.=.U V V V ",
"F F n H q.8.$.$.#.=.=.>.8 h.g.K.d.U.hXmXBXBXMXxXtX5 < . & M.T.K.L.M.& > @ < tXxXBXNXBXNXhX=XB.H.S.5 t.9.=.=.5.5.5.6.@.L V L ",
"S S n J e.%.O.O.#.$.#.7.:.i.u.V.L.d.U.hXcXlXkXvXaXaXb.% s.F.W.W.L.F.s.% % b.aXvXkXkXvXlX=XB.A.j.x.>.r.1.5.5.5.5.5.6.#.I N L ",
"S H n n +.%.%.$.O.O.$.$.&.4 ; h.Z.Z.d.@X>X>X>X>XU.Y.k.f.E.(.(.(.(.(.T.k.f.k.].>X>X>X>XU.F.G.g.3 3 | 1.2.5.5.5.5.5.5.@.L V L ",
"S H b s m o.3.3.2.6.5.E H ) ` 2 g.G.F.f.d.d.d.d.d.d.V..X&X=X<X-X1X-X*X}.L.Z.d.d.d.d.d.f.K.g.1 ;.| n G +.7.5.3.5.5.o.F F C L ",
"S S b y d x +.1.+.2.E S p Z ~ :.2 g.Z.H.H.K.L.W.K.K.K.K.].1X0X7X9X1X].J.K.L.W.L.K.K.K.J.V.1 | E n j x F 1.+.1.1.E n n B L L ",
"H S b y q t p f p p p r t j H ~ :.2 = h.j.Z.F.H.K.J.J.J.H.J.F.D.L.K.J.J.J.J.H.K.Z.M.l.z.1 ;.P C m k d h f f f h h d k B C C ",
"S S b y t q q e e q q q y Z H H ~ ) ` 2 = = h.N.V.Z.F.F.H.H.H.H.F.G.G.G.F.Z.N.C.z.- 2 ` ) U P P m k h d d d d d d d x B C P ",
"F F b a y y r w e e r t p S F F S ~ w.[ ' ] 2 - - = a.j.j.N.C.j.N.N.N.x.v.= - 2 _ ` ) S N P P C m m k h d d d d d h B L P V ",
"F F m g y y y y t t y p b F S H S A p R R <.{ ' ' ] 7 - - - - - - - - 6 ] ' _ ) ~ Y n V L C L L F m m n k k j j x m B P V P ",
"F S F S g y s s s y y b F F F F F S n g a s k a a R y._ ' ' ' ' ' ' _ y.R T <.F m M M V L L L L C B m m m m m m m B L V P L ",
"F F S S n b s y y g Z S F F F F S F S n g a a a g n A p y p s y y a p A M n Z n m M V V L L V L P B M M n m m M B L L L V L ",
"F F F S F S S S F F F F F F F F F F F F F S S F F F F S H S F L L L L L V L L L V V V L L C L L C P B V B C V V L L P V L L ",
"S F S H F S S S F F S S F F F F F S F S S S S S A F S G F Y H F I P H K V N C N V V V V L L L V P V P B B B B C B B L L L C ",
"F F F F D G H H H H G F F F F F F F S S H H J H F H c ! W W W Q c W Q v L ..I U L P L V V L L L V V C L U U U U ..B V C L V ",
"F F S S D +.3.O.=.=.X.F F F F F F F A H 1.2.%.v Q W W 9 o o o o X X # c c Q ~ =.=.=.U C V V L L V V U =.6.5.=.=.@.P V V L L ",
"F A S D 1.q.4.O.O.$.$.O.I S S F F A G 9.0.%.! Q # X o o o O O O O O o X X # ,.o.5.5.=.U V V L L N U 9.r.5.5.5.6.=.#.L V V L ",
"F F Z J q.8.%.O.=.X.$.$.o.G S F A A T e.4.O.! ! # O O o O O O O O O O O X # Q <.5.5.5.2.P V L L N #.q.9.5.5.5.5.6.=.@.L V L ",
"F F n H e.%.O.O.$.#.$.%.@.T S S S F +.0.%.@.,.! z + + O O O O O o + o + + z <.<.5.5.5.2.U V L L N 4.q.5.5.5.5.5.5.6.#.P N L ",
"F F n D 4.#.$.#.O.#.$.%.@.T S S S S G 3.%.#.%.,.! ,.,.# O O O O + o z ! ,.<.3.3.5.5.6.2.P N L L N +.7.5.5.5.5.5.5.5.+.I V L ",
"S H b g D #.=.#.$.#.%.@.T A S F F n g J 3.3.%.%.3.2.,.! c c v v v v c v #.6.6.%.5.5.#.T K V L L B n H 2.7.5.5.5.5.@.H K C L ",
"S S b y f A #.4.2.2.+.F j n F F A g y f J 2.2.1.2.+.x x G F F V C B k x S +.2.4.2.1.D h B L L L M k x G 2.2.2.2.+.A n B C L ",
"S H b y w p f j j k j u t b F F S g t w p x j x x f t t F F H K L M n h h x k x x k h d M ..C C M h d h x x x x x d k M P L ",
"S S b y w q r r r r e e t n S H n b y w e e e e r e e y F S S K C M n h d d d d d d d h B P C C M k h d d d d d d d n K P L ",
"S S n y y r e e q q q w f S S S S g y y w q q q q w t g S S F L V M m k h d d d d d h n B P B P M m k d d d d d d h M V C L ",
"F H A b y y y t w t y a b S F F F n s y y y t y t t p b H H S L V B M n m k h h h k x K B P P C M m n m k h f k k m B L L L ",
"F F S A y y y y y y s b S F F F H A b y y y y s y y b S S S F L C L B m m n m n m m M B P L L P C M m m m n m k m M K L L C ",
"S F F S A b s s y g b S S F F F S S S n b s y g b n S F S S F L V V L M m m m m M M V P L L C P P K M m m m m M B V L L V V ",
"S S S S S A n b b A A F F S S A S S H S n Z b n n S S S S S F L V C C L B B B B B C C C C C C C C C V B B B B B V C V V C C ",
"F F K F F S H K S H H F F F F S F F S F F K H F K F F F F F F K K L L K L L C C V B B K K K K K K B K L K L L B K L L K L L ",
"K K L K K K K K K K K K K K K K K K K K K K K L L K K K K L K S F F F F F M F F F F F F F F F S H F F F F M F F F F F F F M "
};
