/* XPM */
static char *_2243_b47fd29fcd9a4e66cee39ec745c8e96b9cbcffcd07096041dd5e0a7f576f438c[] = {
/* columns rows colors chars-per-pixel */
"62 73 240 2 ",
"   c #6A3402",
".  c #64310F",
"X  c #3A6A0E",
"o  c #3F740F",
"O  c #3C6C10",
"+  c #764604",
"@  c #406F14",
"#  c #427612",
"$  c #785429",
"%  c #1C3071",
"&  c #2A387B",
"*  c #36526A",
"=  c #51606E",
"-  c #717168",
";  c #863D00",
":  c #874405",
">  c #9A4B01",
",  c #92540A",
"<  c #A24B00",
"1  c #A85503",
"2  c #B55501",
"3  c #BC5900",
"4  c #977318",
"5  c #B56F08",
"6  c #CC6F19",
"7  c #CD7513",
"8  c #4FA203",
"9  c #52A506",
"0  c #55AA07",
"q  c #54A609",
"w  c #56A909",
"e  c #59AD0B",
"r  c #5DB30B",
"t  c #5EAB16",
"y  c #5FAA19",
"u  c #5EB313",
"i  c #60B70D",
"p  c #6BB00A",
"a  c #61B90E",
"s  c #61AC19",
"d  c #61B415",
"f  c #64BB13",
"g  c #65B41B",
"h  c #68B71D",
"j  c #66B91A",
"k  c #6ABB1C",
"l  c #558527",
"z  c #699C3B",
"x  c #6BBC22",
"c  c #6EB62B",
"v  c #71B136",
"b  c #68C31A",
"n  c #6CC31C",
"m  c #70C61D",
"M  c #73CC1E",
"N  c #72D517",
"B  c #76D41D",
"V  c #78D61F",
"C  c #7AD81F",
"Z  c #6DC522",
"A  c #6EC924",
"S  c #6FC92A",
"D  c #72C625",
"F  c #71CB25",
"G  c #75C728",
"H  c #75CC2A",
"J  c #7ACD2C",
"K  c #77D420",
"L  c #79D720",
"P  c #7AD821",
"I  c #7CD32B",
"U  c #7ED929",
"Y  c #77C737",
"T  c #7CCE31",
"R  c #7FD133",
"E  c #7BAF48",
"W  c #629D65",
"Q  c #72C365",
"!  c #A98B09",
"~  c #DB8619",
"^  c #85CE13",
"/  c #A3D80D",
"(  c #B2E718",
")  c #80D52C",
"_  c #81DA2C",
"`  c #94D62E",
"'  c #82D434",
"]  c #8DDB36",
"[  c #85D53B",
"{  c #86D938",
"}  c #8DDC3A",
"|  c #90DD37",
" . c #91DE3C",
".. c #8DE03E",
"X. c #9CE13A",
"o. c #A7E632",
"O. c #C8F215",
"+. c #DAF518",
"@. c #E1ED02",
"#. c #E4F90B",
"$. c #FAFE0A",
"%. c #EBFE15",
"&. c #FEFF14",
"*. c #FFFF1B",
"=. c #D1EF31",
"-. c #EDF932",
";. c #FBFF39",
":. c #9B9849",
">. c #87B351",
",. c #989A62",
"<. c #DEA253",
"1. c #8DCF4E",
"2. c #8CD645",
"3. c #8CDB43",
"4. c #92DD42",
"5. c #95DB4A",
"6. c #8FE141",
"7. c #91E144",
"8. c #94E349",
"9. c #9CE24A",
"0. c #9BE354",
"q. c #B2EC46",
"w. c #A6E45A",
"e. c #91CE6C",
"r. c #9FDE61",
"t. c #ABE764",
"y. c #B2EB72",
"u. c #CEEF44",
"i. c #F4FF4C",
"p. c #FAFE74",
"a. c #2A2792",
"s. c #1216A6",
"d. c #304892",
"f. c #3A47AC",
"g. c #356FB2",
"h. c #484D87",
"j. c #434793",
"k. c #4A6A9B",
"l. c #527190",
"z. c #697497",
"x. c #5368A3",
"c. c #4470B4",
"v. c #0406FF",
"b. c #041EFF",
"n. c #032DFF",
"m. c #125DCA",
"M. c #2A54D2",
"N. c #186FD1",
"B. c #3A6DD0",
"V. c #114BE9",
"C. c #0048FF",
"Z. c #0052FF",
"A. c #005CFF",
"S. c #2655FF",
"D. c #0E78E3",
"F. c #0064FF",
"G. c #0269FF",
"H. c #0C6AFE",
"J. c #156BFE",
"K. c #0973FC",
"L. c #1374FF",
"P. c #1873FF",
"I. c #157DFF",
"U. c #1C7BFF",
"Y. c #247BF3",
"T. c #4779CB",
"R. c #37A1AA",
"E. c #62A3A4",
"W. c #71CAB9",
"Q. c #0E90DE",
"!. c #2E8BD8",
"~. c #098CF0",
"^. c #1985FA",
"/. c #0395F4",
"(. c #1499FB",
"). c #2787FE",
"_. c #308FF2",
"`. c #0CADF6",
"'. c #36A7FE",
"]. c #29B1F5",
"[. c #39B7FD",
"{. c #538ACA",
"}. c #4699D7",
"|. c #4AA7DC",
" X c #4E8EF5",
".X c #4799FF",
"XX c #47AAEC",
"oX c #4AAAFB",
"OX c #5AA6FF",
"+X c #46B8FE",
"@X c #54BBFB",
"#X c #64AEFF",
"$X c #68BCFB",
"%X c #75BAFF",
"&X c #7CBEFF",
"*X c #00C5F7",
"=X c #38C6FF",
"-X c #6DC6CA",
";X c #48C7FC",
":X c #49CEFA",
">X c #5AC3FC",
",X c #56C8FC",
"<X c #57D6FF",
"1X c #58D5FF",
"2X c #70CAF2",
"3X c #78C6FD",
"4X c #67D5FE",
"5X c #78DAFD",
"6X c #7BE3FF",
"7X c #8C9488",
"8X c #888ABA",
"9X c #AAE688",
"0X c #B2E2A2",
"qX c #EEFC89",
"wX c #8BADEC",
"eX c #83C3FF",
"rX c #8CC8FF",
"tX c #92CCFF",
"yX c #86DAFE",
"uX c #9CD8FC",
"iX c #A8DAFF",
"pX c #B2DFFF",
"aX c #87E6FF",
"sX c #96E9FF",
"dX c #93F5FF",
"fX c #A7E9FD",
"gX c #B6E1FF",
"hX c #BBE4FF",
"jX c #B3ECFF",
"kX c #BBEDFF",
"lX c #A8F8FF",
"zX c #B5FEFF",
"xX c #C6E9FD",
"cX c #C9F6FF",
"vX c #D5F8FF",
"bX c #EAE7F8",
"nX c #E4FEFF",
"mX c #E8FFFF",
"MX c #F3FFFF",
"NX c #F9FFFF",
/* pixels */
"L L L C P V P B P P V P V P B P L L L L L L L L C L L L V V K S A S F F F F F S A F F F F F F F F F F A F F F F F F F F F F ",
"L L L L V P V P P B P V P V V P L C C L C L P L L L L C P V K K A A A F A F F F F F F A G A A F A F F F A F A F G A A F A F ",
"L L L L V V V P B V V P P P P B L P L L B C B B C B L L P B K K S F F F A A A A A A A F A F S F A F F A A A A D A A S F F A ",
"L L C L V V P P P V V B B B P P L L L B L L L L L C B L P B K F A A F A A A F A F D A F A F F S F F A A A F F F A A F S F F ",
"L C C B B U _ _ U U U P V V P V C C C B _ _ _ _ U P P K P P K S A S F D F ' J I I F F F F S F A F A F H J I J J F F A A F F ",
"L L C B C 0.9...6.6.} U V V V P C C N _ 0.9...7.6.} U P K B K K A S n H 4.5.] ] ] ] I A M F F F A m Y 0.4.| ] ] { J A A A F ",
"L L N U 0.w.8...6.6.6.6._ K B P B N P y.w.6...7.6.6.{ U V V B S F A F 5.w.| } ] | } { I A A A F A T 5.w.| } | | ] { I A A A ",
"L L N _ y.w.7...6.6.6.6.6.P B P C C ..y.8...7...6.6.6.} V V K K A A T w.w.] } | } } } } F A F F b 3.w.9.] ] } | | | ' F A F ",
"V V N _ t.7.....6.6.6.6.3.I P P V V | 0.7.....7.6.6.5.3.B B K K A m R 5.4.] } } | ] | 5.H A A S n 2.5.| ] | } ] | | [ H A G ",
"V V B F { 7.6.6.6.6.6.8.} U V B B B G  .7.7.7.3.6.6.6.{ V K K S A A n ' 4.} ] | ] | } } H m A F b G ]  .} ] | ] | | [ H A A ",
"V P B m Z [ 5.5.8.8.8.R F M P V C M k D [ 8.8.8.8.6.T Z P V K K F b u n [ 8.7.6.4. .' Z A S F F f f D [ 8.4.6.7. .' n Z S S ",
"P V F k g Z ' ' R R R D b M V P V M k h H ' ' T R T Z j P V K S D b r r x R [ R [ T D e Z H F F f e u D [ [ R [ T k d b F A ",
"V P M k g g h h x x x s h M L P V m k g s x x x x c s O.*.&.&.&.&.&.=.c r g g g h g e 0 b H F F a e 0 t h h g g d w u n K A ",
"P V M m j s s t t t s t j K P C B M k g y y y s y ( *.!   : , , , , + ! -.c 8 8 8 8 9 r n F F F f r 0 9 8 8 8 8 8 8 f Z S A ",
"L C M m k j g s y s g g n P B P V M n b g v O.&.*.! + 1 2 2 3 3 2 2 2 1 , ! &.+.c 0 r a A F F F b r r r w 9 q 9 w r b A F F ",
"L P V M n m k k k h k n B P B P C N m m Q -.4 + + ; > 2 3 3 3 3 < : > 3 2 1 + + $ C i b S F F F n a r r r r r r r f A F A F ",
"L C C V m m x m b n m M L L L L L K K Z e.;.! ; . . ; < < 2 3 3 3 2 3 3 >   . . 4 +.n G F F F F F n a a r r a r a n A F F F ",
"L L L L B M m m M M K C L L L C L C P F 0Xi.5 ; 5 6 , ; : : : : : : : > 2 7 5 1 5 $.D G F A F A A A b b f f f b n F F F S F ",
"L L C L C V V V B B B P L L L L L L L 9Xi.- a.a.. < 1 7 5 6 6 7 6 <.<.<.6 : > $ f.W %.x F F F F F F F A A n n F F F F A F F ",
"L L L L V C B V V B P P C L L L L L 0.;.- f.N.~.g.f.$ > > 1 7 3 7 ~ 7 7 :.d.j.c.+Xm.W O.F A F A F F F A A A A A S A F F F A ",
"V P C V B B _ _ U U P P B V P V P P r.*.h.s.M.B.N.=X{.j.j.j.j.j.j.j.j.j.E.jXjXyXN.d.W %.F A F F A A D D J I G J F A A F A F ",
"P V C C C 5.7.} ....{ U P V B P K K U q.-.x.V.D.D.m.|.;X+X5XfXhXbXbXxXfX2XN.N._.].k.#.K A S F F F n T 2.} { ] { ' K A A F F ",
"V P N P ..t.0.6.6.6.6...U V B P L B _ 9X&.z.M.M.D.D.D.D.D.!.!.!.}.}.}.Y.].;X:X].K.R.$.T S A F A A F 5.t. .| | | ] { F S A F ",
"V P N U y.w.7...6.6.6.7.{ P B P P K | y.t.u.i.u.E.M._.`.`.`.`.`.`.*X`.*X`.~./.|.u.y.o.[ F M F F b 3.w.9.] ] ] | ] | ' F A A ",
"P P N U y.7.....7.7...7.} U K C B P 3.w.0.X.o.$.7XY.Q./././././././././.].2X/.-X;. .| 4.G A S F b 5.w.} ] | } } | | [ H A S ",
"V P B K 3.7.7.......7.7.} U P K V B I 6.7.6.7.%.7X_.`.].@X,X2X4X4X5XyX5XsXuX(.2Xp.| | 4.H A A S k G ]  .} ] ] ] | | [ H A A ",
"P C M n A [ 5.7.7.8.7.} I F B C C M b J 3.7.8.%.,.^.=X6XaXdXzXcXmXmXmXmXvXyX(.-X-. .' H F F F G j f G } 7.7.} 4.} ' G A A F ",
"C P M n h G [ 3.{ [ { G k M P C B M k x T R 2.%.7X(.=XaXdXlXzXvXNXMXMXMXnXaX(.W.%.{ G u n F F F f r g H 2.} 3.{ ' D f b F A ",
"L L M n s h k x x x x g h M L P K m k g h k c #.7X(.=XaXdXlXzXcXMXMXMXMXnX5X(.W.#.k r 0 n H F F a r 0 u x x x x h w u b F G ",
"C L M n g s s s y s y t h B C P B M k g s s y @.7X~.:XaXdXlXzXvXMXMXMXMXnXyX(.W.@.8 9 e m H F F f r 0 9 9 9 9 9 9 9 f Z F F ",
"L P M n k g s s y y s g n L L L B M m h g g y O.E.^.=XaXsXlXzXcXMXMXMXMXnX5X(.W.( 0 w r A S F F f i e 0 9 9 9 8 0 0 b A F F ",
"L L B M m n k h k k h n M L L L L F m m E O.z = g.[.1XaXdXlXzXcXMXMXMXMXnXsX[.;XQ p r b M S F F n a r r e e r r r r Z F F F ",
"P V P B m n m M n n M M V V P V P K M e.i.:.g.V.>XlXsXdXlXzXzXzXxXcXvXNXnXkXcXsX].W N N N A S F A b r r r a a r b b A F F F ",
"V K P V B M m b n M M B P P V P K 1.y.p.:.g.&XfXtX$X>X5XaXaXaXsXfXfXkXmXkX5XyXsXuX].W O.( ` F N F A b b f r r b b m A F F F ",
"V V C C K K K L B P V V V V V P u.=.i.:.8XoX$XrXoX'.[.:X<X<X<X6XjXfXkXvXjX4X[.,XsX,X2XE.Q #./ N S A A M A b A A M A A F A A ",
"K K K K K K K K K B P K B K P O.,.qXp.B.#XoX'.[.+X;X<X<X<X<X<X4XsXjXjXxXcXjXsXsX4X4XaX/.XXqXE.( Y T A A A A F F A F F F F F ",
"F F B A F F K F F F K F I F O.:.{.%XrX'.'.'.;X,X<X<X<X<X<X<X<X<X4XyXsXkXvXvXvXxXfX5X:X:X>X@X@XQ +.O.1.K K K K K K K K K B K ",
"S A A A A A A A F A A A ( +.:.{. XA.Z.).'.[.+X[.+X<X<X<X<X<X1X1X<X:X5XjXxXcXvXcXkXfX4X@X'.F.@X;X9Xe.i.y.P P C L V C P C C C ",
"F F S A A A A A A S F ( :.:.{. Xb.C.Z.L.).'.'.'.[.,X,X<X<X1X1X1X<X<XaXjXkXvXvXvXcXjXrXOXOXH.G.@X`.[.e.p.r.K K L P P V V V P ",
"A F A F A A A A A S / :.T.T. Xb.Z.G.F.F.I.U.^.U.^.'.'.[.+X+X,X+X+X;X@XyXiXpXxXxXxXhXrXeX&XOXK.F.@X@X[.e.p.9XK V B B P V P P ",
"F F F A m F T ' T ` :.B..XOXb.Z.G.F.F.F.F.F.F.F.F.L.I.I.I.I.U.I.I.I.).@X&XtXhXpXpXgXpXtXtX&XOXL.Z.F.,X].r.qX{ U P V B P P B ",
"F F S S H 3.4.} } %.s.dXv.v.C.F.F.L.H.J.).U.H.F.F.F.F.A.A.F.H.U.U.F.P.#XeXrXiXiXgXpXhXhXpXtX&XOXL.L.F.dX~.$.U 6...U P V V P ",
"S A M F 5.w.5.| | &.s.dXb.v.C.G.F.)._.OXiXrXU.F.F.F.U..XOXU.A.).).F.L..X&X&X&XtXxXgXgXgXgXpXtX&X#XOXU.dX~.&.K 6.6...P K B P ",
"F F b H w.9.| ] | %.- }.S.S.n.Z.F.).'.#XxXtXU.F.F.F..XiXvX#XA.F.F.G.F.L.#XeX&XeXiXgXgXgXgXhXpXrXeXeX@X<XE.u.U 6...6.{ P B P ",
"S F n G w. .` ] ] | %.- }.!.S.n.A.U.^._.#X.XL.F.G.F.U..XOXY.F.G.H.F.F.L..X&XeXeXrXhXgXgXgXgXhXgX3X4X[.R.=.y.6.6.6.7.} I B V ",
"F F n n } 4. .} ] ] | %.- - |.S.n.H.J.J.).U.H.G.F.G.F.F.F.F.F.G.G.F.F.F.L.OXeX3XrXiXgXgXgXgXhXsX+XXXR.9.7.6.6.6.6.6.R K V V ",
"F F b f Z ' 5.4.4.4. .' #.%.= }.S.P.U.H.C.Z.A.A.F.F.G.F.F.G.G.G.G.G.F.F.U.#XeXeX&XeXxXgXhXgXsX_.l.l.D { 8.3.7.3.6.' H B V P ",
"A F b r u x [ 3.[ [ [ D f b _ * }.XXoXQ.V.J.K.G.F.A.A.A.A.A.A.A.A.A.A.A.H..X%X%X3XyXuXwXwX3XXXl.b k k D 3.[ 3.3.R Z b B C C ",
"F A b r 9 e t d d d u w e b S F * & & = {.@X].~.K.K.P.P.L.L.L.P.P.P.P.P.H.).+XoXXX,X!.% & k.E.C m f g s g g g g g s k M P C ",
"F F b r e 9 9 q 9 9 9 0 e Z F G A f ^ #.- l.z.z.!.].@X@X@X@X@X>X>X>X@X@X>X>X>X}.& c.= j N N m P m b g s s s s t s s n B P C ",
"F F b i r r 0 9 q q q e u A F F A k r u / #.*.*.,.z.z.z.z.z.x.l.l.k.k.x.k.k.k.= h g g n V P V P M m k h d s s s s h M C P L ",
"F H n f r r r r r w r r n F F F A Z f r e s 2.2.u.*.*.;.;.;.i.u.q.o.u.o.o.^ k h k k n B P V P P M m m k k k h h k m C C C L ",
"F F F Z f r a a r a a n S K A S F A b f i i i a Y 3.R P U P I P _ P _ P U P D m n m B V V V P B P M n m n m m m M M L L L C ",
"F F A F A f a r a a n A S A A S F A F n f a i a j S A Z F A K K C C C V M n m n M F V C P P V P P L B M n m m m M L C L L L ",
"A F A F F F A A A A F A F F A A F F F A A F F Z F D G Y Y Y H J I _ ) J K L B V C L L C P B V P C L L B V V V C L L L L L L ",
"F F F F F A A A A A A A F A F F F A F A A A A D S A v z z z z z z z z z c B B B B B V V P B P P L L C C V V N V C C C L L L ",
"F F F F Z G J G I K F F D F F A F A A A F J G v v l o O X X X X X X X X # y v ' U P P V V P P B C B C P U U U U L C C L L L ",
"F F Z A F [ 4.| } } _ J F A F F F A A G 3.4.] [ E l O O O O O O X X O X X l E 1...{ U V V B P B V V _ ..6.6.6.6.' P L L L L ",
"F A D F 2.w.5.] ] } | { J Z A F D Z G 0.0.4.` 2.>.l o O X O O O @ X X O @ l >.1.6.6...U V V P P N U 0.y.6.6.6.6.7.} P N C L ",
"F F Z H r.9. .] } ] } | ' H A F A Z ' w.5.] } | 1.>.>.l O O O O @ @ @ l >.1.1.2.6.6.6.{ P B P V N ..w.0.3.6.6.6.7...{ P B L ",
"F F n H t. .] ] } | |  .} T A A A F ' w.| ] } ] } ] 1.E E z v E v v E >.1.....6.6.6.6.8.U C L L N 7.w.7.6.6.6.6.6.7.} I N L ",
"A F n D 5.} | | | } | | } H A A A D G 5. .| ] } ] } } [ A A F P U N I } 5.6.6.6.6.7.7.3.P N L C N [ 5.7.6.6.6.6.7.6.{ K C L ",
"F F b f G } 7.4.] | } { I A S A F b f I 3.7.} } | | ' H A A F L P C b H { 8.6.6.7.7.} T K C P P M n H 3.8.6.6.6.6.{ G L C L ",
"F S b r d D [ 3.3.3.{ D j n S F Z f r g J 3.3.3.5.' x d F F F L C M b h G [ 3.3.3.[ D h M P L P M k k H 3.3.3.3.[ Z n B P L ",
"S F b r 0 e x x k h k e e Z F F A f r 9 d h h x k j e e S A F P C M k g g k k x x x h s M P C P m h s h x k x x x g k M P C ",
"A F n r 0 0 q q q q q 8 e Z F F M f r q q w q w q 9 9 r S A A P C M n g s s s s s t s g B P P C m k g s s s s s s s k L C P ",
"F F n r r w 0 8 0 9 9 0 u A A F A b r r 0 9 9 0 q 0 w f F A F P C M m h g g s s s s g k B L L C M m h s s s s s s s m V P L ",
"F F n f r r r w 0 e r a b S F F A n r r r r w e e e u m F S F B C C m n n k g g h h m B L L L L B m m m k g g h k m V P C L ",
"S F A n u r r r r r a f A F F F F A b r r i a r r a b F F A K K C L M M x n m n n m m V L L L L V M m n n m n n x B V V C V ",
"F F F F M b b r a d n A A F A A F A A n f a r f a n A F S A F K V L L M M m m m M M L L L L L L P V M M m m m M B V V V V V ",
"A A A A S n b b b Z A G A A A D A F S A n b b Z n F A A A A K K C V C C C V B B B V C V C C C C V V C M B M B B C V V V C C ",
"F F F F F F F K F K S F F F F F F F F F F I F F K F F F S A S K L K L B V C C C C V V V L K K V L L V V C C C V L L L V P V ",
"C B B K K B L K K K K K K B L K K K K K K K K L K K K K K K K F M F F F F F F M F F F F F F F F F F F F F F F F M F F F F F "
};
