/* XPM */
static char *_810_d0cc2cee7528eb6a6da977809f2b0a9be82b2ea317ab82ac404227cd4dd01717[] = {
/* columns rows colors chars-per-pixel */
"62 73 256 2 ",
"   c #000001",
".  c #080707",
"X  c #181311",
"o  c #2B1A12",
"O  c #011930",
"+  c #0C343C",
"@  c #322923",
"#  c #502E19",
"$  c #673216",
"%  c #4C372E",
"&  c #2F570D",
"*  c #395F00",
"=  c #30560C",
"-  c #335B0D",
";  c #39660A",
":  c #3F7007",
">  c #3A6713",
",  c #275237",
"<  c #366631",
"1  c #467208",
"2  c #436C1A",
"3  c #49721A",
"4  c #774C35",
"5  c #5D6A2E",
"6  c #4C7424",
"7  c #4D712C",
"8  c #517D26",
"9  c #001C44",
"0  c #002845",
"q  c #0A344F",
"w  c #002B69",
"e  c #01356A",
"r  c #002D71",
"t  c #003B7A",
"y  c #194C50",
"u  c #356E53",
"i  c #104A71",
"p  c #265F67",
"a  c #32556F",
"s  c #474F54",
"d  c #6D554D",
"f  c #505E6E",
"g  c #6D686E",
"h  c #9A3C09",
"j  c #A53B06",
"k  c #8F3D26",
"l  c #98400E",
"z  c #974317",
"x  c #A04614",
"c  c #894828",
"v  c #944E2D",
"b  c #9B5432",
"n  c #AC5230",
"m  c #A75A36",
"M  c #B76136",
"N  c #C7663F",
"B  c #8D6A5C",
"V  c #B66F51",
"C  c #AE776D",
"Z  c #CB6B43",
"A  c #CE6E49",
"S  c #CE754B",
"D  c #D5764B",
"F  c #E47946",
"G  c #55A908",
"H  c #5BAF0F",
"J  c #5EB40B",
"K  c #5EAC16",
"L  c #61B80E",
"P  c #62A617",
"I  c #61AC19",
"U  c #64BA15",
"Y  c #65B31B",
"T  c #6ABB1B",
"R  c #558B2E",
"E  c #5D8638",
"W  c #65922E",
"Q  c #618A39",
"!  c #55A523",
"~  c #6BB926",
"^  c #6FB131",
"/  c #69C117",
"(  c #6CC31C",
")  c #70C61D",
"_  c #73CC1E",
"`  c #72D516",
"'  c #76D41D",
"]  c #78D61F",
"[  c #7AD81F",
"{  c #6DC421",
"}  c #6EC924",
"|  c #6EC72A",
" . c #71CA25",
".. c #73C628",
"X. c #74CC2B",
"o. c #7ACB2D",
"O. c #77D421",
"+. c #79D720",
"@. c #7AD821",
"#. c #7CD52B",
"$. c #6FCB34",
"%. c #79CB32",
"&. c #3B9F43",
"*. c #399D77",
"=. c #3DA173",
"-. c #4C9754",
";. c #54B550",
":. c #6CA55C",
">. c #4EB16C",
",. c #6DC64B",
"<. c #63C25E",
"1. c #82D92A",
"2. c #8FCE36",
"3. c #84D736",
"4. c #8DDC36",
"5. c #8CDC3B",
"6. c #92DD3C",
"7. c #89E32D",
"8. c #8DE03E",
"9. c #9A9C6A",
"0. c #B68B71",
"q. c #D6895C",
"w. c #F48E4E",
"e. c #DC8E63",
"r. c #D1906D",
"t. c #E39465",
"y. c #E4986B",
"u. c #E79D71",
"i. c #FFAD6C",
"p. c #EDA576",
"a. c #F8A976",
"s. c #8AD845",
"d. c #93DC46",
"f. c #90D256",
"g. c #8FE141",
"h. c #8FE44A",
"j. c #91E243",
"k. c #99E24A",
"l. c #9CE454",
"z. c #A6E55C",
"x. c #9CDA65",
"c. c #ACD070",
"v. c #A8E665",
"b. c #AEE973",
"n. c #C0CB7F",
"m. c #003787",
"M. c #02488A",
"N. c #0E538B",
"B. c #12588A",
"V. c #01489A",
"C. c #055699",
"Z. c #18559C",
"A. c #2E7489",
"S. c #276492",
"D. c #376298",
"F. c #014AA7",
"G. c #0C55AE",
"H. c #0258AA",
"J. c #005CBA",
"K. c #0363A9",
"L. c #0467B8",
"P. c #006CBC",
"I. c #0A72BA",
"U. c #1672B2",
"Y. c #2E75AE",
"T. c #475A8E",
"R. c #4B7495",
"E. c #4B7AA7",
"W. c #015DC6",
"Q. c #016CC3",
"!. c #006AC9",
"~. c #0071C2",
"^. c #0575CB",
"/. c #1376C8",
"(. c #0069D4",
"). c #006CDC",
"_. c #007CD5",
"`. c #0778D8",
"'. c #007DDA",
"]. c #127DDC",
"[. c #2078C1",
"{. c #0074E3",
"}. c #007CE5",
"|. c #0073EC",
" X c #AE7585",
".X c #2D938E",
"XX c #3BA687",
"oX c #31A498",
"OX c #1590B4",
"+X c #259AA8",
"@X c #229FAA",
"#X c #47B08F",
"$X c #618FA7",
"%X c #70C091",
"&X c #0284D6",
"*X c #0083DC",
"=X c #1697D2",
"-X c #26A4C9",
";X c #0084E4",
":X c #088CE7",
">X c #0085E9",
",X c #0189EC",
"<X c #0291E9",
"1X c #1590EA",
"2X c #018BF4",
"3X c #038BF6",
"4X c #0084FD",
"5X c #0294F7",
"6X c #0C91F3",
"7X c #1495F5",
"8X c #159BFC",
"9X c #1B9EFC",
"0X c #2696F2",
"qX c #329AF3",
"wX c #0EA0FF",
"eX c #17A6F9",
"rX c #1EA1FF",
"tX c #24A3E9",
"yX c #21A2FF",
"uX c #2BA3FF",
"iX c #38A5FF",
"pX c #6EB1C7",
"aX c #4CA5E4",
"sX c #49A7FE",
"dX c #56A9FE",
"fX c #63ADFF",
"gX c #6AAFFF",
"hX c #68B1FF",
"jX c #7ABAFF",
"kX c #8A8B89",
"lX c #96928F",
"zX c #98928D",
"xX c #8C8C91",
"cX c #AD968B",
"vX c #9DB78E",
"bX c #9098A2",
"nX c #B2B5AB",
"mX c #D4A88D",
"MX c #D5AA97",
"NX c #F5AD85",
"BX c #FEB386",
"VX c #FBB787",
"CX c #FEB589",
"ZX c #A9CD8D",
"AX c #A9DDA0",
"SX c #CDCFB6",
"DX c #E6D0A0",
"FX c #99B6C7",
"GX c #83BDFF",
"HX c #96CBCC",
"JX c #87C1FF",
"KX c #CBCDC8",
"LX c #DAD8DA",
"PX c #E2DEE3",
"IX c #E5E4E5",
"UX c #F0EDEE",
/* pixels */
"+.+.+.+.@.[ O.] @.] [ @.] [ @.] ] +.+.+.] @.+.+.+.+.+.+.O.O.O. .}  .} ..}  . . . . . . . . . .}  .}  . .}  . . . .}  . .|  .",
"+.+.+.[ O.[ [ @.@.O.O.@.O.@.[ O.@.] ] @.+.] +.+.+.+.+.] O.O.O.X.}  ...{ } }  .|  . . . . . . .}  . . .}  .}  .}  . .}  . . .",
"] +.+.+.@.] O.O.] ] ] ] O.] @.[ ] [ [ [ ] 1.} =.=.=.=.=.=.>.=.XXXXXX.X,.| | } } } } }  . . .}  .}  . .} } } } } } }  . . .} ",
"+.+.+.+.O.] O.@.[ ] ] ] [ [ @.O.[ ] [ ` $.;.*.'.|.{.{.{.{.{.4X4X4X4X4X+X;.;.;.$. .} } } }  . . . . .} }  . . . .} }  . . . .",
"+.+.+.] ] @.1.7.1.#.@.@.] [ @.+.` [ O.;..X^.)._.`.'.'.*X;X*X>X>X,X>X,X2X4X4X3X>.$.#. .}  . .} }  .} .. .%.#.o.#. . .} } }  .",
"+.+.[ ] +.l.k.8.g.g.8.#.@.' ' $.;.>..X^.).'.'._.*X;X*X*X,X,X,X6X6X6X6X6X7X6X5X5X1XoX,.} } | } } } } 3.d.6.6.4.4.3.o.} }  . .",
"+.+.' @.l.z.k.8.j.g.g.8.X.$.;.+XU.I.^.'.'.'.*X*X,X>X>X;X,X6X6X8XyX9XrXeXrXrXrX9XrX7X-X#X>.$.} | } #.l.z.6.4.4.4.4.4.X.} }  .",
"+.+.` 1.b.z.g.8.g.g.h.,.>..XU.!.).).'.'.'.*X;X>X,X,X6X6X6X8X9X0XyXyXyXyXrXyXyXyXrXeXwXtX-XXX<.;.;.,.z.k.4.4.4.6.4.4.3.X.} } ",
"+.+.` 1.v.h.5.g.g.h.>.XXU.).'._._._._.;X>X>X,X,X,X7X9X9X9XyXrX9XrXrXrXrXrXrXrXrXrXyXyXrX8X9X-X-X-X<.d.4.4.6.4.5.4.6.3.%.{ } ",
"+.] _ O.5.g.g.g.8.>.I.!.Q._.'.'._._.*X,X,X,X>X,X9XyXyXyXyXrX9X8X9X9X8XrXrXrXrXrXrXrXrXyXyXrXyX8X8XtX>.6.4.4.4.5.4.6.3.X.} } ",
"+.+.' ) { 3.h.d.<.I.P.!._.'._.'.&X*X>X,X,X,X>X>XyXyXyXrXrXyXsXsXsXsXdXiX8XwXrXrXyXrXrXyXrXyXrXyX0X8X=X#Xk.d.g.j.6.3.T } } X.",
"+.+. .( Y ~ o.;.U.Q.^._.'._._.;X>X>X,X,X,X>X:X7XrXyXrX9XyXdXjXjXjXjXhXdXsXsXrX8XrXyXrXrXrXyXrXyXrXrXrX-X#X%.3.%.#.T U T  .} ",
"+.+._ ( ! ~ =.U.(.~._.'._._.;X,X,X,X,X,X,X;X,XyXrXrX9XrXuXgXGXJXJXJXhXfXgXfXrXrXyXrXrXyXrXrXrX9XrXrXrX8X=X>.U H U G H ( X. .",
"+.] _ ~ -.-.U.(.P._.'._._.;X,X,X,X,X,X,X,X,X6XrXyX9XrXrXuXhXGXJXGXGXhXfXhXdXrXrXyXrXrXyXyX9XrX9XrXrXrXrXrXOX&.G G G U } } } ",
"+.+.' ;.(.(.Q.P.~.&X_._.*X2X,X,X,X,X,X,X>X6XyXyXyXrX9XrXuXhXjXjXjXjXhXfXgXdXrXrXrX9XyXrX9XyXuXuXuXyXuXuXuXrX@X! G G / | X.} ",
"] ] } =.(.(.P.P._._._.*X*X,X,X,X,X,X,X,X;X6X9XrXrXrX9XrXuXdXfXfXfXfXfXdXdXdXrXrXrXyXyX9XrXiXdXfXfXfXfXfXhXhX#X~ J J { O.}  .",
"+.+.>.U.L.Q.P.Q._._._.*X,X,X,X,X,X,X,X,X>X6XrXyXrXrXrXrXyXiXsXdXdXsXdXiXuXuX9XrXrXrXrX0XiXdXfXdXdXdXsXdXdXdXaX#X^ } } | } | ",
"+.+.XX).P.P.Q.^.'._._.;X,X,X,X,X,X,X>X,X>X:XrXrXyXrXyXrXrX9XuXiXiXiXiXrX8X9XyXrXrXrXrXuXdXgXsX0X7X0X0X1X1X0X9X0X#X .} | } } ",
"+.[ >.).P.P.!._.*X_._.;X,X,X,X,X,X,X,X,X,X:XrXyXyXrXrXyXrX9XrXrX8XrXrXrXrXrXyXrXrXrX9XsXfXdX0X,X>X;X;X;X>X>X>X4X7X,.| | }  .",
"+.+.*.).P.P.~._.'._.^.;X,X,X,X,X,X,X,X,X>X6X9XyXrXrXyXrXyXrXrXrXrXrXyXrXrXrXyX9XrXrXiXdXsX1X>X>X,X,X,X,X,X,X,X>X3X+XoX;. .} ",
"_ 1.=.(.P.P.~._._._._.;X,X,X,X,X,X,X,X,X,X,X7XyXyXyXyXyXyXrX0XyXrXrXrXyX9XyXyXyXrXrXiXhXqX6X;X>X;X>X,X,X,X,X,X,X,X3X3XXX . .",
"1.1.XX|._.!.'.;X;X_._.;X,X,X,X,X,X,X,X,X,X>X:XyXyXyXyXyXyXyXyXyXrXrXyXrXyXrXrXrXrXrXiXhXqX6X6X6X6X7X6X>X,X,X,X,X,X4X3XXX .} ",
"` 1.<.Y.S.D.D.Y./.'._.;X2X,X,X,X,X,X,X,X,X,X,X9X8X8X7X8XeX8X8X8XrXrXrXrXrXyX9XyX9XyXsXfXqX1X8XyXyXyX7X:X;X>X,X,X,X|.4XXX} | ",
"1.` 1.2.k k h d U.}.'.;X2X,X>X>X2X>X,X,X2X,X2X,X,X2X,X,X2X,X>X6X8XrXrXrXrXrXyXyXrXyXiXhXqX7X8XyXyXyXyX8X;X>X:X,X2X4X5XXX}  .",
"` 1.4.c.k k k d U.|.}.2X2X2X2X4X2X4X2X5X5X3X3X4X2X6X2X2X5X5X4X6XwXeX8XrXrXeXrXrXrXrXiXgXqX7X9XyXyXrXrXrXyXyXyX9X6X4X3XXX| O.",
"1.` v.MXk k k v V A V V V Z V V V S V % O % V V 4 d c 4 4 c 4 d v 4 4 $XwXrXrXrXrXyXiXgXqX:X2X9XeXrXyXyXyXyXyXrX5X|.4XXX} | ",
"[ [ b.SXk k k $ $ M F w.F w.F w.w.w.b o   # F w.z h z z l z x x z z h c g g eXeXrXyXiXfXdXqX:X:X6X:X7XrXyXyX8X6X3X,X:X=.} } ",
"[ [ b.SXk k m $ . % q.u.u.u.u.r.C b o   o b u.p.m m m m m m m m V b v h j l eXeXrXyXuXsXgXfXqX,X;X,X,X7X7X7X6X2X:XoXXX;.O.| ",
"@.@.b.SXm n n n 4 @ q.p.p.p.y.% # o   X V NXNXp.S A Z Z S Z N S S D b c h c eXrXrXrXrXyXsXhXdX,X,X,X>X>X>X>X,X<XoXG H ( | } ",
"@.@.b.DXZ N A V V NXCXVXCXVXp.4 # % 4 0.VXCXCXCXN N N Z N N N N N N b z h c eXeX0XrXrXrXuXdXfXqXqXqX1X>X,X2X:X*.G G U ( X.} ",
"@.[ v.SXN N F k # r.NXCXCXCXu.0.0.0.DXCXVXCXCXVXS S S S q.S q.S Z N b z l c eXeXrXyXrXrXrXuXsXiXsXsXqX>X,X4XOX! G G / } O. .",
"[ [ l.ZXN A F k o r.NXVXCXNXr.d % g DXCXCXBXCXCXe.e.e.e.q.q.e.q.S S b z h c eXeXyXrXrXrXrXrXuXuXiXuX7X>X2X<X=.J G J } } | | ",
"[ [ l.n.N N D k o 0.NXCXCXCXr.X . X 9.VXCXBXCXCXy.y.y.y.y.y.u.e.q.N b z l c eXeXyXyXyXyXyXyXrX8XrX5X,X>X<X.X! J L / } } }  .",
"[ [ h.c.Z N F c o 0.VXCXCXCXr.o   X 4 a.CXBXCXCXt.e.t.t.t.t.y.e.D N b c j c 5X5X8XyXyXrXyXyXrX:X:X,X,X,X-X! L / ( | |  .}  .",
"] [ 8.c.C C C C D a.CXCXCXCXr.o   X 4 i.a.NXVXCXt.e.t.t.t.q.D Z m v c z j c 5X2X,X:X,X:X:X:X,X,X,X,X2X,X@X$.} } }  . .| } | ",
"O.] 6.0. X X XC t.a.CXCXCXVXr.@   X c w.i.NXVXBXy.e.t.t.y.q.Z M b c c z j c 5X2X,X,X,X>X,X,X,X,X,X2X3X:X;. .} } } } } O.} O.",
" . .#.f. X X XC w.i.VXVXCXCXr.X   . c w.i.BXVXBXt.t.t.t.t.w.D N b c c z j z :X2X,X,X<X,X>X,X2X>X>X3X<X>.@.@.O.O.O.O.O.O.@.` ",
" ...%.f.cXcX0.9.0.mXcXNXCXNXu.$ o $ M w.i.a.BXBXt.t.t.t.t.q.A M b c z c d g }.>X,X,X,X,X,X2X,X2X2X:X>.@.[ @.] @.[ [ [ [ @.@.",
" . .~ %.l.x.x.>.OXW.(.bXNXMXmXp.i.p.u.r.q.r.MXMXr.0.r.0.0.0.C B B 4 c Y.4X}._.>X,X,X,X,X2X:X=X=X:X<.#.@.@.@.@.@.O.[ @.O.@.@.",
" . . .X.X.} o.;..X!.!.!.U.I./.].].&X=X&X].].].].}.].].:X].].].].`.^.].^.P.Q.P.>X4X4X4X&X<X#Xz.AXf.#.@.@.` ] ] ` O.O.O.O.@.@.",
".. . .} }  .d.<.OXJ.P.P.Q.Q.Q.`.}.}.{.{.{.}.>X}.}.>X>X;X>X>X>X}._.^.(.~.P.P.P.OXOXOX=X%XZX<.8.7.1.] [ @.5.1.1.1.@.[ +.+.+.+.",
" .} } } X.d.b.<.*.OXK.J.L.L.!.L.P.P.U.Y.Y.Y.C.H.K.K.H.K.K.H.K.L.P.L.L.P.P.P.P.*.%XHXHXb.k.1.1.[ [ ] 4.k.j.g.g.8.#.@.+.@.+.+.",
" . .}  .d.z.b.f.,.>.S.K.G.H.H.Z.Z.Z.R.zXcXg q q 0 0 0 0 0 0 q a Z.H.H.H.H.H.K.u AXv.#.g.1.1.1.@.` 1.l.b.g.g.j.j.h.8.@.@.O.@.",
" .} ( X.z.k.z.b.AXc.bXbXE.H.a g g B t.a.a.B i e .           . o a C.V.V.V.V.V.M.FXx.h.h.#.+.+.O.@.8.z.l.8.g.8.j.h.h.7.@.' +.",
"} } ( o.c.6.k.c.SXLXLXLXKXR.9.r.NXp.a.BXi.zXI._.M.e q 0       . o s G.H.V.V.V.V.A.%XvXZXZXvXnX1.@.d.z.d.5.j.j.g.g.h.8.#.] ] ",
"} | ( ( 2.6.6.b.KXPXPXUXKXR.zXVXVXVXVXBXi.zX/.{.(.Q.Q.H.O       . X f U.!.J.F.V.M.T.MXKXKXSXKX%.1.3.5.g.j.j.8.j.g.g.#.O.] ] ",
"O.| ( L { 3.d.c.KXIXPXIXnX XzXmXmXmXmXmXp.zXL.).|.{.|.).H.e O       @ A.Y.Y.F.V.V.R.KXUXUXPXLX%.#.( ..3.h.j.j.j.g.3.| O.] ] ",
"} | / J I { 3.x.SXPXLXPXSX$XkXlXxXkXzXzXzXE.Q.).).).).).).'.C.+       @ d s Z.F.C.R.nXLXLXLXKX%.o.T ~ ..s.3.s.s.#.~ ( ' [ @.",
" . .( J G H H 2.nXPXIXIXLXnXlXxXxXxXzXcXE.I.Q.).).).).).).|.|.H.O         . g Z.F.R.zXkXxXxXbX%.o.T Y Y U Y Y Y Y Y T _ @.+.",
" .} / J G G G ,.KXPXIXUXLXnXlXzXzXxXE.U.Q.P.Q.).).).).).).).{.{.P.O         . s D.R.zX$XxXxXcX1.o.T Y P I I P K I I ( ] +.+.",
"} } / J J H Y ^ vXnXlXbXlXlXkXlXxX$XY.Q.Q.P.Q.).).).).).).).).{.'.K.O .       X q R.9. XkXnXs.%...) ~ Y I I I I I T _ +.+.+.",
" .} } / J J ~ ^ ^ :.s % % s s R.$X$XY.P.P.P.Q.(.).).).).).).).(.!.'.C.O         f HXSXvXnXs.%.o.o._ ( ( T T T T T ) O.+.+.+.",
" .}  .} L J U { ( J : . . O 9 J.`.!.Q.~.P.P.~.!.).).).).).).).!.P.P.<XM.O 0 9 O bXs.o.o.#.3.5.[ [ ' ) ) ( ) ) ) ) ' +.+.+.[ ",
" . .}  .} / L L U L / u m.F.J.J.L.Q.~.P.~.P.P.P.(.(.(.!.(.!.!.P.P.~.K.P.^.~.!.L..X7.%.b.8.@.O.O.] ] ' ) ) ) ( _ ' +.+.+.+.+.",
" .} }  .} }  .,.=.;.;.y w e M.F.H.H.L.P.P.~.Q.P.I.~.P.Q.~.~.~.~.~.P.V.~.5X<X&X&X&X&X&X#XAXb.@.] [ ] +.] ' ] ] [ +.+.+.[ +.+.",
"} X.}  . .X.,.oX=XB.p e 0 w e M.M.M.M.F.!.Q.W.!.!.J.!.J.L.J.J.J.J.F.m.!.5X<X&X&X&X}.*X#XSXb.+.+.] @.] ] ' ' ' ' ] ] +.+.+.+.",
"} .. . . .%.;.-X}.V.m.r e e e t t e w t B.B.B.B.B.N.N.B.Z.D.D.D.D.T.T.[.6X<X&X&X&X*X*X#XAXb.@.] ] ] [ @.1.@.#.+.+.+.] ] [ +.",
" . .}  . .5.<.-X'.C.M.t m.t t e e w q , < 7 < < < < < < 5 0.r.r.mXMXa.$X2X<X&X&X&X*X&X.XZXv.[ @.] ] 1.8.k.g.8.8.3.@.] [ O.+.",
"}  .(  .s.v.<.@X).M.i t i t t t e w w , 2 3 3 3 3 3 > 6 5 a.BXBXCXDXDXpX,X<X_.&X&X*X:XA.f.4.7.[ ` @.l.b.g.g.j.j.j.5.+.[ ] +.",
"}  .( o.z.k.-.S.V.t m.t m.t t t t r 9 , 7 3 2 6 2 > ; 1 3 5 R R f a R.=X<X<X_.&X&X;X:X.XQ ^ 1.[ ` g.z.l.g.g.g.g.j.8.3.+.] +.",
" . .( X.v.6.-.N.m.r r w r e w r e w w , 7 6 7 2 > ; - ; > ; : & q w m.!.5X<X&X&X(.!.!..X:.^ +.+.` k.z.g.8.g.g.g.g.j.3.#.] ] ",
" . .(  .d.2.Q u y y + + + q , + + q q < > 2 > > & - - - : > : & + e m.~.5X<X<X<X!.G.G.a Q ^ +.+.` 3.d.g.j.g.g.j.j.j.3.#.] ] ",
"} X./ U 1.2.^ ^ 3 1 1 * * * ; ; 1 * ; - = = & - - & - - > : : > y t m.`.8X7X8X6XL.m.V.p E ^ +.+._ ( %.s.h.j.g.g.8.8.X.' [ ] ",
"} | / J Y ~ o.^ Q 3 ; - = = = = = = = = = = & & & - - > > > : < i F.m./.9X9X9X1XK.t N.u R L +.+._ T T X.g.s.s.s.3.( ( ] [ ] ",
"} O./ J G H ~ ~ ^ E 6 > > = = = = = = = = = = = - ; ; > > > : < B.F.F.G.W.W.W.G.p * 5 R K U +.+.) T Y Y ~ ~ T ~ ~ Y T ' @.@.",
"} | / J H G G G I ^ E 7 6 - > > - - = = = & = = - ; > > ; ; : > i N.N.N.N.N.N.N.< R P P T _ +.+.) T Y I P I I Y I P ( ' [ O.",
"} } ( J H G G G G ~ ^ W R 6 6 6 6 6 2 - > - ; > > > : : > ; : > < u u u u u u u E P K T ' +.+.+.) ( T Y I P I I Y Y ) O.@.+.",
"} X.} L J J H G H K ~ ~ W Q Q Q Q Q R 6 6 6 6 6 8 8 R 6 R R 6 R 8 Q W W W W W P I I ( ' +.[ +.+.' ) ( ( T T Y U T ( ' [ [ +.",
"}  . .( J J J J J L T { ..~ ~ ~ ^ ~ W E E 5 E E Q Q Q Q R E Q E E ^ ^ ~ ^ ~ ^ T ( ( _ ' +.+.+.+.[ _ ) T ) ( ) ( ( _ O.[ [ [ ",
" . . .} } / L J J U / | %.o.o. ...~ ..~ %.%.o.o.o.o.o.o.o...%.%...o.}  . ... .) ) _ +.+.+.+.+.+.@.O.' _ ) ) ) ) ' ] @.@.[ [ ",
"} | } | } } ( ( { { }  .| ..} | }  . ...O.} } } }  ...X.O... .X. .@.[ @.[ ' ' ' O.] [ ] +.] [ ] [ [ ] ' ' ' ' ' [ [ [ [ [ [ ",
" . . . .}  .O. .O. .X. . .} } }  . . .X.X.X.O.X. . . . . . . .' ] #.O.' [ [ [ [ +.+.+.O.+.O.+.+.O.O.O.+.O.+.] ] O.+.O.O.O.' ",
"O.] O.O.O.] O.O.] O.O.O.] O.O.] ] O.O.O.] O.O.O.' O.] O.O.] O. . . ._  . . . . . . . . . . . . . . . . . . . . . ._  . . . ."
};
