/* XPM */
static char *_29ffc17a0b244f5e2f22df39a872978JqLru3iGjAXKAc7B[] = {
/* columns rows colors chars-per-pixel */
"62 73 254 2 ",
"   c #000000",
".  c #060607",
"X  c #14100F",
"o  c #282A0E",
"O  c #00152E",
"+  c #0F3036",
"@  c #262628",
"#  c #512B16",
"$  c #493629",
"%  c #1C4D19",
"&  c #2E5908",
"*  c #335C05",
"=  c #2D5616",
"-  c #396609",
";  c #3B690E",
":  c #2B601B",
">  c #376411",
",  c #396511",
"<  c #3C6A11",
"1  c #3F6A18",
"2  c #25532A",
"3  c #214834",
"4  c #215234",
"5  c #356524",
"6  c #5E541B",
"7  c #416E07",
"8  c #426D1B",
"9  c #45731A",
"0  c #44721C",
"q  c #4E463A",
"w  c #497525",
"e  c #4F7A2E",
"r  c #567E35",
"t  c #052C51",
"y  c #083456",
"u  c #2E3945",
"i  c #002966",
"p  c #05346D",
"a  c #003677",
"s  c #285B5D",
"d  c #0D5176",
"f  c #565152",
"g  c #5F5F59",
"h  c #6D6D6F",
"j  c #963B09",
"k  c #A43D06",
"l  c #904319",
"z  c #884827",
"x  c #964C28",
"c  c #905130",
"v  c #A25733",
"b  c #B76937",
"n  c #C4673C",
"m  c #C9753D",
"M  c #865E4A",
"N  c #B47754",
"B  c #91766E",
"V  c #AC7E73",
"C  c #C46A41",
"Z  c #C96D43",
"A  c #CF774F",
"S  c #E27F48",
"D  c #53A607",
"F  c #57AA0A",
"G  c #5DB30B",
"H  c #5EAF13",
"J  c #61B80D",
"K  c #61AC1A",
"L  c #65B818",
"P  c #55842B",
"I  c #5D8837",
"U  c #559231",
"Y  c #618A39",
"T  c #66973A",
"R  c #709F3F",
"E  c #5FB82D",
"W  c #6CB72D",
"Q  c #6AAA33",
"!  c #68C118",
"~  c #6AC31C",
"^  c #73CB1E",
"/  c #72D517",
"(  c #76D41E",
")  c #78D61F",
"_  c #7AD81F",
"`  c #6DC522",
"'  c #6EC924",
"]  c #6BC62C",
"[  c #70CA25",
"{  c #75C827",
"}  c #74CC2A",
"|  c #77D420",
" . c #79D720",
".. c #7AD922",
"X. c #7DD42B",
"o. c #76CE33",
"O. c #7BCC34",
"+. c #7ACA39",
"@. c #18817F",
"#. c #389873",
"$. c #3EA46E",
"%. c #6A9F55",
"&. c #54B450",
"*. c #74AD4A",
"=. c #47AA71",
"-. c #5FC144",
";. c #6FC754",
":. c #949238",
">. c #E8893E",
",. c #81DA2C",
"<. c #83CE39",
"1. c #83D435",
"2. c #8DDB36",
"3. c #85D43C",
"4. c #87D938",
"5. c #8DDC39",
"6. c #90DD37",
"7. c #91DD3B",
"8. c #8DE03E",
"9. c #B09553",
"0. c #86B652",
"q. c #AF8B73",
"w. c #99A864",
"e. c #CE8259",
"r. c #D78559",
"t. c #F59558",
"y. c #FFB05A",
"u. c #D2916D",
"i. c #E6976A",
"p. c #F19D6C",
"a. c #F6A76D",
"s. c #F5A677",
"d. c #FEB27C",
"f. c #86C947",
"g. c #8AD745",
"h. c #94DA47",
"j. c #90C952",
"k. c #8FD150",
"l. c #95D958",
"z. c #A3DF54",
"x. c #8FE141",
"c. c #91E143",
"v. c #99E24B",
"b. c #9AE357",
"n. c #AAE45B",
"m. c #97D366",
"M. c #A8D672",
"N. c #9FE261",
"B. c #A7E664",
"V. c #B1EB72",
"C. c #00388D",
"Z. c #003AA4",
"A. c #014799",
"S. c #085092",
"D. c #2C598F",
"F. c #15719B",
"G. c #386B99",
"H. c #0248A5",
"J. c #0155A6",
"K. c #0D56B0",
"L. c #116DAC",
"P. c #0166B6",
"I. c #006DBD",
"U. c #0671B8",
"Y. c #2C72A8",
"T. c #3275B0",
"R. c #5C6184",
"E. c #4F6E97",
"W. c #4D77A6",
"Q. c #0037C9",
"!. c #016DC2",
"~. c #0066CA",
"^. c #0069C9",
"/. c #0071C3",
"(. c #0174CB",
"). c #0578CA",
"_. c #1574CC",
"`. c #006CD8",
"'. c #1860D7",
"]. c #0578D6",
"[. c #007CD5",
"{. c #007EDA",
"}. c #034FF3",
"|. c #0055FB",
" X c #026AE8",
".X c #0178E8",
"XX c #006BF9",
"oX c #007AF8",
"OX c #1E8497",
"+X c #2D9190",
"@X c #3DA98A",
"#X c #35A291",
"$X c #0F8BB9",
"%X c #2C8AB0",
"&X c #2BA2A5",
"*X c #639E93",
"=X c #5284B3",
"-X c #7794B8",
";X c #118FCF",
":X c #0384DB",
">X c #1587D8",
",X c #3398CE",
"<X c #0084E5",
"1X c #0787E6",
"2X c #0086E9",
"3X c #0189EB",
"4X c #0C8CED",
"5X c #128BEA",
"6X c #0393EB",
"7X c #1894EF",
"8X c #018AF4",
"9X c #0085FD",
"0X c #008CFE",
"qX c #0893F8",
"wX c #1395F5",
"eX c #1599F6",
"rX c #159CFC",
"tX c #1A9DFC",
"yX c #3095ED",
"uX c #2B98F3",
"iX c #04A3FA",
"pX c #15A7FF",
"aX c #1EA1FF",
"sX c #21A3FF",
"dX c #2BA3FF",
"fX c #38A4FD",
"gX c #579ED2",
"hX c #49A5FB",
"jX c #56AAFE",
"kX c #67B6E6",
"lX c #64AEFF",
"zX c #6BB2FF",
"xX c #79B9FF",
"cX c #988C8F",
"vX c #A79892",
"bX c #98A5A9",
"nX c #B1AEB3",
"mX c #EBA983",
"MX c #F8AE82",
"NX c #FDB689",
"BX c #FBBB92",
"VX c #DBB3A1",
"CX c #ACCD8C",
"ZX c #A4D999",
"AX c #FFC897",
"SX c #FFD19D",
"DX c #F0C5A7",
"FX c #A3B5C9",
"GX c #83BEFF",
"HX c #B1D2DF",
"JX c #8BC2FA",
"KX c #D1CFCF",
"LX c #D6E0DD",
"PX c #EEEEF1",
/* pixels */
" . . ._  . . . . . . . . . ._  . ._  . . .) )  . . . . . ._  .| ] [ [ [ [ [ [ [ ' [ [ ' [ [ [ [ ' [ [ ' [ [ [ [ [ [ [ [ ' [ ",
" . . . . . . .)  . . . . . . . . . . . . . ....._  . . . ._  .[ ' [ ] [ [ [ [ [ ] | [ [ [ [ [ [ [ [ [ [ [ ' ' [ [ ' [ [ [ [ ",
" . . . ._ ) _ ..) ) ) )  . . . . . . .( )  . ...=.@X@X@X@X@X@X@X@X@X#X@X#X@X' ' ' ' ' [ ' [ [ [ [ [ [ ' ' ' ' [ ' ' [ ' [ [ ",
" . ._  ._ _ _ .._  .) ( )  . ._  . . .( _ ] -.&..X9X0X0X0X0X0X0X0X0X0X0X0X9X&.&.-.[ ' [ [ [ [ ' [ [ ' ' [ [ [ { ' [ [ [ [ ' ",
" ._  . .( ..,.,.,.,..._ ) )  . ... .| ( o.#X[..X<X<X3X3X3X3X3X3X3X3X3X3X3X3X0X0X&X;.] } [ [ [ [ ' ' ' { X.X.X.} } { ' ' [ [ ",
" . . ._ ) b.v.8.8.8.8.,.) ) )  ...] +X:X).].[.2X3X3X3X3X3X3X3X3X3X3X<X<X<X<X2X3X2X1X;X$X&.[ [ ( ' ' X.z.h.5.2.5.4.} ' ' ' [ ",
" . ./ ..z.B.v.8.c.x.c.8.,. .&.#.+X$X).{..X].{.3X3X3X3X3X3X2X3X2X<X4XeXrXrXeXeXeXrXrXqX6X$X&X&X=.' O.l.n.2.2.6.6.2.4.} ' ' [ ",
" . ./ ,.V.b.8.8.x.x.h.c.;.#XOX(..X2X{.[.[.{.<X3X3X3X3X3X3X3X<X4XwXeXaXaXuXsXsXsXaXuXrXrXtXqX6X;X#X;.n.v.2.2.2.6.6.6.1.} ' [ ",
" . ./ ,.B.c.x.x.x.x.k.k.#X X~.].{.[.{.[.(.:X3X3X3X3X3X3X3X3X<XwXsXsXsXaXsXtXsXsXtXaXsXsXdXeX3X9X8X*Xz.2.6.6.6.6.6.6.3.} [ [ ",
" . .^ | g.x.x.x.x.g.;.=.%X!.I.[.{.[.[.:X{.<X3X3X3X3X3X2X3X8X4XwXsXaXaXsXsXtXsXaXsXsXtXsXsXtX6X4X8X&X;.h.5.8.6.6.6.6.3.} ' [ ",
" ._ | ~ ` O.c.v.;._.U.U.I.I.[.[.{.[.[.<X:X<X3X3X3X2X3X3X3XtXaXaXaXsXaXaXaXsXaXsXsXtXsXsXaXaXsXtX6X3X1X5X4X=.c.c.5.1.~ ~ [ [ ",
" . .^ ~ L ] 3.&.U.`.^.!.!./.[.[.[.{.{.<X2X2X3X3X3X3XwXeXeXaXsXsXaXaXaXsXaXaXsXaXtXtXpXrXtXtXpXsXtXqX8X8X8X7X@X+.O.L L ~ [ [ ",
" . .^ ~ L L =.F.`.I.I.I.I.).].[.].].{.2X2X<X3X3X2X8XeXsXsXsXsXsXaXsXsXaXaXsXtXtXsXfXdXdXdXdXdXrXsXeXwX6X6X9X;X$.E F G ` [ [ ",
" . .^ ~ L U F.`.I.I.P.P.!.].5X_.].>X5X5X7X4X2X2X<X6XtXsXsXtXtXsXaXaXsXtXsXtXpXuXhXlXjXjXjXlXjXtXaXaXtXsXsX6X9X>X$.K L ' [ [ ",
" . .^ ^ W U.(.I.I.I.I.I._.hXlXlXlXlXlXzXzXfX<X3X3XtXsXsXaXsXtXsXsXsXaXsXaXaXtXjXlXxXGXGXGXJXGXhXaXtXsXsXaXaXqX0X4X*.O.} [ [ ",
" . .) ^ E U.^.U.I.:XyXyXhXjX7X5X5X1X5XhXyXjXjX3X3XtXsXsXaXsXsXsXaXaXaXaXsXtXpXjXzXxXGXJXJXJXxXjXaXpXuXsXuXsXsXqX6X=.m.O.[ [ ",
" . .&.+XY.I.!.I._.fXyXuXuXuX2X2X2X2X2X4X4XuXjXhX5XeXaXsXaXaXsXtXsXaXsXtXsXtXpXjXlXzXGXGXxXGXxXjXaXtXsXuXaXaXsXtXwX:X;.| { [ ",
" . .#. X`.!.I.I.).fX7X7X4X2X3X3X3X3X3X<X<X2XyXlXfXdXaXaXaXaXaXaXtXaXsXsXsXsXtXhXlXzXzXzXzXzXzXhXtXpXsXpXsXsXsXaXrXoX} [ [ [ ",
" . .=.`.^./.I./.<X2X3X3X2X3X3X2X3X3X3X3X3X2X4XuXlXhXsXtXaXpXsXsXsXsXtXsXaXtXtXfXjXjXjXjXjXjXjXdXaXtXaXsXsXtXsXpXwXoX} } [ ' ",
"_  .$.`.^.I.P.(.8X3X3X3X3X3X3X3X3X3X3X3X3X3X2X<XuXhXfXpXpXuXtXsXsXtXsXaXsXsXsXtXdXfXfXdXfXfXdXaXaXsXsXtXaXaXaXuXqX9X} } [ [ ",
"_ _ =.`.^.I.P.(.8X3X3X3X3X3X3X3X3X3X<X<X<X2X2X2X5XhXfXrXtXaXaXaXsXtXsXsXuXaXaXpXaXaXaXaXsXaXaXaXsXaXaXaXaXsXdXsXrXoX} } [ [ ",
" ._ #.`.^.!.P.[.6X3X3X3X3X3X<X3X2X3X6XeXeXeXwX2X4XhXfXpXpXaXsXsXaXsXaXuXsXsXaXaXaXaXaXaXaXaXaXsXsXsXaXsXsXqXqXwX0X9X} { [ ' ",
" . .$.`.^.I.P.(.3X3X3X3X3X3X3X2X3X4XaXsXsXdXtX<X5XfXfXpXtXsXaXaXtXpXpXpXpXtXaXtXpXpXaXpXpXsXaXaXrXpXpXpXpXY.G.+X,X,X+.O.' [ ",
" . .$.`.^.I.I.(.8X3X3X3X3X4XqX6XqXrXsXsXaXsXtX<X4XhXfXrXaXtXaXaXtXeXeXeXeXeXeXeXeXeXeXeXeXeXeXaXeXeXeXiXiXM k :.n.n.5.} ~ [ ",
" . .$.`.~.!.P.(.8X3X3X<X4XtXsXsXsXsXsXsXsXuXqX3X4XhXfXpXpXsXsXaX7XY.Y.Y.Y.T.T.T.Y.Y.T.T.Y.A.K.=X=XT.%XT.=Xg l :.V.6.4.o.' [ ",
" . .$.`.~.I.I./.<X3X3X3X3XwXaXaXsXtXtXeXeXwX8X3XuXuXdXaXaXaXpX,Xh z z c 6 c z z z c N A $ X X x V A A e.e.c c :.V.6.+.} ' ' ",
" ._ #.`.~.I.I.I.[.6X3X3X3X3XuXsXsXsXwX3X3X3X<X<XhXuXeXsXsXaXpX%Xl l l l l l z l l l S S # . . # t.p.t.t.t.v z :.B.2.| ` [ ' ",
" .( =.`.~.!.I.I./.3X3X3X3X8XrXtXtXeXqX2X2X<X2XuXhXwXqXsXsXsXpXE.k x x x x x c c c v e.r.M o . . N i.i.p.i.v l :.v. .L ` [ [ ",
" ._ $.`.~.!.I.I.!.{.<X:X<X3X3X3X1X3X2X2X2X2XuXjX2X<X4XeXeXpXpX=Xj v C Z Z C C C n C r.A a.M . X # N s.p.p.v c M o.H G ~ [ [ ",
" . .#.`.^.!.I.I.I.I././.(.{.<X2X3X3X2X.X2XuXhX2X3X2X3X<X2XrXpX=Xk v C Z Z Z C C n Z i.i.MXNXBXBXBXNXNXBXNXA m 9.[ D J ' } [ ",
" . .] &.#.!.^.I.I.I.I.I./.(.[.hXhXhXhXhXjXyX>X2X3X3X2X2X2X3X0XG.k v C Z Z A Z Z Z A i.i.MXNXBXSXvXh N SXAXA m 9.} F ! [ [ [ ",
" .| ( ^ E U.(.I.I.I.I.I.I./.[.>XyXyX,XyXyX>X].8X3X3X3X3X2X2X0XG.k x C C A i.A A r.r.p.s.MXNXBXmXu $ N SXAXr.b 9.} L ~ [ [ [ ",
" . . .( ^ @.U./.I.I.I.I.I.I.(.].[.(.[.(.[.(.{.2X3X3X3X3X3X3X0XG.k v C n A mXi.i.i.p.s.mXMXNXNXu.. $ q.AXAXA b 9...' ' } ' [ ",
" . . . ._ ^ #./.!.I./.!.I.I./.[.[.[.[.{.{.[.{.:X3X3X3X2X3X3X0XG.k v C C Z S i.i.r.i.s.s.MXNXNXu.X # u.AXAXA b 9.} [ [ ' [ [ ",
"_ _ _ _ _ _ +X(.!.I.I.I.I.I.I./.].{.:X{.[.[.[.[.:X.X{.:X:X<X2XG.k c x c v Z A A u.i.s.s.MXBXMXr.X # q.AXNXu.9.j.} | ' ' ' ' ",
"| | | | ( ( o.+X X/.I.I./.I.I.I./.(.(.{.{.{.[.[.:X{.{.[.[.{.{.G.k c z z c C Z i.i.i.s.s.MXBXd.m   @ 9.SXBXvXB vX} } ' } [ [ ",
"[ [ [ [ | ' [ E +X^.(.(.(.!.I.I.P.I./.[.[.[.{.{.[.[.[.[.[.[.<XG.k x l l x n n S i.t.s.s.NXNXd.>.c b t.a.y.w.:.M.} ..| |  . .",
"' ' [ [ [ ' ] [ ] OXOXOXOXU./.!.!.I.I././.(.{.[.[.[.{.{.{.{.<XY.c z z x v C C i.i.i.s.s.MXmXa.t.y.p.e.q.q.j.j.M.} .. ._ .._ ",
"[ [ [ [ ' ' [ ' ' ' [ [ &.F.U.P.!.!.I.P.P.!.(.[.(.:X[.[.{.[.:X.X^.g g g g B B cXvXcXvXvXnXvXq.q.q.*XK.}.'.ZXc.V.o. . . . . .",
"[ [ [ [ ' ' ' ~ ' ' ' ' ` ] ] =.L.~.~.~.~.!.I.I.I.(.).(.(.[.{.:X.X]..X]..X].`. X_.].1X1X>X5X4X4X5X;X{.oX XHX_ )  .)  .)  . .",
"[ [ [ ' ~ [ X.1.X.X.{ ' ' ' [ ] &.bXHXHXHXgXU./././.^.(.^.`.(.`.]..X[.{.[.[.<X.X.X<X8X3XqX0XqXqXqXqX0XqX0XLX..,. .) )  . . .",
"' [ [ [ } h.h.5.2.2.4.X.[ ' [ [ X.X.[ [ l.HXJ.P.J.P.Y.E.E.W.=XW.W.P.P.P.P.P.I.!.I.I./././._.).].%XgXkXgXkXZX....2.X. .)  . .",
"[ [ ~ [ h.n.h.6.6.6.7.2.} { [ [ } [ [ | O.gXA.J.H.E.cXp.s.u.i.u.B H.H.A.A.J.J.J.J.J.J.J.H.J.H.S.s CXV.B.B.B.c...x.8... .)  .",
"[ [ ~ o.n.v.6.2.5.6.6.8.4.} ' [ [ } ;.J.Z.H.A.A.S.u.d.NXNXNXAXa.V A.A.A.J.P.I.I.P.I.I.I.I.^.L.f & 0.b.b.8.x.x.x.x.c.4...)  .",
"[ [ ~ X.n.6.2.2.2.6.2.6.5.O.' ' ' ' j.H.Z.A.A.A.u.d.NXNXNXs.a.V K.^.I.I.I.I.!.I.I.I.I.I.(.T.f . o 0.z.5.x.x.x.x.x.c.4.X./ ) ",
"[ [ ~ ~ 3.h.7.2.2.6.6.6.4.} ' [ [ { M.Z.Z.Z.Z.D.p.d.NXd.MXu.r.R.H./././././.I.I.I.^.^.`.].D.$ X = *.B.h.c.x.x.x.c.x.X.X.) ..",
"[ [ ! J ` 1.h.c.h.8.5.1.{ ' ' [ ' [ j.Y.K.K.G.cXmXMXmXMXMXcXcXW.~.I.I.I.I.I.I././.^._._.F.y f vXw.m.g.3.c.c.c.x.x.4.[ | ) ) ",
"[ [ ! J K ` 1.g.3.3.3.` L ! [ { ' ' *.-XbX=XbXBXKXDXVXVXVXbX=XT.!.I.I.I.I./.!.U.L.Y.D.G.u $ vXPXLXCXf.{ g.3.g.g.O.` ~ / ....",
"[ [ L G D G H L H H H F F ~ ] ' [ ] } KXKXKXKXnXKXLXKXLXKX-XW._.`.`.`.`.`.`. XG.g @ X X q nXPXPX*X;.b.` L L K L L K L ,._ ( ",
"[ [ ! G F D D D D D D D G ' [ [ [ [ k.nXnXnXKXKXLXLXFXbXbXD.H.K. X`.XXXX.XW.E.@ X X .   h LXPX=XLXZXj.K K K K K K K ! ( _ _ ",
"' [ ~ J G G F D D F D F L ' ' [ ' [ j.nXvXnXnXPXPXFXW.K.K.K.Z.~.oX_.W.W.g u @ . .       h PXLXZ.*XZXk.L L K K K K L ^ ( _ _ ",
"[ ' ^ L G G G G G F G J ~ [ [ [ ] { k.nXnXnXnXLXKXbXR.D.p D.s D.T.s q $ @     .       . h PXPX=Xd %.g.` L L L L W ^ ( ,._ _ ",
"[ [ ' ' J J J J J J J ~ ' | ] ' [ ] k.nXnXnXnXnXKXvXg $ $ q q q $ o           . . O O O E.FXPXHXs ;.z.{ { <.( ^ ^ ^  . .( _ ",
"' [ [ [ ' L J G J J ~ ' ' ' [ [ [ [ k.bXcXbXKXnXnXh @           . .           O p J.oXoX~.gX-XQ._.ZXV.B.M.M.;.| (  . ._ _ _ ",
"[ [ ' [ [ [ ' ' [ ' [ [ ' [ [ ' ' [ k.g q g h h f @                     . O O P..X(.~.~.P.K.L.<X4X>X>X;X>X1XHXb. .)  . .) _ ",
"[ [ [ [ [ ' ' ' ' ' ' ' [ [ [ [ ' g.N.4 3 @ X X X .             . p i i a P.K.~.~.Q.H.Z.H.A.H.oXoX.X3X1X1X.XHXo.) )  . .) ) ",
"[ ' [ ' ' { } } } } { [ ' [ [ [ g.l.k.t t O . O O O O O O + + + t d d d d F.%XW.E.E.R.R.D.H.~.|.|. X<X6X6X.XHX..,.( _ _ _ _ ",
"[ [ ' ' [ 3.h.6.2.6.1.| [ ' [ ` l.vXs i i p p a a a d J.J./.[.:XF.> & : : & mXBXMXMXS p.-X1X X}.|.|.3X6X6X8XJX2.6.,._ _ _ _ ",
"[ [ ' ' g.n.h.6.8.2.8.4.} [ f.I r r 4 i i i p C.d C.A.J.J.:X<X:XOX& & & % & d.BXNXMXt.t.R.yX3X|.}.}.8X6X6X9Xs M.CX8.,./ _ _ ",
"[ ' ' } n.h.7.2.6.6.6.2.3.} L I r 8 + i i i i a p p p p p S.A.A.d & * & & = T.T.yXyX'.'.'.|.|.|.0XU.s 5 5 e w CXb.8.,.,.) _ ",
"[ [ ~ } n.7.5.5.5.6.6.6.5.O.U I 8 = 3 t y y y y y y t t y y d p 3 * * & & & A.J.(.8XoXoXXX|.|. X;X@.5 - - 7 w 0.CXV.b.X.) ) ",
"[ [ ~ ' h.7.6.6.5.6.6.6.4.} I I < & = 2 4 2 2 2 2 2 2 2 2 4 4 4 4 > - & * & p a J.:X$XU.[..X X(.s s < ; ; & w P %.b.B.X.) ) ",
"[ [ ~ L [ 5.c.7.6.5.2.2.,.~ Y I 8 * ; 7 ; 7 7 7 7 7 7 7 ; - ; ; ; > > * - & y i S.S.A.S.I.:X:X$X- - ; > , & w I *.b.l.| _ ) ",
"[ [ L J K [ 3.h.g.g.3.{ L ! Y I 1 * - ; < ; < < < ; < , ; , ; , > > * > - & i i C.A.A.A.I.1X6X;X> - > > , * w U *.b.k./ _ ) ",
"[ [ ! G F H L L L L L H G L ] Y P 8 * ; < < ; < < ; ; , , > > , > , > > , * 2 % i C.i a a C.C.d : - & & & w P w.B.b.+.( _ _ ",
"[ [ ~ G F D F F F F F D G ` ' T T P 8 ; - - ; ; ; ; < , < , > , , > , , , , ; * 2 3 3 @ 3 3 3 3 * ; w w w P U w.l.j.{ [  . .",
"[ [ ~ J G F D D D D D F H ' [ Q Q Q P 9 9 9 ; 7 < ; ; , > > > > > > > > , > ; , ; ; 7 7 - 7 7 7 8 e I I Y %.%.ZXB.K ^ |  . .",
"[ [ ' J G G G G F F G J ! [ [ [ X.{ T T R P 9 9 9 9 < ; > > > , > > > > > > > > , > 1 1 8 8 8 9 I T T *.*.N.b.l.l.' (  . ._ ",
"[ [ [ ~ G G G J J J G L ' [ [ [ O.<.X.W Q T Y I Y P w 9 9 0 0 0 8 0 0 0 w w 0 w 0 w r r r Y Y I Q j.B.l.b.m.O.~ ' ^ _  ._ _ ",
"[ ' [ ' ` L J J J J ! ' [ [ ' [ [ O.+.f.,...{ W W Q T r r r r r r r r r r r r Y r Y R R <.0.0.W f.g.3.3.<.{ ~ ^ ( | _ _ _ _ ",
"' ' ' ] ' ' ~ ~ ! ' ' ' ' ' ' ' [ [ O.g.g.g.f.;.k.<.W Q Q Q Q Q Q Q Q Q *.w.0.j.0.0.5.5.<.1.<.1.,.,._ ) ) ^ ) ) _ _ _ _ _ _ ",
"[ [ | ' ' } [ | } } [ [ [ [ [ [ [ [ [ } g.l.l.l.M.5.} +.+.+.+.+.+.O.O.<.h.B.h.2.2.1.2.1.,.{  .( ) ) )  . . . .) _ | | | ( _ ",
" .| | | |  .| | | | | | ( | |  .| | | | | | | | X.v.B.N.N.N.N.l.m.l.m.b.l.g.g.;.3.O.} o.{ [ [ [ [ [ [ [ | ' [ [ [ [ [ [ [ [ "
};
