/* XPM */
static char *_982_1764b6a784f70e082188fa8ea8127162c748efbf1025577c9fa4abc9bcfa05b4[] = {
/* columns rows colors chars-per-pixel */
"62 73 255 2 ",
"   c #040403",
".  c #190301",
"X  c #060A17",
"o  c #2B0703",
"O  c #060E2B",
"+  c #1A2A23",
"@  c #2F3231",
"#  c #562B16",
"$  c #4F332E",
"%  c #285708",
"&  c #34590F",
"*  c #376609",
"=  c #376615",
"-  c #376D11",
";  c #1E5220",
":  c #2B592F",
">  c #386628",
",  c #2F6836",
"<  c #455B1E",
"1  c #486E14",
"2  c #457717",
"3  c #6E4736",
"4  c #4D772B",
"5  c #082D51",
"6  c #23345C",
"7  c #0D3871",
"8  c #175956",
"9  c #285150",
"0  c #1B6357",
"q  c #3A6948",
"w  c #316A53",
"e  c #125070",
"r  c #2F5368",
"t  c #186C72",
"y  c #2C6C71",
"u  c #286975",
"i  c #574F52",
"p  c #69514C",
"a  c #586C54",
"s  c #4D5669",
"d  c #4D6E76",
"f  c #6D6E75",
"g  c #905333",
"h  c #96634F",
"j  c #9C6555",
"k  c #AE6E50",
"l  c #94756E",
"z  c #D07A55",
"x  c #518A16",
"c  c #55A808",
"v  c #5DB40B",
"b  c #5CAA16",
"n  c #5EB312",
"m  c #61B80D",
"M  c #61AC19",
"N  c #66B819",
"B  c #4E8925",
"V  c #588629",
"C  c #5B8938",
"Z  c #69932F",
"A  c #659737",
"S  c #56AD35",
"D  c #6BBA25",
"F  c #6BA837",
"G  c #6DAF35",
"H  c #75B938",
"J  c #69C117",
"K  c #6CC31C",
"L  c #70C61D",
"P  c #73CC1E",
"I  c #72D517",
"U  c #76D41D",
"Y  c #78D61F",
"T  c #7AD81F",
"R  c #6DC522",
"E  c #6EC924",
"W  c #6DC42C",
"Q  c #70CA25",
"!  c #75C92A",
"~  c #75CC2B",
"^  c #77D420",
"/  c #79D720",
"(  c #7AD822",
")  c #7CD42A",
"_  c #75CB36",
"`  c #79CA35",
"'  c #2C8E6B",
"]  c #318974",
"[  c #57914B",
"{  c #709548",
"}  c #52AD51",
"|  c #71B34B",
" . c #4A9368",
".. c #51AD6F",
"X. c #64B067",
"o. c #72C550",
"O. c #71C86A",
"+. c #81DA2B",
"@. c #83C73E",
"#. c #84D737",
"$. c #8DDB36",
"%. c #8DDC3A",
"&. c #90DD37",
"*. c #91DD3B",
"=. c #88E22F",
"-. c #8DE03E",
";. c #85B450",
":. c #978C76",
">. c #B48E70",
",. c #8EAF6D",
"<. c #B4A870",
"1. c #D7885A",
"2. c #D69370",
"3. c #E9966D",
"4. c #D5A86F",
"5. c #F3A878",
"6. c #8BD945",
"7. c #94DC45",
"8. c #8CCB51",
"9. c #8FE141",
"0. c #91E143",
"q. c #9AE24B",
"w. c #9DE554",
"e. c #A6E55C",
"r. c #9AC575",
"t. c #A9D86A",
"y. c #AEE869",
"u. c #D2C07B",
"i. c #0A3E89",
"p. c #0B4F91",
"a. c #06559A",
"s. c #295897",
"d. c #176987",
"f. c #107192",
"g. c #356E95",
"h. c #045AA7",
"j. c #0958AE",
"k. c #265CAA",
"l. c #0967A9",
"z. c #1867A4",
"x. c #0679A9",
"c. c #0369B8",
"v. c #0677B8",
"b. c #1872B2",
"n. c #2875AA",
"m. c #3878A7",
"M. c #2F74B5",
"N. c #476997",
"B. c #4F7293",
"V. c #6E788D",
"C. c #497AAB",
"Z. c #6B7AA9",
"A. c #015DC7",
"S. c #066AC6",
"D. c #0379C9",
"F. c #177AC9",
"G. c #0E6DD1",
"H. c #027CD3",
"J. c #0877D8",
"K. c #027CDB",
"L. c #2F7CC8",
"P. c #047BE3",
"I. c #1072E4",
"U. c #887B88",
"Y. c #188891",
"T. c #2F8D8B",
"R. c #34A493",
"E. c #0D8AB1",
"W. c #3089B2",
"Q. c #33ACAE",
"!. c #4C868F",
"~. c #738995",
"^. c #50AD90",
"/. c #5088AC",
"(. c #7295AC",
"). c #4FADB3",
"_. c #72ABB1",
"`. c #0486C9",
"'. c #0E91CF",
"]. c #0586D9",
"[. c #1788D8",
"{. c #2887C5",
"}. c #2E8DD2",
"|. c #17A8D9",
" X c #2CACCF",
".X c #0484E4",
"XX c #028BE5",
"oX c #0986E9",
"OX c #028BEB",
"+X c #158AE8",
"@X c #0892EA",
"#X c #1896EB",
"$X c #0589F4",
"%X c #138FF3",
"&X c #0B96F7",
"*X c #1898F7",
"=X c #269AEC",
"-X c #3296EF",
";X c #249DFD",
":X c #299BF8",
">X c #16A2F3",
",X c #17A6FA",
"<X c #1CA3FD",
"1X c #2AA6EA",
"2X c #22A2FD",
"3X c #29A2F9",
"4X c #38A6FB",
"5X c #4B92D3",
"6X c #5FA4D2",
"7X c #479AED",
"8X c #4DB1EC",
"9X c #46AAFD",
"0X c #57ACFA",
"qX c #58B5FC",
"wX c #6CB1F5",
"eX c #65B6FC",
"rX c #77C3FE",
"tX c #908E8C",
"yX c #B29A91",
"uX c #96AD8B",
"iX c #B0AC8F",
"pX c #8F9AAC",
"aX c #96A3AB",
"sX c #ACB0B6",
"dX c #CE9992",
"fX c #D1B191",
"gX c #FCAC84",
"hX c #FAB489",
"jX c #EBB592",
"kX c #FAB892",
"lX c #CCB8AB",
"zX c #E5BBA3",
"xX c #A1D78B",
"cX c #A6C793",
"vX c #B6CBAB",
"bX c #D2D99D",
"nX c #EDC594",
"mX c #CACFB4",
"MX c #F9CCAD",
"NX c #869AC0",
"BX c #8DB1C7",
"VX c #A8B8CB",
"CX c #86BBF6",
"ZX c #C9BEC1",
"AX c #B3CACF",
"SX c #95CAF1",
"DX c #B0D0EA",
"FX c #BBE5F5",
"GX c #CCCECF",
"HX c #E7DCD7",
"JX c #D3E4D3",
"KX c #D0DAEA",
"LX c #D9E6E7",
"PX c #D3EDF7",
"IX c #EAF3F7",
/* pixels */
"/ / T / ^ ( T ( U ( T U ( ( T ^ ( ( U ( U ( / / / / / / / Y ^ Q Q Q Q Q Q Q Q W E Q Q Q Q Q Q Q Q Q Q Q E Q Q Q Q Q Q E Q E ",
"/ / / / T ( U ( ( T ( ( ( U T ( U T ( T U ( ( ( / / ( T Y I ^ Q Q Q Q Q Q Q E E Q Q Q E E Q Q Q Q E Q E Q Q Q E Q E Q Q Q Q ",
"/ / / / ( U ( U U U T U ( T U ( ^ ( ( ^ U ( T _ S } } ..............} } | W E E E Q E Q Q Q Q Q E Q Q E R E Q Q E E Q E Q Q ",
"T / / T T U ^ ( T ^ U ( U ( U ( T ( U ^ ) ~ _ ..R.Y.E.`.'.`.[.[.`.E.E.R.' X.W W Q E E E Q Q Q Q Q Q E E Q Q Q Q E Q Q Q Q Q ",
"/ / / / Y / ) =.+.) ( T U U ( ( / / / _ O.X.T.Y.E.E.].OXOXOX.XXXXXXX'.E.E.Y...X._ Q Q E E Q E E Q E E ~ ) ) ) ~ ~ Q E E Q E ",
"/ / / / ^ w.q.9.9.9.-.=.( U ^ T / I o.R.f.f.E.`.'.XX$X$X$X$X$X$XXX@X].].'.'.E.E.R.O.o.I E Q E E E E _ w.7.%.$.$.#.~ E E Q Q ",
"Y / I ( w.e.q.9.9.0.0.9.=.( T ~ o.} ' Y.E.D.H.J.OX$XP.P.$XP.$XoXXXoXoXoX.X].@X'.E.R...o.~ E E E E _ w.e.$.$.$.&.&.#.) Q E Q ",
"/ / I +.y.e.0.9.9.0.0.o.O.} }  .] t f.x.H.].P.+XoX$X$X$X$XoX+XoX+XoXoX%X$XOX&X$X'.E.E.^...} _ I E _ w.w.$.$.$.-.&.&.` ! E Q ",
"/ / I ) y.0.9.9.6.O.O.^.R.W.l.x.x.v.v.H.H.K..X+XoX.XoX*X*X*X%X*X*X*X*X*X*X<X*X&X@X].`.'.E.R...o.W 9.w.9.$.*.&.$.&.&.#.~ E Q ",
"/ ( Y ^ 6.9.0.O...).W.v.c.S.D.`.H.J.I.J.J.J..X].XX@X&X,X,X,X,X<X<X2X<X2X2X*X<X*X*X+X$X$XXX`.E.Y.' } 6.) %.$.$.&.&.*.#.~ E Q ",
"/ ( P K R ` O.Q.Q.{.E.v.S.S.K.K.P.P.P.P.P..XXX.X@X>X,X,X,X,X<X<X<X,X<X<X<X;X*X:X=X=X%X&X$XXX'.E.E.Y...O.q.0.-.0.*.#.N R Q Q ",
"T Y ^ K H ..Q. X|.`.S.S.J.K.].K.K.J.J.K..XoXOX@X*X<X<X<X<X<X<X<X,X<X<X<X2X4X4X9X4X1X3X;X%XoXXXoX'.'.'.Q...X.` $.) N N K Q Q ",
"/ / P W ..Q. X'.D.c.v.S.H.J.P.J.H.H.H.].OXOX$X&X<X2X2X2X2X<X2X<X<X<X*X2X4X9XeXeXeXqXqX4X<X*X$XP.XX.X'.|. XR...} N c n K ~ Q ",
"/ / W } Q.Q.|.E.c.D.v.D.H.J.J.J.D.H.D.].XXOXOX*X<X2X;X;X;X3X<X<X<X2X;X4X9XqXrXwXSXrXrX9X3X<X*XoX@XXXXX>X#X|. X^.S c n R Q Q ",
"/ / S f. X8Xb.c.v.c.v.H.H.H.J.J.H.`.`.].XXOXOX*X2X;X;X;X2X<X,X<X<X<X;X4X9XeXwXCXrXwXrX9X3X2X<X@X*X+X@X=X;X:X1X|.E.} D E Q Q ",
"/ / | ^.8X8XD.l.S.S.J.H.K.].H.`.H.H.].].XXXXOX&X<X*X;X;X2X3X,X,X,X<X*X:X9X0XCXCXCXSXrX0X:X;X*X*X#X].#X9X7X4X:X,X|.).o.Q Q Q ",
"/ / o._.eXE.F.S.S.I.I.I.J.D.`.D.H.H.].XXXXXXOX&X<X<X;X;X<X<X,X,X<X<X*X3X9XqXeXrXrXrXrXqX:X:X<X*X&X.X#X9X0X0X7X:X=X}.^.` ! E ",
"/ / o._.8Xv.c.S.A.G.I.I.J.D.`.`.].K..XoXXXXX@X&X<X<X<X<X*X<X<X<X<X2X2X4X9XqXeXeXrXeXqX9X:X:X;X%X&XXX+X9X0X0X0X4X4X X^.o.E E ",
"/ / o.).8Xv.c.S.S.D.K.H.D.D.H.K.H.K..XoXXXXXOX@X%X<X2X2X2X<X<X<X<X2X:X3X4X9XqX9X9X8X9X4X3X3X;X%X&XOX#X9XwXwXeX0X9X8X^.| Q ! ",
"/ / o.Q.1XD.c.S.D.`.`.`.K.H.J.J.K.P.P.oX.X.X.X].+X;X2X2X2X<X<X<X2X:X:X:X-X4X4X4X9X9X4X*X<X2X*X*X&XOX#X4X0XwX0X0X0X8X_.X.Q Q ",
"( T } {.1XE.c.v.D.`.].].P.P.P.P.K.].OX$XoX]..X].].[.#X#X1X1X4X1X-X:X3X:X3X3X1X,X,X1X;X;X2X2X;X>X*X+X#X9XeXwXwX0XeX8X_.X.E E ",
"Y ( ..{.1XD.c.S.D.K.D.D.F.F.F.{.F.F.+XoXoXOX@XXXXXOXOXoX&X*X#X#X2X2X2X:X-X-X}.=X=X<X*X;X2X2X2X2X2X%X#X9XqX0XeX0X7X7X^.| Q Q ",
"Y ( } E.#XS.S.K.P.I.b.M.m.g.N.N.g.m.L.F.oXOX$XOX$X$X$X$X$X$X&X&X,X&X;X-X}.m.m.m.{.-X-X3X3X2X2X2X,X%X*X4X9X9X0X9X-XW.T.{ E Q ",
"Y / } n.`.c.S.P.I.F.M.N.s s p 3 i s N.W.[..X[.oXoXP.$X$X$X$X$X%XOX+X}.M.g.d s i N.}.9X-X3X2X,X,X2X%X#X4X3X3X;X:X=Xb.] F E Q ",
"( / S f.E.x.v.S.G.L.N.i 3 3 3 g 3 p B.B.C.C.L.M.M.M.C.L.L.{.{.{.M.M.N.s i i p p i g.5XL.*X<X,X<X2X*X%X#X3X2X2X#XE.Y...| E E ",
"Y ( ~ } f.f.x.v.b.N.s h j k k k z g O + V.pXU.l U.U.U.U.U.~.~.~.V.tXj k j k k k h i r {.=X,X,X2X;X%X#X>X1X2X#XD.Y.Y.o._ R W ",
"/ ( T W ' f.x.v.n.s i h 1.1.1.1.3.j     $ j >.k z U.l z k p $ $ 3 z z 1.dXz z 3.k 3 s W.|.,X,X,X:X*X%X#X+X+X`.x.Y..._ R Q Q ",
"/ ^ Q D } d.x.x.n.d h k 3.3.3.5.gX>.# . . # k 1.z z z z g o . # g 1.z 3.gXgXgXgXz g f W.1X,X>X,X:X:X+X[.].H.v.E...| N R Q E ",
"/ / U N M y l.v.n.V.l >.1.3.1.5.gXjXfX# o . # 1.gXgX3.g o o # >.hX5.5.gXgXkXgXkX3.k tXM.=X,X,X1X=X#X+XJ.D.D.E.] o.c n K Q Q ",
"/ T P K M  .Y.v.b.m.l >.2.3.1.gXkXgXjXjXi # 3 z kXkX>.# 3 $ 2.MXhXhXgXkXkXkXgXkX2.l Z.M.=X2X*X@X@X[.P.P.].E.' } c c m R Q Q ",
"/ T I K K D w f.b.M.B.tX2.2.2.hXkXjXhXkXfXsX4.>.kXkXMXlXp dXzXhX5.nXkXkXjXhXgXkX>.f V.L.:X3X*X@X#X+XoXoXv.f.' S c c J E Q Q ",
"/ / ^ E K K [ d.x.n.B.U.yX2.2.4.gXgXgXhXMXyXh k gXzXzXyX$ zXMX5.5.5.hXhXhXkXhXkXyXZ.C.7X:X:X<X*X*X%XP.].x.' S N v m E Q Q Q ",
"( ^ ^ U L K D  .t n.g.~.yXdX2.3.2.5.kXkXfX3 o g kXMX>.$ . fXMXgX5.hXhX5.nXhXkXnXaX/.L.7X:X*X,X#X%X%X].v.t } n v J J E ^ W Q ",
"T T ( ( ^ K R | R.Y.d./.sXdXdXdX3.3.nXnX>.$ # g jXMXl . o jXnXgXhX5.hXhX5.nXMXmX_.M.{.:X3X2X&X].]..Xv.f...n m N J E E Q E E ",
"U T T T T U ^ ` } 0 t m.C.V.dXdX2.2.4.nXyX$ o h kXMXl . . fXkXkXhXhX5.5.gXzXGXpXM.[.=X2X,X$XOXXXoX[.x.y R R E E E W E E E Q ",
"^ ^ ^ ^ ^ ^ / ^ H ] t z.M.k.V.sXlXiXfXfX<.$ o h zXMXl . . dXjXjXkXhXhXkXzXmX(./.}.=X2X<X,X&XOXOX'.E.' E ^ E E E E ^ Q Q Q Q ",
"E ^ E E Q Q ^ Q Q | ] f.x.f.g./.~.tXl lXtX@ o h zXMXl     yXjXfXkXzXzXMXlXpXW.}.=X3X2X,X@XXXXX`.E.] S ( / ^ ^ ^ Q ^ ^ ^ ( ^ ",
"E E E E Q E E Q Q Q X.T.f.f.f.f.u u d pX~.i $ U.ZXHXtX@ $ yXlXfXzXlXlXsX(.m.}.1X2X3X3X#X`.E.E.Y.] _ T T T T T ( T T T T ( T ",
"Q Q Q Q E E Q E Q E E X.!.] t t d.s.C.s.N._.DXVXVXVXVXVXsXaXaXaXVXVX(.N.n.-X4X3X3X=X+Xv.n.' ' ^.~ ( ( ( ( ( T ( T T ( ( U T ",
"Q Q Q Q E E E R R R R R o.r.T.Y.Y.n.l.L.M.k.N.N.N.N.B.B.B.B.B.C.m./.W.}.=X:X*X;X#XJ.F.W.y ..O.0.) ( T U I U U I U U U ( ( ( ",
"Q Q W E K ~ ) ) ) ) ~ Q E 8.JXcXuXuXN.N.k.j.z.z.z.z.z.z.b.{.L.5X5X6XwX9X-XI.+X[.M.B.d uXbXbX) ( ( U U ( $.+.$.) ( T U ( T ( ",
"Q Q E E ~ 6.7.%.$.$.#.) ` y.MXu.u.iXtXpXk.h.h.h.l.l.h.j.c.F.F.F.}.5X}.L.I.I.G.l.Z.aXuXu.bXbXy.( T ^ =.w.9.-.-.9.=.) ( U ( U ",
"Q Q E Q 7.y.7.*.$.*.*.$.e.bX<.u.fXvXsXaXs.p.p.h.h.h.j.j.h.h.h.a.p.p.h.j.A.A.j.p.Z.mXmXfX<.bXbX+.U ) w.y.9.9.9.9.9.9.) T U ( ",
"Q Q R ~ e.7.*.$.*.$.$.e.t.fXfXbXnXbXiXs p.a.a.l.c.A.j.c.j.h.h.l.h.h.h.A.A.j.j.e d tXfXjXnXu.,.y.( 9.e.w.9.9.9.9.9.0.#.( U T ",
"E E R ~ e.*.$.%.$.$.$.8.r.:.>.dX<.dXU.V.p.a.j.c.J.G.A.G.b.j.}.7X5X8X5XM.j.M.m.9 X $ yX>.>.<.,.,.) 7.e.9.9.9.9.9.9.0.%.) U T ",
"Q ~ K K %.*.*.$.$.$.*.,.uX:.:.z l U.U.V.s.j.G.S.J.J.S.j.j.p.5X6XwXSX6XC.k.N.8 +   + lXyXyXiXuXuXr.6.6.0.9.9.9.9.0.0.) ^ T T ",
"Q Q J m K #.7.7.7.9.q.| :.tXyXU.yXyXaXaXZ.k.j.G.G.j.G.5X6X(.SXSXBX(.(.B.r 6 X   + f mXGXGXGXGXGXvX;.! #.q.9.9.6.9.) ~ ^ T ( ",
"Q Q J v M L @.6.#.6.%.,.tXtXZXGXGXGXVXGXDXC.k.b.j.k.6XFXPXPXPXPXVXr s 6 O .     p GXGXLXLXKXLXGXvX8.N ! 6.#.6.6.#.W J P ( U ",
"E Q K v c v n n n n D r.vXGXLXHXHXLXLXKXIXDXZ.k.s.BXPXPXIXAXFXIXIXpX+   X X X O f GXAXJXPXKXKXJXmX8.D N N N M N N M N ^ / / ",
"Q Q J v c c c c c c v ,.vXvXJXLXLXLXLXHXKXPXDXZ.NXKXIXPX~.V.9 ~.IXIXtX@ X O O 6 Z.VXAXLXLXHXJXJXmX8.D b M M M M M M L Y / / ",
"E Q J v v v c c c c c ,.bXvXJXJXLXJXKXLXKXIXVXs ~.IXAX~.DXN.5 r pXIXpX6 X O i.k.k.(.DXKXJXJXmXvXvX8.N N M M M M M N P / / / ",
"Q Q L N v v v v c v v | cXvXmXJXLXLXHXHXIXLXsX@ V.LXsXr NX7 5 7 Z.IXpX6 7 i.b.S.j.b._.AXmXvXvXxXr.@.R N K N N N D L / / / / ",
"Q Q Q R m m v v m m m J o.iXcXAXGXAXmXGXZXlXf X f LXPXpX5 6 6 B.DXIXBXs.k.L.G.S.S.c.s.(.sXcXxXuX#.Q K L K L L L L Y / / Y / ",
"Q Q Q E E J J v m m R E P ~ xXcXvX,.< a f p + X @ NXPXLX~.~.~.AXIXPXwX{.A.S.G.S.S.c.d.!.6./ 6.9.( T U L L L L L P Y / / / / ",
"Q Q Q Q W E E E E E E Q Q Q -.-.0.cX    . . X O O g.BXKXAXJXGXKXKXDX6XL.S.G.G.k.b.d.t 0./ e.#.+./ / / T T / / T / / / T Y / ",
"Q Q Q Q E E E E E E E Q Q ~ ) t.bX{ % + 5 O 5 5 e s.B.^._._._.pX(./.m.z.p.h.s.s.g.g.] cX%.+.U / T / T Y U I U U Y Y / Y ( / ",
"Q Q Q E L ! ! ! ~ ~ Q Q Q ) ;.Z F Z C w e 7 i.j.z.d.t y y y y r y y C.C././.~.g.d.d [ [ ,.q.^ / ( T ( ( =.( ) ) / Y T T T Y ",
"E Q E E Q @.6.*.-.$.#.) ! H ;.Z x [  .w p.a.i.j.p.e 0 0 8 0 0 9 0 B.BXDXDXDXDXT.0 w [ [ { F +.! ( T ) 9.0.-.-.9.+.+.T T Y / ",
"Q Q E ! 6.e.7.&.$.%.*.;.;.;.Z 4 4 , w t p.a.a.a.e 8 9 , > : > , q ~.VXDXFXDX!.d.t 8 , - V V Z | ) ( w.y.9.9.9.9.0.%.( U Y / ",
"Q E L ! e.q.&.$.$.$.0.8.;.Z 1 1 > w t d.d.l.p.e 5 9 > < < * < 4 4 q d !.C.!.g.m.Y.' ' , 1 x b F | 8.e.w.9.9.9.9.0.-.#.( Y / ",
"Q Q K ~ e.*.&.&.&.&.8.;.4 4 < w y d.f.f.x.f.p.7 5 : : = * * 1 4 q w u z.l.l.}.}.8X).T., * 1 x Z C | w.7.9.9.9.9.9.0.%.+.I / ",
"Q Q K E 7.*.*.&.&.&.;.F V 1 q y d.f.d.d.f.d.e 5 + : > > & * 1 4 q u f.E.`.[.+X}.-X XT., & 1 1 V x F ;.6.9.9.9.9.0.9.#.( Y / ",
"Q Q K N Q %.7.&.&.&.;.;.Z 4 q w 0 0 t 0 8 8 8 : : > = & * * 1 4 q y z.b.[.=Xb.a.d.p.0 , = = 2 V x G | 9.0.9.9.9.9.%.) Q T / ",
"Q E J v M R %.8.*.*.;.F Z 4 4 4 q w q , q q , > = & - - * % * 2 q y z.S.`.E.d.0 e 8 : > = 1 4 S b H H Q 6.6.6.6.#.R N U T / ",
"Q E J v c b N D N D W | { Z C 1 < = = = - - - - 1 * = - % & & = q y s.b.a.t 0 w w q ; & 1 4 Z { F | H N D D N D D M N P +.T ",
"Q Q J v v c c c c c c M { ;.Z 1 1 - = % * * 1 * & = = = % * & & : w y u e 8 q q q : * * 1 Z ;.| | | H M M M M M M M L / T T ",
"Q E K m v c c c c c c v G | A 4 V B > - 1 2 1 = = = & % % % % % ; : 8 : : : > > = - 2 1 Z ;.;.o.| H D m M M M M M N L T T T ",
"E ~ R m v v v c c c v v N +.%.{ 4 4 4 B V V B 4 * * * - % % % % % % % % % - x - = 2 x x F @.T ( I L L L D N M N N K T ( T T ",
"Q Q E R v v v v v v v J E Q ~ ! ` H { C [ [ { V x B B B 4 4 4 2 - - 2 2 - x x 1 2 B A A ;.8./ / Y P L L L L L L L P Y / Y T ",
"Q E E E E J J v m m K E E E E E ~ ~ H ` G G H { A Z C C [ 4 C V V V 4 4 V C Z M Z } 6.#.` ^ / / T Y P L L L L L P T / / Y T ",
"Q E E Q E E J J K K E Q Q Q E E Q Q ~ ` Q D ! H F F F F F F F G G G F F F G H H ` @.=.+.T T T Y Y Y Y Y P Y U U Y T Y T T T ",
"E E Q E E ^ Q ~ ~ ~ Q Q E E E E E E E Q Q ^ ~ ~ ) ` ! ! ! Q ! +.) ) ( ( ( ( +.+.+.+./ / ( Y / Y / ^ T Y Y Y Y U ^ ^ / / / Y ",
"( / ^ ^ ^ / ^ ^ ^ ^ ^ ^ ^ ^ ^ / ^ ^ ^ ^ ^ ^ / ^ ^ ^ ^ ^ ^ / ^ Q Q Q Q Q P Q Q Q Q Q Q P Q Q Q ! Q Q Q Q Q Q Q Q Q P Q Q Q Q "
};
