/* XPM */
static char *_50_7d3d97534639cdd42086ff1e5ae1230f825de706768bf204075b4ce99ace5de9[] = {
/* columns rows colors chars-per-pixel */
"62 73 255 2 ",
"   c #030202",
".  c #070907",
"X  c #11080C",
"o  c #270503",
"O  c #35140B",
"+  c #191F22",
"@  c #30353D",
"#  c #572A19",
"$  c #523026",
"%  c #2F5A0C",
"&  c #38660B",
"*  c #386615",
"=  c #3D6B12",
"-  c #396E12",
";  c #1C572D",
":  c #2B572E",
">  c #2E682E",
",  c #436A18",
"<  c #477116",
"1  c #405E2B",
"2  c #754A35",
"3  c #4B6C2E",
"4  c #4B7828",
"5  c #537928",
"6  c #567836",
"7  c #617D39",
"8  c #14336B",
"9  c #154F4F",
"0  c #2E4F52",
"q  c #1C6654",
"w  c #2A6E51",
"e  c #104F72",
"r  c #2E5070",
"t  c #166872",
"y  c #2E6D6D",
"u  c #56524F",
"i  c #6A514D",
"p  c #4F7852",
"a  c #4E5768",
"s  c #4D6A76",
"d  c #6F6666",
"f  c #975431",
"g  c #9C5932",
"h  c #8C5543",
"j  c #A05749",
"k  c #967053",
"l  c #AE6D4F",
"z  c #917668",
"x  c #AC7D6B",
"c  c #C9754E",
"v  c #55A808",
"b  c #5DB40B",
"n  c #5EAB16",
"m  c #5EB212",
"M  c #61B80D",
"N  c #61AC1A",
"B  c #64BA15",
"V  c #65B31B",
"C  c #6ABB1C",
"Z  c #518430",
"A  c #638739",
"S  c #59AD33",
"D  c #6AB925",
"F  c #6EB837",
"G  c #69C117",
"H  c #6CC31C",
"J  c #70C61D",
"K  c #73CC1E",
"L  c #72D416",
"P  c #76D41D",
"I  c #78D61F",
"U  c #7AD81F",
"Y  c #6DC522",
"T  c #6EC924",
"R  c #6EC52C",
"E  c #70CA25",
"W  c #75C928",
"Q  c #75CC2B",
"!  c #77D420",
"~  c #79D720",
"^  c #7AD822",
"/  c #7CD52B",
"(  c #76CD36",
")  c #78CA36",
"_  c #3B8871",
"`  c #6B8F4E",
"'  c #58AE59",
"]  c #70B451",
"[  c #578964",
"{  c #5BB366",
"}  c #6FB471",
"|  c #75C648",
" . c #77C56D",
".. c #81DA2C",
"X. c #92C13D",
"o. c #85D737",
"O. c #8DDB36",
"+. c #8DDC3A",
"@. c #91DD3B",
"#. c #8DE03E",
"$. c #86B35B",
"%. c #9C8378",
"&. c #AD8671",
"*. c #8FB572",
"=. c #D38559",
"-. c #D4926F",
";. c #E19363",
":. c #E9956C",
">. c #E89975",
",. c #F1A979",
"<. c #F8A979",
"1. c #8CCF4F",
"2. c #8CD947",
"3. c #93DB46",
"4. c #8FE141",
"5. c #91E143",
"6. c #98E24B",
"7. c #9CE555",
"8. c #A6E55D",
"9. c #8FD36D",
"0. c #A5D379",
"q. c #A0E364",
"w. c #ADE867",
"e. c #A9E878",
"r. c #095289",
"t. c #035497",
"y. c #28598B",
"u. c #116993",
"i. c #346E8F",
"p. c #296698",
"a. c #025AAA",
"s. c #0C5CB0",
"d. c #0867AB",
"f. c #166AA8",
"g. c #0768B6",
"h. c #026CBC",
"j. c #176FB3",
"k. c #0772BA",
"l. c #1A77BA",
"z. c #2D72AD",
"x. c #3778A9",
"c. c #2477B5",
"v. c #4C6C87",
"b. c #477798",
"n. c #567B97",
"m. c #69798A",
"M. c #447BAA",
"N. c #5879A5",
"B. c #066BC6",
"V. c #106ACD",
"C. c #0272C4",
"Z. c #0777C9",
"A. c #047CCC",
"S. c #1678C7",
"D. c #027CD3",
"F. c #097AD4",
"G. c #027DDA",
"H. c #2974C9",
"J. c #027EE2",
"K. c #4A7FC0",
"L. c #348688",
"P. c #1183AF",
"I. c #3485B6",
"U. c #548598",
"Y. c #728A98",
"T. c #71B58D",
"R. c #4D8AB1",
"E. c #5894BA",
"W. c #6F8EA7",
"Q. c #59AAB6",
"!. c #71B2B5",
"~. c #7CC8B2",
"^. c #0382DC",
"/. c #0A84D8",
"(. c #128AD2",
"). c #1586DA",
"_. c #2785C7",
"`. c #2E8CD1",
"'. c #2895DB",
"]. c #3AA1D0",
"[. c #0384E4",
"{. c #088AE5",
"}. c #0386EB",
"|. c #048BEB",
" X c #148AE4",
".X c #0B93EB",
"XX c #1898EA",
"oX c #058AF2",
"OX c #0B93F4",
"+X c #1699F5",
"@X c #1C9DFC",
"#X c #2B9AEA",
"$X c #359DE5",
"%X c #249CF3",
"&X c #2B9DF7",
"*X c #239DFC",
"=X c #379EF8",
"-X c #1BA3EE",
";X c #1BA5F7",
":X c #1CA2FD",
">X c #2EA3EC",
",X c #28A4F6",
"<X c #23A3FD",
"1X c #37A4F9",
"2X c #4D95CA",
"3X c #6F9BCA",
"4X c #50A4D1",
"5X c #68A8D0",
"6X c #419FE3",
"7X c #4AAEF4",
"8X c #46A9FA",
"9X c #57ADFC",
"0X c #58B3FD",
"qX c #68ABF0",
"wX c #64B4FB",
"eX c #78BBFB",
"rX c #7EC2D1",
"tX c #78C3FB",
"yX c #918E90",
"uX c #AD9991",
"iX c #B4A697",
"pX c #8F99AB",
"aX c #B19FA3",
"sX c #91A9AF",
"dX c #ACB0B1",
"fX c #CA9A85",
"gX c #D2A78D",
"hX c #E9AA85",
"jX c #FAB689",
"kX c #FCB48B",
"lX c #ECB391",
"zX c #FABA95",
"xX c #DDB8AA",
"cX c #98D08B",
"vX c #ADD28E",
"bX c #A6E883",
"nX c #92CCAF",
"mX c #B9C5B3",
"MX c #E1CF97",
"NX c #D0CBB8",
"BX c #F6CCAA",
"VX c #90AECD",
"CX c #ACB9C9",
"ZX c #87B9F0",
"AX c #B3C9D3",
"SX c #9ECFE9",
"DX c #B9D7EC",
"FX c #D3D0CE",
"GX c #E3DEDC",
"HX c #D6E6D3",
"JX c #E2E2DB",
"KX c #CCD8E6",
"LX c #E5DFE2",
"PX c #D7EFF4",
"IX c #E6EFF0",
/* pixels */
"~ ~ ~ U ~ ~ ~ ~ U ~ ~ ~ ~ ~ ~ ~ ~ ~ P ~ ~ ~ U U U 7.e.bXbXbXbXe.e.bXe.e.9.T T T E E E E E E E T E T R E E E E E E T E E T E ",
"~ ~ ~ ~ ~ ~ ~ ~ ~ ~ ~ ~ ~ ~ ~ ~ ~ ~ ~ ~ ~ ~ #.9. .T.!.~.!.!.!.5X!.!.!.!.T. .9.| R T E E E E E E E E E E E T T E E E E E E E ",
"~ ~ ~ ~ ~ U U ~ P U P P ~ ~ ~ ~ U U U U / ..9.sX5Xc.h.h.B.B.C.C.C.h.k.f.f.5X~.T.( ( T Y E T E T E E E T T T T E T E E T E E ",
"~ ~ U ~ P U ~ ^ ~ ~ ~ U P ~ ~ U P U U ^ nX5XI.u.j.V.F.G.F.}.J.J.^.G.^.F.(._.P.4XrXnX) R E E E E E E T T E E E E T T E E E T ",
"~ ~ U I I ^ ........^ U U ~ ~ ~ q.nX~.Q.p.c.l.B.V.D.^.[.G. X{.[.[..X[.^.G. XF.).`._.Q.nX9.E T T E T E Q / / / Q W E T T E E ",
"~ U U U I 7.6.#.#.#.#...~ P /  .nXQ.I.I.d.h.Z.A.D.G.^.{. X[./.^.^.|.[.|.[.|.[.^.G.F.#X6XQ.}  .( T Y / 7.3.+.O.O.o.Q T T T E ",
"~ ~ P ^ 7.w.6.#.5.#.#.#.| | } E.I.f.t.d.Z./.A.G.G.{.|.{.^.^.{.{.[..XoXoXoXoX|.oX{..X/.(.).4XE.} | | e.8.+.O.+.+.O.O.Q T T T ",
"~ ~ L / w.8.4.#.#.5.@.2.Q.2Xc.u.u.d.k./.k.A.D.G.^.|.|.[.^.|..X.X.X:X:X@XOX+X*X%XOX+X+XXX X(.C.].4X4X5X9.O.+.+.O.O.@.o.Q T E ",
"U U L ..w.4.4.4.5.#.| b.f.d.g.d.g.k./.A.A./.J.^.^.}.}.[.[.|.+X;X:X:X:X:X:X<X@X*X,X@X,X<XXXXX-X XF.F.`.Q.~.T.#.4.O.@.o.( T E ",
"U U P E o.4.4.4.5.| _ f.d.g.h.k.Z.Z.A./.D.D.J.}.|.}.[.[..X+X@X:X:X:XOX:X:X@X<X%X%X%X%X-X,X%X,X%X X[.^.).].Q.T.( O.@.o.W T T ",
"U ~ I J R / 4.6.| _ f.d.h.k.C.C.D.A.D.G.G.G.J.J.oXoX}.oX+X<X<X:X:X:X;X;X:X:X<X<X1X=X=X>X>X,X&X,X&XXX|.}.{.'.]. .2.) Y Y E E ",
"~ ~ E H V R Q | i.d.g.h.h.C.C.C.^.G.D.D.G.J.}.oXoXJ.oX+X<X<X*X:X:X:X:X:X<X1X1X0X0X0XwX0X7X1X#X,X*X+X.XOX|.^.]._.{ D B C E E ",
"U ~ K C m B S u.g.h.B.C.C.h.C./.G.G.G.G.G.^.^.|.}.[.|.@X<X<X<X<X:X:X;X*X&X1X7X0XtXtXtXtXtX0X8X>X,X;X;X.X.X.X(.'.I._ m H E E ",
"! ~ K H B Z u.'.XX+XXX%XXXZ.C.F.A.G.G.[.^.^.^.^.}.}.}.+X<X:X<X;X:X:X<X%X#X8X9XwXtXtXtXtXeXwX6X$XXX-X;X-X-X/./.P.].4X_ Y E E ",
"! ^ I J | I.).1X<X<X,X,X*XXX/.G.G.G.G.^.^.^.^.|.|.[.|.+X:X:X@X;X;X:X<X%X#X8X9XwXeXeXZXZXZX0X8X#X>X-X-X;XXX/././.$X7XE.} ) E ",
"U ! ! F I.1X<X@X<X&X&X&X&X1X%XG.G.^.G.^.^.^.|.|.|.|.|.OX:X:X:X:X:X:X:X,X1X8X8XwXeXeXeXZXtX0X>X>X,X-X-X-X-X.X{./.#X4XqX2X{ E ",
"^ I R I.%X<X:X+X&X&X=X8X8X8X1X.X[.G.G.G.^.|.|.|.oX}.|..X:X:X<X:X:X:X<X*X*X8X9X0XeXeXeXeXtX7X1X,X-X-X-X-X,X-X/././._.qX5X] E ",
"! 2.~.'.;X<X:X%X=X8X6X9X0X0X7X1X XF.A.G.[.[.[.[.oXoX}.|.OX:X:X:X:X:X@X:X&X1X8X9XwXwX9X0X8X8X,X,X>X>X>X,X-X-X-X.X^.'.0X4X{ E ",
"^  .].>X*X@X*X&X8X9XqX9X0X0X0X1X).F.F.G.G.|.oX}.J.oX}.oX.X+X@X@X:X:X@X@X*X=X8X8X8X8X8X8X1X,X,X,X,X>X>X>X>X-X-X.X^.'.7X2X' T ",
"! { '.<X:X@X*X8X9X9X9XwX9X0X9X=XF.F.A.F.G.}.oX}.oXoXoXoX{.|.OX+X:X:X:X*X*X*X,X1X=X$X1X1X,X:X;X,X>X$X6X6X6X>X,X.X^. X$X`.{ E ",
"U ' '.<X*X*X=X9X9X9X9X9X9X9X9X=X XF.C.D.^.[.[.}.oXoXoXoX{.^.^.{.OX:X:X@X*X*X*X<X&X&X&X&X:X;X;X>X$X].2X2XE.2X>X(.^. X$X`.' E ",
"U { #X<X<X*X=X0X9X9X9X9XqXwX9X=XF.F.G.G.A.A.F.`.H.H.`.H._._.(./.OXOX}.OX*X*X<X<X*X*X&X*X:X,X>X6XR.b.y.v.s i.4X`./. X$X`.' E ",
"^ { #X;X:X:X1X0X9X9X9X9XwXwX9X8X).F.D.Z.j.z.b.v.a d v.s s v.z.(. X|.}.oXoXOXOXOXOXOXoXOXOX XI.s s i i i i a v.H.(./.$X' R E ",
"~ ' ).:X:X:X<X8X9XwX9X9X9XqX9X1XF.F.D.S.z.v.u 2 2 2 h 2 2 u v.x._.).)./.). XF.F. X).[.[./.I.y u 2 f j j h i a i._.{.(.( T E ",
"~ ' k.;X;X;X;X>X7X0X8X9X9X9X9X1X).^.A.c.b.u h f f f f f f f s s i.x.x.M.M.M.M.M.R.x.R.I.b.U.d f j c c c j h a y I.^.d.F T T ",
"~ ' g./.-X;X;X-XXX%X*X=X8X8X0X1X XD.k.i.u 2 l c c c c c c &.i + . @ z x z x %.x z k z %.%.z k g c hXhXc l 2 d b.I.S.d.] T T ",
"U ' I.h./.(.-XXX:X*X*X&X=X1X&X%X^./.l.i.2 f =.>.:.:.c c -.>.k $   O # f c c c c c c l =.g # O o 2 :.kX;.g f a v.c._.I.F T E ",
"U R { I.d.(. X{.+X@X@X*X%X%X+XOX^.F.c.y u f =.>.:.:.:.:.>.>.-.l # o o # g =.;.c ;.;.=.f O o o # l kXkX;.j i s x.z.i.' D E T ",
"^ U E } I.S.Z.D..XOXoX X.X X{.{.G.A.c.i.i f c >.;.:.,.,.hXhXkXkX-.# O O $ fXjX<.<.zX&.# o O # -.zXzXzX;.l d v.z.z._ b Y E E ",
"U U P H T.I.B.Z.G.G.G.G.D.D.G.G.D.A.c.i.i k c >.;.:.jXkXkXkXkXzXzX&.h $ i &.jXjXjXlXl 2 2 i hXzXzXkXzXc x z M.z.R.{ M T E E ",
"~ ~ P H C [ f.V.Z.B.Z.C.Z.C.D.G.F.G.S.z.m.x fX:.;.>.kXjX<.jXjXkXjXhXBXMX&.fXhXjXjXlXBX-.x gXzXlXkXkXzXc l yXR.f._ v G T E E ",
"~ ~ P J J ] U.t.g.B.h.k.B.B.C.D.A.G.F.z.v.%.fXfX;.;.>.<.<.<.<.jXjXzXMXz 2 k hXzXzXlXMXi 2 -.zXlXkXkXzX>.&.d p.E.' b T E E E ",
"~ ~ ~ K J )  .I.f.g.h.h.h.C.C.C.C.A./.k.x.Y.uXgXhXc :.<.<.<.<.jXlXzX=.O X 7 ,.zXzXlXk O O &.lXjXjXjXzXxXyXd U.T.) G T E E T ",
"~ U ^ ! ! K Q cXp.d.k.h.k.C.k.h.C.A.A.A.j.R.pXfX>.>.>.hXkXjXjXkXjXBX&.O O %.lXjXlXlX# o $ -.jXMXjXjXzXdXW.v.9.D H T E E E E ",
"U U U U U U ! ! y u.k.C.h.h.k.h.C.A./.P.S.j.b.yXgXfX-.:.<.kXkXkXjXBXk O X z gXzXzXBX2 o @ -.lXjXlXlXiXpXb.y Y T T T T E T E ",
"I ! ! ! ~ ! ~ ~ T y d.k.h.k.k.k.h.h.k././.k.z.b.yXaXgX>.:.>.<.hX,.,.g O o z lXzXjXjX2 o # &.>.jXMXNXY.s p R T T E E E E E E ",
"E E E E E E ! E E S y k.g.g.d.k.k.k.k./.G.Z.S.c.M.yXuXfXfX>.hXkX,.,.g O X d xXzXzXzX2   O &.-.hXiXY.v.p F K ! ! ! ! ! ! ! ! ",
"T T E E T T T T T T F y p.f.d.d.d.k.h.k.F.G.A.S.j.b.Y.aXaXuXgXgXvX-.%.$ $ yXxXxXxXNXd $ u uXiXuXm.r y T U U U U ~ U U U ^ ^ ",
"E E E E T E T T T T T T y z.x.f.g.B.h.A.C.A./.Z.k.l.j.x.R.VXpXpXpXuXiXsXCXCXCXCXCXCXCXCXdXsXv.i.v.y ..U ~ U U U ! ^ ! ^ ~ U ",
"E E E E T T T T T T T T R 9.nXx.z.j.s.g.B.h.k.Z.A.A.V.l.c.x.M.M.b.U.n.n.U.n.n.N.n.N.n.v.d Y.N.' Q R U U P P P P I I U ~ ~ ^ ",
"T E E T T E ) ..../ W W 7.NXHXAXCXn.y.p.j.g.B.g.B.C.A.B.k.H._.I.I.I.I.x.I.R.5X5XE.M.E.N.[ ] ] / U L U ^ ..#.../ ^ I I ! ~ ~ ",
"E E T T Q 3.3.O.O.O.o.1.bXNXNXFXFXaXY.n.r.s.g.g.a.h.h.h.h.l.S.H.I.l.c.I.2X4X5XqX2XR.VXCXcX#.U U U L #.7.5.#.4.3.#./ I U ~ ~ ",
"T E Y W @.w.3.@.O.@.q.mXNXNXiX%.iXNXdXW.r.t.a.a.a.a.a.g.h.a.a.a.a.t.c.R.5XE.E.E.E.U.SXHXNXvXo.I P ..7.w.4.#.5.5.#.#.^ U U U ",
"E E H Q 8.6.O.O.O.0.mXyXiXiXaXiXdXdXW.y.r.t.a.a.B.s.g.s.a.B.a.a.t.y.VXSXKXKXKXDXAXdXsXyX&.iXgX3.L #.8.7.#.4.4.4.#.4.o.^ I ~ ",
"E E H Q 8.@.O.O.O.0.dXmXCXxXFXFXaXN.r r.t.a.s.V.V.V.B.B.s.V.V.H.K.3XAXLXLXLXJXKXFXmXuX%.&.gXgXX.L 3.8.5.4.4.4.4.5.5.+./ P U ",
"T E H H X.@.@.@.o.0.FXHXLXLXFXCXv.8 r.t.a.h.V.V.V.V.V.B.s.s.H.2X3XVXAXLXLXLXGXGXHXFXaX%.&.gX-.X.P / +.5.4.4.4.4.5.5./ ! U I ",
"E E G B J o.5.5.@.vXCXFXLXKXCXN.8 r.t.a.B.V.V.V.V.V.V.H.z.z.2XqXZXZXAXLXLXJXGXLXGXFXaX%.%.uXgXX.K H W o.5.4.4.3.4.( E ! U U ",
"E E C b m D o.3.@.iXCXCXxXCXpXN.y.r.t.a.g.V.V.V.V.s.H.qXDXDXDXDXDXKXKXKXKXLXGXLXLXFXaX%.uXgXfX$.K V D W 2.2.o.2.o.Y C P ~ I ",
"E E G b v b m m m V $.CXCXmXsXN.e r.a.j.B.g.V.z.y.z.ZXPXPXPXPXIXIXCXVXCXFXNXFXFXNXFXaXyXpXaXuX1.J C V V B V V V V N C K U U ",
"E E G b v v v v v v n ] $.$.*.sXe r.u.j.f.p.p.z.N.CXIXIXKXpXU.!.DXLXAXCXpXpXaXaXaXsXpXpXY.[ iX2.J C N N N N N N N N H P ^ U ",
"E E H b b b v v v v v v B T 2.cX0 r p.p.y.i.r 8 W.PXIXDXVXN.@ 8 m.KXKXsXm.Y.m.W.W.W.N.W.R.r vX7.K J C V N N N N N C K U ^ ~ ",
"E T Y G b b b b v v b m G E T B 0 0 0 0 0 @ . + a PXDXW.N.ZXp.8 8 W.AXAXm.m.W.E.E.2Xz.j.j.p.nX3.K J J J C C C C C J P U U ~ ",
"E E E Y B b b M M b M G T E E D . . X . . . . + a PXPX!.r 8 8 8 r VXIXAXr e p.z.f.j.j.V.s.s.nX3.U K J H J J J J K K ~ U ~ ~ ",
"E E E T T G B b M B Y T E E T D +   . .   . . X 9 AXPXDXW.v.8 N.VXPXPXSXM.s.V.V.B.B.V.s.j.x.1.O.~ ~ P K J C H K K ~ ~ ~ U ~ ",
"E E E E T T T T T E T E E E T R $.O         . X + v.AXPXKXaXpXCXKXPXPXZXH.V.B.V.B.V.B.s.z.nX^ ~ ~ ~ ~ U U I I U ~ ~ ~ ~ ~ ~ ",
"T E T E T T T T T T T T E E E Q 0.:       . . . . 9 Y.CXAXKXKXDXAXSXVXqXH.B.V.B.B.g.j.u.U.bX/ ^ ~ ~ U I I I L I U U ~ ~ U ~ ",
"E E W T Y W W W ! Q E E T T E W *.$ .   + + + @ r y i.y U.n.U.n.R.n.I.I.l.Z.V.S.j.f.L.y s  ./ ~ U U ^ ^ / ^ / ^ ~ U I U I ~ ",
"E E T T W o.3.@.#.#.../ E T ) ` p 3 : 1 sXpXpXVXVXU.y y y y y t q t e r.r.t.a.t.r.e q w [ [ ] ( U U / 4.6.4.4.4.o.^ I U ! ~ ",
"T E E W 2.8.3.O.O.O.O.O.F ] A A * > > w pX!.3X3X3XU.y q : : : : 9 9 9 9 e e e 8 9 9 ; > * , ` ] ) | 7.w.5.4.4.4.#.O.^ P U U ",
"E E C W 8.6.@.O.o.#.O.O.7 A 4 * % % * > y i.p.z.x.L.w > > * & % * : ; ; 9 9 e 9 9 : % % % & = ` } ` 8.7.4.4.4.4.5.5.o.^ I ~ ",
"T E H Q 8.@.O.O.O.O.O.X.3 3 , % % % ; ; q u.d.j.f.u._ > - & & & * * ; ; 9 ; 9 0 ; % * % & & & < A A 8.3.4.4.4.4.4.5.+./ P U ",
"E E H T 3.@.@.@.O.O.X.3 5 , % % % ; ; _ t d.(.A.k.u.t ; - < & % & & * * : > > * * % * & & & & < < 5 A X.5.4.4.5.4.4.o.! P U ",
"E E H B E +.5.#.O.O.X.3 6 % % % ; ; q L.P././.D.k.d.u.q > & , & & & & % * * * % - - & & & & , & < 7 6 ) 5.5.5.5.4.+.W ! U ~ ",
"E E G b V W o.2.+.2.F 6 6 % % ; _ L.I.].'..X/./.k.P.u.w > & , , & & & & % & % & & - & - - < , & < ` 7 F 2.4.2.2.( Y H P U U ",
"E E G b v m V D B D D ` > > > q _ ].7X1X%X X).F.l.u.t _ - - - - , * , = & & & & = & & - < , & , 5 7 $.N D D C D D V C K U U ",
"E T G b v v v v v v v v p Z _ y t u.d.k.h.k.C.j.u.u.q > ; - - - 1 * * , * = = , , & - = & & , 5 7 7 V N N N N N N N H I ^ U ",
"E E Y b b v v v v v v v ] T.[ y e e u.r.t.r.r.r.t q w > - - & & , * * * - & & * * = & = , 3 5 ` *.$.C V N N N N N N K ~ U ~ ",
"E E Y B b b b v v b b b $.1.} [ 9 t r.t y.r e q q > > % - & & & , * * & & & = , , , , , 5 3 $.$.1.$.C J C V V V C J I ~ U ~ ",
"T T T T b b b b b b b G T E | *.y _ s y y s a w > = < , % & & , = * * * & & , 3 6 3 5 7 7 ` $.....M ..C J C J J J K U ~ ~ U ",
"E T T T T G G M b B H T E E E Q cXvXyXp p ` [ p 3 Z < Z Z 4 Z < 5 4 4 Z Z - 6 6 6 6 p $.0.0.........L M J J B ..K I ~ ~ U U ",
"E E T E E Y G G Y Y T T T T E T ..Q 1.vXvXvXvX*.p 5 5 5 7 5 5 5 5 6 6 5 Z Z ] vXbXvX0.1.....L L ..L ..L ..G ....U U U U U U ",
"E T E E E E E ! ! E E E E E E E W E ) 7.7.7.6.| D $.*.*.*.*.*.9.*.0.*.*.$.V 1.3.3.6.3...P ..P ....L L ..L L ..L ~ ! ! ! ! ! ",
"~ ! ! ! ! ! ! ! ! ! ! ! ! ! ! ! ! ! ! ! ! ! ^ ^ ! 8.e.e.e.w.e.e.e.w.e.e.q.Y W E E E E E E E E W G L J K J K W K E E E E E K "
};
