/* XPM */
static char *c547856e5617467ce81772801a87a8a92lGocM7BUTvst9JM[] = {
/* columns rows colors chars-per-pixel */
"62 73 255 2 ",
"   c #4FA203",
".  c #53A606",
"X  c #55A708",
"o  c #56A909",
"O  c #59AE0B",
"+  c #5DB40B",
"@  c #5EAB16",
"#  c #5DAB19",
"$  c #5FB312",
"%  c #60B70D",
"&  c #61B90E",
"*  c #61AC19",
"=  c #64BC13",
"-  c #65B41B",
";  c #65B818",
":  c #6ABC1C",
">  c #47AB3F",
",  c #6CBB22",
"<  c #77BE31",
"1  c #68C31A",
"2  c #6CC31C",
"3  c #70C61D",
"4  c #73CC1E",
"5  c #7ACF1E",
"6  c #72D517",
"7  c #76D41D",
"8  c #78D61F",
"9  c #7AD81F",
"0  c #6DC521",
"q  c #6EC924",
"w  c #6CC829",
"e  c #71CB25",
"r  c #74C828",
"t  c #75CC2B",
"y  c #77D420",
"u  c #79D720",
"i  c #7AD821",
"p  c #7CD22B",
"a  c #7ED929",
"s  c #67C438",
"d  c #7CCE32",
"f  c #7CCE3A",
"g  c #7BD336",
"h  c #3FAC61",
"j  c #59BB4D",
"k  c #48BC67",
"l  c #4AB479",
"z  c #59C553",
"x  c #6ECB4B",
"c  c #7AD657",
"v  c #4FC470",
"b  c #6ACC6A",
"n  c #86D92A",
"m  c #81DA2C",
"M  c #82D434",
"N  c #8CDB36",
"B  c #85D53B",
"V  c #86D938",
"C  c #8DDC3A",
"Z  c #92DD33",
"A  c #91DD3B",
"S  c #8DE03E",
"D  c #89D747",
"F  c #8BDB43",
"G  c #95DC49",
"H  c #8DD657",
"J  c #8FE141",
"K  c #8DE048",
"L  c #91E143",
"P  c #98E24B",
"I  c #9DE454",
"U  c #A5E547",
"Y  c #A6E55A",
"T  c #93D973",
"R  c #9EE064",
"E  c #AAE765",
"W  c #B6ED72",
"Q  c #2D7886",
"!  c #0176BD",
"~  c #245CDA",
"^  c #1178CE",
"/  c #326FDC",
"(  c #2A79DB",
")  c #326FE2",
"_  c #337AE3",
"`  c #3AAB89",
"'  c #34B096",
"]  c #36B897",
"[  c #1390A7",
"{  c #1F9CAA",
"}  c #0085BE",
"|  c #058ABC",
" . c #0494BD",
".. c #2598B6",
"X. c #35BBA6",
"o. c #27A9B9",
"O. c #30AEB0",
"+. c #27BAB9",
"@. c #4AB287",
"#. c #65B899",
"$. c #35C2A7",
"%. c #49C38A",
"&. c #51D7BE",
"*. c #75D8A9",
"=. c #6ED0BB",
"-. c #74DBBE",
";. c #0384C3",
":. c #078AC7",
">. c #048CC4",
",. c #0896C5",
"<. c #1499C5",
"1. c #1A9BC6",
"2. c #1D9BCA",
"3. c #1585D1",
"4. c #0D99D3",
"5. c #1799D4",
"6. c #289BCC",
"7. c #2886D6",
"8. c #3284DD",
"9. c #2998D9",
"0. c #3596DA",
"q. c #09A8C3",
"w. c #1DACC6",
"e. c #19A8C9",
"r. c #1BB5CA",
"t. c #17B8C8",
"y. c #1BBBCA",
"u. c #18AAD7",
"i. c #0DB2D3",
"p. c #18BAD5",
"a. c #28A8CA",
"s. c #38AEC9",
"d. c #25B6C8",
"f. c #29A6D8",
"g. c #37A9D8",
"h. c #26B8D6",
"j. c #3CB4D8",
"k. c #0497E3",
"l. c #2C89E2",
"z. c #3485E2",
"x. c #358AE2",
"c. c #3E8EEC",
"v. c #2B97E7",
"b. c #3796E6",
"n. c #3D94EC",
"m. c #3E9CED",
"M. c #2F9EF0",
"N. c #3499F4",
"B. c #15AEE6",
"V. c #27AAE5",
"C. c #37A6EA",
"Z. c #28B8E8",
"A. c #39B7EA",
"S. c #2EA6F1",
"D. c #38A6F8",
"F. c #2BB7F3",
"G. c #37B9F4",
"H. c #4195DC",
"J. c #46AADA",
"K. c #53AFD4",
"L. c #56B3DC",
"P. c #60ABDF",
"I. c #6FB7DA",
"U. c #418CEC",
"Y. c #4599E8",
"T. c #539DE6",
"R. c #45A4EB",
"E. c #57A7E6",
"W. c #47B6E6",
"Q. c #51B9EB",
"!. c #68A9E5",
"~. c #74A7E8",
"^. c #6AB4EA",
"/. c #77B5EA",
"(. c #1DC4C9",
"). c #1AC8C8",
"_. c #1CCBC9",
"`. c #1ED0C8",
"'. c #1BC6D8",
"]. c #22C4CD",
"[. c #27CBC9",
"{. c #2AD2C9",
"}. c #35D4CA",
"|. c #34D0CF",
" X c #3AD7C9",
".X c #24C6D5",
"XX c #1BC7E7",
"oX c #30C9F1",
"OX c #39C7F9",
"+X c #48D7C8",
"@X c #4DD1CE",
"#X c #55D9C8",
"$X c #5AC7D5",
"%X c #74CECE",
"&X c #65DBC5",
"*X c #6BDDC3",
"=X c #75DBC5",
"-X c #4CE2C9",
";X c #59E2C9",
":X c #59E3D4",
">X c #6BE2C6",
",X c #66E5C9",
"<X c #6DE4CA",
"1X c #74E5CA",
"2X c #79E6C8",
"3X c #6AE5D2",
"4X c #78E9D3",
"5X c #4BD0F3",
"6X c #6CD2EC",
"7X c #78E4E6",
"8X c #6CE1F6",
"9X c #90D58A",
"0X c #83D2BA",
"qX c #A2E2AA",
"wX c #AFEBBE",
"eX c #C6F0B1",
"rX c #98B8DC",
"tX c #A5B8DE",
"yX c #87B3EB",
"uX c #98B7E9",
"iX c #A7BAEA",
"pX c #BBBBE7",
"aX c #AABBF1",
"sX c #CABEE5",
"dX c #D8BDE6",
"fX c #E5BEE6",
"gX c #F6BBE5",
"hX c #92D3CC",
"jX c #B3D6D3",
"kX c #86E7C5",
"lX c #8BE4C3",
"zX c #83EACB",
"xX c #8CECCB",
"cX c #96EBC6",
"vX c #94ECCB",
"bX c #93F1CF",
"nX c #99F2C9",
"mX c #88EDD4",
"MX c #A4EBC5",
"NX c #A8F1C9",
"BX c #ABEBD2",
"VX c #90CEE4",
"CX c #B2C5E8",
"ZX c #8CE6F3",
"AX c #B2E7F8",
"SX c #CCD2D5",
"DX c #D6DCDD",
"FX c #D0EEC3",
"GX c #ECE2CC",
"HX c #C8C5EB",
"JX c #D9C4E7",
"KX c #D5DDE8",
"LX c #E6C3E8",
"PX c #F3D1EA",
"IX c #F5ECEE",
/* pixels */
"u u u 9 u u 9 u u u u u u u u u u 9 u u u 9 u u u u u u i 7 y q w q e e e e e q e q e e e e q r e e e e e e q e q e e q e q ",
"u u u u u u u u u 9 u u 9 u 9 u u u u u u u u u u u u u 8 i y y q e w e e q e e e e e q e q e e e e q e e e e e e e e e e e ",
"u u u u u u u u 9 7 9 u 9 u u u u u u u 9 9 7 7 9 7 u u i y u q q e e e q q q q q q q e e e q q q e e q 0 e q q 0 q e q e e ",
"u u 8 u u 7 u i 9 y 7 u 9 u u u u u u u 7 u u u u 9 9 u i y u y q e e q q e q e e q q e q e e e e e q q e r e q q e e e q e ",
"u u u 9 7 i a m m a a u 7 u u u y u 9 7 a m m m a u 9 7 u u y q q e q q e d p p p e e q e e e e e q q r d p p t e q q e e w ",
"u 9 9 8 u I P J J S S a u 7 u u 9 9 6 a I I J J S S a 9 7 9 y q q e 0 r F I N N N N p e q e e e q 0 f G A A N N V p q q e e ",
"u u 7 u I E P S J J J J a u 9 u 9 7 i W I K J L J J S a 9 y y q q q 0 G Y A C N S N V p e q e q 0 d G E A N N A N N t e q e ",
"u u 6 m W I J S J J J K J i 7 u 7 9 C W P C L F J J D x s s x s j s M Y Y N N C N N S S e w e q 1 D Y U N N N A N A M r 0 e ",
"u u 6 n E L C J J J J K J a y u 8 u C Y L S F c c H b ` ` ` ` ` ` ` b H H c Z N S N Z L t q q e : F I N C C C C N A B t q e ",
"u 8 7 e V L J J J J J J C p 9 u u 4 e F L S c 1.{ ..e.i.u.u.r.u.u.u.+.+.$.v V S N N C C e q q q 2 r N A C Z N Z N A B e q q ",
"8 u 4 3 w M G G L L L M e 7 u u y 4 : w ' 2.a.r.w.t.t.t.t.q.t.i.t.i.q.).t.y.p.$.b J M 0 q q e e = = q B P A F L A n : 0 e e ",
"u u 4 : , 0 f M M f M r : 4 u u y < k O.r.p.p.(.y.[.}.}.+X X X+X X+X}.{.}.|..X].$.@.z O q t t e & O * w B M M f d : ; 2 e e ",
"u 8 4 2 * ; : , , , , * - e 8 9 z ] o.u.).`.`.`.). X;X;X1X<X1X1X4X1X;X-X-X-X{.[.'.'.' h 1 e w e & O o O ; , - ; ; o $ 1 e e ",
"u u 4 2 - * * @ @ @ # # : y x g +.F..X]..X{. X X X;X<X1XkX2XzXmXbXxX4X,X,X:X X}.|.[.'.+.v w e e = % o .             = 0 t e ",
"u u 4 3 : : * * * * - ; 2 g K.u.i.{.|. X X3XzXnXnXxXkXkXzXzXmXmXmXzXvXcXmXmXzX1X+X}.}.].i.%.q e = & % O X X X X o + 1 w e e ",
"u u y 4 3 : 3 : : : 2 2 y g h.h.'.{.:X+X:X4XnXxXnX2X<X1X1X1XmXmX4X4XMXwXNXnXnXmX;X-X X`._.+.v w 2 & + + + + + + + $ 0 e e e ",
"u u i 7 4 3 , 3 2 3 3 s k X.'..X X:X,X4X4X4XmXkXxX1X>X,X>X&X1X1X<X3XzXxXxX4XzXzXzX2XzX&X@X@X[.v e 0 = $ + + + % & 1 q e q e ",
"8 u 8 u 7 4 4 3 2 4 e l d.'.).|.-X3X4XmXzXzXkXlXlX=X>X-.>X*X-.-.*X&X<X3X<X1X<X2XzXcXNXcX=.@X].t.z w 1 1 = = = 1 2 e e e e e ",
"i 8 u u 8 8 7 7 7 y z o.i.y.). X:X3XzXvXbXnXwXwXcXqXlX=X-.-.-.=.=X&X&X3X1XlX-.*X>X2XxXcX2X&.s.[.$.z q q 0 0 0 q e e e e e e ",
"8 i u u u 8 8 7 7 6 l +.'.].&.>XzXkXxXNXeXFXeXwXkXkXzX%X#X@X@X@X@X+X+X=.=X3X&.&.#X,X>XkXMXlX=.&.+.z q q q q q q e q e q e q ",
"u u 9 9 8 8 m n a S O.'.`. X-.kXkXvXjXFXFXFXSXBXNXhXCXuXyX~.~.~.~.I.|.@X&.&XK.$X$X#X<X2XlXcXkX&.O.X.k e d p p t e e q e e e ",
"u u 9 9 8 G L S D @.t._. X;X2X-.lXhXsXGXGXDXSXDXjXCXiXuXrXyX~.~.~.!.C..X|.J.P.E.!.I.#X<X-.lXlXkX#Xd.l D C N n N M t q q e e ",
"u u 6 i L E I C b p.). X&.>X2XkXhXJXfXPXGXGXKXKXdXsXpXiXuXrX6X6XI.!.Y.V.XXZ.R.R.E.!.$X&X>X2XlXMX*X&.%.T A N A A N n r q q e ",
"u u 6 a W Y L x ` ).). X;X-.kXnXjXLXIXPXIXIXIXJXgXdXsXsXiXhX4X4X-.P.Y.b.A.oXG.G.R.Q.^.#X&XkXcXMX&X;X|.X.B C N C C A g e q e ",
"u u 6 a W G C b o.).).}.;X<XkXnXSXfXPXPXIXIXIXgXfXdXsXHXaXhXkX-.-.$XR.R.m.G.OXG.W.^.~.@X*X2XkXcXkX&X+Xo.v N C C C A B t q e ",
"u 9 7 y C G L b u._.).}.;X1XxXnXjXfXLXIXIXPXgXgXfXdXJXCXaXVX%X%X6XW.G.N.U.n.G.OXA.Y.T.@X+X&X2X2XlXMX2X}.X.c N Z Z A M t q q ",
"u u 7 2 r B L @.p.`.`. X>X2XxXnXSXHXKXIXIXgXgXLXfXJXHXHXaXuXyX6X^.OXG.R.U.U.C.oXXXC.R.@X-X;X1X>XxXNXxX Xy.c L F C M r q q e ",
"u u y : , r z O.'.`.{. X-X;XxXnXBXKXKXIXPXPXgXgXfXJXHXpXCXuXyX/.5XR.D.R.n.U.U.F.oXZ.A.@X+X;X<X1XcXNXxX+Xt.c B V M 0 ; 2 e e ",
"u u 4 2 * : ` u.(.). X}.).{.4XmXVXjXsXfXfXfXfXfXfXHXaXaXuXuXyXQ.R.R.R.N.c.c.c.n.b.C.|.$X#X#X<X4XvXBXnX3Xi.z : 1 : O $ 1 e e ",
"u u 4 2 - * h o.'.).}.[.).`.mXjXiXCXSXfXfXfXfXdXdXHXCXaXVXuX/.E.D.N.Y.U.U.c.n.U.b.Y.T.!.@X;X4X4XvXBXnX:X'.v #     . $ q t e ",
"u u 7 2 : - ` ]._.).].t.t.[.:XL.rXsXsXsXsXsXdXsXaXpXaXiXuX^.R.R.D.U.U.n.c.c.U.n.n.m.E.P.@X;X4XmXmXNXvX3X|.$.> . o O ; q e e ",
"u u 7 3 3 : ] XX_.).y.w.w.d.{.Z.E.~.~.pXsXpXpXpXaXuXuX~.E.R.U.N.U.U.U.U.U.U.c.Y.n.Y.T.E.#X;X4X4XzXvXvX4X X'.h O + + 0 e e e ",
"u u y 7 q 2 ] XX_.].(.w.2.f.(.f.5.v.0.uXuXuXuXyXyX/./.E.M.m.m.n.Y.n.n.c.n.b.c.n.n.m.T.P.+X;X4X4XzXbXbX1X}.XXh + & 1 q e e e ",
"u u u u 7 6 ] '._.).].w.1.e.y.6.b.0.b.!.L.L.L.L.L.Q.W.A.V.V.C.S.M.S.v.9.9.v.x.n.n.n.E.P.@X&.>X4XzXbXnX1X}.XXk = 1 q e q e e ",
"9 9 9 9 9 7 ] '.[.).(.w.1.1.w.7.l.x.l.v.i.q. .,.q.,.,.,.>.>.,.>.>.,.>.>.>.4.v.n.n.Y.T.P.@X&.*X<XmXbXbX4X{.XXk w q q w q q q ",
"y y y y y y ] '.).(.(.r.1.<.w.7._ z.x.9.i.,. . . .,.,.| } } } ;.} } ;.} } :.v.U.Y.b.T.P.#X&.-.>X2XxXxX*X{.i.v 6 e y e e e e ",
"q y q q e y ] XX[.(.(.o.1.1. .7.( z.x.0.2.>.| | >.Z.Z.4.} } } } } ;.;.} } } x.Y.n.b.E.P.#X&.&.-.=XkXlX=.[.i.v 6 y y y y y y ",
"q q q q q q ] '.).(._.w.1.1.1.( _ _ x.0.6.<.} } 4.OX5XZ.! } } } } } } ;.,.<.b.n.n.Y.T.K.+X&.>X*X=XlXlX*X{.i.v 9 y 9 9 9 i 9 ",
"e e e q q q ] '.(.).).w.e.1.<.7.( _ z.0.6.2.:.:.B.F.G.F.:.;.>.>.;.} >.e.g.W.c.n.n.b.T.L.+X&.&X>X=XkX0X&.{.i.v 8 i 7 y i 7 i ",
"e e e e q w ` d.y.`.[.).r.e.1.<.7._ z.8.f.g.OXG.4.,.:.4.oXu.f.6.>.>.g.W.j.g.0.n.Y.Y.K.#X-X#X-.*XlXwXkX+X(.X.z 6 7 i 9 i i i ",
"e e e q q r @.a.y.`.[.(.r.w.1...2.7._ l.0.C.OXOX5.>.! ,.oXF.W.f.} 2.W.5XA.C.c.b.Y.T.$X#X+X;X>X*XlXMXkX+X).%.x a i 7 9 u u u ",
"e e q e t D @.w.r._._.(.+.w.6.1.2.7._ _ 8.0.oXOXu.:.>.4.OXW.Q.6.} 6.OXOXW.Y.c.b.Y.E.@X#X-X#X>X2XxXMX2X{.i.v c S S a u 7 u u ",
"e e w e G Y l ..e.]._.].r.e.1.1.2.7./ / z.8.g.W.V.B.u.V.F.A.W.a.:.2.G.5XG.N.U.U.T.K.#X#X;X,X2X2XcXcX;X).'.v K K J S i u 7 u ",
"e e 1 t Y G B @.u.y.).(.r.e.2.1.e.1.7.( _ z.0.j.F.OX5X5Xs.J.W.g.6.g.OXOX5XG.b.Y.L.#X-X#X,X1X2XnXcX2X+X_.(.c J J J J V u 9 u ",
"e e 2 t E A Z @.B.y.(.y.y.r.e.2.2.e.<.( _ ) _ l.0.G.G.g.g.g.j.W.j.J.b.D.OXF.0.g.@X-X+X#X,X1XkXnXxX,X X[.p.c J J J K V a 7 9 ",
"e e 1 2 N A A H #.r.t.(.).r.r.V.M.v.9.N.v.9.0.z.7.n.N.U.Y.Y.n.C.R.b.8.9.V.f.oX6X:X:X8X8X4X2XcXMX1X+X{.y.$.D J S L J M p 8 9 ",
"e e 1 & 3 N G U 9X2.w.)._.(.(.G.D.N.M.N.N.0.0.0.7.7._ 8.z.z.z.x.b.z.( 7.g.h.5X8X8X8X8XZX4XzXnXNX;X}._.t.b J F J J M e y 9 y ",
"e e : % * , M Y T s.w.(.).).Z.G.D.N.D.N.b.b.0.0.( ( 7.7.7.7.7.7.7.7.7.9.g.5X@X5X8X8X8XZXZXzXnXNX X[..X+.F B F D M 2 1 6 i 9 ",
"e e : + . O $ ; < H 6.e.(.).h.G.OXG.S.N.N.v.8.~ ( / ( 8.z.0.l.x.x.b.b.l.v.@X6X8X8X8XZXZXZXbXxX3X{.XX+.v - * ; ; - * : 4 i 9 ",
"e e 1 + O . . X - e 6.i.(.(.oXF.D.F.S.N.N.l.^ ~ / / / / 8.C.M.8.z.Y.Y.b.f.@X6X8X6XZXZXZXBXNX4X:X].XXX.- * * * * * * 2 7 i i ",
"e e 2 + + O O . * q ' ..y.]..X.X.Xh.h.V.u.:.^ ^ ^ ( 8.C.C.B.S.G.C.V.g.f.a.s.#X%X7XmXNXbXBX3X X.XXX] j ; - * * * * : 4 u u u ",
"e e 2 = + + + + * e 9X..4.h.d.[.]._.y.r.e.^ ! ! :.3.5.C.F.k.B.F.Z.4.e.a.s.O.K.%X%XcXNXxX<X+X'.h.XXz 3 : : ; : : : 3 7 u u u ",
"e e e 0 = + & & + ; r x f.e..X]._.h.r.q.e.:.^ ! ! ;.:.V.F.k.k.F.p.,.w.O.s.K.0XhXhXhX=X#X X{.].p.+.x 2 2 3 3 3 3 3 7 8 u u u ",
"e e e q q : & + & ; d t c :.d..Xf.7.9.t.q.2.9.5. .| ,.h.OXB.XX5Xj.o.O.I.rXtXhX0XhXI.9.t.t.).p.B.H n 7 4 3 2 2 4 7 u u u u 9 ",
"e e q e q q q q q q q q 2 D 5.u.f.c.m.0.9.9.9.9.v.<.e.oXOXoXoX5X6XO.VXiXtXtXrXrXuX^.v.t.t.i.d.T a u u u u 8 8 9 u u u u u u ",
"e e e e q q q q q q q q q 2 [  .7._ c.z.0.g.g.9.0.0.g.W.W.W.5XQ.L.K.~.yX/.I.P.T.E.Y.l.e.B.|.9XZ y u y 7 7 7 7 8 8 7 u 9 u u ",
"e r q q 0 r t t e p e q d f 0XI._ ~ ) ) U.H.J.g.7.J.J.g.g.a.f.g.g.J.J.J.J.W.9.8.z._ ) w.s.*.U i 9 7 7 u m a a i i y 7 u u u ",
"e e q q q B A A N N m p q R H D uX) ) ) 8.0.a.a.a.h.d.q.q.q.q.q.q.s.h.a.a.a.7.x.) ) ( O.T A u u 9 9 a S L J S S n a 7 9 u u ",
"e e 0 r D Y G Z C Z A M d q r q 0 D Q ^ ( ..} | |  .q. . .q.,. .,.,. . .,.>.7.3.( ..v 9XA 9 9 u 7 i I W J J J L L C u 7 u u ",
"e q 0 r R U A N N C C A M t q q B r H H j ! ^ ^ ^ 3.<.<.1.<.<.<.<.<.4.4.4.:.:.{ =.eXW P n 9 9 u 6 S Y Y S S J J L J V u 9 u ",
"e e 1 p Y A N N N A N A N p 0 e 0 D e r jXAXVX[ [ [ ! ;.;.;.;.:.^ ^ [ [ K.AXAXhXqXW U L a 6 u u 6 L Y J J J J J J L C p 7 u ",
"q e 0 0 G C A A N N N A B d 0 e e 4 r F M R FX=.0XhXI.^.^.^.^.^.L.^.hX#.9XE K I E S A L i 7 u u 6 B G J L K J L J S V a 6 u ",
"e e : = e C L C Z C A N d q e e e : & p C B F B D E R e t t t t t t t t e g J J F L C d u u u u 4 2 t F L L J J J V t y 9 u ",
"e q 1 + * q D G F F B r ; 1 e e q ; + - d F G D G B 0 - t t t a i t 0 , r B F F G B w : 7 u u 9 4 , , t F F F F B 0 2 7 i u ",
"e e 1 + . @ ; : ; , ; @ O 1 e e q = + o $ , ; , , $ O O w q e u 9 4 2 - - , : , , , : * 4 9 u 9 4 : - - , , , , , - : 7 i u ",
"e q 1 + o X X o o . o X O 2 e e 0 = + o X X o o o o X + e w e u 9 4 2 - * * * * * * * - 5 i u i 3 : - * * * @ * * * : y u u ",
"e e 0 + + o X X . . . o $ q e e q 2 + + o . o . . X O = e e e u 8 4 3 : - * * * * * * 2 7 i u 9 4 3 : - - * * * * - 4 u 9 u ",
"e e 0 = + + + o O O + & 1 e q e q 1 + + + + O + O O $ 2 e q e u 8 7 4 2 2 : - ; - : 2 5 u u u i 4 3 3 : ; - - - : 2 7 u u u ",
"q e q 0 = + + + + + % = q e e e e q : + + + & + + $ 1 e e q y y 9 u 7 3 : 3 2 3 3 2 4 7 i i u 8 8 4 3 2 3 3 : 3 2 4 u u 9 9 ",
"e e e q 1 1 & & % = 2 0 e e q e e q q 2 = & + $ = 1 q e e w e y 8 u u 4 4 3 3 3 4 4 y 9 8 u 9 i u u 4 4 3 3 3 4 5 u u u 8 9 ",
"q q e q q 0 1 1 2 0 q q q q q q q e e q q 0 : 1 2 q e e e e e u 9 8 9 8 8 7 7 7 7 9 9 9 9 9 9 9 8 9 9 7 4 7 4 8 9 9 9 8 9 9 ",
"e e e e e e y t e t e e e e e e e e e e e y e t y e q q e q e y y u u y u u 9 9 u y y y y y y y y u u u u 8 8 8 7 y u u y 8 ",
"u y y y y y y u y y y y y 7 y y y y y y y y y u y y y y y y y e e e e e e 4 e e e e e e e e e e e e e e e e e e e 4 e e e e "
};
