/* XPM */
static char *_1673_a60302493cd04af5c62f35ad7eed5cc3daec9640e29bc939eba260a0316f1a6e[] = {
/* columns rows colors chars-per-pixel */
"62 73 88 1 ",
"  c #52A506",
". c #55A907",
"X c #53A608",
"o c #56AA09",
"O c #59AE0A",
"+ c #5DB40B",
"@ c #5FB80D",
"# c #5DAC15",
"$ c #5FAB18",
"% c #5EB112",
"& c #60B70D",
"* c #61B80E",
"= c #61AC18",
"- c #61B415",
"; c #64BC14",
": c #68BF17",
"> c #65B41B",
", c #68B71E",
"< c #66BA1A",
"1 c #6ABC1C",
"2 c #68B620",
"3 c #6DBE23",
"4 c #67C119",
"5 c #6DC31D",
"6 c #6AC81E",
"7 c #70C71D",
"8 c #72CC1D",
"9 c #73D417",
"0 c #76D41E",
"q c #78D61F",
"w c #7AD91E",
"e c #6DC622",
"r c #6EC924",
"t c #6FC028",
"y c #71C325",
"u c #71CB25",
"i c #79CF26",
"p c #73C528",
"a c #75CC29",
"s c #79CD2D",
"d c #76D321",
"f c #79D720",
"g c #7AD921",
"h c #7CD12C",
"j c #7ED929",
"k c #7DCE33",
"l c #7ED133",
"z c #81D32F",
"x c #81DA2D",
"c c #81CF35",
"v c #82D434",
"b c #88D734",
"n c #85DB32",
"m c #8CDB36",
"M c #85D53B",
"N c #89D53C",
"B c #87DA3A",
"V c #8DDC3A",
"C c #90DD37",
"Z c #91DD3B",
"A c #8DE03E",
"S c #91E03E",
"D c #8CD542",
"F c #8CDC42",
"G c #91D745",
"H c #93DE42",
"J c #9ADE46",
"K c #94D74C",
"L c #94D94B",
"P c #9BDD4C",
"I c #9BDC52",
"U c #A1DF53",
"Y c #A4DF58",
"T c #8FE141",
"R c #91E143",
"E c #94E249",
"W c #9AE24C",
"Q c #9DE353",
"! c #A4E255",
"~ c #A2E55B",
"^ c #A9E45D",
"/ c #A3E85A",
"( c #A6E661",
") c #AAE462",
"_ c #A7EA61",
"` c #ABEA64",
"' c #B3EA67",
"] c #B4EF70",
/* pixels */
"ffffffffffffffffffffffffffffffddrrraruruuuuprrrrrrruuurrprrrur",
"fffwffffffffffffffwfffffffffffduruururureuurraararuuruuuarraar",
"ffffffwwwfffffffffwwwww0wfffffduruuuaurruuuuraruruuururrrrrrru",
"ffff00ffw0w0wffwfffw0d0fw0wffgddruurrrrrrreururrururrrurrruuar",
"wffw0jjxjjgf0fffwf0wxnxxjgggffdarreerkshiauuuurrrrrahshhdrrrra",
"ffw0jQEATTAjgfffw00BQQTTABjjdfddrruMKLmBCnzurrurrrsLHmmmbhrrrr",
"ff0wQ_EATTTTng0fw0j`QHTTTTTj00drrrs)'SAmmmmlurrrrlL^VmVmVbarrr",
"ff0f_QTATTTTTjf0wfn]WnTTTTTAfwddrrM''SmmmAAvrerrrL(!mmmZVVlurr",
"ff0f~ETVTTTETjff0qm~RVTTTTTTfdddrrNPWmmCVVCNu6rreP!HmmVVCVlrrr",
"fq00NTRRTTTRFhffq0iZTRTTTTTNdfddrrpNHVCVCCZMu6rresMVZVCVCVlurr",
"qfd5tlFETFFsrr0fq81pMFTFTFltffduu4*ykDFVHVz1rurr;-1lHVFFVs1yar",
"ff05,ekckka2<6ff081,phkklse>0fdiu:O+,scvMk1%raar*.#2cllks<;eur",
"ff05>>73333=>5fw071=1333332>0fdde:Oo#<3333%Oearr&..%3e333O%eau",
"ff05>=======>8ff083>====$$$>dfdur:+oXXXXXX +eaar*+OXXXXXXX:rur",
"ff071>====><50ff0871>====><5ffddr5++O.X Xoo-rurr;&+OX X X+eruu",
"fff87737115680ffw0771751155dffdure;+&+++++;6rruu6*+++++++;ruru",
"ffff87575570ffffff085717580ff0ddru5:*&++@@erauruu6;*+++@;6uuuu",
"ffff0777568fffwfffq8777760fffqfurue4;*&;-4errruru55;;+*;4reuur",
"fwffq08800wffffffwfq08u0000ffqdururrr545rrrrruuuuuu5656euuuupe",
"ffffqqwfwfwfqffffffwq0qqfw0wfqdieuurrueurrraurrurrrrrryuerurru",
"ff0wqxxxxxjfqqfqwww0xnxnjjfwffddprrrakhhhhurururrrealhhharrruu",
"ffw0jIESTAnjfqqq000B!~TAAnnffddurrrlDJVmbnhrrrrdr6sKZmmbbsrrru",
"fffwV`WRTRTnxq0qf0fW(~RRTAAjffddrraL!UCSSVbirrrrraMUHZCCVxrrru",
"ffwfQQRATTRVBjqq00n`WVTTTAABf0ddrrk(^ZmCmVbvrrrrrDI!ZmmZVbsrrr",
"ff0f~EFTTTTEFxqq9fBQEAATTTTFf0durrNPPCmmmZmNa6uruIYZmCZmZVluer",
"ff00vFTTTTTTNjqqf0iBTTTTTTTBfqdireyvZZmZCZZvurrr5pvVZVmCmmkurr",
"ff06eMEWEETlauqff85aNEEEEAlpdqfdr6;uvHRRESverrrr;-tlERERZst6ur",
"ff052kFHFFvt17qf0813vNFFFva30fdur4+>pMFVFNa>erur;+>pFVBNMu;uau",
"ff05>2yyet3>>7ffd8<>3yy3tt2>0wuir4OO#3tttt-Oeaur+.O-tttt3+-eur",
"ffq5,===$$==>8ff087=====##=>0wffr;+.XX  X..+eiur*+O X .  .4rar",
"f0f55<====><50ff0871>===>><7wqiur4++OO. ..O;rrru;@+.o  .oOerur",
"fff855135157uqfqf07537511578fqfurr;+++++++%6ruuu6&@++++++;rurr",
"ff00757577780fffff8777777760ffdarr:@+&&&@@;rrrrur;@@@&&&*4uruu",
"fffqu7777880qfffff087715700fffddare6;*&*;;6rruuure6;@+*;4ruuur",
"wqqqwq000fwqfqfqf000f00ffqw0ffdrrrure856rrrrrururree6eeeururrr",
"0iif00df0d00uf0fiffdfd000dfd0dddrruuuuuuuuuruuuurrdurrdruuuruu",
"80u8u0d8u8dududu8u8fu0u0dudududaudddddudddudddddddddddddddrddd",
"puuueuuuuuuurruuuuuuuuuuueuuruddf0ffqwf0qgqqf0dwfff0fdqgdwwfw0",
"uuuuuuueuuuuurprueuyrreueuuurrad0ffffww0f00fffffffff00f00wffff",
"ruyueeuueeueruuruuueueuureuerrddfff000wff000ffffff000f0gf0ffff",
"uurrealvzhireraruueesvlxspurrrudww09fbnjnjf0w0ffw00fnnnngdwfff",
"urprrMNmmbhurrrruersDDmbbsirrrdd0f0jBFAAAxjw0dff00fVTAABngdfff",
"uueeNYRCmVmxhrrrrepLUJVCCVnsrrddw0jQ`QTTTTAgfwff0jR_RTTTTnff0f",
"rueuIJCmmCVCbhrrrrl~HmmVmCVbrruf00m_`TTTTTTBg9f0qE/QTTTTTTjf0w",
"uureIZmmmCCZVkurrrkJCmmmmmSVurddw0NQWTTTTTTFf9w0qP~RTTTTTTlf0w",
"rre4vZZCmmCSbserre5MHZCmmSSbuuudf0iMTTTTTTTMfw0w0sMFRTTTTTjf0w",
"uu5:uVHRSZVblurur4:hFFZCAmBkrragw05kBRTTTTBsfwwf85yBRTTTTBif0f",
"ru6;-sDGNFvy11uue4@1lFDDFla<rrad0011aMFFRFs30fw07<2aFFFFMp60ww",
"uue+.#-<>>-oX<ur4;+o$>%<>%#orrudx81>=<,,<,,,wgf05<>>><<,,=1fff",
"ur6;OX.     O4rr5:+oXX  X XOruud981>====$$=1wgfw71<=======7fff",
"rue;+Oo....O%eare5&+OXX.XoO@rudaw9111<-==><6wfff7711>===,10fwf",
"ure:+++O.O+@4ruru6;++++oO+@4rrddq07731>>,<40ffff87731>>>,7ffff",
"rure;@++++*4errupr4@&&@+@@4errdd098755555580ffff0877717578ffff",
"rupu6;;**:6rrrurrur5;*&*;erurrudqxq88777880fffwfw08877788qffff",
"aruruurrrrruururuurruerrrrrurradqqx90wq0qqffffffqffqq00wwwffff",
"rruur6e6eerrrrraruurr6r6errrurddqqqww09900qqffwffqq09090qqfqff",
"ruuurryuruueuuuuurrruupurrrrrradqqw00gfffff0fffff0ffffffqqffff",
"uurruMNmnnjpueururraNDbbnharrrddqq0wnSVVnnjffwff00gnAABAnf0wff",
"urrrDUZmmVmnhrepreaIUJmVVmbsrrudqqx/`QRATTAj0w0w0xR_ETTTVmf00f",
"uueuIJmmVmCZmhrrrukYZmmCVmBFurddq0m^_RARTTTBf0w0fW/QTTTTRFn0ww",
"rrerUZmmmVVSFlrrerlPCbmmmmCZurddqfHQWTTTTTTFj9w0fQ(ETTTTTRbf9w",
"paeeLZmCCCCZVkrrresHZmmZmAZVpradqqvHETTTTRTFf9w0fGIFTTTTTTlf0f",
"ure4aVRHZmVblarrr5:lHHVVZSmkrrudq0ulFRTTRTBkf0ww8ysNRTTTTBa0ww",
"rr6@-yMFMNl3<4rre:+<kvBNMhy-eudfq812elBDDMa10wfw51<pMMDFve60wf",
"uu5*OO%>%%%XX<ure;+X#%%%>%Oorradw81>=<>>,=,>0www7>>>>>>>,=70wf",
"ur6@O XX  X o5ru6:+o  XXXXXOrradg81>=====$=<0xww71>=======uqgf",
"ure@+      .+5rre4+O.     .+rrddq871=======3qfff711=======8fqf",
"rar4++OOOo++<errre@+OOoOOO+;rradq87111>>><18ffqf8771>->><5qfff",
"pure;++@@@;4erruur4%@@@@@%:ruradfq877556378qwwff0877771778qfff",
"rrure:;;%:6eruuurrre:;;@4errrrddqfq0887888qqqwfff00877780qfwfw",
"rrrrrreererrereerrrreeerrrrrrradwqwwq0wwxwwwwqqqwwwwwwwwqqwqww",
"rrurraurraarrpurrrraaaraarurrrdd0ffqqwww9wqqqffffffqfwwwffffff",
"fdddddfdddd0dd0ddd0dddddfddddddddrdrudrrurdurduruuuuu8uuduu8du"
};
