/* XPM */
static char *_1de3449cf934218f2b6b0e0fc755fd1Xv1d8HOAuNtjsj60[] = {
/* columns rows colors chars-per-pixel */
"62 73 246 2 ",
"   c #010100",
".  c #0A0804",
"X  c #17140E",
"o  c #1B1710",
"O  c #241F17",
"+  c #2E271C",
"@  c #3B3224",
"#  c #713907",
"$  c #453B2A",
"%  c #7D4411",
"&  c #47731C",
"*  c #49741D",
"=  c #4B412E",
"-  c #4C4231",
";  c #564935",
":  c #5D513A",
">  c #7B5C24",
",  c #65563C",
"<  c #447F27",
"1  c #437B28",
"2  c #59752E",
"3  c #5C7131",
"4  c #7E6025",
"5  c #707E22",
"6  c #6D5D42",
"7  c #705F44",
"8  c #786549",
"9  c #7B7153",
"0  c #7E7061",
"q  c #8B5313",
"w  c #B07810",
"e  c #855826",
"r  c #9F7724",
"t  c #8F7034",
"y  c #987935",
"u  c #836D49",
"i  c #87714B",
"p  c #837454",
"a  c #8A7655",
"s  c #8E7957",
"d  c #8C795B",
"f  c #8A7A65",
"g  c #9A7B6C",
"h  c #4C821F",
"j  c #58901E",
"k  c #74811E",
"l  c #53A606",
"z  c #55A708",
"x  c #55A909",
"c  c #59AD0A",
"v  c #58AC0C",
"b  c #5DB40B",
"n  c #5EAB16",
"m  c #5FAB18",
"M  c #61B80D",
"N  c #61AC19",
"B  c #65B717",
"V  c #64BC14",
"C  c #65B41B",
"Z  c #6ABC1C",
"A  c #72B016",
"S  c #478225",
"D  c #4F8423",
"F  c #558A28",
"G  c #5F8E33",
"H  c #679633",
"J  c #6CBC23",
"K  c #69B928",
"L  c #70AF31",
"P  c #75B73A",
"I  c #68C219",
"U  c #6CC31C",
"Y  c #72C71D",
"T  c #73CC1E",
"R  c #72D517",
"E  c #76D41E",
"W  c #78D61F",
"Q  c #7AD81F",
"!  c #6DC521",
"~  c #6FC924",
"^  c #75C727",
"/  c #71CB25",
"(  c #75CC2A",
")  c #77D420",
"_  c #79D720",
"`  c #7AD821",
"'  c #7DD52B",
"]  c #7AC535",
"[  c #7FD232",
"{  c #6E9C43",
"}  c #709E45",
"|  c #719C49",
" . c #71A143",
".. c #78AF46",
"X. c #76A54A",
"o. c #78A74C",
"O. c #78AA49",
"+. c #998B1E",
"@. c #A6821A",
"#. c #AC841D",
"$. c #AD8B1C",
"%. c #B38819",
"&. c #B48B1E",
"*. c #B98E1D",
"=. c #B09312",
"-. c #BB941B",
";. c #8DB11C",
":. c #B6A41A",
">. c #AC8522",
",. c #A68328",
"<. c #B58C21",
"1. c #B68E2A",
"2. c #99B42F",
"3. c #B1B427",
"4. c #C9960A",
"5. c #C79919",
"6. c #C7981D",
"7. c #C9A418",
"8. c #D6A61D",
"9. c #DAA419",
"0. c #D7A81D",
"q. c #DAAA1D",
"w. c #E6B31F",
"e. c #E8B51D",
"r. c #C89A2A",
"t. c #CDA22D",
"y. c #D9AA25",
"u. c #D9B72E",
"i. c #CEA232",
"p. c #CDAB31",
"a. c #D2A533",
"s. c #D8AB35",
"d. c #E8B82A",
"f. c #F5BA2C",
"g. c #E7B432",
"h. c #F5BD37",
"j. c #80D22F",
"k. c #81DA2C",
"l. c #8BCA34",
"z. c #82D435",
"x. c #8DDB36",
"c. c #86D739",
"v. c #8CDD3A",
"b. c #91DD3C",
"n. c #B5CF38",
"m. c #8DE13E",
"M. c #CED038",
"N. c #F9D928",
"B. c #EECD37",
"V. c #FAC63A",
"C. c #FFE42F",
"Z. c #FEE73A",
"A. c #93825D",
"S. c #A8934B",
"D. c #8DBE50",
"F. c #8B8666",
"G. c #8F8F67",
"H. c #988668",
"J. c #908B6B",
"K. c #9A8A73",
"L. c #A99068",
"P. c #A58F78",
"I. c #A5937B",
"U. c #B69D75",
"Y. c #9EBA69",
"T. c #B9A47A",
"R. c #D2AD46",
"E. c #E6BC4F",
"W. c #C5AC7B",
"Q. c #86C746",
"!. c #8CDA43",
"~. c #95DC48",
"^. c #94CE53",
"/. c #B8D64F",
"(. c #8FE141",
"). c #91E143",
"_. c #99E34B",
"`. c #9DE454",
"'. c #A0E24B",
"]. c #A9E45B",
"[. c #9BC86C",
"{. c #ABE864",
"}. c #B4ED71",
"|. c #D8C252",
" X c #F8C744",
".X c #FAD547",
"XX c #EBCD53",
"oX c #F6DA59",
"OX c #FEE542",
"+X c #FFE943",
"@X c #FEEC4C",
"#X c #FFEF4C",
"$X c #D4D571",
"%X c #F2CF6B",
"&X c #FCD77B",
"*X c #FFEA67",
"=X c #FFEE75",
"-X c #FFE27D",
";X c #FFEE7A",
":X c #FFF37C",
">X c #AC9C85",
",X c #B69C99",
"<X c #B5A58C",
"1X c #B8A88D",
"2X c #BCAC92",
"3X c #BCA698",
"4X c #BEB097",
"5X c #C3AC85",
"6X c #D6B786",
"7X c #C5AB95",
"8X c #C3B39B",
"9X c #C6B89E",
"0X c #C8AEA7",
"qX c #CAB6A6",
"wX c #CABCA6",
"eX c #CCBEA8",
"rX c #B8E496",
"tX c #CEC498",
"yX c #F1D38D",
"uX c #FFF383",
"iX c #FFF288",
"pX c #FDEF93",
"aX c #CCC0A7",
"sX c #CEC2AB",
"dX c #D3C4AB",
"fX c #D6C6A8",
"gX c #CFC4B0",
"hX c #D5C9B3",
"jX c #D6CBB6",
"kX c #DED3BC",
"lX c #F3DCB7",
"zX c #CEECBA",
"xX c #FFF3A4",
"cX c #FFE9BC",
"vX c #FFF8BA",
"bX c #E3DAC5",
"nX c #EADDDA",
"mX c #D7F9C6",
"MX c #D9F9CB",
"NX c #E4F3CC",
"BX c #FFFBC9",
"VX c #FFFDD3",
"CX c #FFFBDB",
"ZX c #F3E7E6",
"AX c #FFFCE5",
"SX c #FFFFFB",
/* pixels */
"_ _ _ Q ` W ` W ` W W ` W ) ` W W ` W ` W ` ` W ` E ` W _ W _ / / / / / ~ ~ / / / ~ / ~ / / / / ~ ~ / / ~ / / / / ~ / / ~ / ",
"_ _ _ _ W ) W ` W ` ` W ` W W ` ` W ` W ` W W ` W ` W ` _ W ) / / / / ~ / / / / / / / / / ~ / / / / ~ / / ~ ~ / / / ~ / / / ",
"_ _ _ _ ` W W ` W W W W W ` W ` W ` W ` E W W E E ` ` W _ W W ) ~ / / / ~ ~ ~ ~ ~ ~ ~ / / / / / / / / ~ ~ ~ ~ / ~ ~ / / / / ",
"_ Q _ _ W W ` ` ) ` W W E W ` W ` W ` W E ` W ` ` E E ` _ W ) / ~ / / ~ ~ / / / / / ~ / / / / / ~ / ~ ~ / / / / ~ ~ / / / / ",
"_ _ _ _ W _ ' k.k.k.` ` W W ` W ` W W W k.k.k.k.' ` k.k.k.;.E / ^ T Y ^ ^ j.j.j.` / / ~ ~ / / / / ~ ~ ( [ ' ' ( ( ~ ~ / / / ",
"_ Q _ _ _ `._.(.(.(.m.' ` E W ` W W R ' '.`.m.b.m.m.l.0.:.4.5.7.4.7.5.5.5.7.4.4.3.m.' ~ Y / / / ~ ~ [ ^.b.c.x.x.z.( / / / / ",
"_ _ R ` `.{._.m.(.(.(.(.[ _ E ` ` W ' {.].(.~.!.c.n.q.e.e.XX.X.X.XoX.XXX X%X&X&XoXM.x.[ ~ ~ / / ~ ( `.{.v.x.b.b.v.x.( / ~ / ",
"_ _ R k.}.`.(.m.(.(.(.(.m.` E ` R W m.}._.m.b.~.3.y.e.e.N.*X:X:X=X=X=X;XuXxXVXBX:XZ.n.v.( ~ / / I !.`._.x.x.x.x.b.x.[ ( ! / ",
"_ _ R k.{.).m.m.(.(.(.).!.' ) ` E E x.].).v.l.3.8.w.e.w.d.;XiX:XuX;X;XiXiXxXAXCXiXZ.+X/.k.T / / Z !.~.v.x.x.b.x.x.x.!.( ! / ",
"W W E / c.).).!.(.(.(.).(.' E W k.E ^ b.~.l.:.q.8.q.d.w.d.;XuX;X;X;X;X;XiXxXAXBX-XC.Z.Z.M.k./ / U ( x.b.b.x.x.x.x.b.z./ ~ ~ ",
"_ _ E U ! z.~._.)._.(.[ ~ T ` Q E T J J 2.:.9.y.8.q.w.w.B.=XuX;X;X;X;X;XiXxXCXVX;XZ.#X#X:X$X].~.! B ! c._.!.b.!.b.j.U ! / / ",
"_ _ T Z C ^ z.z.z.[ [ ( I T Q ` E ^ A ;.7.8.y.9.8.q.w.w.u.=XuX;X;X;X;X;XiXxXAXVX-XN.B.oXg.t.7.&.=.=.;.^ c.z.z.z.[ Z B U / / ",
"_ _ T U C C C C J J Z N C T ` ` ) ;.+.7.q.q.0.0.8.q.e.d.d.:XuX:X;X;X;X;XiXxXAXVX-Xf.u.oX6.w w w @.w +.N Z C C C B x v ! / / ",
"_ Q T U B N N N n n N N Z ) _ ) ;.=.y.0.0.8.8.9.7.q.w.e.d.;XuX:X;X;X;X;XiXxXCXVX&Xf.u.oX%.q q q q % r S.A l l l l l V ~ ( / ",
"_ _ T Y Z Z C N N N C B Y W _ ;.&.8.0.8.0.0.8.8.8.q.w.w.d.;XuX;X;X;X;X;XiXxXCXVX-Xf.g.oX6.q q q q q e S.3.z z z l c I ~ ~ / ",
"_ _ _ Y U U Z Z Z C Z U T k.+.-.8.q.0.0.8.8.8.8.8.q.w.w.d.;XuX;X;XuX;X;XiXxXAXVX-Xf.u.oXw q q q q # e S.n.B b b b M ~ / / / ",
"_ W _ W T Y U U U U Y T j.=.6.8.9.0.8.y.8.8.0.8.8.q.d.w.d.=XuX;X;X;X=XiXiXxXCXVX-Xf.d.=Xi.y y i t 4 y R.M.;.b M M Y ~ / ~ / ",
"_ _ _ _ E Y Y Y Y T T E ;.*.0.0.0.8.8.0.8.8.0.8.8.q.w.w.d.=XuX;X;X-X=X;XiXxXAXVX-Xf.y.XX%X%XwXtX5XW.|.XXf.3.Z I U T / / / / ",
"_ _ Q _ W W _ E W W Q ;.=.r.9.8.0.0.8.8.8.0.8.8.8.q.w.e.d.=X;X=X;X;X=X;XuXxXAXVX-Xf.9.r.E.iXxXvXxXuXuXoXw.u.l.! ~ / / / / / ",
"_ _ _ _ _ W W W W W W ;.:.6.9.y.8.8.8.0.8.8.8.0.8.q.w.w.B.=XuX=X=X;X=X;XiXpXCXVX-XV.f.%.w 4.4.9.0.V. X Xe.u.l.! ~ ~ / ~ ~ ~ ",
"W ` ` Q R _ k.k.' ' ` ;.:.6.0.0.0.8.8.8.0.0.8.8.8.y.e.e.g.cXBXvXvXvXvXvXvXvXAXVX-XV.h.y.6.w 4.9.9.V.E.f.N.B.b.' / ~ ~ / / ~ ",
"` W ` Q _ ~.).m.(.(.~ L -.6.0.0.8.8.8.8.8.8.8.0.9.q.w.e.B.AXSXSXSXSXSXSXSXSXSXCX;XC. Xh.y.6.%.9.9.B.V.d.B. Xn.x.z.( ~ ~ / / ",
"W ` Q ` m.{.`.m.!.P F k $.-.q.0.8.0.y.8.8.8.8.0.7.q.w.w.g.vXBXvXvXBXvXvXvXvXVXBX:XZ..X.Xh.y.6.6.9.h.h.d.B..Xn.b.x.x.( ~ ~ / ",
"E ` R ' {.].).c.] H S k $.6.0.0.8.8.8.8.0.0.8.8.8.q.w.w.d.N.N.N.N.N.N.N.N.N.oXpX;XZ.Z.OX.Xh.d.*.8.g.g.B.#XOXn.b.x.x.[ / ~ / ",
"` ` R ' }.~.c... .G S k $.6.0.0.0.0.8.8.0.8.8.8.0.q.y.y.y.9.9.9.9.9.t.9.y.y.9.&X=XZ.Z.+XOX.X.Xf.r.r.g.N.+XOXn.m.x.b.c.( / / ",
"W ` E ) !.(.Q.O. .G S k $.6.q.0.8.8.8.0.8.0.0.0.8.t.s.g.f.E.%X%X%X%X%XE.g.g.r.R.oX#X+X+X+X+X.XZ..X.XB..X*X#Xn.m.x.b.z.( ~ / ",
"_ ) E U ^ c.Q.o.} G 1 k $.6.q.0.8.8.8.0.8.0.0.8.-.$.i. XR.R.E.E.E.E.E.R.g.s.>.1.t.M.+XOX+X+X+XOXOX+XOX@X:X*X|.m.m.z.^ ! ~ / ",
"_ W E U C ! D.o.{ G S k $.6.0.0.0.0.8.8.y.9.7.6.$.w r.E.i.i.i.t.r.i.i.i.a.a.,.w @.1.B.OX+X+XOX+X+XOX+X@XxX-X/.c.z.Y B U / ~ ",
"_ _ T Z C C ..o.{ G < k $.-.0.0.8.8.9.y.0.7.-.#.>.#.t.E.t.t.i.i.a.i.i.i.a.a.1.,.#.>.&.B.OX+X+XZ.OXZ.OX=XSXiX/.[ J x v ! ( / ",
") Q T U C N X.o.{ G < k $.6.0.0.8.y.8.q.8.*.#.>.<.#.t. Xi.a.i.i.i.i.a.a.a.a.<.>.<.<.&.<.M.+X+XC.C.C.C.=XAXyXW...l l V ! / / ",
"_ _ E U Z C P o. .G < k $.6.0.0.8.0.0.7.&.#.<.<.<.@.t. Xt.s.a.s.a.s.p.a.s.s.<.>.&.<.&.>.<.8.@XBXpX;X;XxXAXiXfX[.l x I ~ / ~ ",
"_ _ E T U U L |  .G < k $.6.0.0.0.8.7.&.#.<.<.<.<.#.t.g.r #.#.>.>.>.>.>.>.,.w #.<.<.<.<.#.%.p.yXBXBXxXxXSX-XvXrXb b ! / / / ",
"_ _ ) E U U L }  .G < k $.6.0.0.8.6.<.$.<.<.<.<.*.%.r.1.> > 4 e > 4 > 4 > > t #.*.<.<.<.<.>.@.4.pXBXvXxXAX&XVXzXV I ~ ( ~ / ",
"_ _ _ _ / ^ L }  .G < k $.5.q.8.6.&.$.<.<.<.<.<.<.*.,.u 7 7 8 8 8 8 8 8 8 8 8 ,.<.*.<.<.<.<.<.#.4.$XvXVXAX&XVXzXU ~ / / ~ / ",
"Q W _ W Q Q P }  .G S k $.6.q.6.$.>.<.<.<.<.<.<.*.y u f f f d d a d d d d d f 9 t *.*.*.<.<.<.<.%.-.XXvXSX&XBXzX~ ~ ~ ~ ~ ~ ",
") ) E ) _ _ P X. .G S k $.6.*.&.$.<.<.<.<.<.*.<.y a K.>X<X<X1X1X<X<X<X<X<X<X2XI.f t <.*.*.<.<.<.$.%.-.|.vX%XVXmX~ / / / ) / ",
"/ ^ / ) ) ~ P X.{ G S k $.*.$.>.<.<.<.<.<.*.<.y i J.>X3XeXeXeXeXeXeXeXeXeXeXeX8X>Xp t >.*.*.<.<.*.&.#.-.|. XBXmX) ) ) ) ) ) ",
"/ ~ / ! ~ ~ P X.{ G S k $.>.<.<.<.<.<.<.*.>.y 9 K.>X4XqXeXfXeXdXsXdXdXdXsXgXgXgX9X>X0 i ,.*.*.&.<.<.<.$.%.w.vXmX_ _ W Q ) _ ",
"~ / / / ~ ~ P X.{ G < 5 +.w *.<.<.<.<.*.%.y 0 P.<X2XwXkXjXfXhXhXhXhXjXfXhXjXkXhXgXeX>Xf i ,.-.*.<.<.<.<.&.w lXmX` W ` W ) ` ",
"/ / / ~ ~ ~ P X.{ G S 5 ,.#.<.<.<.<.*.>.9 f I.1X4X7X9XfXfXfXeXfXfXfXfXfXfXfXfXfXfXgXwX1Xf i y *.*.<.<.<.*.w lXmXW W ) ` ` ` ",
"/ / ~ ~ ~ / ..X.{ G S 5 @.>.<.<.*.*.,.u f I.2X8X8X5XT.W.5X5XW.W.U.W.U.U.U.U.U.U.5XfXkXwX<XK.u t *.*.<.<.*.w cXMX` W W ) W _ ",
"/ ~ ~ ~ ( ~.Q.X. .G S 5 @.r <.*.<.,.i f I.2X8X9X5XU.s s a a i a L.W.a 8 u u 8 a L.5XfXjXsX<XK.p y <.*.<.*.w lXMXm.' ` W _ _ ",
"/ / ! / ~.{.Q.o.{ G S k @.#.<.&.,.a f >X3X8X8X5XL.s 7 ; ; : ; , g yX6 $ ; : ; , u L.5XfXhXsX2XK.p y <.<.*.%.lXMXm.m.` W W _ ",
"/ ~ ~ ( ].~.Q.o.{ G < k @.@.&.y p J.>X3X9XwX5XA.a 8 ; $ = = $ ; d yX, $ - ; ; ; , u H.U.dXjXdXwXI.p t >.6.w cXMXm.(.c.` W _ ",
"/ / ! ( ].b.D.X. .G S 5 t t t p K.>X2X8X9XaX1Xu u , $ o O o X + d yX$ . o o o @ ; , s H.wXkXsXsX8XI.a t t e kXNX(.).v.' R _ ",
"/ / I U c.!.Q.O.{ G S 3 9 f K.I.>X2X8X4X9XdX1X8 8 7 @         X f yXO .       + $ , s f dXkXsXeXeXqX>XJ.L.g nXNX(.(.[ ) Q _ ",
"/ / I V ! z.^.D.H H D 3 9 I.>X<X2X8X8X7X9XaX1Xu d H.u : : : , 7 g yXu $ ; ; ; 6 8 u a H.aXkXaXeXeXgXeXeXaX,XZXMX(.z.^ E Q _ ",
"/ / I b n J D.|  .G h 3 p I.<X2X2X4X8X8X9XaX1Xi L.U.W.5X6X6X6X6XU.6X6X5XU.T.U.U.U.H.i H.dXkXsXeXeXsXjXbXnX0XZXMX[ ! U E ` _ ",
"/ ~ Z b z n L  .{ G h 3 p P.>X1X2X4X8X4X9XaX1Xi a 8 8 9 9 8 8 p L.6X9 , 8 7 8 7 , , a H.sXkXaXeXeXgXjXjXbX0XZXzXm N Z T ` ` ",
"/ / I b c z H {  .G h 3 p P.<X1X1X4X8X7X9XaX2Xu 8 8 $ X X o . + a 6X+ . X X X @ ; , s H.sXkXsXeXeXgXgXkXbX3XZXmXm m U E ` Q ",
"/ / I b b c H {  .G S 3 9 P.>X1X2X4X8X8X9XaX2Xi 8 8 @         o p 6XO         + = , s H.sXkXsXeXgXgXjXjXbX3XZXzXN Z / _ _ _ ",
"/ ~ ~ V b b N {  .G h 2 p P.<X1X2X4X7X4X9XsX2Xi 8 , @ . . .   O a 6X+   . . . + $ : s H.dXkXsXaXeXgXgXkXbX4XnXzXJ U E ` Q Q ",
"~ ( / ! V b L {  .G h 3 0 I.>X1X1X7X8X8X9XaX2Xi i 8 ; = - = $ ; g 6X: $ - - = : : , s H.sXkXsXwXeXgXjXjXbX0XjXrXY E _ _ _ _ ",
"~ ~ / / ! I K  .{ G h 3 p I.<X1X2X4X8X4X9XaX2Xs <XI.<X9X4X8X8X8X8X9X4X2X4X9X4X1XT.K.u A.dXkXsXeXeXgXjXjXbXqXY.[ E _ _ Q _ _ ",
"~ ~ / ~ ~ ~ P .. .G h 3 p I.>X1X1X4X8X7X8XeX2Xd A.H.H.H.H.H.H.H.H.H.K.H.H.H.H.H.H.H.A.I.eXgXeXeXeXgXgXjXbXqXY.) _ _ _ _ _ Q ",
"/ / / / / ~ P ..{ G D 3 p I.>X<X2X4X8X8X8X9X9X4X4X4X2X2X4X4X4X2X2X2X2X2X2X4X8X8X4X4X9XaXsXsXsXsXgXgXjXbXnXeXQ.) W E _ _ _ _ ",
"/ ~ / ~ ~ ^ P .. .G D 3 p P.<X1X4X8X8X0X8X7XqXdXdXeXdXdXdXdXdXdXdXdXdXdXdXhXjXjXjXjXjXgXeXqXwXwXwXeXeXhXbX0X^.' _ W W W ` W ",
"/ / ~ ~ / !.Q.O. .G S 3 0 I.<X1X1X1X<X<X<X2X<X<X<X<X<X<X<X<X<X<X<X<X<X<X<X<X<X1X1X<X1X<X1X3X1X1X1X1X3X1X3X3XY.(.k.' W W W ` ",
"/ ~ ! / !.{.Q.O.{ G F 3 7 A.J.G.G.G.G.G.G.G.G.G.J.G.G.G.G.G.G.G.G.G.G.G.G.G.J.G.G.G.G.G.J.G.G.G.J.J.G.G.F.I.^.).).v.` W W W ",
"/ / ! ( ].~.Q... .H H F * & * & & & & & & & & & & & & & & & & & & & & & & & & & & & & & * * & & * * & 1 j l.).(.).m.x.) E ` ",
"/ / ! ( {.b.Q.X.} H H G F S D D S D D D D D D S D D D D F D D D D < D D D D D D D D D D D D D D D D D j K (.(.(.(.).v.' E _ ",
"/ / U ~ ~.v.l.X.X.{ | {  . . . .{ | { { { { { { } { { } | H } { } { | | } { { { { { { { { { { { {  .P !.(.).(.(.(.(.c.) R _ ",
"/ / Z V ~ c.!...| X.o.o.X. .X.X.X.X.X.X.X.X.X.X.X.X.X.X.X.X.X.X.X.X.X.X.o.o.X.X.O.O.o.o.X.X.X.X.o.P ] !.).).(.(.(.v.( ) Q _ ",
"/ ~ I b B ~ !.!.[ Q.] ] K ] ^ ] ^ ] J ] Q.Q.Q.Q.Q.l.] P ] P ] ] ] P ] ] l.] ] ] Q.Q.Q.Q.Q.Q.Q.] ] J Z / !.!.!.!.c.! U W ` _ ",
"/ / I c c v C J Z J Z n b ! ( ~ ~ I b n C J J K ! J n b ( ( / ( _ ^ U Z J J J J ^ J J K ( k._ _ ^ C C C J J J J J C Z E _ _ ",
"/ / I b c l x x x x z l x ! ~ ( ! V c x z z x x z z x c / ~ / ` Q T U C N N N N N N N C E ` Q Q Y Z C N m m m m N N Z E _ _ ",
"/ / ! b c c l l l l l x M ! / / ! I b b x l l l z z c B / ~ / ` W T U Z C N N N N N N Z W _ W ` Y U Z A N N N N N C T W _ _ ",
"/ / ! V b b b c c c b b I / / / ~ ~ b b b b c c c c M U / ~ / ) W W Y U U Z C C C Z Y E W ` _ _ E Y U Z Z C B Z Z U E _ _ _ ",
"/ ~ ~ ! M b b b b b b I ! / / / ~ ~ I b b b V b b M I ~ / / / _ W _ E T U U U Y Z Y Y Q Q Q _ _ Q Y Y U U U U U Y T W _ Q Q ",
"/ / / ~ ! I I b b V U ~ / / / / ~ ~ ~ I V V b M I I ~ / / / / _ Q W _ T Y Y U U Y E E Q _ _ W _ _ W T Y Y U Y Y T _ _ _ W Q ",
"~ ~ / ~ ~ ~ I I I ! ~ / ~ ~ ~ ~ / / / ~ ~ I ! I U ~ / ~ / ~ / ) W Q _ W Q E E E E E k.Q W Q Q Q Q Q W E E E E E W Q W W Q Q ",
"/ / ) ~ ~ ~ / ) ( ( / / / / / ~ ~ / ~ ( / ) / ( ( ~ / / ~ / / _ ) _ _ _ _ _ W Q E _ E E ) _ ) ) _ _ ) _ ) _ _ Q _ ) _ W _ W ",
") ) ) ) ) ) ) ) ) ) ) ) ) ) ) ) ) ) ) ) ) ) ) ) ) W ) ) ) ) ) ) / / / / ) ~ / / / / / / / ~ ~ ~ / / / / / / / / / T / / / / "
};
