/* XPM */
static char *_8e55c77f5a841e4dc285a550173bc09IWHlLYhiM9NlaUib[] = {
/* columns rows colors chars-per-pixel */
"62 73 241 2 ",
"   c #000000",
".  c #0B0A08",
"X  c #17140F",
"o  c #221E15",
"O  c #2B251B",
"+  c #30291D",
"@  c #342D21",
"#  c #393123",
"$  c #5F0E02",
"%  c #771506",
"&  c #463B2B",
"*  c #584B35",
"=  c #584C36",
"-  c #7E5F2E",
";  c #66563C",
":  c #447F27",
">  c #437B28",
",  c #6B7729",
"<  c #6C5C43",
"1  c #795D43",
"2  c #77664A",
"3  c #6C7240",
"4  c #776952",
"5  c #890F00",
"6  c #891402",
"7  c #9A1601",
"8  c #A41A02",
"9  c #A81801",
"0  c #B71B01",
"q  c #972810",
"w  c #BA2509",
"e  c #B12A10",
"r  c #AB351D",
"t  c #B7371C",
"y  c #B9351C",
"u  c #B5391D",
"i  c #973E28",
"p  c #AC3B23",
"a  c #B53921",
"s  c #B53A21",
"d  c #C91E01",
"f  c #C92A0D",
"g  c #C63619",
"h  c #CB3C1D",
"j  c #D63718",
"k  c #DE3A1B",
"l  c #E23919",
"z  c #D23C20",
"x  c #924A17",
"c  c #8C541F",
"v  c #8E591D",
"b  c #B2491C",
"n  c #94751B",
"m  c #A4741D",
"M  c #9B4D33",
"N  c #915330",
"B  c #A8442A",
"V  c #BD4225",
"C  c #A14C32",
"Z  c #BD4C30",
"A  c #B57024",
"S  c #D6411D",
"D  c #DA431D",
"F  c #C7531F",
"G  c #E3431D",
"H  c #C64729",
"J  c #D7532B",
"K  c #E54822",
"L  c #E65737",
"P  c #EC5931",
"I  c #C86E30",
"U  c #ED6D39",
"Y  c #F56A33",
"T  c #F4673D",
"R  c #F7763D",
"E  c #805A41",
"W  c #995C42",
"Q  c #8B6A4D",
"!  c #85714E",
"~  c #887555",
"^  c #8B7A5D",
"/  c #937C59",
"(  c #A36B50",
")  c #8A7D61",
"_  c #9B7B61",
"`  c #DF5B40",
"'  c #E35D42",
"]  c #E96447",
"[  c #F67444",
"{  c #FF7E42",
"}  c #F2724F",
"|  c #4C821F",
" . c #759413",
".. c #4FA203",
"X. c #52A506",
"o. c #55A708",
"O. c #55A909",
"+. c #59AE0A",
"@. c #5DB40B",
"#. c #5EAB15",
"$. c #5FAB18",
"%. c #5EB212",
"&. c #60B70D",
"*. c #61B90E",
"=. c #61AC19",
"-. c #6DAE1D",
";. c #65B717",
":. c #64BB13",
">. c #65B41B",
",. c #6ABC1C",
"<. c #7DB01B",
"1. c #478225",
"2. c #4F8423",
"3. c #538923",
"4. c #538826",
"5. c #5D8431",
"6. c #5F8E33",
"7. c #5F9032",
"8. c #618936",
"9. c #649833",
"0. c #6CBC22",
"q. c #69BC2D",
"w. c #75BD2B",
"e. c #6EAA32",
"r. c #76B739",
"t. c #68C31A",
"y. c #6CC31C",
"u. c #70C61D",
"i. c #73CC1E",
"p. c #72D517",
"a. c #76D41E",
"s. c #78D61F",
"d. c #7AD81F",
"f. c #6DC521",
"g. c #6EC924",
"h. c #74C627",
"j. c #70CB25",
"k. c #75CC2A",
"l. c #77D420",
"z. c #79D720",
"x. c #7AD821",
"c. c #7CD32B",
"v. c #7FDA2A",
"b. c #7AC635",
"n. c #7ED232",
"m. c #6E9C43",
"M. c #709E45",
"N. c #719C49",
"B. c #71A143",
"V. c #78AD46",
"C. c #76A54A",
"Z. c #78A84A",
"A. c #8E8E1A",
"S. c #AC9231",
"D. c #93A124",
"F. c #93AD2C",
"G. c #A6AC38",
"H. c #D28C39",
"J. c #80D22F",
"K. c #81DA2C",
"L. c #88C833",
"P. c #82D435",
"I. c #86DA37",
"U. c #8CDB36",
"Y. c #85D53C",
"T. c #8CDD3A",
"R. c #96D538",
"E. c #91DD3B",
"W. c #A3C33A",
"Q. c #8DE03E",
"!. c #96835E",
"~. c #8ABE4E",
"^. c #ACBC52",
"/. c #8D8866",
"(. c #968466",
"). c #9A896B",
"_. c #98926D",
"`. c #9C8D72",
"'. c #9E9976",
"]. c #999278",
"[. c #AA9470",
"{. c #A69379",
"}. c #A49479",
"|. c #AB9A7C",
" X c #ABA779",
".X c #C68444",
"XX c #F78041",
"oX c #FF8243",
"OX c #FA845A",
"+X c #EF8061",
"@X c #FE8C64",
"#X c #FD9568",
"$X c #FF9D6E",
"%X c #FE9C73",
"&X c #E4AE68",
"*X c #FFA579",
"=X c #FFA67B",
"-X c #86C646",
";X c #8CD943",
":X c #95DB47",
">X c #94D153",
",X c #A4CE49",
"<X c #8FE141",
"1X c #91E243",
"2X c #99E34B",
"3X c #9DE454",
"4X c #A8E45C",
"5X c #9DC262",
"6X c #ABE864",
"7X c #B4ED71",
"8X c #A69981",
"9X c #AD9D82",
"0X c #B19F89",
"qX c #ACA587",
"wX c #B2A38B",
"eX c #B8A989",
"rX c #BAAA93",
"tX c #BBAB93",
"yX c #BDB095",
"uX c #C1AC99",
"iX c #C3B39C",
"pX c #C8B698",
"aX c #FFAB81",
"sX c #FFAE88",
"dX c #FFB18B",
"fX c #FFB592",
"gX c #FEBC9A",
"hX c #CABCA5",
"jX c #D2B8B0",
"kX c #FFBFA2",
"lX c #FFC09F",
"zX c #CFC1A7",
"xX c #CDC1AB",
"cX c #D3C5AC",
"vX c #D5CAB4",
"bX c #D9CDB6",
"nX c #DED2BA",
"mX c #FFC1A4",
"MX c #FFC6A9",
"NX c #E4DAC6",
"BX c #E8E0CC",
/* pixels */
"z.z.z.z.z.z.z.z.z.z.z.z.z.z.z.z.z.z.z.d.z.z.z.s.z.z.z.z.z.z.z.j.g.j.j.j.j.j.j.j.j.j.j.j.j.g.j.j.g.j.g.j.j.j.g.j.g.j.j.j.j.j.",
"z.z.d.z.z.z.z.z.z.z.z.z.z.s.z.z.z.z.z.z.z.z.z.z.z.z.s.x.z.z.l.j.g.j.j.j.j.j.j.j.j.g.g.j.j.j.j.j.j.j.j.j.j.g.j.j.j.j.g.j.g.j.",
"z.z.z.z.z.a.z.z.s.s.s.s.z.z.z.z.s.z.z.z.s.s.s.s.s.s.z.z.z.z.z.j.j.j.j.j.g.g.g.g.g.g.j.j.j.j.j.j.j.j.g.g.g.g.g.g.g.g.j.j.g.j.",
"d.z.z.z.z.a.z.x.s.z.s.s.s.z.s.z.z.z.z.s.s.z.s.z.s.s.s.z.z.z.z.j.g.j.g.g.g.j.j.j.g.g.i.j.g.j.g.j.j.j.g.g.j.j.g.h.g.g.j.j.j.j.",
"z.z.s.z.d.a.z.z.z.x.s.z.s.z.z.z.s.s.d.s.v.K.K.K.v.x.s.a.z.z.l.j.g.g.g.g.j.b.c.c.c.h.j.g.j.g.g.j.g.g.g.j.n.c.c.c.j.g.j.g.j.j.",
"z.z.s.s.p.v.v.K.v.v.x.z.s.d.z.s.s.s.p.v.3X3XQ.<XQ.Q.v.a.s.d.x.l.g.g.i.v.;X3XU.U.U.I.c.j.g.j.j.j.j.f.n.3X:XU.U.U.Y.c.g.g.j.g.",
"z.z.d.a.s.3X2X<X<X<XQ.v.z.s.x.s.s.a.v.6X3X1X<X<X<X<XI.c.D.A.A.A.A.A.D.!.S.D.L.U.E.E.U.n.j.g.g.j.f.n.>X4XU.U.U.U.U.U.k.g.g.j.",
"z.z.p.v.3X6X2X<X<X<X<X<Xv.z.s.z.s.d.Q.7X2XQ.<X<X;XR.G.S.A I I A A A I I .XH.^.,XR.Q.U.I.k.g.j.j.t.;X4X2XU.U.U.E.U.E.P.k.g.j.",
"d.z.p.K.7X3X<X<X<X<X<X1X<Xv.l.z.a.K.U.3X:XQ.Q.<XL.S.A K T OX%X%XaX%X#X%XaXfXgX&XG.R.Q.E.k.g.g.j.0.;X:XU.U.U.U.T.U.E.;Xk.f.g.",
"z.d.p.K.6X<X<X<X<X<X<X1X<Xc.s.z.a.a.i.E.1XQ.<X-Xm Z k K T @XsX=XaXaXaXsXfXmXMX=XR A G.Q.k.y.j.g.t.k.U.T.U.U.U.T.U.E.P.k.g.g.",
"z.z.p.j.;X<X<X<X<X<X<X1XI.v.s.z.d.i.t.<.E.:X,XG.Z S G K T @XaXaX=XaX%XsXfXmXMX$XY D S.D.i.j.h.h.:.:.f.;X2X1X;X<XE.P.u.f.j.g.",
"z.z.j.f.f.n.:X:X1X2X1Xn.j.i.d.x.d.i.:.@.F.G.G.H.J D k K T @XaX=X%X=X=XaXfXmXmX=XY G F A.D.k.j.u.:.+.%.h.;XP.;Xn.c.>.;.,.j.g.",
"z.z.a.,.>.f.n.P.n.b.n.h.,.i.z.z.p.,.-., c b B x H S j G T @XaX=XaX=X=XaXfXkXmX%XY K P J A G.J.i.:.+.O.#.;.0.@.%.%.+.%.f.k.j.",
"z.d.a.,.>.>.0.0.0.0.0.>.>.l.z.z.K.p. .x q q % % B g j G T @XaX=X=X=X%XaXfXkXmX$XR D P P K I A.c.&.@.+.....X.X.X.X.X.%.f.j.j.",
"z.z.i.y.>.=.$.$.$.#.$.$.;.l.z.z.p.J.n q 5 5 % $ q g l l T @XaX=X=X=X=XaXfXkXkX%XY D U T P K H.G.,.*.@.+.O.X.O.O.+.+.t.g.j.j.",
"z.z.i.u.y.>.=.$.$.$.$.>.i.z.z.z.K.L.m e 6 7 6 % r f j G T @XaX=X=X=X=XaXfXkXMX%XY D U R XXR Y H.D.*.@.@.@.@.@.@.@.%.g.j.j.j.",
"z.z.z.i.y.,.y.,.,.,.,.u.i.z.d.d.<.m H e 5 7 5 6 s z j l T @XaX=X=X=X=XaXfXgXmX$XU D ] oXoXoXoXXXH.D.,.&.@.@.@.@.t.t.g.j.j.j.",
"z.z.z.d.z.z.a.i.u.y.u.y.u.u.d.<.n g k g 8 8 8 7 g j j l T @XaX=X=X=X=XaXfXmXmX*XR P R oXoXoXoXoX{ H.D.,.t.:.*.t.t.g.j.j.j.g.",
"d.z.z.z.x.s.x.a.i.y.i.i.i.i.L.A.b e h K k k k j j f f G T @XsX=X=X=X*XaXfXmXmX%X[ R R oXoX{ oXoXoXXXH.F.y.y.g.g.g.l.g.j.g.j.",
"z.z.z.z.s.x.z.x.a.l.l.z.z.s.A.b e 7 w j z k l l d 0 w G T } aX=X*X*X*X=XdXmXmX$X{ { R oX{ oXR { oXoX{ H.F.g.g.g.g.g.j.j.j.j.",
"z.z.z.s.z.s.z.z.z.l.s.z.d.d.m b g 8 8 w y f f l 0 9 0 G ] @XdXaXaXaXaXsXfXmXmX$X{ R oXoXoXoX{ { oXoX{ U F.c.c.k.j.g.g.g.j.g.",
"z.z.z.s.z.x.s.a.x.v.v.v.K.d.n b g 9 7 7 9 9 0 d 8 8 w G [ %XkXgXfXgXgXgXgXmXmX%X{ { { { oXR oX{ oXoX{ [ ,XI.K.U.n.k.g.g.j.j.",
"d.z.s.d.z.x.s.s.1X1X<XI.Q.0.v V g 9 9 8 9 9 0 d w f l l ] %XMXkXgXkXgXkXmXlXMX=XoXoX{ { oX{ oXoXoXoXR [ W.U.E.E.U.I.k.g.g.j.",
"z.z.p.z.z.p.s.:X6X2X<X;Xb.3.v b g w 9 9 9 9 9 d h j K K T } #X@X#X#X#X#X#X#XsX#XoXoXR oX{ { { oXoXoX{ [ W.I.U.U.U.U.n.k.g.j.",
"z.z.p.z.x.p.K.6X4X1XI.r.6.> c V h j w 9 8 7 8 w D D D K P T Y Y Y Y Y Y Y Y OXOXoXoXoXoXoX{ oXR { { [ [ W.U.U.U.U.Q.Y.k.g.g.",
"z.z.p.z.s.p.K.7X1XI.V.N.6.: c u h j f 9 7 8 w g D S D J ' ] ] } OX} +X] ] ] J U oXoXoXoX{ oX{ { { { { [ W.E.U.I.E.E.Y.k.f.g.",
"s.d.a.x.d.a.z.;X:X-XV.C.6.1.v u h S g f w g h S S S H H ' ] ' } } +X+X] ] ' S J U oXoXoX{ R oX{ { oX{ [ ,XE.<X<XE.P.h.g.g.j.",
"x.s.j.z.s.i.u.h.;X-XC.e.6.1.c u h S D h j S D S S y r u H L ` ' ] ] ] L ` L H u J [ oXoX{ oXoXoX{ oX{ T ,XY.Y.Y.P.u.:.y.j.j.",
"s.x.i.x.x.i.u.>.h.V.Z.m.6.: c u h S D D D D S S u r p u j k k k l j j l k j g s s J [ oX{ { { oX{ oX{ [ D.f.0.0.,.+.%.t.k.j.",
"x.s.i.z.x.i.,.=.t.V.Z.m.6.: c u h S S S D S S g u s s s j l l l l l l l l l g s s s J XXoXoX{ { oXoX{ T  .X...X.X.O.%.f.j.j.",
"s.x.a.z.s.a.y.>.$.e.Z.B.6.: c u h S D D S S V u s s s s z l k k k k l l k k g s s p V J [ oXoXoX{ oX{ ]  .X.X.X.X.+.t.g.j.j.",
"x.s.a.z.x.i.u.,.>.V.Z.N.6.: c u h S j D S y u r s s V u g g g f g f g g g g s s s s u Z J XXoXoXoXoX{ U -.+.+.@.@.@.f.j.j.j.",
"x.z.s.z.z.a.u.u.,.r.C.m.7.: v u h S S h a s s s a a p s i i i i i i i i i i s s a a a a a L U [ { oXoX[ <.%.@.@.t.t.g.j.j.j.",
"s.z.z.z.z.x.i.u.u.e.N.B.7.1.c t h S S y s s s a a a a p E 1 1 - E E E E 1 E M p a a a a u V F L XXoX[ [ F.0.%.:.t.g.j.g.j.g.",
"s.s.s.x.z.x.s.a.u.e.N.B.6.: v t h S H u s s s a a a p W ^ ) ) /.) ^ ) ) ) ) Q W a a a a V r u H oXoX{ [ ^.b.f.g.g.g.g.g.k.g.",
"z.z.z.s.s.s.s.s.z.r.C.9.6.: v t h y u s s s s s a p W ~ {.wX9X|.8X0X8X8X0X8X_ Q M a a a u p s V L { [ [ :X;Xg.g.g.g.l.g.g.j.",
"j.j.j.s.a.z.z.s.l.r.C.M.7.> c r y u s s s s s p M ( _ ].pXpXpXiXiXiXiXiXuXiXrX8X_ W C p a a a a V I L } x.I.l.l.l.l.l.x.x.x.",
"h.g.j.j.j.j.j.j.j.r.C.M.7.: c r r s s s s y s M ) ].wXrXzXcXcXcXcXcXcXcXjXvXxXhXwX).Q B g a a a u r h L x.l.d.d.z.z.z.a.d.d.",
"j.j.j.g.g.g.g.g.g.r.C.M.7.: c r u s s s g y p W `.qXtXhXbXnXnXnXnXnXnXnXnXnXbXvXhXwX_ C a y a a s s y Z x.x.l.a.z.z.z.z.d.x.",
"g.j.j.j.j.j.j.g.j.r.C.M.5.> - p r s s u B B W ).wXtXuXtXpXzXzXzXhXhXpXhXhXhXhXhXhXhX0X_ M B s s s s e Z l.x.a.x.a.s.d.x.l.l.",
"j.j.k.g.g.j.j.g.j.r.C.m.7.1.x q u s s p W Q _ 0XpXpXuX[.[. X|.|.|.|.[.`.[.{.[.eXpXbXcX|._ E C p u s t H z.z.K.K.x.s.z.z.z.z.",
"g.j.g.j.g.j.g.g.h.r.C.m.6.1.- r s u B M ~ ].wXtXpX X[.( 2 1 1 ; ~ / < ; ; ; ! !.[.pXcXzXwX/.Q M s s r Z z.z.<X;XI.v.z.z.z.z.",
"j.g.y.j.g.g.g.k.:X~.C.m.6.1.c r r y p ( ].qXtXyX X[./ 2 ; * * * 2 ~ ; * * * ; 4 [.|.pXcXiXqX).N y y t Z z.K.<X1X<XQ.x.z.a.z.",
"j.j.y.g.j.f.k.;X4X-XZ.M.6.> - M M B W ).wXyXuXeX[./ 2 ; @ O + O < ! # + + # & ; Q !. XpXvXhXqX_ C B B W x.Q.<X<X<X1XI.x.s.z.",
"j.j.f.j.j.g.k.4X:X-XC.M.8.: 3 4 ~ ^ ).wXiXtXtX8X/ 2 ; = X       * < .     . + * - ! ).tXbXxXxXrX) ) ) /.>X2X<X<X<X1XI.x.s.s.",
"j.j.t.g.j.y.k.6XE.-XC.M.6.2.3 ) ].8XwXtXhXhXyX9X/ ~ ! 2 & + @ @ 2 ~ & # O # * < 2 ! ).tXbXxXhXhXrXrXrXqX>X<X<X<X1X<XP.c.a.s.",
"j.j.y.g.j.y.y.Y.<X-XZ.m.8.2.3 ) 9XwXrXiXiXiXuX9X/ ~ ^ ~ 2 < 2 4 !.)./ 2 1 2 4 ~ ! ! ).rXbXxXhXxXcXnXvXeX>X<X1X;X<XP.j.l.d.z.",
"j.j.t.j.j.t.:.g.-X>XZ.e.7.| 3 ) {.wXtXuXiXhXyX9X/ ~ ~ ! ~ ~ ~ / (.).!.~ ~ ~ ! ! ! ! ).rXbXxXhXxXbXBXnXeX>XY.;X;Xn.f.y.a.x.s.",
"j.j.t.j.j.t.@.%.f.~.Z.M.7.2.3 ^ {.wXrXiXiXiXtX|.!.! ; ; @ o o X < 4 @ o o O & * ; ! ].rXbXxXhXxXvXNXnXeXe.>.>.>.>.=.,.i.x.z.",
"j.j.,.j.j.t.@.O.O.e.B.B.7.2.3 ^ {.wXtXuXiXpXiX9X!.2 ; * X       & < .       O & ; 4 ).rXbXxXhXvXvXNXbXqX-.=.=.=.=.=.y.s.x.d.",
"j.j.t.j.g.t.@.+.X.9.B.B.6.| 3 ^ {.wXeXuXiXiXtX9X!.! 2 ; o X X . ; 4 o X X X # * ; ~ ).rXbXhXhXxXvXNXvX Xe.=.=.>.=.>.i.z.z.z.",
"j.j.f.j.j.t.@.@.+.9.m.B.6.| 3 ) {.qXrXuXiXhXuX9X!.~ 4 1 4 4 4 2 ) ).4 4 4 4 4 4 2 ! ).yXbXxXxXxXbXNXvX Xw.,.>.>.,.u.s.d.z.z.",
"g.j.j.j.k.f.t.@.%.-.N.M.6.| 3 ^ {.wXrXiXiXiXtX|.^ !.).(.`.{.{.{.{.{.{.}.{.}.).(.!.2 !.yXvXhXhXxXbXNXvXqXk.f.y.i.i.a.z.z.z.z.",
"j.j.j.g.g.g.f.%.&.e.M.N.6.| 3 ) {.0XrXuXiXhXyX|.(.).{.{.|.9X|.9X9X8X9X9X9X9X{.|.).~ ).yXvXxXxXcXvXNXnXqXb.f.y.i.i.z.z.z.d.z.",
"g.j.g.j.g.g.j.g.;.e.C.e.7.: 3 ^ {.wXrXiXiXiXiXrX|.{.{.{.{.{.{.{.{.{.{.{.{.9X9X9X9X9XeXhXxXxXxXcXbXnXBXjX~.a.a.z.s.z.z.z.z.z.",
"j.j.j.j.j.j.j.j.i.r.N.e.6.: 3 ) {.wXrXtXuXiXyXrXrXrXrXeXtXeXtXtXeXrXrXeXrXyXyXuXyXiXyXiXiXhXhXxXvXvXnXxX~.K.s.z.s.z.d.z.z.z.",
"g.j.j.g.g.g.g.g.g.r.V.m.6.2.3 ^ {.wXwXrXwXwXrXrXrXrXrXrXrXtXtXtXtXrXrXrXrXrXrXtXtXrXrXrXwXeXtXrXeXrXrXuX5XQ.Q.x.s.s.z.z.z.z.",
"k.j.g.g.g.h.g.g.l.r.V.M.6.| 3 4 _.'.{.'.'.}.'.'.'.'.'.'.}.'.'.'.'.}.'.'.'.'.'.}.'.{.'.'.}././././././.{.>XQ.Q.Q.x.s.z.z.z.z.",
"g.g.g.g.j.g.g.g.Y.-XC.M.7.| 8.5.8.8.8.6.8.6.8.8.8.8.5.8.6.8.8.8.8.8.8.8.8.8.8.8.8.8.8.8.8.8.8.6.8.8.7.Y.:X<X1X1XI.x.z.z.a.z.",
"j.j.y.j.g.g.g.;X6X-XZ.B.7.3.7.3.4.3.3.3.3.3.4.3.3.3.3.3.4.4.4.4.3.3.3.3.3.3.3.3.3.3.3.4.3.3.3.2.2.4.| 9.<X<X<X1XT.x.a.z.a.z.",
"g.j.f.g.g.f.k.4X:XY.V.B.9.9.6.3.2.2.2.2.2.2.2.2.2.2.2.2.2.2.2.2.2.1.2.2.2.2.2.2.2.2.2.: 2.2.4.M.r.Y.1X<X<X<X1X1XY.x.d.z.1Xz.",
"z.j.f.g.j.f.k.6XT.-XV.C.B.m.N.N.N.N.M.m.m.N.m.m.m.m.m.m.m.m.m.m.m.N.m.N.m.m.m.m.m.N.m.m.M.C.Z.r.b.;X1X<X;X<X<XI.c.a.d.z.<Xz.",
"j.j.t.g.j.y.g.:X:XY.V.Z.C.B.Z.C.C.C.C.C.C.C.C.C.C.C.C.C.B.C.C.C.C.C.C.C.C.C.C.C.C.C.Z.Z.C.b.b.0.0.j.;X;X;X;XP.f.,.a.x.z.I.z.",
"j.j.t.g.j.t.:.h.;XT.;X-Xb.b.b.b.q.h.b.b.w.w.w.-X-XY.-X-X-Xb.w.b.b.r.b.L.r.b.b.b.b.b.L.-X-Xc.g.,.=.0.0.0.0.0.0.>.,.i.z.z.g.z.",
"g.j.t.g.g.t.@.%.g.>.0.0.0.;.%.%.f.j.k.g.t.@.+.>.0.0.0.0.0.%.%.k.j.k.c.z.j.f.,.0.0.0.0.w.w.s.u.>.>.=.=.=.=.=.=.=.,.a.z.z.>.z.",
"j.j.t.g.g.t.@.+.%.o.o.O.O.O.X.@.t.j.j.f.t.@.o.o.O.O.o.o.o.o.+.j.j.j.a.s.i.,.>.=.=.=.$.$.=.x.i.u.,.>.=.=.=.=.=.;.i.z.z.z.=.z.",
"g.g.f.g.g.t.@.O.X.X.X.O.X.O.O.%.g.j.j.g.t.@.@.+.o.o.o.o.O.+.;.j.g.j.z.s.a.u.,.=.=.=.=.=.=.s.i.u.u.u.;.>.;.;.,.u.a.z.z.z.>.z.",
"j.k.f.g.j.t.@.@.O.@.+.+.+.+.%.t.j.j.j.g.g.@.@.@.+.+.O.+.+.%.f.j.j.j.z.s.a.u.u.u.y.>.>.>.,.x.s.i.u.,.u.,.u.t.u.i.z.z.z.z.y.z.",
"j.j.j.j.k.f.t.@.@.@.@.+.+.@.j.g.g.g.:.%.@.@.@.@.@.@.;.g.g.g.l.l.s.x.i.u.y.u.y.u.u.y.i.z.z.x.z.z.i.u.u.u.u.u.a.z.z.z.z.d.d.d.",
"j.g.j.j.g.g.y.@.@.@.@.@.@.@.j.j.j.j.g.f.:.:.@.%.t.f.g.k.g.g.j.l.s.s.z.a.u.u.u.y.i.i.a.x.z.s.z.z.z.z.i.u.u.u.u.u.i.z.z.z.s.d.",
"g.g.g.j.j.j.j.y.t.@.@.@.t.t.g.g.g.g.j.g.f.f.t.f.t.g.g.g.j.j.j.x.s.s.s.s.a.a.a.a.a.s.d.s.s.s.s.s.x.d.s.a.a.i.a.a.s.s.s.s.d.d.",
"j.j.j.g.g.g.g.j.f.f.y.t.f.f.j.j.j.j.j.j.j.l.j.j.k.g.l.g.g.g.j.l.z.z.z.d.x.d.s.d.s.s.s.s.z.z.z.z.z.z.z.z.z.z.z.z.z.z.z.s.z.s.",
"l.l.l.j.j.j.j.j.k.l.j.j.k.j.x.l.l.l.l.l.l.l.z.z.z.z.l.l.l.z.l.g.j.l.g.j.j.j.j.j.j.j.j.j.j.j.g.g.j.j.j.j.j.j.j.j.j.i.j.j.j.j."
};
